<?xml version="1.0" encoding="UTF-8" standalone="no"?>
<!DOCTYPE svg PUBLIC "-//W3C//DTD SVG 1.1//EN"
 "http://www.w3.org/Graphics/SVG/1.1/DTD/svg11.dtd">
<!-- Generated by graphviz version 2.43.0 (0)
 -->
<!-- Title: DPTree::fit Pages: 1 -->
<svg width="737pt" height="192pt"
 viewBox="0.00 0.00 737.00 191.50" xmlns="http://www.w3.org/2000/svg" xmlns:xlink="http://www.w3.org/1999/xlink">
<g id="graph0" class="graph" transform="scale(1 1) rotate(0) translate(4 187.5)">
<title>DPTree::fit</title>
<polygon fill="white" stroke="transparent" points="-4,4 -4,-187.5 733,-187.5 733,4 -4,4"/>
<!-- Node1 -->
<g id="node1" class="node">
<title>Node1</title>
<g id="a_node1"><a xlink:title=" ">
<polygon fill="#bfbfbf" stroke="black" points="0,-114.5 0,-133.5 66,-133.5 66,-114.5 0,-114.5"/>
<text text-anchor="middle" x="33" y="-121.5" font-family="Helvetica,sans-Serif" font-size="10.00">DPTree::fit</text>
</a>
</g>
</g>
<!-- Node2 -->
<g id="node2" class="node">
<title>Node2</title>
<g id="a_node2"><a xlink:href="class_d_p_tree.html#a468d249a3e55f1527e50daf13e550c79" target="_top" xlink:title=" ">
<polygon fill="white" stroke="black" points="106,-153 106,-183 230,-183 230,-153 106,-153"/>
<text text-anchor="start" x="114" y="-171" font-family="Helvetica,sans-Serif" font-size="10.00">DPTree::add_laplacian</text>
<text text-anchor="middle" x="168" y="-160" font-family="Helvetica,sans-Serif" font-size="10.00">_noise</text>
</a>
</g>
</g>
<!-- Node1&#45;&gt;Node2 -->
<g id="edge1" class="edge">
<title>Node1&#45;&gt;Node2</title>
<path fill="none" stroke="midnightblue" d="M62.86,-133.55C77.16,-138.28 94.94,-144.16 111.72,-149.71"/>
<polygon fill="midnightblue" stroke="midnightblue" points="110.87,-153.12 121.46,-152.93 113.07,-146.47 110.87,-153.12"/>
</g>
<!-- Node4 -->
<g id="node4" class="node">
<title>Node4</title>
<g id="a_node4"><a xlink:href="utils_8h.html#aeeffe725a130b4421d7fc165a4fa2ee3" target="_top" xlink:title=" ">
<polygon fill="white" stroke="black" points="144.5,-114.5 144.5,-133.5 191.5,-133.5 191.5,-114.5 144.5,-114.5"/>
<text text-anchor="middle" x="168" y="-121.5" font-family="Helvetica,sans-Serif" font-size="10.00">clamp</text>
</a>
</g>
</g>
<!-- Node1&#45;&gt;Node4 -->
<g id="edge3" class="edge">
<title>Node1&#45;&gt;Node4</title>
<path fill="none" stroke="midnightblue" d="M66.2,-124C86.75,-124 113.33,-124 134.04,-124"/>
<polygon fill="midnightblue" stroke="midnightblue" points="134.26,-127.5 144.26,-124 134.26,-120.5 134.26,-127.5"/>
</g>
<!-- Node5 -->
<g id="node5" class="node">
<title>Node5</title>
<g id="a_node5"><a xlink:href="class_d_p_tree.html#a07314c44bb7b7ca37c735b70de3ccb9e" target="_top" xlink:title=" ">
<polygon fill="white" stroke="black" points="102,-76.5 102,-95.5 234,-95.5 234,-76.5 102,-76.5"/>
<text text-anchor="middle" x="168" y="-83.5" font-family="Helvetica,sans-Serif" font-size="10.00">DPTree::make_tree_DFS</text>
</a>
</g>
</g>
<!-- Node1&#45;&gt;Node5 -->
<g id="edge4" class="edge">
<title>Node1&#45;&gt;Node5</title>
<path fill="none" stroke="midnightblue" d="M66.2,-114.8C83.53,-109.85 105.15,-103.67 123.91,-98.31"/>
<polygon fill="midnightblue" stroke="midnightblue" points="125.06,-101.62 133.71,-95.51 123.14,-94.89 125.06,-101.62"/>
</g>
<!-- Node3 -->
<g id="node3" class="node">
<title>Node3</title>
<g id="a_node3"><a xlink:href="class_laplace.html#a357965a9024cbdb3866973b5ef22500c" target="_top" xlink:title=" ">
<polygon fill="white" stroke="black" points="270,-153 270,-183 413,-183 413,-153 270,-153"/>
<text text-anchor="start" x="278" y="-171" font-family="Helvetica,sans-Serif" font-size="10.00">Laplace::return_a_random</text>
<text text-anchor="middle" x="341.5" y="-160" font-family="Helvetica,sans-Serif" font-size="10.00">_variable</text>
</a>
</g>
</g>
<!-- Node2&#45;&gt;Node3 -->
<g id="edge2" class="edge">
<title>Node2&#45;&gt;Node3</title>
<path fill="none" stroke="midnightblue" d="M230.43,-168C239.92,-168 249.84,-168 259.67,-168"/>
<polygon fill="midnightblue" stroke="midnightblue" points="259.87,-171.5 269.87,-168 259.87,-164.5 259.87,-171.5"/>
</g>
<!-- Node6 -->
<g id="node6" class="node">
<title>Node6</title>
<g id="a_node6"><a xlink:href="class_d_p_tree.html#ad7f8755be37ad10cf104fba2076dce5e" target="_top" xlink:title=" ">
<polygon fill="white" stroke="black" points="278,-76.5 278,-95.5 405,-95.5 405,-76.5 278,-76.5"/>
<text text-anchor="middle" x="341.5" y="-83.5" font-family="Helvetica,sans-Serif" font-size="10.00">DPTree::find_best_split</text>
</a>
</g>
</g>
<!-- Node5&#45;&gt;Node6 -->
<g id="edge5" class="edge">
<title>Node5&#45;&gt;Node6</title>
<path fill="none" stroke="midnightblue" d="M234.33,-86C245.27,-86 256.68,-86 267.8,-86"/>
<polygon fill="midnightblue" stroke="midnightblue" points="267.9,-89.5 277.9,-86 267.9,-82.5 267.9,-89.5"/>
</g>
<!-- Node8 -->
<g id="node8" class="node">
<title>Node8</title>
<g id="a_node8"><a xlink:href="class_d_p_tree.html#af16f3e0373e606fe42b2104890b2d036" target="_top" xlink:title=" ">
<polygon fill="white" stroke="black" points="610,-52 610,-82 729,-82 729,-52 610,-52"/>
<text text-anchor="start" x="618" y="-70" font-family="Helvetica,sans-Serif" font-size="10.00">DPTree::samples_left</text>
<text text-anchor="middle" x="669.5" y="-59" font-family="Helvetica,sans-Serif" font-size="10.00">_right_partition</text>
</a>
</g>
</g>
<!-- Node5&#45;&gt;Node8 -->
<g id="edge12" class="edge">
<title>Node5&#45;&gt;Node8</title>
<path fill="none" stroke="midnightblue" d="M210.03,-76.49C228.28,-72.72 250.1,-68.86 270,-67 385.2,-56.26 519.96,-59.55 599.55,-63.13"/>
<polygon fill="midnightblue" stroke="midnightblue" points="599.78,-66.64 609.93,-63.61 600.11,-59.65 599.78,-66.64"/>
</g>
<!-- Node11 -->
<g id="node11" class="node">
<title>Node11</title>
<g id="a_node11"><a xlink:href="class_tree_node.html#ae671fa006ebb36f632b46b5aa1ec2899" target="_top" xlink:title=" ">
<polygon fill="white" stroke="black" points="291,-0.5 291,-19.5 392,-19.5 392,-0.5 291,-0.5"/>
<text text-anchor="middle" x="341.5" y="-7.5" font-family="Helvetica,sans-Serif" font-size="10.00">TreeNode::is_leaf</text>
</a>
</g>
</g>
<!-- Node5&#45;&gt;Node11 -->
<g id="edge10" class="edge">
<title>Node5&#45;&gt;Node11</title>
<path fill="none" stroke="midnightblue" d="M185.79,-76.38C205.54,-65.3 239.51,-46.96 270,-34 279.46,-29.98 289.84,-26.14 299.66,-22.76"/>
<polygon fill="midnightblue" stroke="midnightblue" points="300.88,-26.05 309.24,-19.54 298.65,-19.41 300.88,-26.05"/>
</g>
<!-- Node12 -->
<g id="node12" class="node">
<title>Node12</title>
<g id="a_node12"><a xlink:href="class_d_p_tree.html#a3a716a075edfae470e0fe7511634e922" target="_top" xlink:title=" ">
<polygon fill="white" stroke="black" points="273,-114.5 273,-133.5 410,-133.5 410,-114.5 273,-114.5"/>
<text text-anchor="middle" x="341.5" y="-121.5" font-family="Helvetica,sans-Serif" font-size="10.00">DPTree::make_leaf_node</text>
</a>
</g>
</g>
<!-- Node5&#45;&gt;Node12 -->
<g id="edge11" class="edge">
<title>Node5&#45;&gt;Node12</title>
<path fill="none" stroke="midnightblue" d="M212.28,-95.59C235.11,-100.65 263.32,-106.9 287.46,-112.25"/>
<polygon fill="midnightblue" stroke="midnightblue" points="287.01,-115.73 297.53,-114.48 288.53,-108.9 287.01,-115.73"/>
</g>
<!-- Node7 -->
<g id="node7" class="node">
<title>Node7</title>
<g id="a_node7"><a xlink:href="class_d_p_tree.html#ab9426a6ac2e5122e29ecbb6e9c4cd050" target="_top" xlink:title=" ">
<polygon fill="white" stroke="black" points="449,-76.5 449,-95.5 574,-95.5 574,-76.5 449,-76.5"/>
<text text-anchor="middle" x="511.5" y="-83.5" font-family="Helvetica,sans-Serif" font-size="10.00">DPTree::compute_gain</text>
</a>
</g>
</g>
<!-- Node6&#45;&gt;Node7 -->
<g id="edge6" class="edge">
<title>Node6&#45;&gt;Node7</title>
<path fill="none" stroke="midnightblue" d="M405.06,-86C415.99,-86 427.43,-86 438.59,-86"/>
<polygon fill="midnightblue" stroke="midnightblue" points="438.73,-89.5 448.73,-86 438.73,-82.5 438.73,-89.5"/>
</g>
<!-- Node9 -->
<g id="node9" class="node">
<title>Node9</title>
<g id="a_node9"><a xlink:href="class_d_p_tree.html#a7ce368c3888736d660dcf09587df4512" target="_top" xlink:title=" ">
<polygon fill="white" stroke="black" points="454.5,-115 454.5,-145 568.5,-145 568.5,-115 454.5,-115"/>
<text text-anchor="start" x="462.5" y="-133" font-family="Helvetica,sans-Serif" font-size="10.00">DPTree::exponential</text>
<text text-anchor="middle" x="511.5" y="-122" font-family="Helvetica,sans-Serif" font-size="10.00">_mechanism</text>
</a>
</g>
</g>
<!-- Node6&#45;&gt;Node9 -->
<g id="edge8" class="edge">
<title>Node6&#45;&gt;Node9</title>
<path fill="none" stroke="midnightblue" d="M378.95,-95.55C398.12,-100.57 422.21,-106.88 444.52,-112.72"/>
<polygon fill="midnightblue" stroke="midnightblue" points="443.73,-116.13 454.29,-115.28 445.5,-109.36 443.73,-116.13"/>
</g>
<!-- Node7&#45;&gt;Node8 -->
<g id="edge7" class="edge">
<title>Node7&#45;&gt;Node8</title>
<path fill="none" stroke="midnightblue" d="M574.16,-78.49C582.6,-77.46 591.32,-76.4 599.88,-75.36"/>
<polygon fill="midnightblue" stroke="midnightblue" points="600.33,-78.83 609.84,-74.15 599.49,-71.88 600.33,-78.83"/>
</g>
<!-- Node10 -->
<g id="node10" class="node">
<title>Node10</title>
<g id="a_node10"><a xlink:href="utils_8h.html#a35953abcfd9e2310fa2c6d440233fad5" target="_top" xlink:title=" ">
<polygon fill="white" stroke="black" points="629,-120.5 629,-139.5 710,-139.5 710,-120.5 629,-120.5"/>
<text text-anchor="middle" x="669.5" y="-127.5" font-family="Helvetica,sans-Serif" font-size="10.00">log_sum_exp</text>
</a>
</g>
</g>
<!-- Node9&#45;&gt;Node10 -->
<g id="edge9" class="edge">
<title>Node9&#45;&gt;Node10</title>
<path fill="none" stroke="midnightblue" d="M568.82,-130C585.14,-130 602.84,-130 618.73,-130"/>
<polygon fill="midnightblue" stroke="midnightblue" points="618.88,-133.5 628.88,-130 618.88,-126.5 618.88,-133.5"/>
</g>
</g>
</svg>
