<?xml version="1.0" encoding="UTF-8" standalone="no"?>
<!DOCTYPE svg PUBLIC "-//W3C//DTD SVG 1.1//EN"
 "http://www.w3.org/Graphics/SVG/1.1/DTD/svg11.dtd">
<!-- Generated by graphviz version 2.43.0 (0)
 -->
<!-- Title: DPTree::find_best_split Pages: 1 -->
<svg width="451pt" height="83pt"
 viewBox="0.00 0.00 451.00 83.00" xmlns="http://www.w3.org/2000/svg" xmlns:xlink="http://www.w3.org/1999/xlink">
<g id="graph0" class="graph" transform="scale(1 1) rotate(0) translate(4 79)">
<title>DPTree::find_best_split</title>
<polygon fill="white" stroke="transparent" points="-4,4 -4,-79 447,-79 447,4 -4,4"/>
<!-- Node1 -->
<g id="node1" class="node">
<title>Node1</title>
<g id="a_node1"><a xlink:title=" ">
<polygon fill="#bfbfbf" stroke="black" points="0,-28 0,-47 127,-47 127,-28 0,-28"/>
<text text-anchor="middle" x="63.5" y="-35" font-family="Helvetica,sans-Serif" font-size="10.00">DPTree::find_best_split</text>
</a>
</g>
</g>
<!-- Node2 -->
<g id="node2" class="node">
<title>Node2</title>
<g id="a_node2"><a xlink:href="class_d_p_tree.html#ab9426a6ac2e5122e29ecbb6e9c4cd050" target="_top" xlink:title=" ">
<polygon fill="white" stroke="black" points="163,-50 163,-69 288,-69 288,-50 163,-50"/>
<text text-anchor="middle" x="225.5" y="-57" font-family="Helvetica,sans-Serif" font-size="10.00">DPTree::compute_gain</text>
</a>
</g>
</g>
<!-- Node1&#45;&gt;Node2 -->
<g id="edge1" class="edge">
<title>Node1&#45;&gt;Node2</title>
<path fill="none" stroke="midnightblue" d="M127.28,-46.13C135.71,-47.29 144.41,-48.49 152.98,-49.67"/>
<polygon fill="midnightblue" stroke="midnightblue" points="152.57,-53.14 162.95,-51.04 153.52,-46.21 152.57,-53.14"/>
</g>
<!-- Node4 -->
<g id="node4" class="node">
<title>Node4</title>
<g id="a_node4"><a xlink:href="class_d_p_tree.html#a7ce368c3888736d660dcf09587df4512" target="_top" xlink:title=" ">
<polygon fill="white" stroke="black" points="168.5,-0.5 168.5,-30.5 282.5,-30.5 282.5,-0.5 168.5,-0.5"/>
<text text-anchor="start" x="176.5" y="-18.5" font-family="Helvetica,sans-Serif" font-size="10.00">DPTree::exponential</text>
<text text-anchor="middle" x="225.5" y="-7.5" font-family="Helvetica,sans-Serif" font-size="10.00">_mechanism</text>
</a>
</g>
</g>
<!-- Node1&#45;&gt;Node4 -->
<g id="edge3" class="edge">
<title>Node1&#45;&gt;Node4</title>
<path fill="none" stroke="midnightblue" d="M127.28,-28.87C137.45,-27.47 148.02,-26.02 158.28,-24.61"/>
<polygon fill="midnightblue" stroke="midnightblue" points="158.98,-28.04 168.41,-23.21 158.02,-21.11 158.98,-28.04"/>
</g>
<!-- Node3 -->
<g id="node3" class="node">
<title>Node3</title>
<g id="a_node3"><a xlink:href="class_d_p_tree.html#af16f3e0373e606fe42b2104890b2d036" target="_top" xlink:title=" ">
<polygon fill="white" stroke="black" points="324,-44.5 324,-74.5 443,-74.5 443,-44.5 324,-44.5"/>
<text text-anchor="start" x="332" y="-62.5" font-family="Helvetica,sans-Serif" font-size="10.00">DPTree::samples_left</text>
<text text-anchor="middle" x="383.5" y="-51.5" font-family="Helvetica,sans-Serif" font-size="10.00">_right_partition</text>
</a>
</g>
</g>
<!-- Node2&#45;&gt;Node3 -->
<g id="edge2" class="edge">
<title>Node2&#45;&gt;Node3</title>
<path fill="none" stroke="midnightblue" d="M288.16,-59.5C296.51,-59.5 305.13,-59.5 313.6,-59.5"/>
<polygon fill="midnightblue" stroke="midnightblue" points="313.84,-63 323.84,-59.5 313.84,-56 313.84,-63"/>
</g>
<!-- Node5 -->
<g id="node5" class="node">
<title>Node5</title>
<g id="a_node5"><a xlink:href="utils_8h.html#a35953abcfd9e2310fa2c6d440233fad5" target="_top" xlink:title=" ">
<polygon fill="white" stroke="black" points="343,-6 343,-25 424,-25 424,-6 343,-6"/>
<text text-anchor="middle" x="383.5" y="-13" font-family="Helvetica,sans-Serif" font-size="10.00">log_sum_exp</text>
</a>
</g>
</g>
<!-- Node4&#45;&gt;Node5 -->
<g id="edge4" class="edge">
<title>Node4&#45;&gt;Node5</title>
<path fill="none" stroke="midnightblue" d="M282.82,-15.5C299.14,-15.5 316.84,-15.5 332.73,-15.5"/>
<polygon fill="midnightblue" stroke="midnightblue" points="332.88,-19 342.88,-15.5 332.88,-12 332.88,-19"/>
</g>
</g>
</svg>
