<svg xmlns="http://www.w3.org/2000/svg" xmlns:xlink="http://www.w3.org/1999/xlink" version="1.1" x="0px" y="0px" viewBox="0 0 100 125" style="enable-background:new 0 0 100 100;" xml:space="preserve"><path d="M24.984,16.16c0.59,0.466,0.883,0.754,1.025,0.901c0.092,0.091,0.099,0.165,0.164,0.115  c0.042,0.023,0.068,0.293,0.102,0.426c0.032-0.106,0.016,0.093,0.049,0.128c0.058,0.28,0.113,0.474-0.022,0.829  c-0.123,0.352-0.456,0.798-0.805,1.274c-0.347,0.483-0.694,1.003-0.888,1.539c-0.218,0.521-0.249,1.009-0.213,1.393  c0.023,0.407,0.151,0.647,0.235,0.812c0.087,0.17,0.134,0.261,0.134,0.261s0.06-0.084,0.174-0.241  c0.086-0.165,0.282-0.401,0.487-0.587c0.218-0.204,0.522-0.407,0.854-0.584c0.343-0.173,0.781-0.322,1.299-0.547  c0.515-0.232,1.169-0.518,1.88-1.113c0.706-0.581,1.36-1.591,1.545-2.621c0.041-0.292,0.109-0.423,0.089-0.862  c-0.003-0.198,0.031-0.267-0.002-0.575c-0.075-0.714-0.296-1.297-0.578-1.811c-0.592-1.074-1.472-1.755-2.044-2.217  c-0.59-0.457-0.904-0.731-1.051-0.883c-0.154-0.145-0.277-0.308-0.339-0.747c-0.017-0.231-0.005-0.175-0.027-0.203  c-0.039-0.007-0.035-0.077-0.037-0.145c-0.01-0.136,0.024-0.278,0.089-0.462c0.136-0.357,0.47-0.805,0.819-1.28  c0.353-0.476,0.689-1,0.893-1.521c0.222-0.51,0.249-1.004,0.221-1.37C28.966,5.33,28.658,5.004,28.693,5  c0,0-0.058,0.084-0.166,0.242c-0.079,0.156-0.265,0.365-0.467,0.586c-0.444,0.47-1.091,0.751-2.134,1.176  c-0.515,0.233-1.166,0.518-1.865,1.108c-0.349,0.287-0.696,0.671-0.965,1.122c-0.135,0.226-0.274,0.448-0.371,0.762  c-0.099,0.287-0.192,0.658-0.211,0.756c-0.211,0.858-0.141,2.103,0.455,3.171C23.555,14.993,24.412,15.69,24.984,16.16z"/><rect x="35.521" y="51.705" style="" width="5.714" height="6.561" fill="none"/><rect x="58.766" y="51.705" style="" width="5.714" height="6.561" fill="none"/><rect x="47.143" y="51.705" style="" width="5.714" height="6.561" fill="none"/><rect x="23.898" y="51.705" style="" width="5.714" height="6.561" fill="none"/><rect x="70.388" y="51.705" style="" width="5.714" height="6.561" fill="none"/><path d="M89.399,88.375V62.664l-8.914-6.492v-8.863h0.055V32.803L56.301,47.275V32.803L32.008,47.308h-0.351l-2.039-16.903h1.012  v-3.988h-7.705v3.988h1.012l-2.039,16.903h-2.381v8.29l-8.914,7.066v25.711H5.184V95h89.633v-6.625H89.399z M21.314,74.222H17.01  v-5.478h4.304V74.222z M31.593,74.222H27.29v-5.478h4.304V74.222z M35.521,51.706h5.714v6.561h-5.714V51.706z M41.873,74.222h-4.304  v-5.478h4.304V74.222z M52.152,74.222h-4.304v-5.478h4.304V74.222z M52.857,58.266h-5.714v-6.561h5.714V58.266z M62.431,74.222  h-4.304v-5.478h4.304V74.222z M64.479,58.266h-5.714v-6.561h5.714V58.266z M72.711,74.222h-4.304v-5.478h4.304V74.222z   M76.102,58.266h-5.714v-6.561h5.714V58.266z M82.99,74.222h-4.304v-5.478h4.304V74.222z"/><text x="0" y="115" fill="#000000" font-size="5px" font-weight="bold" font-family="'Helvetica Neue', Helvetica, Arial-Unicode, Arial, Sans-serif">Created by Maxim Kulikov</text><text x="0" y="120" fill="#000000" font-size="5px" font-weight="bold" font-family="'Helvetica Neue', Helvetica, Arial-Unicode, Arial, Sans-serif">from the Noun Project</text></svg>