<svg xmlns="http://www.w3.org/2000/svg" data-name="Layer 1" viewBox="0 0 336.98242 358.26111249999997" x="0px" y="0px"><title>Arrow_Circle-RAD</title><path d="M417.25977,220.52832a9.99636,9.99636,0,0,0-14.14063,0L367.97266,255.673v-5.44006c0-78.51074-63.87207-142.38281-142.38282-142.38281S83.207,171.72217,83.207,250.23291c0,79.52637,63.87207,144.22607,142.38281,144.22607a141.43534,141.43534,0,0,0,100.67871-41.7041,9.99893,9.99893,0,0,0-14.14062-14.14062A121.58039,121.58039,0,0,1,225.58984,374.459c-67.48046,0-122.38281-55.72753-122.38281-124.22607a122.38281,122.38281,0,0,1,244.76563,0V255.673l-35.14649-35.14465A9.99893,9.99893,0,0,0,298.68555,234.669l52.21039,52.21038a10.04455,10.04455,0,0,0,1.5332,1.25367c.23773.15869.495.26672.74219.40283a5.85831,5.85831,0,0,0,1.97692.82519c.28931.08576.56672.19745.8667.257a9.804,9.804,0,0,0,3.91541,0c.3-.05951.57739-.1712.8667-.257a5.85847,5.85847,0,0,0,1.97693-.82519c.24719-.13611.50445-.24414.74218-.40283a10.04463,10.04463,0,0,0,1.53321-1.25367L417.25977,234.669A9.99636,9.99636,0,0,0,417.25977,220.52832Z" transform="translate(-83.20703 -107.8501)"/><text x="0" y="301.60889" fill="#000000" font-size="5px" font-weight="bold" font-family="'Helvetica Neue', Helvetica, Arial-Unicode, Arial, Sans-serif">Created by Tom Fricker</text><text x="0" y="306.60889" fill="#000000" font-size="5px" font-weight="bold" font-family="'Helvetica Neue', Helvetica, Arial-Unicode, Arial, Sans-serif">from the Noun Project</text></svg>