<svg xmlns:dc="http://purl.org/dc/elements/1.1/" xmlns:cc="http://creativecommons.org/ns#" xmlns:rdf="http://www.w3.org/1999/02/22-rdf-syntax-ns#" xmlns:svg="http://www.w3.org/2000/svg" xmlns="http://www.w3.org/2000/svg" xmlns:sodipodi="http://sodipodi.sourceforge.net/DTD/sodipodi-0.dtd" xmlns:inkscape="http://www.inkscape.org/namespaces/inkscape" version="1.1" x="0px" y="0px" viewBox="0 0 100 125"><g transform="translate(0,-952.36218)"><path style="font-size:medium;font-style:normal;font-variant:normal;font-weight:normal;font-stretch:normal;text-indent:0;text-align:start;text-decoration:none;line-height:normal;letter-spacing:normal;word-spacing:normal;text-transform:none;direction:ltr;block-progression:tb;writing-mode:lr-tb;text-anchor:start;baseline-shift:baseline;opacity:1;color:#000000;fill:#000000;fill-opacity:1;stroke:none;stroke-width:4;marker:none;visibility:visible;display:inline;overflow:visible;enable-background:accumulate;font-family:Sans;-inkscape-font-specification:Sans" d="M 33 14 C 29.807711 14 27.153524 16.561435 27 19.71875 L 23.4375 20.65625 C 20.253698 21.50934 18.369491 24.83052 19.21875 28 A 2.0002 2.0002 0 0 0 19.21875 28.03125 L 26.9375 55.03125 A 2.0002 2.0002 0 0 0 27 55.25 L 27 80 C 27 83.2894 29.710596 86 33 86 L 75 86 C 78.289404 86 81 83.2894 81 80 L 81 20 C 81 16.7106 78.289404 14 75 14 L 33 14 z M 33 18 L 75 18 C 76.142593 18 77 18.85741 77 20 L 77 80 C 77 81.1426 76.142593 82 75 82 L 33 82 C 31.857407 82 31 81.1426 31 80 L 31 20 C 31 18.85741 31.857407 18 33 18 z M 27 23.84375 L 27 40.71875 L 23.0625 26.96875 C 23.0595 26.95755 23.0653 26.9486 23.0625 26.9375 C 22.785477 25.83844 23.382603 24.79103 24.46875 24.5 L 27 23.84375 z M 60.8125 33 A 2.0002 2.0002 0 0 0 59 35 L 59 47 L 56 47 L 56 43 A 2.0002 2.0002 0 0 0 54 41 L 47 41 A 2.0002 2.0002 0 0 0 45 43 L 45 55 L 40 55 A 2.0002 2.0002 0 0 0 38 57 L 38 65 A 2.0002 2.0002 0 0 0 40 67 L 47 67 L 54 67 L 61 67 L 68 67 A 2.0002 2.0002 0 0 0 70 65 L 70 35 A 2.0002 2.0002 0 0 0 68 33 L 61 33 A 2.0002 2.0002 0 0 0 60.8125 33 z M 63 37 L 66 37 L 66 63 L 63 63 L 63 49.15625 A 2.0002 2.0002 0 0 0 63 49 A 2.0002 2.0002 0 0 0 63 48.8125 L 63 37 z M 49 45 L 52 45 L 52 48.84375 A 2.0002 2.0002 0 0 0 52 49 A 2.0002 2.0002 0 0 0 52 49.21875 L 52 63 L 49 63 L 49 57.15625 A 2.0002 2.0002 0 0 0 49 57 A 2.0002 2.0002 0 0 0 49 56.8125 L 49 45 z M 56 51 L 59 51 L 59 63 L 56 63 L 56 51 z M 42 59 L 45 59 L 45 63 L 42 63 L 42 59 z " transform="translate(0,952.36218)"/></g><text x="0" y="115" fill="#000000" font-size="5px" font-weight="bold" font-family="'Helvetica Neue', Helvetica, Arial-Unicode, Arial, Sans-serif">Created by amy morgan</text><text x="0" y="120" fill="#000000" font-size="5px" font-weight="bold" font-family="'Helvetica Neue', Helvetica, Arial-Unicode, Arial, Sans-serif">from the Noun Project</text></svg>