<svg xmlns="http://www.w3.org/2000/svg" xmlns:xlink="http://www.w3.org/1999/xlink" version="1.1" x="0px" y="0px" viewBox="0 0 100 125" style="enable-background:new 0 0 100 100;" xml:space="preserve"><g><path d="M65.9,10L65.9,10l12.6,12.7h0L65.9,10z"/><path d="M81.9,23.5c0-0.1-0.1-0.3-0.1-0.4c0-0.1-0.1-0.1-0.1-0.2L80,21.4L65.5,6.9c-0.2-0.2-0.4-0.3-0.7-0.3c0,0,0,0,0,0H25.4   c-4,0-7.3,3.3-7.3,7.3v72.2c0,4,3.3,7.3,7.3,7.3h49.2c4,0,7.3-3.3,7.3-7.3V23.7C81.9,23.6,81.9,23.6,81.9,23.5z M65.9,10l12.6,12.7   H65.9V10z M79.9,86.1c0,3-2.3,5.3-5.3,5.3H25.4c-3,0-5.3-2.3-5.3-5.3V13.9c0-3,2.3-5.3,5.3-5.3h38.5v15.1c0,0.5,0.4,1,1,1h15V86.1z   "/></g><g><path d="M65.6,6.9c-0.2-0.2-0.5-0.3-0.8-0.3C65.1,6.6,65.3,6.7,65.6,6.9L80,21.4L65.6,6.9z"/></g><text x="0" y="115" fill="#000000" font-size="5px" font-weight="bold" font-family="'Helvetica Neue', Helvetica, Arial-Unicode, Arial, Sans-serif">Created by juan manjarrez</text><text x="0" y="120" fill="#000000" font-size="5px" font-weight="bold" font-family="'Helvetica Neue', Helvetica, Arial-Unicode, Arial, Sans-serif">from the Noun Project</text></svg>