<svg xmlns="http://www.w3.org/2000/svg" xmlns:xlink="http://www.w3.org/1999/xlink" version="1.1" x="0px" y="0px" viewBox="0 0 100 125" enable-background="new 0 0 100 100" xml:space="preserve"><path d="M74.087,39.274c0,7.644-6.215,13.859-13.859,13.859c-7.644,0-13.859-6.215-13.859-13.859  c0-7.644,6.191-13.859,13.859-13.859S74.087,31.63,74.087,39.274z M92.827,46.108l-5.643-3.405c0.333-2.548,0.262-5.12-0.095-7.596  l5.524-3.572c1.024-0.667,1.405-1.953,0.929-3.072l-1.286-3l-1.286-3c-0.476-1.119-1.714-1.714-2.857-1.429l-6.405,1.548  c-1.572-2.048-3.453-3.834-5.596-5.405l1.381-6.382c0.238-1.191-0.381-2.381-1.524-2.834l-3.024-1.214L69.92,5.533  C68.8,5.08,67.515,5.509,66.896,6.556L63.443,12.2c-2.548-0.31-5.12-0.238-7.596,0.167L52.323,6.89  c-0.667-1.024-1.953-1.405-3.072-0.929l-3,1.286l-3,1.286c-1.119,0.476-1.714,1.714-1.429,2.857l1.572,6.453  c-1.976,1.548-3.738,3.381-5.262,5.477l-6.382-1.381c-1.191-0.238-2.381,0.381-2.834,1.524l-1.214,3.024l-1.214,3.024  c-0.452,1.119-0.024,2.405,1.024,3.024l5.643,3.453c-0.298,2.449-0.24,4.919,0.124,7.306c2.731,0.299,5.34,1.002,7.767,2.048  c-1.358-4.274-1.301-9.025,0.491-13.52c4.119-10.334,15.811-15.383,26.145-11.263c10.311,4.119,15.359,15.811,11.263,26.145  c-3.845,9.646-14.287,14.685-24.065,11.964c1.125,2.363,1.921,4.913,2.326,7.591c2.391,0.266,4.797,0.187,7.119-0.148l3.572,5.524  c0.667,1.024,1.953,1.405,3.072,0.929l3-1.286l3-1.286c1.119-0.476,1.714-1.714,1.429-2.857l-1.548-6.405  c2-1.548,3.786-3.357,5.31-5.453l6.429,1.381c1.191,0.238,2.381-0.381,2.834-1.524l1.214-3.024l1.214-3.024  C94.303,48.013,93.851,46.727,92.827,46.108z M54.583,68.062v2.27v2.27c0,0.859-0.613,1.575-1.452,1.718l-4.519,0.757  c-0.45,1.738-1.125,3.374-2.025,4.887l2.658,3.742c0.491,0.695,0.409,1.636-0.184,2.229l-1.595,1.595l-1.595,1.595  c-0.593,0.593-1.534,0.675-2.229,0.184L39.9,86.651c-1.513,0.9-3.149,1.575-4.887,2.025l-0.757,4.519  c-0.143,0.838-0.879,1.452-1.718,1.452h-2.27h-2.27c-0.859,0-1.575-0.613-1.718-1.452l-0.757-4.519  c-1.677-0.429-3.292-1.104-4.765-1.963l-3.763,2.679c-0.695,0.491-1.636,0.409-2.229-0.184l-1.595-1.595l-1.595-1.595  c-0.593-0.593-0.675-1.534-0.184-2.229l2.638-3.701c-0.879-1.493-1.595-3.129-2.045-4.867l-4.56-0.777  c-0.838-0.143-1.452-0.879-1.452-1.718v-2.27v-2.27c0-0.859,0.613-1.575,1.452-1.718l4.478-0.757  c0.429-1.738,1.104-3.374,1.984-4.887l-2.679-3.763c-0.491-0.695-0.409-1.636,0.184-2.229l1.595-1.595l1.595-1.595  c0.593-0.593,1.534-0.675,2.229-0.184l3.681,2.679c1.493-0.879,3.129-1.595,4.867-2.045l0.777-4.56  c0.143-0.838,0.879-1.452,1.718-1.452h2.27h2.27c0.859,0,1.575,0.613,1.718,1.452l0.757,4.478c1.8,0.429,3.476,1.125,5.01,2.045  l3.742-2.658c0.695-0.491,1.636-0.409,2.229,0.184l1.595,1.595l1.595,1.595c0.593,0.593,0.675,1.534,0.184,2.229l-2.658,3.742  c0.9,1.513,1.575,3.149,2.024,4.887l4.519,0.757C53.928,66.528,54.542,67.244,54.583,68.062z M44.276,70.352  c0-7.75-6.278-14.028-14.028-14.028c-7.75,0-14.028,6.278-14.028,14.028c0,7.75,6.278,14.028,14.028,14.028  C37.978,84.381,44.276,78.103,44.276,70.352z"/><text x="0" y="115" fill="#000000" font-size="5px" font-weight="bold" font-family="'Helvetica Neue', Helvetica, Arial-Unicode, Arial, Sans-serif">Created by Gregor Cresnar</text><text x="0" y="120" fill="#000000" font-size="5px" font-weight="bold" font-family="'Helvetica Neue', Helvetica, Arial-Unicode, Arial, Sans-serif">from the Noun Project</text></svg>