<svg xmlns="http://www.w3.org/2000/svg" xmlns:xlink="http://www.w3.org/1999/xlink" version="1.1" x="0px" y="0px" viewBox="0 0 100 125" enable-background="new 0 0 100 100" xml:space="preserve"><g><path d="M75.985,41.617l-2.467,0.001l-0.017-12.311C73.494,15.897,62.579,4.993,49.169,5c-13.41,0.007-24.314,10.921-24.307,24.332   l0.017,12.311l-0.873,0c-4.613,0.002-8.351,3.744-8.348,8.357l0.007,36.652c0.002,4.613,3.744,8.351,8.357,8.348l51.978-0.026   c4.613-0.002,8.351-3.744,8.348-8.357l-0.007-36.652C84.339,45.352,80.598,41.615,75.985,41.617z M52.288,69.75l0.005,10.381   l-3.784,0.002l-0.005-10.381c-2.08-0.771-3.571-2.755-3.572-5.103c-0.002-3.016,2.443-5.463,5.459-5.464   c3.016-0.002,5.463,2.443,5.464,5.459C55.856,66.991,54.367,68.977,52.288,69.75z M64.555,41.623l-30.713,0.016l-0.017-12.311   c-0.004-8.467,6.882-15.36,15.349-15.364s15.36,6.882,15.364,15.349L64.555,41.623z"/></g><text x="0" y="115" fill="#000000" font-size="5px" font-weight="bold" font-family="'Helvetica Neue', Helvetica, Arial-Unicode, Arial, Sans-serif">Created by Maxim Kulikov</text><text x="0" y="120" fill="#000000" font-size="5px" font-weight="bold" font-family="'Helvetica Neue', Helvetica, Arial-Unicode, Arial, Sans-serif">from the Noun Project</text></svg>