<svg xmlns="http://www.w3.org/2000/svg" xmlns:xlink="http://www.w3.org/1999/xlink" version="1.1" x="0px" y="0px" viewBox="0 0 33 41.25" enable-background="new 0 0 33 33" xml:space="preserve"><path d="M22.59,4.049h-3.129l0.182-0.375c0.184-0.377-0.01-0.688-0.43-0.688H16.99C16.691,1.574,15.318,0.5,13.666,0.5  c-1.65,0-3.025,1.074-3.324,2.486H8.121c-0.422,0-0.613,0.311-0.43,0.688l0.182,0.375H4.742c-1.266,0-2.295,1.029-2.295,2.295  v23.861c0,1.266,1.029,2.295,2.295,2.295H22.59c1.266,0,2.295-1.029,2.295-2.295V6.344C24.885,5.078,23.855,4.049,22.59,4.049z   M13.666,1.648c1,0,1.84,0.564,2.127,1.338h-4.254C11.826,2.213,12.666,1.648,13.666,1.648z M23.355,30.205  c0,0.422-0.342,0.766-0.766,0.766H4.742c-0.422,0-0.766-0.344-0.766-0.766V6.344c0-0.422,0.344-0.764,0.766-0.764h3.877l0.824,1.691  c0.184,0.379,0.678,0.688,1.1,0.688h6.248c0.42,0,0.916-0.309,1.1-0.688l0.824-1.691h3.875c0.424,0,0.766,0.342,0.766,0.764V30.205z  "/><path d="M10.088,9.779c-0.025-0.021-0.059-0.031-0.098-0.031c-0.238,0-1.01,0.441-1.514,0.986c-0.467,0.504-0.896,1.07-1.061,1.293  c-0.57-0.607-1.561-0.861-1.99-0.861c-0.137,0-0.225,0.023-0.273,0.072c-0.027,0.027-0.041,0.063-0.041,0.102  c0,0.105,0.113,0.188,0.475,0.428c0.258,0.172,0.58,0.389,0.828,0.623c0.307,0.289,0.512,0.574,0.674,0.803  c0.186,0.26,0.309,0.434,0.475,0.434c0.129,0,0.266-0.191,0.977-1.357c0.098-0.158,0.197-0.322,0.297-0.486  c0.27-0.439,0.586-0.857,0.84-1.193C10.086,10.047,10.209,9.883,10.088,9.779z"/><rect x="10.852" y="11.688" width="10.449" height="1.402"/><path d="M10.088,14.391c-0.025-0.021-0.059-0.031-0.098-0.031c-0.238,0-1.01,0.441-1.514,0.986c-0.467,0.504-0.896,1.07-1.061,1.293  c-0.57-0.607-1.561-0.861-1.99-0.861c-0.137,0-0.225,0.023-0.273,0.072c-0.027,0.027-0.041,0.063-0.041,0.102  c0,0.105,0.113,0.188,0.475,0.428c0.258,0.172,0.58,0.389,0.828,0.623c0.307,0.289,0.512,0.574,0.674,0.803  c0.186,0.26,0.309,0.434,0.475,0.434c0.129,0,0.266-0.191,0.977-1.357c0.098-0.158,0.197-0.322,0.297-0.486  c0.27-0.439,0.586-0.857,0.84-1.193C10.086,14.658,10.209,14.494,10.088,14.391z"/><rect x="10.852" y="16.299" width="10.449" height="1.402"/><path d="M10.088,19.002c-0.025-0.021-0.059-0.031-0.098-0.031c-0.238,0-1.01,0.441-1.514,0.986c-0.467,0.504-0.896,1.07-1.061,1.293  c-0.57-0.607-1.561-0.861-1.99-0.861c-0.137,0-0.225,0.023-0.273,0.072c-0.027,0.027-0.041,0.063-0.041,0.102  c0,0.105,0.113,0.188,0.475,0.428c0.258,0.172,0.58,0.389,0.828,0.623c0.307,0.289,0.512,0.574,0.674,0.803  c0.186,0.26,0.309,0.434,0.475,0.434c0.129,0,0.266-0.191,0.977-1.357c0.098-0.158,0.197-0.322,0.297-0.486  c0.27-0.439,0.586-0.857,0.84-1.193C10.086,19.27,10.209,19.105,10.088,19.002z"/><rect x="10.852" y="20.91" width="10.449" height="1.402"/><rect x="10.852" y="25.521" width="10.449" height="1.402"/><path d="M9.711,27.967c0.061-0.088-0.518-0.838-1.299-1.508c0.678-0.973,1.086-2.057,0.932-2.137  c-0.156-0.082-0.949,0.652-1.719,1.52c-0.939-0.699-1.838-1.264-1.924-1.154c-0.043,0.055,0.477,1.238,1.275,1.922c0,0,0,0,0,0.002  c-0.617,0.779-1.072,1.508-0.91,1.721c0.072,0.094,0.975-0.348,1.736-1.127C8.73,27.773,9.643,28.063,9.711,27.967z"/><path d="M26.904,28.053c0,0.668,0.537,1.211,1.201,1.211h1.246c0.664,0,1.201-0.543,1.201-1.211v-1.547h-3.648V28.053z"/><path d="M29.307,8.113c-0.238-0.514-0.918-0.512-1.156,0l-1.246,2.695v14.873h3.648V10.811L29.307,8.113z M27.9,10.844l0.506-1.096  h0.643l0.508,1.096H27.9z"/><text x="0" y="48" fill="#000000" font-size="5px" font-weight="bold" font-family="'Helvetica Neue', Helvetica, Arial-Unicode, Arial, Sans-serif">Created by Minh Do</text><text x="0" y="53" fill="#000000" font-size="5px" font-weight="bold" font-family="'Helvetica Neue', Helvetica, Arial-Unicode, Arial, Sans-serif">from the Noun Project</text></svg>