<?xml version="1.0" encoding="UTF-8" standalone="no"?>
<!DOCTYPE svg PUBLIC "-//W3C//DTD SVG 1.1//EN"
 "http://www.w3.org/Graphics/SVG/1.1/DTD/svg11.dtd">
<!-- Generated by graphviz version 2.40.1 (20161225.0304)
 -->
<!-- Title: DPTree::add_laplacian_noise Pages: 1 -->
<svg width="434pt" height="39pt"
 viewBox="0.00 0.00 434.00 39.00" xmlns="http://www.w3.org/2000/svg" xmlns:xlink="http://www.w3.org/1999/xlink">
<g id="graph0" class="graph" transform="scale(1 1) rotate(0) translate(4 35)">
<title>DPTree::add_laplacian_noise</title>
<polygon fill="#ffffff" stroke="transparent" points="-4,4 -4,-35 430,-35 430,4 -4,4"/>
<!-- Node11 -->
<g id="node1" class="node">
<title>Node11</title>
<polygon fill="#bfbfbf" stroke="#000000" points="0,-.5 0,-30.5 116,-30.5 116,-.5 0,-.5"/>
<text text-anchor="start" x="8" y="-18.5" font-family="Helvetica,sans-Serif" font-size="10.00" fill="#000000">DPTree::add_laplacian</text>
<text text-anchor="middle" x="58" y="-7.5" font-family="Helvetica,sans-Serif" font-size="10.00" fill="#000000">_noise</text>
</g>
<!-- Node12 -->
<g id="node2" class="node">
<title>Node12</title>
<g id="a_node2"><a xlink:href="class_d_p_tree.html#a82b9507f4f5d056b98f40871b304f943" target="_top" xlink:title="DPTree::fit">
<polygon fill="#ffffff" stroke="#000000" points="152,-6 152,-25 217,-25 217,-6 152,-6"/>
<text text-anchor="middle" x="184.5" y="-13" font-family="Helvetica,sans-Serif" font-size="10.00" fill="#000000">DPTree::fit</text>
</a>
</g>
</g>
<!-- Node11&#45;&gt;Node12 -->
<g id="edge1" class="edge">
<title>Node11&#45;&gt;Node12</title>
<path fill="none" stroke="#191970" d="M126.2105,-15.5C135.179,-15.5 144.0137,-15.5 151.9873,-15.5"/>
<polygon fill="#191970" stroke="#191970" points="126.0667,-12.0001 116.0667,-15.5 126.0667,-19.0001 126.0667,-12.0001"/>
</g>
<!-- Node13 -->
<g id="node3" class="node">
<title>Node13</title>
<g id="a_node3"><a xlink:href="class_d_p_ensemble.html#a1652b5fde834bfb18416ebf438d3e10a" target="_top" xlink:title="DPEnsemble::train">
<polygon fill="#ffffff" stroke="#000000" points="253,-6 253,-25 352,-25 352,-6 253,-6"/>
<text text-anchor="middle" x="302.5" y="-13" font-family="Helvetica,sans-Serif" font-size="10.00" fill="#000000">DPEnsemble::train</text>
</a>
</g>
</g>
<!-- Node12&#45;&gt;Node13 -->
<g id="edge2" class="edge">
<title>Node12&#45;&gt;Node13</title>
<path fill="none" stroke="#191970" d="M227.2567,-15.5C235.5489,-15.5 244.3053,-15.5 252.798,-15.5"/>
<polygon fill="#191970" stroke="#191970" points="227.0564,-12.0001 217.0564,-15.5 227.0563,-19.0001 227.0564,-12.0001"/>
</g>
<!-- Node14 -->
<g id="node4" class="node">
<title>Node14</title>
<g id="a_node4"><a xlink:href="main_8cpp.html#a3c04138a5bfe5d72780bb7e82a18e627" target="_top" xlink:title="main">
<polygon fill="#ffffff" stroke="#000000" points="388,-6 388,-25 426,-25 426,-6 388,-6"/>
<text text-anchor="middle" x="407" y="-13" font-family="Helvetica,sans-Serif" font-size="10.00" fill="#000000">main</text>
</a>
</g>
</g>
<!-- Node13&#45;&gt;Node14 -->
<g id="edge3" class="edge">
<title>Node13&#45;&gt;Node14</title>
<path fill="none" stroke="#191970" d="M362.3404,-15.5C371.5271,-15.5 380.394,-15.5 387.7722,-15.5"/>
<polygon fill="#191970" stroke="#191970" points="362.3016,-12.0001 352.3016,-15.5 362.3015,-19.0001 362.3016,-12.0001"/>
</g>
</g>
</svg>
