<?xml version="1.0" encoding="UTF-8" standalone="no"?>
<!DOCTYPE svg PUBLIC "-//W3C//DTD SVG 1.1//EN"
 "http://www.w3.org/Graphics/SVG/1.1/DTD/svg11.dtd">
<!-- Generated by graphviz version 2.40.1 (20161225.0304)
 -->
<!-- Title: DPTree::fit Pages: 1 -->
<svg width="695pt" height="122pt"
 viewBox="0.00 0.00 695.00 121.50" xmlns="http://www.w3.org/2000/svg" xmlns:xlink="http://www.w3.org/1999/xlink">
<g id="graph0" class="graph" transform="scale(1 1) rotate(0) translate(4 117.5)">
<title>DPTree::fit</title>
<polygon fill="#ffffff" stroke="transparent" points="-4,4 -4,-117.5 691,-117.5 691,4 -4,4"/>
<!-- Node40 -->
<g id="node1" class="node">
<title>Node40</title>
<polygon fill="#bfbfbf" stroke="#000000" points="0,-28 0,-47 65,-47 65,-28 0,-28"/>
<text text-anchor="middle" x="32.5" y="-35" font-family="Helvetica,sans-Serif" font-size="10.00" fill="#000000">DPTree::fit</text>
</g>
<!-- Node41 -->
<g id="node2" class="node">
<title>Node41</title>
<g id="a_node2"><a xlink:href="class_d_p_tree.html#a54cea43a3929249de4be25f607a16339" target="_top" xlink:title="DPTree::make_tree_dfs">
<polygon fill="#ffffff" stroke="#000000" points="101,-50 101,-69 222,-69 222,-50 101,-50"/>
<text text-anchor="middle" x="161.5" y="-57" font-family="Helvetica,sans-Serif" font-size="10.00" fill="#000000">DPTree::make_tree_dfs</text>
</a>
</g>
</g>
<!-- Node40&#45;&gt;Node41 -->
<g id="edge1" class="edge">
<title>Node40&#45;&gt;Node41</title>
<path fill="none" stroke="#191970" d="M65.0521,-43.0515C74.3849,-44.6432 84.9116,-46.4384 95.4924,-48.2429"/>
<polygon fill="#191970" stroke="#191970" points="95.1702,-51.7384 105.6163,-49.9694 96.347,-44.838 95.1702,-51.7384"/>
</g>
<!-- Node47 -->
<g id="node8" class="node">
<title>Node47</title>
<g id="a_node8"><a xlink:href="class_d_p_tree.html#a468d249a3e55f1527e50daf13e550c79" target="_top" xlink:title="DPTree::add_laplacian\l_noise">
<polygon fill="#ffffff" stroke="#000000" points="103.5,-.5 103.5,-30.5 219.5,-30.5 219.5,-.5 103.5,-.5"/>
<text text-anchor="start" x="111.5" y="-18.5" font-family="Helvetica,sans-Serif" font-size="10.00" fill="#000000">DPTree::add_laplacian</text>
<text text-anchor="middle" x="161.5" y="-7.5" font-family="Helvetica,sans-Serif" font-size="10.00" fill="#000000">_noise</text>
</a>
</g>
</g>
<!-- Node40&#45;&gt;Node47 -->
<g id="edge8" class="edge">
<title>Node40&#45;&gt;Node47</title>
<path fill="none" stroke="#191970" d="M65.0521,-31.9485C73.7849,-30.4592 83.563,-28.7916 93.4526,-27.105"/>
<polygon fill="#191970" stroke="#191970" points="94.0756,-30.5494 103.3448,-25.4179 92.8987,-23.649 94.0756,-30.5494"/>
</g>
<!-- Node42 -->
<g id="node3" class="node">
<title>Node42</title>
<g id="a_node3"><a xlink:href="class_d_p_tree.html#a3a716a075edfae470e0fe7511634e922" target="_top" xlink:title="DPTree::make_leaf_node">
<polygon fill="#ffffff" stroke="#000000" points="258,-88 258,-107 386,-107 386,-88 258,-88"/>
<text text-anchor="middle" x="322" y="-95" font-family="Helvetica,sans-Serif" font-size="10.00" fill="#000000">DPTree::make_leaf_node</text>
</a>
</g>
</g>
<!-- Node41&#45;&gt;Node42 -->
<g id="edge2" class="edge">
<title>Node41&#45;&gt;Node42</title>
<path fill="none" stroke="#191970" d="M202.0009,-69.089C223.1806,-74.1035 249.3022,-80.2881 271.7604,-85.6053"/>
<polygon fill="#191970" stroke="#191970" points="271.2529,-89.0818 281.7903,-87.9799 272.8657,-82.2701 271.2529,-89.0818"/>
</g>
<!-- Node43 -->
<g id="node4" class="node">
<title>Node43</title>
<g id="a_node4"><a xlink:href="class_d_p_tree.html#ad7f8755be37ad10cf104fba2076dce5e" target="_top" xlink:title="DPTree::find_best_split">
<polygon fill="#ffffff" stroke="#000000" points="262.5,-50 262.5,-69 381.5,-69 381.5,-50 262.5,-50"/>
<text text-anchor="middle" x="322" y="-57" font-family="Helvetica,sans-Serif" font-size="10.00" fill="#000000">DPTree::find_best_split</text>
</a>
</g>
</g>
<!-- Node41&#45;&gt;Node43 -->
<g id="edge3" class="edge">
<title>Node41&#45;&gt;Node43</title>
<path fill="none" stroke="#191970" d="M222.1782,-59.5C231.9291,-59.5 242.0906,-59.5 252.0378,-59.5"/>
<polygon fill="#191970" stroke="#191970" points="252.2999,-63.0001 262.2999,-59.5 252.2999,-56.0001 252.2999,-63.0001"/>
</g>
<!-- Node45 -->
<g id="node6" class="node">
<title>Node45</title>
<g id="a_node6"><a xlink:href="class_d_p_tree.html#af16f3e0373e606fe42b2104890b2d036" target="_top" xlink:title="DPTree::samples_left\l_right_partition">
<polygon fill="#ffffff" stroke="#000000" points="575,-44.5 575,-74.5 687,-74.5 687,-44.5 575,-44.5"/>
<text text-anchor="start" x="583" y="-62.5" font-family="Helvetica,sans-Serif" font-size="10.00" fill="#000000">DPTree::samples_left</text>
<text text-anchor="middle" x="631" y="-51.5" font-family="Helvetica,sans-Serif" font-size="10.00" fill="#000000">_right_partition</text>
</a>
</g>
</g>
<!-- Node41&#45;&gt;Node45 -->
<g id="edge7" class="edge">
<title>Node41&#45;&gt;Node45</title>
<path fill="none" stroke="#191970" d="M202.5991,-49.9222C219.6446,-46.3386 239.6817,-42.625 258,-40.5 382.0853,-26.1057 415.1803,-17.9763 539,-34.5 550.92,-36.0907 563.4845,-38.7923 575.3675,-41.8459"/>
<polygon fill="#191970" stroke="#191970" points="574.5941,-45.2622 585.1598,-44.4772 576.4106,-38.502 574.5941,-45.2622"/>
</g>
<!-- Node44 -->
<g id="node5" class="node">
<title>Node44</title>
<g id="a_node5"><a xlink:href="class_d_p_tree.html#ab9426a6ac2e5122e29ecbb6e9c4cd050" target="_top" xlink:title="DPTree::compute_gain">
<polygon fill="#ffffff" stroke="#000000" points="422,-94 422,-113 539,-113 539,-94 422,-94"/>
<text text-anchor="middle" x="480.5" y="-101" font-family="Helvetica,sans-Serif" font-size="10.00" fill="#000000">DPTree::compute_gain</text>
</a>
</g>
</g>
<!-- Node43&#45;&gt;Node44 -->
<g id="edge4" class="edge">
<title>Node43&#45;&gt;Node44</title>
<path fill="none" stroke="#191970" d="M356.3921,-69.0473C379.8624,-75.5627 411.1593,-84.2508 436.4523,-91.2722"/>
<polygon fill="#191970" stroke="#191970" points="435.6031,-94.6688 446.175,-93.9713 437.4756,-87.9239 435.6031,-94.6688"/>
</g>
<!-- Node46 -->
<g id="node7" class="node">
<title>Node46</title>
<g id="a_node7"><a xlink:href="class_d_p_tree.html#a7ce368c3888736d660dcf09587df4512" target="_top" xlink:title="DPTree::exponential\l_mechanism">
<polygon fill="#ffffff" stroke="#000000" points="427.5,-44.5 427.5,-74.5 533.5,-74.5 533.5,-44.5 427.5,-44.5"/>
<text text-anchor="start" x="435.5" y="-62.5" font-family="Helvetica,sans-Serif" font-size="10.00" fill="#000000">DPTree::exponential</text>
<text text-anchor="middle" x="480.5" y="-51.5" font-family="Helvetica,sans-Serif" font-size="10.00" fill="#000000">_mechanism</text>
</a>
</g>
</g>
<!-- Node43&#45;&gt;Node46 -->
<g id="edge6" class="edge">
<title>Node43&#45;&gt;Node46</title>
<path fill="none" stroke="#191970" d="M381.9221,-59.5C393.4486,-59.5 405.5561,-59.5 417.1861,-59.5"/>
<polygon fill="#191970" stroke="#191970" points="417.2568,-63.0001 427.2567,-59.5 417.2567,-56.0001 417.2568,-63.0001"/>
</g>
<!-- Node44&#45;&gt;Node45 -->
<g id="edge5" class="edge">
<title>Node44&#45;&gt;Node45</title>
<path fill="none" stroke="#191970" d="M513.1563,-93.9527C529.7226,-89.1094 550.3955,-83.0654 569.7806,-77.398"/>
<polygon fill="#191970" stroke="#191970" points="570.8536,-80.7309 579.4696,-74.5654 568.8892,-74.0122 570.8536,-80.7309"/>
</g>
</g>
</svg>
