<?xml version="1.0" encoding="UTF-8" standalone="no"?>
<!DOCTYPE svg PUBLIC "-//W3C//DTD SVG 1.1//EN"
 "http://www.w3.org/Graphics/SVG/1.1/DTD/svg11.dtd">
<!-- Generated by graphviz version 2.43.0 (0)
 -->
<!-- Title: TreeNode::is_leaf Pages: 1 -->
<svg width="623pt" height="142pt"
 viewBox="0.00 0.00 623.00 142.00" xmlns="http://www.w3.org/2000/svg" xmlns:xlink="http://www.w3.org/1999/xlink">
<g id="graph0" class="graph" transform="scale(1 1) rotate(0) translate(4 138)">
<title>TreeNode::is_leaf</title>
<polygon fill="white" stroke="transparent" points="-4,4 -4,-138 619,-138 619,4 -4,4"/>
<!-- Node1 -->
<g id="node1" class="node">
<title>Node1</title>
<g id="a_node1"><a xlink:title=" ">
<polygon fill="#bfbfbf" stroke="black" points="514,-57.5 514,-76.5 615,-76.5 615,-57.5 514,-57.5"/>
<text text-anchor="middle" x="564.5" y="-64.5" font-family="Helvetica,sans-Serif" font-size="10.00">TreeNode::is_leaf</text>
</a>
</g>
</g>
<!-- Node2 -->
<g id="node2" class="node">
<title>Node2</title>
<g id="a_node2"><a xlink:href="class_d_p_tree.html#ad8ad2f100c65b9961bd6b2c4af46636c" target="_top" xlink:title=" ">
<polygon fill="white" stroke="black" points="364.5,-114.5 364.5,-133.5 459.5,-133.5 459.5,-114.5 364.5,-114.5"/>
<text text-anchor="middle" x="412" y="-121.5" font-family="Helvetica,sans-Serif" font-size="10.00">DPTree::_predict</text>
</a>
</g>
</g>
<!-- Node1&#45;&gt;Node2 -->
<g id="edge1" class="edge">
<title>Node1&#45;&gt;Node2</title>
<path fill="none" stroke="midnightblue" d="M535.03,-80.8C518.58,-88.48 497.38,-97.9 478,-105 468.62,-108.44 458.3,-111.69 448.7,-114.5"/>
<polygon fill="midnightblue" stroke="midnightblue" points="536.56,-83.95 544.11,-76.51 533.57,-77.62 536.56,-83.95"/>
</g>
<!-- Node4 -->
<g id="node4" class="node">
<title>Node4</title>
<g id="a_node4"><a xlink:href="class_d_p_tree.html#afc4d6d427b66508a5133c3db40dde9e8" target="_top" xlink:title=" ">
<polygon fill="white" stroke="black" points="356,-76.5 356,-95.5 468,-95.5 468,-76.5 356,-76.5"/>
<text text-anchor="middle" x="412" y="-83.5" font-family="Helvetica,sans-Serif" font-size="10.00">DPTree::delete_tree</text>
</a>
</g>
</g>
<!-- Node1&#45;&gt;Node4 -->
<g id="edge3" class="edge">
<title>Node1&#45;&gt;Node4</title>
<path fill="none" stroke="midnightblue" d="M503.66,-74.55C491.92,-76.04 479.67,-77.58 468.1,-79.04"/>
<polygon fill="midnightblue" stroke="midnightblue" points="504.32,-78 513.8,-73.27 503.44,-71.05 504.32,-78"/>
</g>
<!-- Node5 -->
<g id="node5" class="node">
<title>Node5</title>
<g id="a_node5"><a xlink:href="class_d_p_tree.html#a07314c44bb7b7ca37c735b70de3ccb9e" target="_top" xlink:title=" ">
<polygon fill="white" stroke="black" points="346,-38.5 346,-57.5 478,-57.5 478,-38.5 346,-38.5"/>
<text text-anchor="middle" x="412" y="-45.5" font-family="Helvetica,sans-Serif" font-size="10.00">DPTree::make_tree_DFS</text>
</a>
</g>
</g>
<!-- Node1&#45;&gt;Node5 -->
<g id="edge4" class="edge">
<title>Node1&#45;&gt;Node5</title>
<path fill="none" stroke="midnightblue" d="M503.74,-59.46C495.35,-58.4 486.69,-57.3 478.21,-56.23"/>
<polygon fill="midnightblue" stroke="midnightblue" points="503.44,-62.95 513.8,-60.73 504.32,-56 503.44,-62.95"/>
</g>
<!-- Node9 -->
<g id="node9" class="node">
<title>Node9</title>
<g id="a_node9"><a xlink:href="class_tree_node.html#a92ad0cbf1b9d2438f621b5d0b7ad8ab8" target="_top" xlink:title=" ">
<polygon fill="white" stroke="black" points="355,-0.5 355,-19.5 469,-19.5 469,-0.5 355,-0.5"/>
<text text-anchor="middle" x="412" y="-7.5" font-family="Helvetica,sans-Serif" font-size="10.00">TreeNode::TreeNode</text>
</a>
</g>
</g>
<!-- Node1&#45;&gt;Node9 -->
<g id="edge8" class="edge">
<title>Node1&#45;&gt;Node9</title>
<path fill="none" stroke="midnightblue" d="M535.03,-53.2C518.58,-45.52 497.38,-36.1 478,-29 468.62,-25.56 458.3,-22.31 448.7,-19.5"/>
<polygon fill="midnightblue" stroke="midnightblue" points="533.57,-56.38 544.11,-57.49 536.56,-50.05 533.57,-56.38"/>
</g>
<!-- Node3 -->
<g id="node3" class="node">
<title>Node3</title>
<g id="a_node3"><a xlink:href="class_d_p_tree.html#a39f0f669f0e72d17e6177e2a7d6d7abd" target="_top" xlink:title=" ">
<polygon fill="white" stroke="black" points="220,-114.5 220,-133.5 310,-133.5 310,-114.5 220,-114.5"/>
<text text-anchor="middle" x="265" y="-121.5" font-family="Helvetica,sans-Serif" font-size="10.00">DPTree::predict</text>
</a>
</g>
</g>
<!-- Node2&#45;&gt;Node3 -->
<g id="edge2" class="edge">
<title>Node2&#45;&gt;Node3</title>
<path fill="none" stroke="midnightblue" d="M353.91,-124C339.35,-124 323.92,-124 310.12,-124"/>
<polygon fill="midnightblue" stroke="midnightblue" points="354.32,-127.5 364.32,-124 354.32,-120.5 354.32,-127.5"/>
</g>
<!-- Node6 -->
<g id="node6" class="node">
<title>Node6</title>
<g id="a_node6"><a xlink:href="class_d_p_tree.html#a82b9507f4f5d056b98f40871b304f943" target="_top" xlink:title=" ">
<polygon fill="white" stroke="black" points="232,-38.5 232,-57.5 298,-57.5 298,-38.5 232,-38.5"/>
<text text-anchor="middle" x="265" y="-45.5" font-family="Helvetica,sans-Serif" font-size="10.00">DPTree::fit</text>
</a>
</g>
</g>
<!-- Node5&#45;&gt;Node6 -->
<g id="edge5" class="edge">
<title>Node5&#45;&gt;Node6</title>
<path fill="none" stroke="midnightblue" d="M335.6,-48C322.37,-48 309.28,-48 298.07,-48"/>
<polygon fill="midnightblue" stroke="midnightblue" points="335.71,-51.5 345.71,-48 335.71,-44.5 335.71,-51.5"/>
</g>
<!-- Node7 -->
<g id="node7" class="node">
<title>Node7</title>
<g id="a_node7"><a xlink:href="class_d_p_ensemble.html#a1652b5fde834bfb18416ebf438d3e10a" target="_top" xlink:title=" ">
<polygon fill="white" stroke="black" points="77,-38.5 77,-57.5 184,-57.5 184,-38.5 77,-38.5"/>
<text text-anchor="middle" x="130.5" y="-45.5" font-family="Helvetica,sans-Serif" font-size="10.00">DPEnsemble::train</text>
</a>
</g>
</g>
<!-- Node6&#45;&gt;Node7 -->
<g id="edge6" class="edge">
<title>Node6&#45;&gt;Node7</title>
<path fill="none" stroke="midnightblue" d="M221.79,-48C209.84,-48 196.69,-48 184.21,-48"/>
<polygon fill="midnightblue" stroke="midnightblue" points="221.93,-51.5 231.93,-48 221.93,-44.5 221.93,-51.5"/>
</g>
<!-- Node8 -->
<g id="node8" class="node">
<title>Node8</title>
<g id="a_node8"><a xlink:href="main_8cpp.html#a3c04138a5bfe5d72780bb7e82a18e627" target="_top" xlink:title=" ">
<polygon fill="white" stroke="black" points="0,-38.5 0,-57.5 41,-57.5 41,-38.5 0,-38.5"/>
<text text-anchor="middle" x="20.5" y="-45.5" font-family="Helvetica,sans-Serif" font-size="10.00">main</text>
</a>
</g>
</g>
<!-- Node7&#45;&gt;Node8 -->
<g id="edge7" class="edge">
<title>Node7&#45;&gt;Node8</title>
<path fill="none" stroke="midnightblue" d="M66.64,-48C57.4,-48 48.5,-48 41.09,-48"/>
<polygon fill="midnightblue" stroke="midnightblue" points="66.77,-51.5 76.77,-48 66.77,-44.5 66.77,-51.5"/>
</g>
</g>
</svg>
