<?xml version="1.0" encoding="UTF-8" standalone="no"?>
<!DOCTYPE svg PUBLIC "-//W3C//DTD SVG 1.1//EN"
 "http://www.w3.org/Graphics/SVG/1.1/DTD/svg11.dtd">
<!-- Generated by graphviz version 2.43.0 (0)
 -->
<!-- Title: DPEnsemble::predict Pages: 1 -->
<svg width="500pt" height="56pt"
 viewBox="0.00 0.00 500.00 55.50" xmlns="http://www.w3.org/2000/svg" xmlns:xlink="http://www.w3.org/1999/xlink">
<g id="graph0" class="graph" transform="scale(1 1) rotate(0) translate(4 51.5)">
<title>DPEnsemble::predict</title>
<polygon fill="white" stroke="transparent" points="-4,4 -4,-51.5 496,-51.5 496,4 -4,4"/>
<!-- Node1 -->
<g id="node1" class="node">
<title>Node1</title>
<g id="a_node1"><a xlink:title=" ">
<polygon fill="#bfbfbf" stroke="black" points="374,-28 374,-47 492,-47 492,-28 374,-28"/>
<text text-anchor="middle" x="433" y="-35" font-family="Helvetica,sans-Serif" font-size="10.00">DPEnsemble::predict</text>
</a>
</g>
</g>
<!-- Node2 -->
<g id="node2" class="node">
<title>Node2</title>
<g id="a_node2"><a xlink:href="main_8cpp.html#a3c04138a5bfe5d72780bb7e82a18e627" target="_top" xlink:title=" ">
<polygon fill="white" stroke="black" points="0,-28 0,-47 41,-47 41,-28 0,-28"/>
<text text-anchor="middle" x="20.5" y="-35" font-family="Helvetica,sans-Serif" font-size="10.00">main</text>
</a>
</g>
</g>
<!-- Node1&#45;&gt;Node2 -->
<g id="edge1" class="edge">
<title>Node1&#45;&gt;Node2</title>
<path fill="none" stroke="midnightblue" d="M363.74,-39.12C355.07,-39.28 346.33,-39.41 338,-39.5 225.64,-40.7 90.82,-38.7 41.13,-37.86"/>
<polygon fill="midnightblue" stroke="midnightblue" points="363.91,-42.62 373.84,-38.93 363.77,-35.62 363.91,-42.62"/>
</g>
<!-- Node3 -->
<g id="node3" class="node">
<title>Node3</title>
<g id="a_node3"><a xlink:href="class_d_p_ensemble.html#a2b446f94f9da238cae22580813c91196" target="_top" xlink:title=" ">
<polygon fill="white" stroke="black" points="220,-0.5 220,-30.5 338,-30.5 338,-0.5 220,-0.5"/>
<text text-anchor="start" x="228" y="-18.5" font-family="Helvetica,sans-Serif" font-size="10.00">DPEnsemble::update</text>
<text text-anchor="middle" x="279" y="-7.5" font-family="Helvetica,sans-Serif" font-size="10.00">_gradients</text>
</a>
</g>
</g>
<!-- Node1&#45;&gt;Node3 -->
<g id="edge2" class="edge">
<title>Node1&#45;&gt;Node3</title>
<path fill="none" stroke="midnightblue" d="M363.74,-27.62C355.2,-26.38 346.54,-25.13 338.18,-23.92"/>
<polygon fill="midnightblue" stroke="midnightblue" points="363.27,-31.09 373.67,-29.06 364.27,-24.16 363.27,-31.09"/>
</g>
<!-- Node4 -->
<g id="node4" class="node">
<title>Node4</title>
<g id="a_node4"><a xlink:href="class_d_p_ensemble.html#a1652b5fde834bfb18416ebf438d3e10a" target="_top" xlink:title=" ">
<polygon fill="white" stroke="black" points="77,-9 77,-28 184,-28 184,-9 77,-9"/>
<text text-anchor="middle" x="130.5" y="-16" font-family="Helvetica,sans-Serif" font-size="10.00">DPEnsemble::train</text>
</a>
</g>
</g>
<!-- Node3&#45;&gt;Node4 -->
<g id="edge3" class="edge">
<title>Node3&#45;&gt;Node4</title>
<path fill="none" stroke="midnightblue" d="M209.47,-16.9C201.05,-17.08 192.54,-17.25 184.4,-17.42"/>
<polygon fill="midnightblue" stroke="midnightblue" points="209.75,-20.4 219.68,-16.69 209.61,-13.4 209.75,-20.4"/>
</g>
<!-- Node4&#45;&gt;Node2 -->
<g id="edge4" class="edge">
<title>Node4&#45;&gt;Node2</title>
<path fill="none" stroke="midnightblue" d="M66.64,-29.56C57.4,-31.19 48.5,-32.75 41.09,-34.05"/>
<polygon fill="midnightblue" stroke="midnightblue" points="67.52,-32.96 76.77,-27.78 66.31,-26.06 67.52,-32.96"/>
</g>
</g>
</svg>
