<?xml version="1.0" encoding="UTF-8" standalone="no"?>
<!DOCTYPE svg PUBLIC "-//W3C//DTD SVG 1.1//EN"
 "http://www.w3.org/Graphics/SVG/1.1/DTD/svg11.dtd">
<!-- Generated by graphviz version 2.43.0 (0)
 -->
<!-- Title: DPTree::make_tree_DFS Pages: 1 -->
<svg width="629pt" height="192pt"
 viewBox="0.00 0.00 629.00 191.50" xmlns="http://www.w3.org/2000/svg" xmlns:xlink="http://www.w3.org/1999/xlink">
<g id="graph0" class="graph" transform="scale(1 1) rotate(0) translate(4 187.5)">
<title>DPTree::make_tree_DFS</title>
<polygon fill="white" stroke="transparent" points="-4,4 -4,-187.5 625,-187.5 625,4 -4,4"/>
<!-- Node1 -->
<g id="node1" class="node">
<title>Node1</title>
<g id="a_node1"><a xlink:title=" ">
<polygon fill="#bfbfbf" stroke="black" points="0,-57.5 0,-76.5 132,-76.5 132,-57.5 0,-57.5"/>
<text text-anchor="middle" x="66" y="-64.5" font-family="Helvetica,sans-Serif" font-size="10.00">DPTree::make_tree_DFS</text>
</a>
</g>
</g>
<!-- Node2 -->
<g id="node2" class="node">
<title>Node2</title>
<g id="a_node2"><a xlink:href="class_d_p_tree.html#ad7f8755be37ad10cf104fba2076dce5e" target="_top" xlink:title=" ">
<polygon fill="white" stroke="black" points="173,-114.5 173,-133.5 300,-133.5 300,-114.5 173,-114.5"/>
<text text-anchor="middle" x="236.5" y="-121.5" font-family="Helvetica,sans-Serif" font-size="10.00">DPTree::find_best_split</text>
</a>
</g>
</g>
<!-- Node1&#45;&gt;Node2 -->
<g id="edge1" class="edge">
<title>Node1&#45;&gt;Node2</title>
<path fill="none" stroke="midnightblue" d="M95.2,-76.54C123.27,-86.03 166.52,-100.67 197.58,-111.17"/>
<polygon fill="midnightblue" stroke="midnightblue" points="196.61,-114.54 207.2,-114.43 198.85,-107.91 196.61,-114.54"/>
</g>
<!-- Node4 -->
<g id="node4" class="node">
<title>Node4</title>
<g id="a_node4"><a xlink:href="class_d_p_tree.html#af16f3e0373e606fe42b2104890b2d036" target="_top" xlink:title=" ">
<polygon fill="white" stroke="black" points="502,-90 502,-120 621,-120 621,-90 502,-90"/>
<text text-anchor="start" x="510" y="-108" font-family="Helvetica,sans-Serif" font-size="10.00">DPTree::samples_left</text>
<text text-anchor="middle" x="561.5" y="-97" font-family="Helvetica,sans-Serif" font-size="10.00">_right_partition</text>
</a>
</g>
</g>
<!-- Node1&#45;&gt;Node4 -->
<g id="edge8" class="edge">
<title>Node1&#45;&gt;Node4</title>
<path fill="none" stroke="midnightblue" d="M132.02,-72.01C225.33,-79.19 396.44,-92.37 491.77,-99.71"/>
<polygon fill="midnightblue" stroke="midnightblue" points="491.64,-103.21 501.88,-100.49 492.18,-96.23 491.64,-103.21"/>
</g>
<!-- Node7 -->
<g id="node7" class="node">
<title>Node7</title>
<g id="a_node7"><a xlink:href="class_tree_node.html#ae671fa006ebb36f632b46b5aa1ec2899" target="_top" xlink:title=" ">
<polygon fill="white" stroke="black" points="186,-38.5 186,-57.5 287,-57.5 287,-38.5 186,-38.5"/>
<text text-anchor="middle" x="236.5" y="-45.5" font-family="Helvetica,sans-Serif" font-size="10.00">TreeNode::is_leaf</text>
</a>
</g>
</g>
<!-- Node1&#45;&gt;Node7 -->
<g id="edge6" class="edge">
<title>Node1&#45;&gt;Node7</title>
<path fill="none" stroke="midnightblue" d="M132.15,-59.65C146.53,-58.03 161.7,-56.32 175.85,-54.73"/>
<polygon fill="midnightblue" stroke="midnightblue" points="176.4,-58.19 185.95,-53.59 175.62,-51.23 176.4,-58.19"/>
</g>
<!-- Node8 -->
<g id="node8" class="node">
<title>Node8</title>
<g id="a_node8"><a xlink:href="class_d_p_tree.html#a3a716a075edfae470e0fe7511634e922" target="_top" xlink:title=" ">
<polygon fill="white" stroke="black" points="168,-0.5 168,-19.5 305,-19.5 305,-0.5 168,-0.5"/>
<text text-anchor="middle" x="236.5" y="-7.5" font-family="Helvetica,sans-Serif" font-size="10.00">DPTree::make_leaf_node</text>
</a>
</g>
</g>
<!-- Node1&#45;&gt;Node8 -->
<g id="edge7" class="edge">
<title>Node1&#45;&gt;Node8</title>
<path fill="none" stroke="midnightblue" d="M90.88,-57.36C111.21,-49.3 141.3,-37.76 168,-29 174.92,-26.73 182.29,-24.48 189.52,-22.37"/>
<polygon fill="midnightblue" stroke="midnightblue" points="190.59,-25.71 199.25,-19.59 188.67,-18.98 190.59,-25.71"/>
</g>
<!-- Node3 -->
<g id="node3" class="node">
<title>Node3</title>
<g id="a_node3"><a xlink:href="class_d_p_tree.html#ab9426a6ac2e5122e29ecbb6e9c4cd050" target="_top" xlink:title=" ">
<polygon fill="white" stroke="black" points="341,-114.5 341,-133.5 466,-133.5 466,-114.5 341,-114.5"/>
<text text-anchor="middle" x="403.5" y="-121.5" font-family="Helvetica,sans-Serif" font-size="10.00">DPTree::compute_gain</text>
</a>
</g>
</g>
<!-- Node2&#45;&gt;Node3 -->
<g id="edge2" class="edge">
<title>Node2&#45;&gt;Node3</title>
<path fill="none" stroke="midnightblue" d="M300.35,-124C310.32,-124 320.7,-124 330.86,-124"/>
<polygon fill="midnightblue" stroke="midnightblue" points="330.92,-127.5 340.92,-124 330.92,-120.5 330.92,-127.5"/>
</g>
<!-- Node5 -->
<g id="node5" class="node">
<title>Node5</title>
<g id="a_node5"><a xlink:href="class_d_p_tree.html#a7ce368c3888736d660dcf09587df4512" target="_top" xlink:title=" ">
<polygon fill="white" stroke="black" points="346.5,-153 346.5,-183 460.5,-183 460.5,-153 346.5,-153"/>
<text text-anchor="start" x="354.5" y="-171" font-family="Helvetica,sans-Serif" font-size="10.00">DPTree::exponential</text>
<text text-anchor="middle" x="403.5" y="-160" font-family="Helvetica,sans-Serif" font-size="10.00">_mechanism</text>
</a>
</g>
</g>
<!-- Node2&#45;&gt;Node5 -->
<g id="edge4" class="edge">
<title>Node2&#45;&gt;Node5</title>
<path fill="none" stroke="midnightblue" d="M273.3,-133.55C291.8,-138.48 314.96,-144.66 336.54,-150.41"/>
<polygon fill="midnightblue" stroke="midnightblue" points="335.76,-153.83 346.33,-153.02 337.57,-147.06 335.76,-153.83"/>
</g>
<!-- Node3&#45;&gt;Node4 -->
<g id="edge3" class="edge">
<title>Node3&#45;&gt;Node4</title>
<path fill="none" stroke="midnightblue" d="M466.16,-116.49C474.6,-115.46 483.32,-114.4 491.88,-113.36"/>
<polygon fill="midnightblue" stroke="midnightblue" points="492.33,-116.83 501.84,-112.15 491.49,-109.88 492.33,-116.83"/>
</g>
<!-- Node6 -->
<g id="node6" class="node">
<title>Node6</title>
<g id="a_node6"><a xlink:href="utils_8h.html#a35953abcfd9e2310fa2c6d440233fad5" target="_top" xlink:title=" ">
<polygon fill="white" stroke="black" points="521,-158.5 521,-177.5 602,-177.5 602,-158.5 521,-158.5"/>
<text text-anchor="middle" x="561.5" y="-165.5" font-family="Helvetica,sans-Serif" font-size="10.00">log_sum_exp</text>
</a>
</g>
</g>
<!-- Node5&#45;&gt;Node6 -->
<g id="edge5" class="edge">
<title>Node5&#45;&gt;Node6</title>
<path fill="none" stroke="midnightblue" d="M460.82,-168C477.14,-168 494.84,-168 510.73,-168"/>
<polygon fill="midnightblue" stroke="midnightblue" points="510.88,-171.5 520.88,-168 510.88,-164.5 510.88,-171.5"/>
</g>
</g>
</svg>
