<?xml version="1.0" encoding="UTF-8" standalone="no"?>
<!DOCTYPE svg PUBLIC "-//W3C//DTD SVG 1.1//EN"
 "http://www.w3.org/Graphics/SVG/1.1/DTD/svg11.dtd">
<!-- Generated by graphviz version 2.43.0 (0)
 -->
<!-- Title: base/include/gbdt/dp_ensemble.h Pages: 1 -->
<svg width="302pt" height="95pt"
 viewBox="0.00 0.00 301.50 95.00" xmlns="http://www.w3.org/2000/svg" xmlns:xlink="http://www.w3.org/1999/xlink">
<g id="graph0" class="graph" transform="scale(1 1) rotate(0) translate(4 91)">
<title>base/include/gbdt/dp_ensemble.h</title>
<polygon fill="white" stroke="transparent" points="-4,4 -4,-91 297.5,-91 297.5,4 -4,4"/>
<!-- Node1 -->
<g id="node1" class="node">
<title>Node1</title>
<g id="a_node1"><a xlink:title=" ">
<polygon fill="#bfbfbf" stroke="black" points="104,-56.5 104,-86.5 222,-86.5 222,-56.5 104,-56.5"/>
<text text-anchor="start" x="112" y="-74.5" font-family="Helvetica,sans-Serif" font-size="10.00">base/include/gbdt/dp</text>
<text text-anchor="middle" x="163" y="-63.5" font-family="Helvetica,sans-Serif" font-size="10.00">_ensemble.h</text>
</a>
</g>
</g>
<!-- Node2 -->
<g id="node2" class="node">
<title>Node2</title>
<g id="a_node2"><a xlink:href="dp__ensemble_8cpp.html" target="_top" xlink:title=" ">
<polygon fill="white" stroke="black" points="0,-0.5 0,-19.5 170,-19.5 170,-0.5 0,-0.5"/>
<text text-anchor="middle" x="85" y="-7.5" font-family="Helvetica,sans-Serif" font-size="10.00">base/src/gbdt/dp_ensemble.cpp</text>
</a>
</g>
</g>
<!-- Node1&#45;&gt;Node2 -->
<g id="edge1" class="edge">
<title>Node1&#45;&gt;Node2</title>
<path fill="none" stroke="midnightblue" d="M136.37,-50.19C122.72,-39.77 106.8,-27.63 96.35,-19.66"/>
<polygon fill="midnightblue" stroke="midnightblue" points="134.44,-53.12 144.52,-56.4 138.69,-47.55 134.44,-53.12"/>
</g>
<!-- Node3 -->
<g id="node3" class="node">
<title>Node3</title>
<g id="a_node3"><a xlink:href="main_8cpp.html" target="_top" xlink:title=" ">
<polygon fill="white" stroke="black" points="188.5,-0.5 188.5,-19.5 293.5,-19.5 293.5,-0.5 188.5,-0.5"/>
<text text-anchor="middle" x="241" y="-7.5" font-family="Helvetica,sans-Serif" font-size="10.00">base/src/main.cpp</text>
</a>
</g>
</g>
<!-- Node1&#45;&gt;Node3 -->
<g id="edge2" class="edge">
<title>Node1&#45;&gt;Node3</title>
<path fill="none" stroke="midnightblue" d="M189.63,-50.19C203.28,-39.77 219.2,-27.63 229.65,-19.66"/>
<polygon fill="midnightblue" stroke="midnightblue" points="187.31,-47.55 181.48,-56.4 191.56,-53.12 187.31,-47.55"/>
</g>
</g>
</svg>
