<?xml version="1.0" encoding="UTF-8" standalone="no"?>
<!DOCTYPE svg PUBLIC "-//W3C//DTD SVG 1.1//EN"
 "http://www.w3.org/Graphics/SVG/1.1/DTD/svg11.dtd">
<!-- Generated by graphviz version 2.43.0 (0)
 -->
<!-- Title: base/src/gbdt/dp_tree.cpp Pages: 1 -->
<svg width="671pt" height="364pt"
 viewBox="0.00 0.00 671.00 364.00" xmlns="http://www.w3.org/2000/svg" xmlns:xlink="http://www.w3.org/1999/xlink">
<g id="graph0" class="graph" transform="scale(1 1) rotate(0) translate(4 360)">
<title>base/src/gbdt/dp_tree.cpp</title>
<polygon fill="white" stroke="transparent" points="-4,4 -4,-360 667,-360 667,4 -4,4"/>
<!-- Node1 -->
<g id="node1" class="node">
<title>Node1</title>
<g id="a_node1"><a xlink:title=" ">
<polygon fill="#bfbfbf" stroke="black" points="191,-336.5 191,-355.5 333,-355.5 333,-336.5 191,-336.5"/>
<text text-anchor="middle" x="262" y="-343.5" font-family="Helvetica,sans-Serif" font-size="10.00">base/src/gbdt/dp_tree.cpp</text>
</a>
</g>
</g>
<!-- Node2 -->
<g id="node2" class="node">
<title>Node2</title>
<g id="a_node2"><a xlink:title=" ">
<polygon fill="white" stroke="#bfbfbf" points="0,-280.5 0,-299.5 56,-299.5 56,-280.5 0,-280.5"/>
<text text-anchor="middle" x="28" y="-287.5" font-family="Helvetica,sans-Serif" font-size="10.00">numeric</text>
</a>
</g>
</g>
<!-- Node1&#45;&gt;Node2 -->
<g id="edge1" class="edge">
<title>Node1&#45;&gt;Node2</title>
<path fill="none" stroke="midnightblue" d="M223.83,-336.45C186.21,-327.98 126.82,-314.52 66.37,-300.3"/>
<polygon fill="midnightblue" stroke="midnightblue" points="66.81,-296.81 56.27,-297.92 65.2,-303.62 66.81,-296.81"/>
</g>
<!-- Node3 -->
<g id="node3" class="node">
<title>Node3</title>
<g id="a_node3"><a xlink:title=" ">
<polygon fill="white" stroke="#bfbfbf" points="74,-280.5 74,-299.5 134,-299.5 134,-280.5 74,-280.5"/>
<text text-anchor="middle" x="104" y="-287.5" font-family="Helvetica,sans-Serif" font-size="10.00">iostream</text>
</a>
</g>
</g>
<!-- Node1&#45;&gt;Node3 -->
<g id="edge2" class="edge">
<title>Node1&#45;&gt;Node3</title>
<path fill="none" stroke="midnightblue" d="M236.96,-336.44C210.38,-327.36 168.19,-312.94 138.48,-302.78"/>
<polygon fill="midnightblue" stroke="midnightblue" points="139.51,-299.44 128.92,-299.52 137.25,-306.06 139.51,-299.44"/>
</g>
<!-- Node4 -->
<g id="node4" class="node">
<title>Node4</title>
<g id="a_node4"><a xlink:title=" ">
<polygon fill="white" stroke="#bfbfbf" points="152,-280.5 152,-299.5 216,-299.5 216,-280.5 152,-280.5"/>
<text text-anchor="middle" x="184" y="-287.5" font-family="Helvetica,sans-Serif" font-size="10.00">algorithm</text>
</a>
</g>
</g>
<!-- Node1&#45;&gt;Node4 -->
<g id="edge3" class="edge">
<title>Node1&#45;&gt;Node4</title>
<path fill="none" stroke="midnightblue" d="M249.47,-336.32C237.41,-327.98 218.97,-315.21 204.73,-305.35"/>
<polygon fill="midnightblue" stroke="midnightblue" points="206.72,-302.47 196.5,-299.65 202.73,-308.22 206.72,-302.47"/>
</g>
<!-- Node5 -->
<g id="node5" class="node">
<title>Node5</title>
<g id="a_node5"><a xlink:title=" ">
<polygon fill="white" stroke="#bfbfbf" points="234,-280.5 234,-299.5 290,-299.5 290,-280.5 234,-280.5"/>
<text text-anchor="middle" x="262" y="-287.5" font-family="Helvetica,sans-Serif" font-size="10.00">iomanip</text>
</a>
</g>
</g>
<!-- Node1&#45;&gt;Node5 -->
<g id="edge4" class="edge">
<title>Node1&#45;&gt;Node5</title>
<path fill="none" stroke="midnightblue" d="M262,-336.08C262,-329.01 262,-318.86 262,-309.99"/>
<polygon fill="midnightblue" stroke="midnightblue" points="265.5,-309.75 262,-299.75 258.5,-309.75 265.5,-309.75"/>
</g>
<!-- Node6 -->
<g id="node6" class="node">
<title>Node6</title>
<g id="a_node6"><a xlink:title=" ">
<polygon fill="white" stroke="#bfbfbf" points="308.5,-280.5 308.5,-299.5 355.5,-299.5 355.5,-280.5 308.5,-280.5"/>
<text text-anchor="middle" x="332" y="-287.5" font-family="Helvetica,sans-Serif" font-size="10.00">cmath</text>
</a>
</g>
</g>
<!-- Node1&#45;&gt;Node6 -->
<g id="edge5" class="edge">
<title>Node1&#45;&gt;Node6</title>
<path fill="none" stroke="midnightblue" d="M273.25,-336.32C283.8,-328.18 299.8,-315.84 312.44,-306.09"/>
<polygon fill="midnightblue" stroke="midnightblue" points="314.77,-308.71 320.55,-299.83 310.49,-303.17 314.77,-308.71"/>
</g>
<!-- Node7 -->
<g id="node7" class="node">
<title>Node7</title>
<g id="a_node7"><a xlink:href="dp__tree_8h.html" target="_top" xlink:title=" ">
<polygon fill="white" stroke="black" points="374,-280.5 374,-299.5 436,-299.5 436,-280.5 374,-280.5"/>
<text text-anchor="middle" x="405" y="-287.5" font-family="Helvetica,sans-Serif" font-size="10.00">dp_tree.h</text>
</a>
</g>
</g>
<!-- Node1&#45;&gt;Node7 -->
<g id="edge6" class="edge">
<title>Node1&#45;&gt;Node7</title>
<path fill="none" stroke="midnightblue" d="M284.66,-336.44C308.4,-327.48 345.91,-313.31 372.74,-303.18"/>
<polygon fill="midnightblue" stroke="midnightblue" points="374.33,-306.32 382.45,-299.52 371.86,-299.77 374.33,-306.32"/>
</g>
<!-- Node18 -->
<g id="node18" class="node">
<title>Node18</title>
<g id="a_node18"><a xlink:href="laplace_8h.html" target="_top" xlink:title=" ">
<polygon fill="white" stroke="black" points="544.5,-280.5 544.5,-299.5 605.5,-299.5 605.5,-280.5 544.5,-280.5"/>
<text text-anchor="middle" x="575" y="-287.5" font-family="Helvetica,sans-Serif" font-size="10.00">laplace.h</text>
</a>
</g>
</g>
<!-- Node1&#45;&gt;Node18 -->
<g id="edge25" class="edge">
<title>Node1&#45;&gt;Node18</title>
<path fill="none" stroke="midnightblue" d="M311.6,-336.44C373.1,-325.83 476.8,-307.94 534.02,-298.07"/>
<polygon fill="midnightblue" stroke="midnightblue" points="534.88,-301.47 544.14,-296.32 533.69,-294.58 534.88,-301.47"/>
</g>
<!-- Node8 -->
<g id="node8" class="node">
<title>Node8</title>
<g id="a_node8"><a xlink:title=" ">
<polygon fill="white" stroke="#bfbfbf" points="314.5,-0.5 314.5,-19.5 361.5,-19.5 361.5,-0.5 314.5,-0.5"/>
<text text-anchor="middle" x="338" y="-7.5" font-family="Helvetica,sans-Serif" font-size="10.00">vector</text>
</a>
</g>
</g>
<!-- Node7&#45;&gt;Node8 -->
<g id="edge7" class="edge">
<title>Node7&#45;&gt;Node8</title>
<path fill="none" stroke="midnightblue" d="M436.24,-288.59C471.51,-286.42 528.33,-277.49 562,-244 583.34,-222.77 581,-209.1 581,-179 581,-179 581,-179 581,-121 581,-30.23 438.54,-13.97 371.77,-11.34"/>
<polygon fill="midnightblue" stroke="midnightblue" points="371.85,-7.84 361.74,-11.02 371.63,-14.83 371.85,-7.84"/>
</g>
<!-- Node9 -->
<g id="node9" class="node">
<title>Node9</title>
<g id="a_node9"><a xlink:title=" ">
<polygon fill="white" stroke="#bfbfbf" points="404,-168.5 404,-187.5 436,-187.5 436,-168.5 404,-168.5"/>
<text text-anchor="middle" x="420" y="-175.5" font-family="Helvetica,sans-Serif" font-size="10.00">set</text>
</a>
</g>
</g>
<!-- Node7&#45;&gt;Node9 -->
<g id="edge8" class="edge">
<title>Node7&#45;&gt;Node9</title>
<path fill="none" stroke="midnightblue" d="M402.04,-280.48C398.11,-267.95 392.21,-243.9 397,-224 399.31,-214.42 404.02,-204.58 408.58,-196.56"/>
<polygon fill="midnightblue" stroke="midnightblue" points="411.69,-198.17 413.9,-187.81 405.71,-194.54 411.69,-198.17"/>
</g>
<!-- Node10 -->
<g id="node10" class="node">
<title>Node10</title>
<g id="a_node10"><a xlink:title=" ">
<polygon fill="white" stroke="#bfbfbf" points="405.5,-224.5 405.5,-243.5 460.5,-243.5 460.5,-224.5 405.5,-224.5"/>
<text text-anchor="middle" x="433" y="-231.5" font-family="Helvetica,sans-Serif" font-size="10.00">fstream</text>
</a>
</g>
</g>
<!-- Node7&#45;&gt;Node10 -->
<g id="edge9" class="edge">
<title>Node7&#45;&gt;Node10</title>
<path fill="none" stroke="midnightblue" d="M409.62,-280.08C413.46,-272.69 419.02,-261.95 423.76,-252.81"/>
<polygon fill="midnightblue" stroke="midnightblue" points="426.97,-254.24 428.46,-243.75 420.75,-251.02 426.97,-254.24"/>
</g>
<!-- Node11 -->
<g id="node11" class="node">
<title>Node11</title>
<g id="a_node11"><a xlink:href="tree__node_8h.html" target="_top" xlink:title=" ">
<polygon fill="white" stroke="black" points="479,-224.5 479,-243.5 553,-243.5 553,-224.5 479,-224.5"/>
<text text-anchor="middle" x="516" y="-231.5" font-family="Helvetica,sans-Serif" font-size="10.00">tree_node.h</text>
</a>
</g>
</g>
<!-- Node7&#45;&gt;Node11 -->
<g id="edge10" class="edge">
<title>Node7&#45;&gt;Node11</title>
<path fill="none" stroke="midnightblue" d="M422.83,-280.32C440.72,-271.62 468.48,-258.12 489.05,-248.11"/>
<polygon fill="midnightblue" stroke="midnightblue" points="490.75,-251.18 498.21,-243.65 487.69,-244.88 490.75,-251.18"/>
</g>
<!-- Node12 -->
<g id="node12" class="node">
<title>Node12</title>
<g id="a_node12"><a xlink:href="parameters_8h.html" target="_top" xlink:title=" ">
<polygon fill="white" stroke="black" points="166,-112.5 166,-131.5 248,-131.5 248,-112.5 166,-112.5"/>
<text text-anchor="middle" x="207" y="-119.5" font-family="Helvetica,sans-Serif" font-size="10.00">parameters.h</text>
</a>
</g>
</g>
<!-- Node7&#45;&gt;Node12 -->
<g id="edge11" class="edge">
<title>Node7&#45;&gt;Node12</title>
<path fill="none" stroke="midnightblue" d="M375.73,-280.48C344.77,-271.05 298.42,-255.66 284,-244 249.12,-215.79 225.19,-167.35 214.08,-141.13"/>
<polygon fill="midnightblue" stroke="midnightblue" points="217.24,-139.61 210.22,-131.67 210.76,-142.25 217.24,-139.61"/>
</g>
<!-- Node15 -->
<g id="node15" class="node">
<title>Node15</title>
<g id="a_node15"><a xlink:href="data_8h.html" target="_top" xlink:title=" ">
<polygon fill="white" stroke="black" points="301.5,-224.5 301.5,-243.5 348.5,-243.5 348.5,-224.5 301.5,-224.5"/>
<text text-anchor="middle" x="325" y="-231.5" font-family="Helvetica,sans-Serif" font-size="10.00">data.h</text>
</a>
</g>
</g>
<!-- Node7&#45;&gt;Node15 -->
<g id="edge16" class="edge">
<title>Node7&#45;&gt;Node15</title>
<path fill="none" stroke="midnightblue" d="M392.15,-280.32C379.78,-271.98 360.87,-259.21 346.26,-249.35"/>
<polygon fill="midnightblue" stroke="midnightblue" points="348.07,-246.35 337.82,-243.65 344.15,-252.15 348.07,-246.35"/>
</g>
<!-- Node16 -->
<g id="node16" class="node">
<title>Node16</title>
<g id="a_node16"><a xlink:href="utils_8h.html" target="_top" xlink:title=" ">
<polygon fill="white" stroke="black" points="282.5,-168.5 282.5,-187.5 329.5,-187.5 329.5,-168.5 282.5,-168.5"/>
<text text-anchor="middle" x="306" y="-175.5" font-family="Helvetica,sans-Serif" font-size="10.00">utils.h</text>
</a>
</g>
</g>
<!-- Node7&#45;&gt;Node16 -->
<g id="edge24" class="edge">
<title>Node7&#45;&gt;Node16</title>
<path fill="none" stroke="midnightblue" d="M373.81,-280.82C343.78,-272.24 301.54,-258.07 292,-244 282.51,-230.01 288.46,-210.75 295.29,-196.83"/>
<polygon fill="midnightblue" stroke="midnightblue" points="298.5,-198.25 300.21,-187.8 292.36,-194.9 298.5,-198.25"/>
</g>
<!-- Node12&#45;&gt;Node8 -->
<g id="edge13" class="edge">
<title>Node12&#45;&gt;Node8</title>
<path fill="none" stroke="midnightblue" d="M211.63,-112.49C219.25,-99.11 235.52,-72.94 255,-56 270.41,-42.6 290.47,-31.59 307.01,-23.81"/>
<polygon fill="midnightblue" stroke="midnightblue" points="308.61,-26.93 316.28,-19.61 305.73,-20.55 308.61,-26.93"/>
</g>
<!-- Node13 -->
<g id="node13" class="node">
<title>Node13</title>
<g id="a_node13"><a xlink:title=" ">
<polygon fill="white" stroke="#bfbfbf" points="150,-56.5 150,-75.5 208,-75.5 208,-56.5 150,-56.5"/>
<text text-anchor="middle" x="179" y="-63.5" font-family="Helvetica,sans-Serif" font-size="10.00">memory</text>
</a>
</g>
</g>
<!-- Node12&#45;&gt;Node13 -->
<g id="edge12" class="edge">
<title>Node12&#45;&gt;Node13</title>
<path fill="none" stroke="midnightblue" d="M202.38,-112.08C198.54,-104.69 192.98,-93.95 188.24,-84.81"/>
<polygon fill="midnightblue" stroke="midnightblue" points="191.25,-83.02 183.54,-75.75 185.03,-86.24 191.25,-83.02"/>
</g>
<!-- Node14 -->
<g id="node14" class="node">
<title>Node14</title>
<g id="a_node14"><a xlink:href="loss_8h.html" target="_top" xlink:title=" ">
<polygon fill="white" stroke="black" points="264.5,-56.5 264.5,-75.5 309.5,-75.5 309.5,-56.5 264.5,-56.5"/>
<text text-anchor="middle" x="287" y="-63.5" font-family="Helvetica,sans-Serif" font-size="10.00">loss.h</text>
</a>
</g>
</g>
<!-- Node12&#45;&gt;Node14 -->
<g id="edge14" class="edge">
<title>Node12&#45;&gt;Node14</title>
<path fill="none" stroke="midnightblue" d="M219.85,-112.32C232.22,-103.98 251.13,-91.21 265.74,-81.35"/>
<polygon fill="midnightblue" stroke="midnightblue" points="267.85,-84.15 274.18,-75.65 263.93,-78.35 267.85,-84.15"/>
</g>
<!-- Node14&#45;&gt;Node8 -->
<g id="edge15" class="edge">
<title>Node14&#45;&gt;Node8</title>
<path fill="none" stroke="midnightblue" d="M295.42,-56.08C302.85,-48.22 313.85,-36.57 322.81,-27.08"/>
<polygon fill="midnightblue" stroke="midnightblue" points="325.41,-29.42 329.74,-19.75 320.32,-24.62 325.41,-29.42"/>
</g>
<!-- Node15&#45;&gt;Node8 -->
<g id="edge17" class="edge">
<title>Node15&#45;&gt;Node8</title>
<path fill="none" stroke="midnightblue" d="M328.48,-224.2C331.84,-215.25 336.75,-200.9 339,-188 349.11,-130.17 347.89,-114.58 344,-56 343.43,-47.34 342.23,-37.81 341.06,-29.75"/>
<polygon fill="midnightblue" stroke="midnightblue" points="344.48,-28.94 339.49,-19.59 337.56,-30.01 344.48,-28.94"/>
</g>
<!-- Node15&#45;&gt;Node9 -->
<g id="edge18" class="edge">
<title>Node15&#45;&gt;Node9</title>
<path fill="none" stroke="midnightblue" d="M340.26,-224.32C355.22,-215.82 378.25,-202.73 395.73,-192.8"/>
<polygon fill="midnightblue" stroke="midnightblue" points="397.81,-195.64 404.77,-187.65 394.35,-189.55 397.81,-195.64"/>
</g>
<!-- Node15&#45;&gt;Node16 -->
<g id="edge19" class="edge">
<title>Node15&#45;&gt;Node16</title>
<path fill="none" stroke="midnightblue" d="M316.7,-224.08C312.67,-216.93 308.62,-206.64 306.12,-197.69"/>
<polygon fill="midnightblue" stroke="midnightblue" points="309.5,-196.77 303.95,-187.75 302.66,-198.27 309.5,-196.77"/>
</g>
<!-- Node16&#45;&gt;Node8 -->
<g id="edge20" class="edge">
<title>Node16&#45;&gt;Node8</title>
<path fill="none" stroke="midnightblue" d="M308.82,-168.46C311.7,-159.46 316.14,-144.86 319,-132 326.96,-96.14 332.83,-53.59 335.8,-29.7"/>
<polygon fill="midnightblue" stroke="midnightblue" points="339.3,-29.93 337.03,-19.58 332.35,-29.08 339.3,-29.93"/>
</g>
<!-- Node16&#45;&gt;Node12 -->
<g id="edge22" class="edge">
<title>Node16&#45;&gt;Node12</title>
<path fill="none" stroke="midnightblue" d="M290.09,-168.32C274.36,-159.74 250.06,-146.49 231.79,-136.52"/>
<polygon fill="midnightblue" stroke="midnightblue" points="233.32,-133.37 222.87,-131.65 229.97,-139.52 233.32,-133.37"/>
</g>
<!-- Node16&#45;&gt;Node15 -->
<g id="edge23" class="edge">
<title>Node16&#45;&gt;Node15</title>
<path fill="none" stroke="midnightblue" d="M314.21,-187.75C318.24,-194.86 322.3,-205.14 324.82,-214.1"/>
<polygon fill="midnightblue" stroke="midnightblue" points="321.45,-215.07 327.03,-224.08 328.29,-213.56 321.45,-215.07"/>
</g>
<!-- Node17 -->
<g id="node17" class="node">
<title>Node17</title>
<g id="a_node17"><a xlink:title=" ">
<polygon fill="white" stroke="#bfbfbf" points="266,-112.5 266,-131.5 310,-131.5 310,-112.5 266,-112.5"/>
<text text-anchor="middle" x="288" y="-119.5" font-family="Helvetica,sans-Serif" font-size="10.00">string</text>
</a>
</g>
</g>
<!-- Node16&#45;&gt;Node17 -->
<g id="edge21" class="edge">
<title>Node16&#45;&gt;Node17</title>
<path fill="none" stroke="midnightblue" d="M303.03,-168.08C300.62,-160.85 297.14,-150.41 294.13,-141.4"/>
<polygon fill="midnightblue" stroke="midnightblue" points="297.4,-140.13 290.92,-131.75 290.76,-142.34 297.4,-140.13"/>
</g>
<!-- Node19 -->
<g id="node19" class="node">
<title>Node19</title>
<g id="a_node19"><a xlink:title=" ">
<polygon fill="white" stroke="#bfbfbf" points="609,-224.5 609,-243.5 663,-243.5 663,-224.5 609,-224.5"/>
<text text-anchor="middle" x="636" y="-231.5" font-family="Helvetica,sans-Serif" font-size="10.00">random</text>
</a>
</g>
</g>
<!-- Node18&#45;&gt;Node19 -->
<g id="edge26" class="edge">
<title>Node18&#45;&gt;Node19</title>
<path fill="none" stroke="midnightblue" d="M584.8,-280.32C593.82,-272.34 607.41,-260.31 618.32,-250.65"/>
<polygon fill="midnightblue" stroke="midnightblue" points="620.85,-253.08 626.02,-243.83 616.21,-247.84 620.85,-253.08"/>
</g>
</g>
</svg>
