<?xml version="1.0" encoding="UTF-8" standalone="no"?>
<!DOCTYPE svg PUBLIC "-//W3C//DTD SVG 1.1//EN"
 "http://www.w3.org/Graphics/SVG/1.1/DTD/svg11.dtd">
<!-- Generated by graphviz version 2.43.0 (0)
 -->
<!-- Title: base/include/gbdt/dp_ensemble.h Pages: 1 -->
<svg width="452pt" height="375pt"
 viewBox="0.00 0.00 452.00 375.00" xmlns="http://www.w3.org/2000/svg" xmlns:xlink="http://www.w3.org/1999/xlink">
<g id="graph0" class="graph" transform="scale(1 1) rotate(0) translate(4 371)">
<title>base/include/gbdt/dp_ensemble.h</title>
<polygon fill="white" stroke="transparent" points="-4,4 -4,-371 448,-371 448,4 -4,4"/>
<!-- Node1 -->
<g id="node1" class="node">
<title>Node1</title>
<g id="a_node1"><a xlink:title=" ">
<polygon fill="#bfbfbf" stroke="black" points="170,-336.5 170,-366.5 288,-366.5 288,-336.5 170,-336.5"/>
<text text-anchor="start" x="178" y="-354.5" font-family="Helvetica,sans-Serif" font-size="10.00">base/include/gbdt/dp</text>
<text text-anchor="middle" x="229" y="-343.5" font-family="Helvetica,sans-Serif" font-size="10.00">_ensemble.h</text>
</a>
</g>
</g>
<!-- Node2 -->
<g id="node2" class="node">
<title>Node2</title>
<g id="a_node2"><a xlink:title=" ">
<polygon fill="white" stroke="#bfbfbf" points="189.5,-0.5 189.5,-19.5 236.5,-19.5 236.5,-0.5 189.5,-0.5"/>
<text text-anchor="middle" x="213" y="-7.5" font-family="Helvetica,sans-Serif" font-size="10.00">vector</text>
</a>
</g>
</g>
<!-- Node1&#45;&gt;Node2 -->
<g id="edge1" class="edge">
<title>Node1&#45;&gt;Node2</title>
<path fill="none" stroke="midnightblue" d="M288.03,-344.13C351.68,-333.6 444,-306.08 444,-235 444,-235 444,-235 444,-121 444,-34.74 311.08,-16.05 246.9,-12.06"/>
<polygon fill="midnightblue" stroke="midnightblue" points="247.02,-8.56 236.85,-11.52 246.65,-15.55 247.02,-8.56"/>
</g>
<!-- Node3 -->
<g id="node3" class="node">
<title>Node3</title>
<g id="a_node3"><a xlink:title=" ">
<polygon fill="white" stroke="#bfbfbf" points="360.5,-224.5 360.5,-243.5 415.5,-243.5 415.5,-224.5 360.5,-224.5"/>
<text text-anchor="middle" x="388" y="-231.5" font-family="Helvetica,sans-Serif" font-size="10.00">fstream</text>
</a>
</g>
</g>
<!-- Node1&#45;&gt;Node3 -->
<g id="edge2" class="edge">
<title>Node1&#45;&gt;Node3</title>
<path fill="none" stroke="midnightblue" d="M248.5,-336.34C278.84,-314.3 337.06,-272.01 367.81,-249.66"/>
<polygon fill="midnightblue" stroke="midnightblue" points="370.03,-252.38 376.07,-243.67 365.92,-246.71 370.03,-252.38"/>
</g>
<!-- Node4 -->
<g id="node4" class="node">
<title>Node4</title>
<g id="a_node4"><a xlink:href="dp__tree_8h.html" target="_top" xlink:title=" ">
<polygon fill="white" stroke="black" points="198,-280.5 198,-299.5 260,-299.5 260,-280.5 198,-280.5"/>
<text text-anchor="middle" x="229" y="-287.5" font-family="Helvetica,sans-Serif" font-size="10.00">dp_tree.h</text>
</a>
</g>
</g>
<!-- Node1&#45;&gt;Node4 -->
<g id="edge3" class="edge">
<title>Node1&#45;&gt;Node4</title>
<path fill="none" stroke="midnightblue" d="M229,-336.4C229,-328.47 229,-318.46 229,-309.86"/>
<polygon fill="midnightblue" stroke="midnightblue" points="232.5,-309.66 229,-299.66 225.5,-309.66 232.5,-309.66"/>
</g>
<!-- Node7 -->
<g id="node7" class="node">
<title>Node7</title>
<g id="a_node7"><a xlink:href="parameters_8h.html" target="_top" xlink:title=" ">
<polygon fill="white" stroke="black" points="0,-112.5 0,-131.5 82,-131.5 82,-112.5 0,-112.5"/>
<text text-anchor="middle" x="41" y="-119.5" font-family="Helvetica,sans-Serif" font-size="10.00">parameters.h</text>
</a>
</g>
</g>
<!-- Node1&#45;&gt;Node7 -->
<g id="edge22" class="edge">
<title>Node1&#45;&gt;Node7</title>
<path fill="none" stroke="midnightblue" d="M205.11,-336.43C175.16,-317.97 123.48,-283.26 88,-244 68.48,-222.4 64.57,-215.13 54,-188 48.18,-173.07 44.85,-155.16 43.02,-141.92"/>
<polygon fill="midnightblue" stroke="midnightblue" points="46.45,-141.18 41.77,-131.68 39.5,-142.03 46.45,-141.18"/>
</g>
<!-- Node10 -->
<g id="node10" class="node">
<title>Node10</title>
<g id="a_node10"><a xlink:href="data_8h.html" target="_top" xlink:title=" ">
<polygon fill="white" stroke="black" points="126.5,-224.5 126.5,-243.5 173.5,-243.5 173.5,-224.5 126.5,-224.5"/>
<text text-anchor="middle" x="150" y="-231.5" font-family="Helvetica,sans-Serif" font-size="10.00">data.h</text>
</a>
</g>
</g>
<!-- Node1&#45;&gt;Node10 -->
<g id="edge23" class="edge">
<title>Node1&#45;&gt;Node10</title>
<path fill="none" stroke="midnightblue" d="M216.94,-336.29C208.72,-326.38 197.78,-312.69 189,-300 178.26,-284.48 167.31,-265.94 159.76,-252.64"/>
<polygon fill="midnightblue" stroke="midnightblue" points="162.65,-250.64 154.71,-243.63 156.55,-254.07 162.65,-250.64"/>
</g>
<!-- Node4&#45;&gt;Node2 -->
<g id="edge4" class="edge">
<title>Node4&#45;&gt;Node2</title>
<path fill="none" stroke="midnightblue" d="M246.94,-280.25C276.45,-264.45 332,-228.19 332,-179 332,-179 332,-179 332,-121 332,-73.3 279.8,-40.53 244.54,-23.84"/>
<polygon fill="midnightblue" stroke="midnightblue" points="245.66,-20.5 235.1,-19.56 242.77,-26.88 245.66,-20.5"/>
</g>
<!-- Node4&#45;&gt;Node3 -->
<g id="edge6" class="edge">
<title>Node4&#45;&gt;Node3</title>
<path fill="none" stroke="midnightblue" d="M254.19,-280.44C280.94,-271.36 323.4,-256.94 353.31,-246.78"/>
<polygon fill="midnightblue" stroke="midnightblue" points="354.58,-250.05 362.92,-243.52 352.33,-243.42 354.58,-250.05"/>
</g>
<!-- Node5 -->
<g id="node5" class="node">
<title>Node5</title>
<g id="a_node5"><a xlink:title=" ">
<polygon fill="white" stroke="#bfbfbf" points="272,-168.5 272,-187.5 304,-187.5 304,-168.5 272,-168.5"/>
<text text-anchor="middle" x="288" y="-175.5" font-family="Helvetica,sans-Serif" font-size="10.00">set</text>
</a>
</g>
</g>
<!-- Node4&#45;&gt;Node5 -->
<g id="edge5" class="edge">
<title>Node4&#45;&gt;Node5</title>
<path fill="none" stroke="midnightblue" d="M241.18,-280.46C251.82,-272.34 266.8,-259.12 275,-244 282.8,-229.62 285.95,-211.16 287.2,-197.59"/>
<polygon fill="midnightblue" stroke="midnightblue" points="290.7,-197.75 287.87,-187.54 283.71,-197.28 290.7,-197.75"/>
</g>
<!-- Node6 -->
<g id="node6" class="node">
<title>Node6</title>
<g id="a_node6"><a xlink:href="tree__node_8h.html" target="_top" xlink:title=" ">
<polygon fill="white" stroke="black" points="192,-224.5 192,-243.5 266,-243.5 266,-224.5 192,-224.5"/>
<text text-anchor="middle" x="229" y="-231.5" font-family="Helvetica,sans-Serif" font-size="10.00">tree_node.h</text>
</a>
</g>
</g>
<!-- Node4&#45;&gt;Node6 -->
<g id="edge7" class="edge">
<title>Node4&#45;&gt;Node6</title>
<path fill="none" stroke="midnightblue" d="M229,-280.08C229,-273.01 229,-262.86 229,-253.99"/>
<polygon fill="midnightblue" stroke="midnightblue" points="232.5,-253.75 229,-243.75 225.5,-253.75 232.5,-253.75"/>
</g>
<!-- Node4&#45;&gt;Node7 -->
<g id="edge8" class="edge">
<title>Node4&#45;&gt;Node7</title>
<path fill="none" stroke="midnightblue" d="M197.9,-283.37C171.96,-277.35 135.27,-265.59 110,-244 77.02,-215.82 56.38,-167.73 46.98,-141.46"/>
<polygon fill="midnightblue" stroke="midnightblue" points="50.18,-139.99 43.64,-131.66 43.55,-142.25 50.18,-139.99"/>
</g>
<!-- Node4&#45;&gt;Node10 -->
<g id="edge13" class="edge">
<title>Node4&#45;&gt;Node10</title>
<path fill="none" stroke="midnightblue" d="M216.31,-280.32C204.1,-271.98 185.42,-259.21 171,-249.35"/>
<polygon fill="midnightblue" stroke="midnightblue" points="172.89,-246.41 162.66,-243.65 168.94,-252.19 172.89,-246.41"/>
</g>
<!-- Node11 -->
<g id="node11" class="node">
<title>Node11</title>
<g id="a_node11"><a xlink:href="utils_8h.html" target="_top" xlink:title=" ">
<polygon fill="white" stroke="black" points="123.5,-168.5 123.5,-187.5 170.5,-187.5 170.5,-168.5 123.5,-168.5"/>
<text text-anchor="middle" x="147" y="-175.5" font-family="Helvetica,sans-Serif" font-size="10.00">utils.h</text>
</a>
</g>
</g>
<!-- Node4&#45;&gt;Node11 -->
<g id="edge21" class="edge">
<title>Node4&#45;&gt;Node11</title>
<path fill="none" stroke="midnightblue" d="M197.92,-285.91C171.45,-281.45 134.95,-270.56 117,-244 106.63,-228.65 118.5,-209.14 130.24,-195.52"/>
<polygon fill="midnightblue" stroke="midnightblue" points="133.08,-197.59 137.33,-187.88 127.96,-192.83 133.08,-197.59"/>
</g>
<!-- Node7&#45;&gt;Node2 -->
<g id="edge10" class="edge">
<title>Node7&#45;&gt;Node2</title>
<path fill="none" stroke="midnightblue" d="M30.48,-112.37C15.78,-99.29 -7.54,-74.05 7,-56 28.21,-29.66 126.12,-17.9 178.96,-13.39"/>
<polygon fill="midnightblue" stroke="midnightblue" points="179.51,-16.86 189.2,-12.56 178.95,-9.88 179.51,-16.86"/>
</g>
<!-- Node8 -->
<g id="node8" class="node">
<title>Node8</title>
<g id="a_node8"><a xlink:title=" ">
<polygon fill="white" stroke="#bfbfbf" points="80,-56.5 80,-75.5 138,-75.5 138,-56.5 80,-56.5"/>
<text text-anchor="middle" x="109" y="-63.5" font-family="Helvetica,sans-Serif" font-size="10.00">memory</text>
</a>
</g>
</g>
<!-- Node7&#45;&gt;Node8 -->
<g id="edge9" class="edge">
<title>Node7&#45;&gt;Node8</title>
<path fill="none" stroke="midnightblue" d="M51.93,-112.32C62.17,-104.18 77.72,-91.84 90,-82.09"/>
<polygon fill="midnightblue" stroke="midnightblue" points="92.22,-84.79 97.88,-75.83 87.87,-79.31 92.22,-84.79"/>
</g>
<!-- Node9 -->
<g id="node9" class="node">
<title>Node9</title>
<g id="a_node9"><a xlink:href="loss_8h.html" target="_top" xlink:title=" ">
<polygon fill="white" stroke="black" points="16.5,-56.5 16.5,-75.5 61.5,-75.5 61.5,-56.5 16.5,-56.5"/>
<text text-anchor="middle" x="39" y="-63.5" font-family="Helvetica,sans-Serif" font-size="10.00">loss.h</text>
</a>
</g>
</g>
<!-- Node7&#45;&gt;Node9 -->
<g id="edge11" class="edge">
<title>Node7&#45;&gt;Node9</title>
<path fill="none" stroke="midnightblue" d="M40.67,-112.08C40.41,-105.01 40.03,-94.86 39.7,-85.99"/>
<polygon fill="midnightblue" stroke="midnightblue" points="43.19,-85.61 39.32,-75.75 36.2,-85.87 43.19,-85.61"/>
</g>
<!-- Node9&#45;&gt;Node2 -->
<g id="edge12" class="edge">
<title>Node9&#45;&gt;Node2</title>
<path fill="none" stroke="midnightblue" d="M61.75,-57.94C91.85,-48.6 145.13,-32.06 179.75,-21.32"/>
<polygon fill="midnightblue" stroke="midnightblue" points="180.9,-24.63 189.41,-18.32 178.82,-17.94 180.9,-24.63"/>
</g>
<!-- Node10&#45;&gt;Node2 -->
<g id="edge14" class="edge">
<title>Node10&#45;&gt;Node2</title>
<path fill="none" stroke="midnightblue" d="M159.52,-224.43C176.6,-208.33 211.9,-171.61 225,-132 236.55,-97.06 226.81,-53.61 219.42,-29.43"/>
<polygon fill="midnightblue" stroke="midnightblue" points="222.7,-28.2 216.27,-19.78 216.04,-30.37 222.7,-28.2"/>
</g>
<!-- Node10&#45;&gt;Node5 -->
<g id="edge15" class="edge">
<title>Node10&#45;&gt;Node5</title>
<path fill="none" stroke="midnightblue" d="M171.87,-224.44C196.42,-214.83 236.24,-199.26 262.27,-189.07"/>
<polygon fill="midnightblue" stroke="midnightblue" points="263.8,-192.23 271.84,-185.32 261.25,-185.71 263.8,-192.23"/>
</g>
<!-- Node10&#45;&gt;Node11 -->
<g id="edge16" class="edge">
<title>Node10&#45;&gt;Node11</title>
<path fill="none" stroke="midnightblue" d="M144.34,-224.08C142.45,-217.01 141.45,-206.86 141.58,-197.99"/>
<polygon fill="midnightblue" stroke="midnightblue" points="145.09,-197.99 142.36,-187.75 138.11,-197.46 145.09,-197.99"/>
</g>
<!-- Node11&#45;&gt;Node2 -->
<g id="edge17" class="edge">
<title>Node11&#45;&gt;Node2</title>
<path fill="none" stroke="midnightblue" d="M148.49,-168.41C150.82,-155.8 155.82,-131.65 163,-112 174.15,-81.5 191.86,-48.1 202.93,-28.38"/>
<polygon fill="midnightblue" stroke="midnightblue" points="206.01,-30.05 207.92,-19.63 199.92,-26.59 206.01,-30.05"/>
</g>
<!-- Node11&#45;&gt;Node7 -->
<g id="edge19" class="edge">
<title>Node11&#45;&gt;Node7</title>
<path fill="none" stroke="midnightblue" d="M129.97,-168.32C112.97,-159.66 86.62,-146.24 67.01,-136.25"/>
<polygon fill="midnightblue" stroke="midnightblue" points="68.49,-133.08 57.99,-131.65 65.31,-139.31 68.49,-133.08"/>
</g>
<!-- Node11&#45;&gt;Node10 -->
<g id="edge20" class="edge">
<title>Node11&#45;&gt;Node10</title>
<path fill="none" stroke="midnightblue" d="M152.62,-187.75C154.54,-194.86 155.56,-205.14 155.42,-214.1"/>
<polygon fill="midnightblue" stroke="midnightblue" points="151.93,-213.85 154.67,-224.08 158.91,-214.37 151.93,-213.85"/>
</g>
<!-- Node12 -->
<g id="node12" class="node">
<title>Node12</title>
<g id="a_node12"><a xlink:title=" ">
<polygon fill="white" stroke="#bfbfbf" points="172,-112.5 172,-131.5 216,-131.5 216,-112.5 172,-112.5"/>
<text text-anchor="middle" x="194" y="-119.5" font-family="Helvetica,sans-Serif" font-size="10.00">string</text>
</a>
</g>
</g>
<!-- Node11&#45;&gt;Node12 -->
<g id="edge18" class="edge">
<title>Node11&#45;&gt;Node12</title>
<path fill="none" stroke="midnightblue" d="M154.76,-168.08C161.54,-160.3 171.54,-148.8 179.76,-139.37"/>
<polygon fill="midnightblue" stroke="midnightblue" points="182.46,-141.59 186.38,-131.75 177.18,-137 182.46,-141.59"/>
</g>
</g>
</svg>
