<?xml version="1.0" encoding="UTF-8" standalone="no"?>
<!DOCTYPE svg PUBLIC "-//W3C//DTD SVG 1.1//EN"
 "http://www.w3.org/Graphics/SVG/1.1/DTD/svg11.dtd">
<!-- Generated by graphviz version 2.43.0 (0)
 -->
<!-- Title: main Pages: 1 -->
<svg width="1053pt" height="460pt"
 viewBox="0.00 0.00 1053.00 459.50" xmlns="http://www.w3.org/2000/svg" xmlns:xlink="http://www.w3.org/1999/xlink">
<g id="graph0" class="graph" transform="scale(1 1) rotate(0) translate(4 455.5)">
<title>main</title>
<polygon fill="white" stroke="transparent" points="-4,4 -4,-455.5 1049,-455.5 1049,4 -4,4"/>
<!-- Node1 -->
<g id="node1" class="node">
<title>Node1</title>
<g id="a_node1"><a xlink:title=" ">
<polygon fill="#bfbfbf" stroke="black" points="0,-344.5 0,-363.5 41,-363.5 41,-344.5 0,-344.5"/>
<text text-anchor="middle" x="20.5" y="-351.5" font-family="Helvetica,sans-Serif" font-size="10.00">main</text>
</a>
</g>
</g>
<!-- Node2 -->
<g id="node2" class="node">
<title>Node2</title>
<g id="a_node2"><a xlink:href="data_8h.html#ac589716071ac7ced3174606af5f79d78" target="_top" xlink:title=" ">
<polygon fill="white" stroke="black" points="77,-421 77,-451 209,-451 209,-421 77,-421"/>
<text text-anchor="start" x="85" y="-439" font-family="Helvetica,sans-Serif" font-size="10.00">create_cross_validation</text>
<text text-anchor="middle" x="143" y="-428" font-family="Helvetica,sans-Serif" font-size="10.00">_inputs</text>
</a>
</g>
</g>
<!-- Node1&#45;&gt;Node2 -->
<g id="edge1" class="edge">
<title>Node1&#45;&gt;Node2</title>
<path fill="none" stroke="midnightblue" d="M28.76,-363.73C38.51,-376.19 56.94,-397.77 77,-411 79.91,-412.92 83,-414.73 86.18,-416.42"/>
<polygon fill="midnightblue" stroke="midnightblue" points="84.8,-419.64 95.32,-420.89 87.87,-413.35 84.8,-419.64"/>
</g>
<!-- Node4 -->
<g id="node4" class="node">
<title>Node4</title>
<g id="a_node4"><a xlink:href="utils_8h.html#a419f1790b861ecbd3e190092eadec7ff" target="_top" xlink:title=" ">
<polygon fill="white" stroke="black" points="78.5,-382.5 78.5,-401.5 207.5,-401.5 207.5,-382.5 78.5,-382.5"/>
<text text-anchor="middle" x="143" y="-389.5" font-family="Helvetica,sans-Serif" font-size="10.00">create_default_params</text>
</a>
</g>
</g>
<!-- Node1&#45;&gt;Node4 -->
<g id="edge3" class="edge">
<title>Node1&#45;&gt;Node4</title>
<path fill="none" stroke="midnightblue" d="M41.21,-360.99C51.78,-364.68 65.06,-369.21 77,-373 83.93,-375.2 91.31,-377.45 98.52,-379.59"/>
<polygon fill="midnightblue" stroke="midnightblue" points="97.59,-382.96 108.18,-382.43 99.57,-376.25 97.59,-382.96"/>
</g>
<!-- Node5 -->
<g id="node5" class="node">
<title>Node5</title>
<g id="a_node5"><a xlink:href="data_8h.html#a9ec50d1b8d56e00da65c2e8aa6b3ea5a" target="_top" xlink:title=" ">
<polygon fill="white" stroke="black" points="101.5,-344.5 101.5,-363.5 184.5,-363.5 184.5,-344.5 101.5,-344.5"/>
<text text-anchor="middle" x="143" y="-351.5" font-family="Helvetica,sans-Serif" font-size="10.00">inverse_scale</text>
</a>
</g>
</g>
<!-- Node1&#45;&gt;Node5 -->
<g id="edge4" class="edge">
<title>Node1&#45;&gt;Node5</title>
<path fill="none" stroke="midnightblue" d="M41.13,-354C54.73,-354 73.5,-354 91.17,-354"/>
<polygon fill="midnightblue" stroke="midnightblue" points="91.4,-357.5 101.4,-354 91.4,-350.5 91.4,-357.5"/>
</g>
<!-- Node6 -->
<g id="node6" class="node">
<title>Node6</title>
<g id="a_node6"><a xlink:href="class_d_p_ensemble.html#a2971bb16cab5ab57322993048ea3a729" target="_top" xlink:title=" ">
<polygon fill="white" stroke="black" points="425,-265.5 425,-284.5 543,-284.5 543,-265.5 425,-265.5"/>
<text text-anchor="middle" x="484" y="-272.5" font-family="Helvetica,sans-Serif" font-size="10.00">DPEnsemble::predict</text>
</a>
</g>
</g>
<!-- Node1&#45;&gt;Node6 -->
<g id="edge5" class="edge">
<title>Node1&#45;&gt;Node6</title>
<path fill="none" stroke="midnightblue" d="M41.25,-346.13C51.72,-342.24 64.89,-337.8 77,-335 210.1,-304.27 247.35,-320 382,-297 398.85,-294.12 417.14,-290.34 433.46,-286.73"/>
<polygon fill="midnightblue" stroke="midnightblue" points="434.36,-290.11 443.35,-284.51 432.82,-283.28 434.36,-290.11"/>
</g>
<!-- Node7 -->
<g id="node7" class="node">
<title>Node7</title>
<g id="a_node7"><a xlink:href="class_d_p_ensemble.html#a1652b5fde834bfb18416ebf438d3e10a" target="_top" xlink:title=" ">
<polygon fill="white" stroke="black" points="89.5,-202.5 89.5,-221.5 196.5,-221.5 196.5,-202.5 89.5,-202.5"/>
<text text-anchor="middle" x="143" y="-209.5" font-family="Helvetica,sans-Serif" font-size="10.00">DPEnsemble::train</text>
</a>
</g>
</g>
<!-- Node1&#45;&gt;Node7 -->
<g id="edge6" class="edge">
<title>Node1&#45;&gt;Node7</title>
<path fill="none" stroke="midnightblue" d="M29.78,-344.24C49.9,-320.53 101.58,-259.63 127.18,-229.46"/>
<polygon fill="midnightblue" stroke="midnightblue" points="129.86,-231.72 133.66,-221.83 124.52,-227.19 129.86,-231.72"/>
</g>
<!-- Node3 -->
<g id="node3" class="node">
<title>Node3</title>
<g id="a_node3"><a xlink:href="struct_data_set.html#aebb5495574ec71c44491713db5e0bdfd" target="_top" xlink:title=" ">
<polygon fill="white" stroke="black" points="245,-426.5 245,-445.5 382,-445.5 382,-426.5 245,-426.5"/>
<text text-anchor="middle" x="313.5" y="-433.5" font-family="Helvetica,sans-Serif" font-size="10.00">DataSet::shuffle_dataset</text>
</a>
</g>
</g>
<!-- Node2&#45;&gt;Node3 -->
<g id="edge2" class="edge">
<title>Node2&#45;&gt;Node3</title>
<path fill="none" stroke="midnightblue" d="M209.15,-436C217.44,-436 226,-436 234.47,-436"/>
<polygon fill="midnightblue" stroke="midnightblue" points="234.74,-439.5 244.74,-436 234.74,-432.5 234.74,-439.5"/>
</g>
<!-- Node8 -->
<g id="node8" class="node">
<title>Node8</title>
<g id="a_node8"><a xlink:href="utils_8h.html#aeeffe725a130b4421d7fc165a4fa2ee3" target="_top" xlink:title=" ">
<polygon fill="white" stroke="black" points="460.5,-183.5 460.5,-202.5 507.5,-202.5 507.5,-183.5 460.5,-183.5"/>
<text text-anchor="middle" x="484" y="-190.5" font-family="Helvetica,sans-Serif" font-size="10.00">clamp</text>
</a>
</g>
</g>
<!-- Node7&#45;&gt;Node8 -->
<g id="edge7" class="edge">
<title>Node7&#45;&gt;Node8</title>
<path fill="none" stroke="midnightblue" d="M196.6,-209.05C267.33,-205.09 391.01,-198.16 449.95,-194.85"/>
<polygon fill="midnightblue" stroke="midnightblue" points="450.39,-198.33 460.18,-194.28 449.99,-191.34 450.39,-198.33"/>
</g>
<!-- Node9 -->
<g id="node9" class="node">
<title>Node9</title>
<g id="a_node9"><a xlink:href="class_d_p_tree.html#a82b9507f4f5d056b98f40871b304f943" target="_top" xlink:title=" ">
<polygon fill="white" stroke="black" points="280.5,-142.5 280.5,-161.5 346.5,-161.5 346.5,-142.5 280.5,-142.5"/>
<text text-anchor="middle" x="313.5" y="-149.5" font-family="Helvetica,sans-Serif" font-size="10.00">DPTree::fit</text>
</a>
</g>
</g>
<!-- Node7&#45;&gt;Node9 -->
<g id="edge8" class="edge">
<title>Node7&#45;&gt;Node9</title>
<path fill="none" stroke="midnightblue" d="M171.01,-202.37C191.35,-195.11 219.92,-184.93 245,-176 255.02,-172.43 265.87,-168.57 275.89,-165.01"/>
<polygon fill="midnightblue" stroke="midnightblue" points="277.31,-168.22 285.56,-161.57 274.97,-161.62 277.31,-168.22"/>
</g>
<!-- Node20 -->
<g id="node20" class="node">
<title>Node20</title>
<g id="a_node20"><a xlink:href="struct_data_set.html#afa2b0dcbd62ba4bf49ea37a1dcefeb83" target="_top" xlink:title=" ">
<polygon fill="white" stroke="black" points="256,-104.5 256,-123.5 371,-123.5 371,-104.5 256,-104.5"/>
<text text-anchor="middle" x="313.5" y="-111.5" font-family="Helvetica,sans-Serif" font-size="10.00">DataSet::get_subset</text>
</a>
</g>
</g>
<!-- Node7&#45;&gt;Node20 -->
<g id="edge21" class="edge">
<title>Node7&#45;&gt;Node20</title>
<path fill="none" stroke="midnightblue" d="M153.69,-202.24C170.7,-185.66 207.67,-151.92 245,-133 249.57,-130.69 254.45,-128.62 259.43,-126.78"/>
<polygon fill="midnightblue" stroke="midnightblue" points="260.71,-130.04 269.06,-123.52 258.47,-123.41 260.71,-130.04"/>
</g>
<!-- Node21 -->
<g id="node21" class="node">
<title>Node21</title>
<g id="a_node21"><a xlink:href="struct_data_set.html#a30a01ecb39d3bfc9eb5e5923ed6f5d43" target="_top" xlink:title=" ">
<polygon fill="white" stroke="black" points="249.5,-268.5 249.5,-287.5 377.5,-287.5 377.5,-268.5 249.5,-268.5"/>
<text text-anchor="middle" x="313.5" y="-275.5" font-family="Helvetica,sans-Serif" font-size="10.00">DataSet::remove_rows</text>
</a>
</g>
</g>
<!-- Node7&#45;&gt;Node21 -->
<g id="edge22" class="edge">
<title>Node7&#45;&gt;Node21</title>
<path fill="none" stroke="midnightblue" d="M162.23,-221.58C182.17,-231.79 215.26,-247.98 245,-259 251.29,-261.33 258,-263.54 264.65,-265.57"/>
<polygon fill="midnightblue" stroke="midnightblue" points="263.73,-268.95 274.31,-268.41 265.71,-262.23 263.73,-268.95"/>
</g>
<!-- Node22 -->
<g id="node22" class="node">
<title>Node22</title>
<g id="a_node22"><a xlink:href="class_d_p_ensemble.html#a2b446f94f9da238cae22580813c91196" target="_top" xlink:title=" ">
<polygon fill="white" stroke="black" points="254.5,-219 254.5,-249 372.5,-249 372.5,-219 254.5,-219"/>
<text text-anchor="start" x="262.5" y="-237" font-family="Helvetica,sans-Serif" font-size="10.00">DPEnsemble::update</text>
<text text-anchor="middle" x="313.5" y="-226" font-family="Helvetica,sans-Serif" font-size="10.00">_gradients</text>
</a>
</g>
</g>
<!-- Node7&#45;&gt;Node22 -->
<g id="edge23" class="edge">
<title>Node7&#45;&gt;Node22</title>
<path fill="none" stroke="midnightblue" d="M196.85,-218.9C211.82,-220.85 228.32,-223.01 244.06,-225.06"/>
<polygon fill="midnightblue" stroke="midnightblue" points="243.9,-228.57 254.27,-226.4 244.81,-221.63 243.9,-228.57"/>
</g>
<!-- Node9&#45;&gt;Node8 -->
<g id="edge11" class="edge">
<title>Node9&#45;&gt;Node8</title>
<path fill="none" stroke="midnightblue" d="M346.59,-159.81C376.4,-167.06 420.57,-177.81 450.51,-185.09"/>
<polygon fill="midnightblue" stroke="midnightblue" points="449.92,-188.55 460.46,-187.52 451.57,-181.75 449.92,-188.55"/>
</g>
<!-- Node10 -->
<g id="node10" class="node">
<title>Node10</title>
<g id="a_node10"><a xlink:href="class_d_p_tree.html#a468d249a3e55f1527e50daf13e550c79" target="_top" xlink:title=" ">
<polygon fill="white" stroke="black" points="422,-134 422,-164 546,-164 546,-134 422,-134"/>
<text text-anchor="start" x="430" y="-152" font-family="Helvetica,sans-Serif" font-size="10.00">DPTree::add_laplacian</text>
<text text-anchor="middle" x="484" y="-141" font-family="Helvetica,sans-Serif" font-size="10.00">_noise</text>
</a>
</g>
</g>
<!-- Node9&#45;&gt;Node10 -->
<g id="edge9" class="edge">
<title>Node9&#45;&gt;Node10</title>
<path fill="none" stroke="midnightblue" d="M346.59,-151.43C364.97,-151.1 388.82,-150.68 411.42,-150.27"/>
<polygon fill="midnightblue" stroke="midnightblue" points="411.75,-153.77 421.69,-150.09 411.63,-146.77 411.75,-153.77"/>
</g>
<!-- Node12 -->
<g id="node12" class="node">
<title>Node12</title>
<g id="a_node12"><a xlink:href="class_d_p_tree.html#a07314c44bb7b7ca37c735b70de3ccb9e" target="_top" xlink:title=" ">
<polygon fill="white" stroke="black" points="418,-76.5 418,-95.5 550,-95.5 550,-76.5 418,-76.5"/>
<text text-anchor="middle" x="484" y="-83.5" font-family="Helvetica,sans-Serif" font-size="10.00">DPTree::make_tree_DFS</text>
</a>
</g>
</g>
<!-- Node9&#45;&gt;Node12 -->
<g id="edge12" class="edge">
<title>Node9&#45;&gt;Node12</title>
<path fill="none" stroke="midnightblue" d="M346.77,-144.05C358.04,-140.98 370.7,-137.19 382,-133 407.56,-123.53 435.59,-110.24 455.62,-100.21"/>
<polygon fill="midnightblue" stroke="midnightblue" points="457.43,-103.22 464.77,-95.58 454.26,-96.97 457.43,-103.22"/>
</g>
<!-- Node11 -->
<g id="node11" class="node">
<title>Node11</title>
<g id="a_node11"><a xlink:href="class_laplace.html#a357965a9024cbdb3866973b5ef22500c" target="_top" xlink:title=" ">
<polygon fill="white" stroke="black" points="586,-153 586,-183 729,-183 729,-153 586,-153"/>
<text text-anchor="start" x="594" y="-171" font-family="Helvetica,sans-Serif" font-size="10.00">Laplace::return_a_random</text>
<text text-anchor="middle" x="657.5" y="-160" font-family="Helvetica,sans-Serif" font-size="10.00">_variable</text>
</a>
</g>
</g>
<!-- Node10&#45;&gt;Node11 -->
<g id="edge10" class="edge">
<title>Node10&#45;&gt;Node11</title>
<path fill="none" stroke="midnightblue" d="M546.43,-155.81C555.92,-156.86 565.84,-157.96 575.67,-159.05"/>
<polygon fill="midnightblue" stroke="midnightblue" points="575.54,-162.55 585.87,-160.17 576.31,-155.59 575.54,-162.55"/>
</g>
<!-- Node13 -->
<g id="node13" class="node">
<title>Node13</title>
<g id="a_node13"><a xlink:href="class_d_p_tree.html#ad7f8755be37ad10cf104fba2076dce5e" target="_top" xlink:title=" ">
<polygon fill="white" stroke="black" points="594,-76.5 594,-95.5 721,-95.5 721,-76.5 594,-76.5"/>
<text text-anchor="middle" x="657.5" y="-83.5" font-family="Helvetica,sans-Serif" font-size="10.00">DPTree::find_best_split</text>
</a>
</g>
</g>
<!-- Node12&#45;&gt;Node13 -->
<g id="edge13" class="edge">
<title>Node12&#45;&gt;Node13</title>
<path fill="none" stroke="midnightblue" d="M550.33,-86C561.27,-86 572.68,-86 583.8,-86"/>
<polygon fill="midnightblue" stroke="midnightblue" points="583.9,-89.5 593.9,-86 583.9,-82.5 583.9,-89.5"/>
</g>
<!-- Node15 -->
<g id="node15" class="node">
<title>Node15</title>
<g id="a_node15"><a xlink:href="class_d_p_tree.html#af16f3e0373e606fe42b2104890b2d036" target="_top" xlink:title=" ">
<polygon fill="white" stroke="black" points="926,-52 926,-82 1045,-82 1045,-52 926,-52"/>
<text text-anchor="start" x="934" y="-70" font-family="Helvetica,sans-Serif" font-size="10.00">DPTree::samples_left</text>
<text text-anchor="middle" x="985.5" y="-59" font-family="Helvetica,sans-Serif" font-size="10.00">_right_partition</text>
</a>
</g>
</g>
<!-- Node12&#45;&gt;Node15 -->
<g id="edge20" class="edge">
<title>Node12&#45;&gt;Node15</title>
<path fill="none" stroke="midnightblue" d="M526.03,-76.49C544.28,-72.72 566.1,-68.86 586,-67 701.2,-56.26 835.96,-59.55 915.55,-63.13"/>
<polygon fill="midnightblue" stroke="midnightblue" points="915.78,-66.64 925.93,-63.61 916.11,-59.65 915.78,-66.64"/>
</g>
<!-- Node18 -->
<g id="node18" class="node">
<title>Node18</title>
<g id="a_node18"><a xlink:href="class_tree_node.html#ae671fa006ebb36f632b46b5aa1ec2899" target="_top" xlink:title=" ">
<polygon fill="white" stroke="black" points="607,-0.5 607,-19.5 708,-19.5 708,-0.5 607,-0.5"/>
<text text-anchor="middle" x="657.5" y="-7.5" font-family="Helvetica,sans-Serif" font-size="10.00">TreeNode::is_leaf</text>
</a>
</g>
</g>
<!-- Node12&#45;&gt;Node18 -->
<g id="edge18" class="edge">
<title>Node12&#45;&gt;Node18</title>
<path fill="none" stroke="midnightblue" d="M501.79,-76.38C521.54,-65.3 555.51,-46.96 586,-34 595.46,-29.98 605.84,-26.14 615.66,-22.76"/>
<polygon fill="midnightblue" stroke="midnightblue" points="616.88,-26.05 625.24,-19.54 614.65,-19.41 616.88,-26.05"/>
</g>
<!-- Node19 -->
<g id="node19" class="node">
<title>Node19</title>
<g id="a_node19"><a xlink:href="class_d_p_tree.html#a3a716a075edfae470e0fe7511634e922" target="_top" xlink:title=" ">
<polygon fill="white" stroke="black" points="589,-114.5 589,-133.5 726,-133.5 726,-114.5 589,-114.5"/>
<text text-anchor="middle" x="657.5" y="-121.5" font-family="Helvetica,sans-Serif" font-size="10.00">DPTree::make_leaf_node</text>
</a>
</g>
</g>
<!-- Node12&#45;&gt;Node19 -->
<g id="edge19" class="edge">
<title>Node12&#45;&gt;Node19</title>
<path fill="none" stroke="midnightblue" d="M528.28,-95.59C551.11,-100.65 579.32,-106.9 603.46,-112.25"/>
<polygon fill="midnightblue" stroke="midnightblue" points="603.01,-115.73 613.53,-114.48 604.53,-108.9 603.01,-115.73"/>
</g>
<!-- Node14 -->
<g id="node14" class="node">
<title>Node14</title>
<g id="a_node14"><a xlink:href="class_d_p_tree.html#ab9426a6ac2e5122e29ecbb6e9c4cd050" target="_top" xlink:title=" ">
<polygon fill="white" stroke="black" points="765,-76.5 765,-95.5 890,-95.5 890,-76.5 765,-76.5"/>
<text text-anchor="middle" x="827.5" y="-83.5" font-family="Helvetica,sans-Serif" font-size="10.00">DPTree::compute_gain</text>
</a>
</g>
</g>
<!-- Node13&#45;&gt;Node14 -->
<g id="edge14" class="edge">
<title>Node13&#45;&gt;Node14</title>
<path fill="none" stroke="midnightblue" d="M721.06,-86C731.99,-86 743.43,-86 754.59,-86"/>
<polygon fill="midnightblue" stroke="midnightblue" points="754.73,-89.5 764.73,-86 754.73,-82.5 754.73,-89.5"/>
</g>
<!-- Node16 -->
<g id="node16" class="node">
<title>Node16</title>
<g id="a_node16"><a xlink:href="class_d_p_tree.html#a7ce368c3888736d660dcf09587df4512" target="_top" xlink:title=" ">
<polygon fill="white" stroke="black" points="770.5,-115 770.5,-145 884.5,-145 884.5,-115 770.5,-115"/>
<text text-anchor="start" x="778.5" y="-133" font-family="Helvetica,sans-Serif" font-size="10.00">DPTree::exponential</text>
<text text-anchor="middle" x="827.5" y="-122" font-family="Helvetica,sans-Serif" font-size="10.00">_mechanism</text>
</a>
</g>
</g>
<!-- Node13&#45;&gt;Node16 -->
<g id="edge16" class="edge">
<title>Node13&#45;&gt;Node16</title>
<path fill="none" stroke="midnightblue" d="M694.95,-95.55C714.12,-100.57 738.21,-106.88 760.52,-112.72"/>
<polygon fill="midnightblue" stroke="midnightblue" points="759.73,-116.13 770.29,-115.28 761.5,-109.36 759.73,-116.13"/>
</g>
<!-- Node14&#45;&gt;Node15 -->
<g id="edge15" class="edge">
<title>Node14&#45;&gt;Node15</title>
<path fill="none" stroke="midnightblue" d="M890.16,-78.49C898.6,-77.46 907.32,-76.4 915.88,-75.36"/>
<polygon fill="midnightblue" stroke="midnightblue" points="916.33,-78.83 925.84,-74.15 915.49,-71.88 916.33,-78.83"/>
</g>
<!-- Node17 -->
<g id="node17" class="node">
<title>Node17</title>
<g id="a_node17"><a xlink:href="utils_8h.html#a35953abcfd9e2310fa2c6d440233fad5" target="_top" xlink:title=" ">
<polygon fill="white" stroke="black" points="945,-120.5 945,-139.5 1026,-139.5 1026,-120.5 945,-120.5"/>
<text text-anchor="middle" x="985.5" y="-127.5" font-family="Helvetica,sans-Serif" font-size="10.00">log_sum_exp</text>
</a>
</g>
</g>
<!-- Node16&#45;&gt;Node17 -->
<g id="edge17" class="edge">
<title>Node16&#45;&gt;Node17</title>
<path fill="none" stroke="midnightblue" d="M884.82,-130C901.14,-130 918.84,-130 934.73,-130"/>
<polygon fill="midnightblue" stroke="midnightblue" points="934.88,-133.5 944.88,-130 934.88,-126.5 934.88,-133.5"/>
</g>
<!-- Node22&#45;&gt;Node6 -->
<g id="edge24" class="edge">
<title>Node22&#45;&gt;Node6</title>
<path fill="none" stroke="midnightblue" d="M372.96,-248.22C392.86,-253.07 414.89,-258.43 433.97,-263.07"/>
<polygon fill="midnightblue" stroke="midnightblue" points="433.4,-266.53 443.95,-265.5 435.06,-259.73 433.4,-266.53"/>
</g>
</g>
</svg>
