<?xml version="1.0" encoding="UTF-8" standalone="no"?>
<!DOCTYPE svg PUBLIC "-//W3C//DTD SVG 1.1//EN"
 "http://www.w3.org/Graphics/SVG/1.1/DTD/svg11.dtd">
<!-- Generated by graphviz version 2.43.0 (0)
 -->
<!-- Title: base/include/parameters.h Pages: 1 -->
<svg width="168pt" height="140pt"
 viewBox="0.00 0.00 167.50 140.00" xmlns="http://www.w3.org/2000/svg" xmlns:xlink="http://www.w3.org/1999/xlink">
<g id="graph0" class="graph" transform="scale(1 1) rotate(0) translate(4 136)">
<title>base/include/parameters.h</title>
<polygon fill="white" stroke="transparent" points="-4,4 -4,-136 163.5,-136 163.5,4 -4,4"/>
<!-- Node1 -->
<g id="node1" class="node">
<title>Node1</title>
<g id="a_node1"><a xlink:title=" ">
<polygon fill="#bfbfbf" stroke="black" points="13,-112.5 13,-131.5 159,-131.5 159,-112.5 13,-112.5"/>
<text text-anchor="middle" x="86" y="-119.5" font-family="Helvetica,sans-Serif" font-size="10.00">base/include/parameters.h</text>
</a>
</g>
</g>
<!-- Node2 -->
<g id="node2" class="node">
<title>Node2</title>
<g id="a_node2"><a xlink:title=" ">
<polygon fill="white" stroke="#bfbfbf" points="0,-56.5 0,-75.5 58,-75.5 58,-56.5 0,-56.5"/>
<text text-anchor="middle" x="29" y="-63.5" font-family="Helvetica,sans-Serif" font-size="10.00">memory</text>
</a>
</g>
</g>
<!-- Node1&#45;&gt;Node2 -->
<g id="edge1" class="edge">
<title>Node1&#45;&gt;Node2</title>
<path fill="none" stroke="midnightblue" d="M76.84,-112.32C68.5,-104.42 55.97,-92.55 45.82,-82.94"/>
<polygon fill="midnightblue" stroke="midnightblue" points="47.99,-80.17 38.32,-75.83 43.18,-85.25 47.99,-80.17"/>
</g>
<!-- Node3 -->
<g id="node3" class="node">
<title>Node3</title>
<g id="a_node3"><a xlink:title=" ">
<polygon fill="white" stroke="#bfbfbf" points="87.5,-0.5 87.5,-19.5 134.5,-19.5 134.5,-0.5 87.5,-0.5"/>
<text text-anchor="middle" x="111" y="-7.5" font-family="Helvetica,sans-Serif" font-size="10.00">vector</text>
</a>
</g>
</g>
<!-- Node1&#45;&gt;Node3 -->
<g id="edge2" class="edge">
<title>Node1&#45;&gt;Node3</title>
<path fill="none" stroke="midnightblue" d="M87.96,-112.37C92,-94.62 101.3,-53.67 106.77,-29.6"/>
<polygon fill="midnightblue" stroke="midnightblue" points="110.24,-30.12 109.05,-19.59 103.42,-28.57 110.24,-30.12"/>
</g>
<!-- Node4 -->
<g id="node4" class="node">
<title>Node4</title>
<g id="a_node4"><a xlink:href="loss_8h.html" target="_top" xlink:title=" ">
<polygon fill="white" stroke="black" points="114.5,-56.5 114.5,-75.5 159.5,-75.5 159.5,-56.5 114.5,-56.5"/>
<text text-anchor="middle" x="137" y="-63.5" font-family="Helvetica,sans-Serif" font-size="10.00">loss.h</text>
</a>
</g>
</g>
<!-- Node1&#45;&gt;Node4 -->
<g id="edge3" class="edge">
<title>Node1&#45;&gt;Node4</title>
<path fill="none" stroke="midnightblue" d="M94.42,-112.08C101.85,-104.22 112.85,-92.57 121.81,-83.08"/>
<polygon fill="midnightblue" stroke="midnightblue" points="124.41,-85.42 128.74,-75.75 119.32,-80.62 124.41,-85.42"/>
</g>
<!-- Node4&#45;&gt;Node3 -->
<g id="edge4" class="edge">
<title>Node4&#45;&gt;Node3</title>
<path fill="none" stroke="midnightblue" d="M132.71,-56.08C129.15,-48.69 123.98,-37.95 119.58,-28.81"/>
<polygon fill="midnightblue" stroke="midnightblue" points="122.71,-27.24 115.21,-19.75 116.4,-30.28 122.71,-27.24"/>
</g>
</g>
</svg>
