<?xml version="1.0" encoding="UTF-8" standalone="no"?>
<!DOCTYPE svg PUBLIC "-//W3C//DTD SVG 1.1//EN"
 "http://www.w3.org/Graphics/SVG/1.1/DTD/svg11.dtd">
<!-- Generated by graphviz version 2.43.0 (0)
 -->
<!-- Title: base/include/parameters.h Pages: 1 -->
<svg width="464pt" height="330pt"
 viewBox="0.00 0.00 463.50 330.00" xmlns="http://www.w3.org/2000/svg" xmlns:xlink="http://www.w3.org/1999/xlink">
<g id="graph0" class="graph" transform="scale(1 1) rotate(0) translate(4 326)">
<title>base/include/parameters.h</title>
<polygon fill="white" stroke="transparent" points="-4,4 -4,-326 459.5,-326 459.5,4 -4,4"/>
<!-- Node1 -->
<g id="node1" class="node">
<title>Node1</title>
<g id="a_node1"><a xlink:title=" ">
<polygon fill="#bfbfbf" stroke="black" points="83,-302.5 83,-321.5 229,-321.5 229,-302.5 83,-302.5"/>
<text text-anchor="middle" x="156" y="-309.5" font-family="Helvetica,sans-Serif" font-size="10.00">base/include/parameters.h</text>
</a>
</g>
</g>
<!-- Node2 -->
<g id="node2" class="node">
<title>Node2</title>
<g id="a_node2"><a xlink:href="dp__tree_8h.html" target="_top" xlink:title=" ">
<polygon fill="white" stroke="black" points="73,-123.5 73,-153.5 191,-153.5 191,-123.5 73,-123.5"/>
<text text-anchor="start" x="81" y="-141.5" font-family="Helvetica,sans-Serif" font-size="10.00">base/include/gbdt/dp</text>
<text text-anchor="middle" x="132" y="-130.5" font-family="Helvetica,sans-Serif" font-size="10.00">_tree.h</text>
</a>
</g>
</g>
<!-- Node1&#45;&gt;Node2 -->
<g id="edge1" class="edge">
<title>Node1&#45;&gt;Node2</title>
<path fill="none" stroke="midnightblue" d="M148.22,-292.78C145.12,-284.72 141.85,-275.04 140,-266 131.77,-225.9 131.28,-177.29 131.62,-153.71"/>
<polygon fill="midnightblue" stroke="midnightblue" points="145.06,-294.3 152.06,-302.24 151.54,-291.66 145.06,-294.3"/>
</g>
<!-- Node3 -->
<g id="node3" class="node">
<title>Node3</title>
<g id="a_node3"><a xlink:href="dp__ensemble_8h.html" target="_top" xlink:title=" ">
<polygon fill="white" stroke="black" points="160,-56.5 160,-86.5 278,-86.5 278,-56.5 160,-56.5"/>
<text text-anchor="start" x="168" y="-74.5" font-family="Helvetica,sans-Serif" font-size="10.00">base/include/gbdt/dp</text>
<text text-anchor="middle" x="219" y="-63.5" font-family="Helvetica,sans-Serif" font-size="10.00">_ensemble.h</text>
</a>
</g>
</g>
<!-- Node1&#45;&gt;Node3 -->
<g id="edge15" class="edge">
<title>Node1&#45;&gt;Node3</title>
<path fill="none" stroke="midnightblue" d="M137.48,-295.4C99.9,-261.86 21.73,-181.23 64,-123 70.3,-114.33 123.43,-98.23 165.75,-86.54"/>
<polygon fill="midnightblue" stroke="midnightblue" points="135.4,-298.23 145.24,-302.17 140,-292.96 135.4,-298.23"/>
</g>
<!-- Node5 -->
<g id="node5" class="node">
<title>Node5</title>
<g id="a_node5"><a xlink:href="main_8cpp.html" target="_top" xlink:title=" ">
<polygon fill="white" stroke="black" points="350.5,-0.5 350.5,-19.5 455.5,-19.5 455.5,-0.5 350.5,-0.5"/>
<text text-anchor="middle" x="403" y="-7.5" font-family="Helvetica,sans-Serif" font-size="10.00">base/src/main.cpp</text>
</a>
</g>
</g>
<!-- Node1&#45;&gt;Node5 -->
<g id="edge16" class="edge">
<title>Node1&#45;&gt;Node5</title>
<path fill="none" stroke="midnightblue" d="M216.7,-300.56C301.46,-284.23 445,-249.43 445,-201 445,-201 445,-201 445,-137.5 445,-90.99 419.11,-39.53 407.98,-19.57"/>
<polygon fill="midnightblue" stroke="midnightblue" points="215.84,-297.16 206.67,-302.46 217.15,-304.04 215.84,-297.16"/>
</g>
<!-- Node7 -->
<g id="node7" class="node">
<title>Node7</title>
<g id="a_node7"><a xlink:href="utils_8h.html" target="_top" xlink:title=" ">
<polygon fill="white" stroke="black" points="149,-246.5 149,-265.5 285,-265.5 285,-246.5 149,-246.5"/>
<text text-anchor="middle" x="217" y="-253.5" font-family="Helvetica,sans-Serif" font-size="10.00">base/include/gbdt/utils.h</text>
</a>
</g>
</g>
<!-- Node1&#45;&gt;Node7 -->
<g id="edge6" class="edge">
<title>Node1&#45;&gt;Node7</title>
<path fill="none" stroke="midnightblue" d="M173.47,-295.54C184.34,-285.91 197.94,-273.87 207.02,-265.83"/>
<polygon fill="midnightblue" stroke="midnightblue" points="170.97,-293.07 165.8,-302.32 175.61,-298.32 170.97,-293.07"/>
</g>
<!-- Node2&#45;&gt;Node3 -->
<g id="edge2" class="edge">
<title>Node2&#45;&gt;Node3</title>
<path fill="none" stroke="midnightblue" d="M159.21,-117.17C172.52,-107.23 188.2,-95.51 200.16,-86.58"/>
<polygon fill="midnightblue" stroke="midnightblue" points="156.79,-114.61 150.88,-123.4 160.98,-120.21 156.79,-114.61"/>
</g>
<!-- Node6 -->
<g id="node6" class="node">
<title>Node6</title>
<g id="a_node6"><a xlink:href="dp__tree_8cpp.html" target="_top" xlink:title=" ">
<polygon fill="white" stroke="black" points="0,-62 0,-81 142,-81 142,-62 0,-62"/>
<text text-anchor="middle" x="71" y="-69" font-family="Helvetica,sans-Serif" font-size="10.00">base/src/gbdt/dp_tree.cpp</text>
</a>
</g>
</g>
<!-- Node2&#45;&gt;Node6 -->
<g id="edge5" class="edge">
<title>Node2&#45;&gt;Node6</title>
<path fill="none" stroke="midnightblue" d="M111.82,-116C100.69,-104.13 87.47,-90.05 79.16,-81.19"/>
<polygon fill="midnightblue" stroke="midnightblue" points="109.37,-118.5 118.76,-123.4 114.47,-113.71 109.37,-118.5"/>
</g>
<!-- Node4 -->
<g id="node4" class="node">
<title>Node4</title>
<g id="a_node4"><a xlink:href="dp__ensemble_8cpp.html" target="_top" xlink:title=" ">
<polygon fill="white" stroke="black" points="134,-0.5 134,-19.5 304,-19.5 304,-0.5 134,-0.5"/>
<text text-anchor="middle" x="219" y="-7.5" font-family="Helvetica,sans-Serif" font-size="10.00">base/src/gbdt/dp_ensemble.cpp</text>
</a>
</g>
</g>
<!-- Node3&#45;&gt;Node4 -->
<g id="edge3" class="edge">
<title>Node3&#45;&gt;Node4</title>
<path fill="none" stroke="midnightblue" d="M219,-46.29C219,-36.86 219,-26.65 219,-19.66"/>
<polygon fill="midnightblue" stroke="midnightblue" points="215.5,-46.4 219,-56.4 222.5,-46.4 215.5,-46.4"/>
</g>
<!-- Node3&#45;&gt;Node5 -->
<g id="edge4" class="edge">
<title>Node3&#45;&gt;Node5</title>
<path fill="none" stroke="midnightblue" d="M272.44,-53.22C306.6,-42.17 349.41,-28.33 376.49,-19.57"/>
<polygon fill="midnightblue" stroke="midnightblue" points="271.04,-49.99 262.61,-56.4 273.2,-56.65 271.04,-49.99"/>
</g>
<!-- Node7&#45;&gt;Node2 -->
<g id="edge13" class="edge">
<title>Node7&#45;&gt;Node2</title>
<path fill="none" stroke="midnightblue" d="M189.01,-241.41C176.04,-233.82 161.44,-223.21 152,-210 139.86,-193.03 135.07,-168.87 133.19,-153.7"/>
<polygon fill="midnightblue" stroke="midnightblue" points="187.62,-244.64 198.07,-246.4 191,-238.51 187.62,-244.64"/>
</g>
<!-- Node8 -->
<g id="node8" class="node">
<title>Node8</title>
<g id="a_node8"><a xlink:href="data_8h.html" target="_top" xlink:title=" ">
<polygon fill="white" stroke="black" points="161,-190.5 161,-209.5 273,-209.5 273,-190.5 161,-190.5"/>
<text text-anchor="middle" x="217" y="-197.5" font-family="Helvetica,sans-Serif" font-size="10.00">base/include/data.h</text>
</a>
</g>
</g>
<!-- Node7&#45;&gt;Node8 -->
<g id="edge7" class="edge">
<title>Node7&#45;&gt;Node8</title>
<path fill="none" stroke="midnightblue" d="M210.53,-236.1C209.9,-227.14 210.34,-216.86 211.87,-209.75"/>
<polygon fill="midnightblue" stroke="midnightblue" points="207.07,-236.62 211.83,-246.08 214.01,-235.71 207.07,-236.62"/>
</g>
<!-- Node10 -->
<g id="node10" class="node">
<title>Node10</title>
<g id="a_node10"><a xlink:href="utils_8cpp.html" target="_top" xlink:title=" ">
<polygon fill="white" stroke="black" points="291,-190.5 291,-209.5 417,-209.5 417,-190.5 291,-190.5"/>
<text text-anchor="middle" x="354" y="-197.5" font-family="Helvetica,sans-Serif" font-size="10.00">base/src/gbdt/utils.cpp</text>
</a>
</g>
</g>
<!-- Node7&#45;&gt;Node10 -->
<g id="edge14" class="edge">
<title>Node7&#45;&gt;Node10</title>
<path fill="none" stroke="midnightblue" d="M248.02,-242.77C273.76,-232.63 309.69,-218.47 332.39,-209.52"/>
<polygon fill="midnightblue" stroke="midnightblue" points="246.73,-239.52 238.71,-246.44 249.29,-246.03 246.73,-239.52"/>
</g>
<!-- Node8&#45;&gt;Node2 -->
<g id="edge8" class="edge">
<title>Node8&#45;&gt;Node2</title>
<path fill="none" stroke="midnightblue" d="M196.63,-184.74C183.12,-175.28 165.47,-162.93 152.03,-153.52"/>
<polygon fill="midnightblue" stroke="midnightblue" points="194.62,-187.61 204.82,-190.48 198.64,-181.87 194.62,-187.61"/>
</g>
<!-- Node8&#45;&gt;Node3 -->
<g id="edge10" class="edge">
<title>Node8&#45;&gt;Node3</title>
<path fill="none" stroke="midnightblue" d="M217.3,-180.11C217.7,-154.63 218.41,-109.81 218.77,-86.89"/>
<polygon fill="midnightblue" stroke="midnightblue" points="213.8,-180.25 217.14,-190.31 220.8,-180.36 213.8,-180.25"/>
</g>
<!-- Node8&#45;&gt;Node5 -->
<g id="edge12" class="edge">
<title>Node8&#45;&gt;Node5</title>
<path fill="none" stroke="midnightblue" d="M283.16,-188.85C323.75,-181.22 370.47,-169.43 384,-154 418.51,-114.64 409.33,-44.24 404.8,-19.71"/>
<polygon fill="midnightblue" stroke="midnightblue" points="282.48,-185.42 273.27,-190.65 283.73,-192.3 282.48,-185.42"/>
</g>
<!-- Node8&#45;&gt;Node7 -->
<g id="edge9" class="edge">
<title>Node8&#45;&gt;Node7</title>
<path fill="none" stroke="midnightblue" d="M223.46,-219.69C224.11,-228.64 223.68,-238.93 222.17,-246.08"/>
<polygon fill="midnightblue" stroke="midnightblue" points="226.92,-219.2 222.13,-209.75 219.98,-220.13 226.92,-219.2"/>
</g>
<!-- Node9 -->
<g id="node9" class="node">
<title>Node9</title>
<g id="a_node9"><a xlink:href="data_8cpp.html" target="_top" xlink:title=" ">
<polygon fill="white" stroke="black" points="247.5,-129 247.5,-148 374.5,-148 374.5,-129 247.5,-129"/>
<text text-anchor="middle" x="311" y="-136" font-family="Helvetica,sans-Serif" font-size="10.00">base/src/gbdt/data.cpp</text>
</a>
</g>
</g>
<!-- Node8&#45;&gt;Node9 -->
<g id="edge11" class="edge">
<title>Node8&#45;&gt;Node9</title>
<path fill="none" stroke="midnightblue" d="M239.23,-184.93C257.35,-173.46 282.35,-157.63 297.56,-148.01"/>
<polygon fill="midnightblue" stroke="midnightblue" points="237.05,-182.17 230.47,-190.48 240.79,-188.08 237.05,-182.17"/>
</g>
</g>
</svg>
