<?xml version="1.0" encoding="UTF-8" standalone="no"?>
<!DOCTYPE svg PUBLIC "-//W3C//DTD SVG 1.1//EN"
 "http://www.w3.org/Graphics/SVG/1.1/DTD/svg11.dtd">
<!-- Generated by graphviz version 2.43.0 (0)
 -->
<!-- Title: base/include/gbdt/tree_node.h Pages: 1 -->
<svg width="426pt" height="229pt"
 viewBox="0.00 0.00 426.00 229.00" xmlns="http://www.w3.org/2000/svg" xmlns:xlink="http://www.w3.org/1999/xlink">
<g id="graph0" class="graph" transform="scale(1 1) rotate(0) translate(4 225)">
<title>base/include/gbdt/tree_node.h</title>
<polygon fill="white" stroke="transparent" points="-4,4 -4,-225 422,-225 422,4 -4,4"/>
<!-- Node1 -->
<g id="node1" class="node">
<title>Node1</title>
<g id="a_node1"><a xlink:title=" ">
<polygon fill="#bfbfbf" stroke="black" points="238.5,-190.5 238.5,-220.5 363.5,-220.5 363.5,-190.5 238.5,-190.5"/>
<text text-anchor="start" x="246.5" y="-208.5" font-family="Helvetica,sans-Serif" font-size="10.00">base/include/gbdt/tree</text>
<text text-anchor="middle" x="301" y="-197.5" font-family="Helvetica,sans-Serif" font-size="10.00">_node.h</text>
</a>
</g>
</g>
<!-- Node2 -->
<g id="node2" class="node">
<title>Node2</title>
<g id="a_node2"><a xlink:href="dp__tree_8h.html" target="_top" xlink:title=" ">
<polygon fill="white" stroke="black" points="178,-123.5 178,-153.5 296,-153.5 296,-123.5 178,-123.5"/>
<text text-anchor="start" x="186" y="-141.5" font-family="Helvetica,sans-Serif" font-size="10.00">base/include/gbdt/dp</text>
<text text-anchor="middle" x="237" y="-130.5" font-family="Helvetica,sans-Serif" font-size="10.00">_tree.h</text>
</a>
</g>
</g>
<!-- Node1&#45;&gt;Node2 -->
<g id="edge1" class="edge">
<title>Node1&#45;&gt;Node2</title>
<path fill="none" stroke="midnightblue" d="M279.85,-183.02C270.32,-173.34 259.33,-162.17 250.86,-153.58"/>
<polygon fill="midnightblue" stroke="midnightblue" points="277.6,-185.73 287.11,-190.4 282.59,-180.81 277.6,-185.73"/>
</g>
<!-- Node7 -->
<g id="node7" class="node">
<title>Node7</title>
<g id="a_node7"><a xlink:href="tree__node_8cpp.html" target="_top" xlink:title=" ">
<polygon fill="white" stroke="black" points="314,-123.5 314,-153.5 418,-153.5 418,-123.5 314,-123.5"/>
<text text-anchor="start" x="322" y="-141.5" font-family="Helvetica,sans-Serif" font-size="10.00">base/src/gbdt/tree</text>
<text text-anchor="middle" x="366" y="-130.5" font-family="Helvetica,sans-Serif" font-size="10.00">_node.cpp</text>
</a>
</g>
</g>
<!-- Node1&#45;&gt;Node7 -->
<g id="edge6" class="edge">
<title>Node1&#45;&gt;Node7</title>
<path fill="none" stroke="midnightblue" d="M322.19,-183.31C331.94,-173.56 343.24,-162.26 351.92,-153.58"/>
<polygon fill="midnightblue" stroke="midnightblue" points="319.7,-180.85 315.1,-190.4 324.65,-185.8 319.7,-180.85"/>
</g>
<!-- Node3 -->
<g id="node3" class="node">
<title>Node3</title>
<g id="a_node3"><a xlink:href="dp__ensemble_8h.html" target="_top" xlink:title=" ">
<polygon fill="white" stroke="black" points="104,-56.5 104,-86.5 222,-86.5 222,-56.5 104,-56.5"/>
<text text-anchor="start" x="112" y="-74.5" font-family="Helvetica,sans-Serif" font-size="10.00">base/include/gbdt/dp</text>
<text text-anchor="middle" x="163" y="-63.5" font-family="Helvetica,sans-Serif" font-size="10.00">_ensemble.h</text>
</a>
</g>
</g>
<!-- Node2&#45;&gt;Node3 -->
<g id="edge2" class="edge">
<title>Node2&#45;&gt;Node3</title>
<path fill="none" stroke="midnightblue" d="M213.2,-116.6C202.03,-106.78 189.01,-95.34 179.03,-86.58"/>
<polygon fill="midnightblue" stroke="midnightblue" points="211.12,-119.43 220.94,-123.4 215.74,-114.17 211.12,-119.43"/>
</g>
<!-- Node6 -->
<g id="node6" class="node">
<title>Node6</title>
<g id="a_node6"><a xlink:href="dp__tree_8cpp.html" target="_top" xlink:title=" ">
<polygon fill="white" stroke="black" points="240,-62 240,-81 382,-81 382,-62 240,-62"/>
<text text-anchor="middle" x="311" y="-69" font-family="Helvetica,sans-Serif" font-size="10.00">base/src/gbdt/dp_tree.cpp</text>
</a>
</g>
</g>
<!-- Node2&#45;&gt;Node6 -->
<g id="edge5" class="edge">
<title>Node2&#45;&gt;Node6</title>
<path fill="none" stroke="midnightblue" d="M260.71,-116.67C274.37,-104.67 290.83,-90.22 301.1,-81.19"/>
<polygon fill="midnightblue" stroke="midnightblue" points="258.26,-114.17 253.06,-123.4 262.88,-119.43 258.26,-114.17"/>
</g>
<!-- Node4 -->
<g id="node4" class="node">
<title>Node4</title>
<g id="a_node4"><a xlink:href="dp__ensemble_8cpp.html" target="_top" xlink:title=" ">
<polygon fill="white" stroke="black" points="0,-0.5 0,-19.5 170,-19.5 170,-0.5 0,-0.5"/>
<text text-anchor="middle" x="85" y="-7.5" font-family="Helvetica,sans-Serif" font-size="10.00">base/src/gbdt/dp_ensemble.cpp</text>
</a>
</g>
</g>
<!-- Node3&#45;&gt;Node4 -->
<g id="edge3" class="edge">
<title>Node3&#45;&gt;Node4</title>
<path fill="none" stroke="midnightblue" d="M136.37,-50.19C122.72,-39.77 106.8,-27.63 96.35,-19.66"/>
<polygon fill="midnightblue" stroke="midnightblue" points="134.44,-53.12 144.52,-56.4 138.69,-47.55 134.44,-53.12"/>
</g>
<!-- Node5 -->
<g id="node5" class="node">
<title>Node5</title>
<g id="a_node5"><a xlink:href="main_8cpp.html" target="_top" xlink:title=" ">
<polygon fill="white" stroke="black" points="188.5,-0.5 188.5,-19.5 293.5,-19.5 293.5,-0.5 188.5,-0.5"/>
<text text-anchor="middle" x="241" y="-7.5" font-family="Helvetica,sans-Serif" font-size="10.00">base/src/main.cpp</text>
</a>
</g>
</g>
<!-- Node3&#45;&gt;Node5 -->
<g id="edge4" class="edge">
<title>Node3&#45;&gt;Node5</title>
<path fill="none" stroke="midnightblue" d="M189.63,-50.19C203.28,-39.77 219.2,-27.63 229.65,-19.66"/>
<polygon fill="midnightblue" stroke="midnightblue" points="187.31,-47.55 181.48,-56.4 191.56,-53.12 187.31,-47.55"/>
</g>
</g>
</svg>
