<?xml version="1.0" encoding="UTF-8" standalone="no"?>
<!DOCTYPE svg PUBLIC "-//W3C//DTD SVG 1.1//EN"
 "http://www.w3.org/Graphics/SVG/1.1/DTD/svg11.dtd">
<!-- Generated by graphviz version 2.43.0 (0)
 -->
<!-- Title: base/include/gbdt/utils.h Pages: 1 -->
<svg width="476pt" height="274pt"
 viewBox="0.00 0.00 476.00 274.00" xmlns="http://www.w3.org/2000/svg" xmlns:xlink="http://www.w3.org/1999/xlink">
<g id="graph0" class="graph" transform="scale(1 1) rotate(0) translate(4 270)">
<title>base/include/gbdt/utils.h</title>
<polygon fill="white" stroke="transparent" points="-4,4 -4,-270 472,-270 472,4 -4,4"/>
<!-- Node1 -->
<g id="node1" class="node">
<title>Node1</title>
<g id="a_node1"><a xlink:title=" ">
<polygon fill="#bfbfbf" stroke="black" points="200,-246.5 200,-265.5 336,-265.5 336,-246.5 200,-246.5"/>
<text text-anchor="middle" x="268" y="-253.5" font-family="Helvetica,sans-Serif" font-size="10.00">base/include/gbdt/utils.h</text>
</a>
</g>
</g>
<!-- Node2 -->
<g id="node2" class="node">
<title>Node2</title>
<g id="a_node2"><a xlink:href="data_8h.html" target="_top" xlink:title=" ">
<polygon fill="white" stroke="black" points="212,-190.5 212,-209.5 324,-209.5 324,-190.5 212,-190.5"/>
<text text-anchor="middle" x="268" y="-197.5" font-family="Helvetica,sans-Serif" font-size="10.00">base/include/data.h</text>
</a>
</g>
</g>
<!-- Node1&#45;&gt;Node2 -->
<g id="edge1" class="edge">
<title>Node1&#45;&gt;Node2</title>
<path fill="none" stroke="midnightblue" d="M261.53,-236.1C260.9,-227.14 261.34,-216.86 262.87,-209.75"/>
<polygon fill="midnightblue" stroke="midnightblue" points="258.07,-236.62 262.83,-246.08 265.01,-235.71 258.07,-236.62"/>
</g>
<!-- Node3 -->
<g id="node3" class="node">
<title>Node3</title>
<g id="a_node3"><a xlink:href="dp__tree_8h.html" target="_top" xlink:title=" ">
<polygon fill="white" stroke="black" points="122,-123.5 122,-153.5 240,-153.5 240,-123.5 122,-123.5"/>
<text text-anchor="start" x="130" y="-141.5" font-family="Helvetica,sans-Serif" font-size="10.00">base/include/gbdt/dp</text>
<text text-anchor="middle" x="181" y="-130.5" font-family="Helvetica,sans-Serif" font-size="10.00">_tree.h</text>
</a>
</g>
</g>
<!-- Node1&#45;&gt;Node3 -->
<g id="edge11" class="edge">
<title>Node1&#45;&gt;Node3</title>
<path fill="none" stroke="midnightblue" d="M240.42,-241.46C227.42,-233.83 212.68,-223.17 203,-210 190.55,-193.06 185.02,-168.89 182.66,-153.71"/>
<polygon fill="midnightblue" stroke="midnightblue" points="239.03,-244.69 249.48,-246.47 242.42,-238.56 239.03,-244.69"/>
</g>
<!-- Node9 -->
<g id="node9" class="node">
<title>Node9</title>
<g id="a_node9"><a xlink:href="utils_8cpp.html" target="_top" xlink:title=" ">
<polygon fill="white" stroke="black" points="342,-190.5 342,-209.5 468,-209.5 468,-190.5 342,-190.5"/>
<text text-anchor="middle" x="405" y="-197.5" font-family="Helvetica,sans-Serif" font-size="10.00">base/src/gbdt/utils.cpp</text>
</a>
</g>
</g>
<!-- Node1&#45;&gt;Node9 -->
<g id="edge12" class="edge">
<title>Node1&#45;&gt;Node9</title>
<path fill="none" stroke="midnightblue" d="M299.02,-242.77C324.76,-232.63 360.69,-218.47 383.39,-209.52"/>
<polygon fill="midnightblue" stroke="midnightblue" points="297.73,-239.52 289.71,-246.44 300.29,-246.03 297.73,-239.52"/>
</g>
<!-- Node2&#45;&gt;Node1 -->
<g id="edge7" class="edge">
<title>Node2&#45;&gt;Node1</title>
<path fill="none" stroke="midnightblue" d="M274.46,-219.69C275.11,-228.64 274.68,-238.93 273.17,-246.08"/>
<polygon fill="midnightblue" stroke="midnightblue" points="277.92,-219.2 273.13,-209.75 270.98,-220.13 277.92,-219.2"/>
</g>
<!-- Node2&#45;&gt;Node3 -->
<g id="edge2" class="edge">
<title>Node2&#45;&gt;Node3</title>
<path fill="none" stroke="midnightblue" d="M247.15,-184.74C233.32,-175.28 215.26,-162.93 201.5,-153.52"/>
<polygon fill="midnightblue" stroke="midnightblue" points="245.3,-187.72 255.54,-190.48 249.26,-181.94 245.3,-187.72"/>
</g>
<!-- Node4 -->
<g id="node4" class="node">
<title>Node4</title>
<g id="a_node4"><a xlink:href="dp__ensemble_8h.html" target="_top" xlink:title=" ">
<polygon fill="white" stroke="black" points="160,-56.5 160,-86.5 278,-86.5 278,-56.5 160,-56.5"/>
<text text-anchor="start" x="168" y="-74.5" font-family="Helvetica,sans-Serif" font-size="10.00">base/include/gbdt/dp</text>
<text text-anchor="middle" x="219" y="-63.5" font-family="Helvetica,sans-Serif" font-size="10.00">_ensemble.h</text>
</a>
</g>
</g>
<!-- Node2&#45;&gt;Node4 -->
<g id="edge8" class="edge">
<title>Node2&#45;&gt;Node4</title>
<path fill="none" stroke="midnightblue" d="M264.9,-180.3C261.93,-164.62 256.75,-141.82 249,-123 243.64,-109.99 235.34,-96.33 228.83,-86.5"/>
<polygon fill="midnightblue" stroke="midnightblue" points="261.48,-181.07 266.68,-190.31 268.37,-179.85 261.48,-181.07"/>
</g>
<!-- Node6 -->
<g id="node6" class="node">
<title>Node6</title>
<g id="a_node6"><a xlink:href="main_8cpp.html" target="_top" xlink:title=" ">
<polygon fill="white" stroke="black" points="253.5,-0.5 253.5,-19.5 358.5,-19.5 358.5,-0.5 253.5,-0.5"/>
<text text-anchor="middle" x="306" y="-7.5" font-family="Helvetica,sans-Serif" font-size="10.00">base/src/main.cpp</text>
</a>
</g>
</g>
<!-- Node2&#45;&gt;Node6 -->
<g id="edge10" class="edge">
<title>Node2&#45;&gt;Node6</title>
<path fill="none" stroke="midnightblue" d="M271.74,-180.5C279.78,-140.71 298.47,-48.26 304.26,-19.62"/>
<polygon fill="midnightblue" stroke="midnightblue" points="268.28,-179.94 269.73,-190.43 275.14,-181.33 268.28,-179.94"/>
</g>
<!-- Node8 -->
<g id="node8" class="node">
<title>Node8</title>
<g id="a_node8"><a xlink:href="data_8cpp.html" target="_top" xlink:title=" ">
<polygon fill="white" stroke="black" points="334.5,-129 334.5,-148 461.5,-148 461.5,-129 334.5,-129"/>
<text text-anchor="middle" x="398" y="-136" font-family="Helvetica,sans-Serif" font-size="10.00">base/src/gbdt/data.cpp</text>
</a>
</g>
</g>
<!-- Node2&#45;&gt;Node8 -->
<g id="edge9" class="edge">
<title>Node2&#45;&gt;Node8</title>
<path fill="none" stroke="midnightblue" d="M296.02,-186.17C321.25,-174.63 357.61,-157.99 379.41,-148.01"/>
<polygon fill="midnightblue" stroke="midnightblue" points="294.26,-183.13 286.63,-190.48 297.18,-189.5 294.26,-183.13"/>
</g>
<!-- Node3&#45;&gt;Node4 -->
<g id="edge3" class="edge">
<title>Node3&#45;&gt;Node4</title>
<path fill="none" stroke="midnightblue" d="M194.4,-114.58C199.86,-105.24 205.99,-94.75 210.77,-86.58"/>
<polygon fill="midnightblue" stroke="midnightblue" points="191.27,-113 189.25,-123.4 197.31,-116.53 191.27,-113"/>
</g>
<!-- Node7 -->
<g id="node7" class="node">
<title>Node7</title>
<g id="a_node7"><a xlink:href="dp__tree_8cpp.html" target="_top" xlink:title=" ">
<polygon fill="white" stroke="black" points="0,-62 0,-81 142,-81 142,-62 0,-62"/>
<text text-anchor="middle" x="71" y="-69" font-family="Helvetica,sans-Serif" font-size="10.00">base/src/gbdt/dp_tree.cpp</text>
</a>
</g>
</g>
<!-- Node3&#45;&gt;Node7 -->
<g id="edge6" class="edge">
<title>Node3&#45;&gt;Node7</title>
<path fill="none" stroke="midnightblue" d="M148.52,-118.31C127.57,-105.93 101.34,-90.43 85.4,-81.01"/>
<polygon fill="midnightblue" stroke="midnightblue" points="146.74,-121.32 157.13,-123.4 150.3,-115.3 146.74,-121.32"/>
</g>
<!-- Node5 -->
<g id="node5" class="node">
<title>Node5</title>
<g id="a_node5"><a xlink:href="dp__ensemble_8cpp.html" target="_top" xlink:title=" ">
<polygon fill="white" stroke="black" points="65,-0.5 65,-19.5 235,-19.5 235,-0.5 65,-0.5"/>
<text text-anchor="middle" x="150" y="-7.5" font-family="Helvetica,sans-Serif" font-size="10.00">base/src/gbdt/dp_ensemble.cpp</text>
</a>
</g>
</g>
<!-- Node4&#45;&gt;Node5 -->
<g id="edge4" class="edge">
<title>Node4&#45;&gt;Node5</title>
<path fill="none" stroke="midnightblue" d="M194.76,-49.6C182.84,-39.32 169.11,-27.48 160.04,-19.66"/>
<polygon fill="midnightblue" stroke="midnightblue" points="192.79,-52.52 202.65,-56.4 197.36,-47.22 192.79,-52.52"/>
</g>
<!-- Node4&#45;&gt;Node6 -->
<g id="edge5" class="edge">
<title>Node4&#45;&gt;Node6</title>
<path fill="none" stroke="midnightblue" d="M248.27,-50.48C263.59,-40 281.57,-27.71 293.34,-19.66"/>
<polygon fill="midnightblue" stroke="midnightblue" points="245.9,-47.87 239.62,-56.4 249.85,-53.64 245.9,-47.87"/>
</g>
</g>
</svg>
