<?xml version="1.0" encoding="UTF-8" standalone="no"?>
<!DOCTYPE svg PUBLIC "-//W3C//DTD SVG 1.1//EN"
 "http://www.w3.org/Graphics/SVG/1.1/DTD/svg11.dtd">
<!-- Generated by graphviz version 2.43.0 (0)
 -->
<!-- Title: log_sum_exp Pages: 1 -->
<svg width="892pt" height="39pt"
 viewBox="0.00 0.00 892.00 39.00" xmlns="http://www.w3.org/2000/svg" xmlns:xlink="http://www.w3.org/1999/xlink">
<g id="graph0" class="graph" transform="scale(1 1) rotate(0) translate(4 35)">
<title>log_sum_exp</title>
<polygon fill="white" stroke="transparent" points="-4,4 -4,-35 888,-35 888,4 -4,4"/>
<!-- Node1 -->
<g id="node1" class="node">
<title>Node1</title>
<g id="a_node1"><a xlink:title=" ">
<polygon fill="#bfbfbf" stroke="black" points="803,-6 803,-25 884,-25 884,-6 803,-6"/>
<text text-anchor="middle" x="843.5" y="-13" font-family="Helvetica,sans-Serif" font-size="10.00">log_sum_exp</text>
</a>
</g>
</g>
<!-- Node2 -->
<g id="node2" class="node">
<title>Node2</title>
<g id="a_node2"><a xlink:href="class_d_p_tree.html#a7ce368c3888736d660dcf09587df4512" target="_top" xlink:title=" ">
<polygon fill="white" stroke="black" points="653,-0.5 653,-30.5 767,-30.5 767,-0.5 653,-0.5"/>
<text text-anchor="start" x="661" y="-18.5" font-family="Helvetica,sans-Serif" font-size="10.00">DPTree::exponential</text>
<text text-anchor="middle" x="710" y="-7.5" font-family="Helvetica,sans-Serif" font-size="10.00">_mechanism</text>
</a>
</g>
</g>
<!-- Node1&#45;&gt;Node2 -->
<g id="edge1" class="edge">
<title>Node1&#45;&gt;Node2</title>
<path fill="none" stroke="midnightblue" d="M792.45,-15.5C784.19,-15.5 775.57,-15.5 767.17,-15.5"/>
<polygon fill="midnightblue" stroke="midnightblue" points="792.69,-19 802.69,-15.5 792.69,-12 792.69,-19"/>
</g>
<!-- Node3 -->
<g id="node3" class="node">
<title>Node3</title>
<g id="a_node3"><a xlink:href="class_d_p_tree.html#ad7f8755be37ad10cf104fba2076dce5e" target="_top" xlink:title=" ">
<polygon fill="white" stroke="black" points="490,-6 490,-25 617,-25 617,-6 490,-6"/>
<text text-anchor="middle" x="553.5" y="-13" font-family="Helvetica,sans-Serif" font-size="10.00">DPTree::find_best_split</text>
</a>
</g>
</g>
<!-- Node2&#45;&gt;Node3 -->
<g id="edge2" class="edge">
<title>Node2&#45;&gt;Node3</title>
<path fill="none" stroke="midnightblue" d="M642.62,-15.5C634.19,-15.5 625.58,-15.5 617.21,-15.5"/>
<polygon fill="midnightblue" stroke="midnightblue" points="642.78,-19 652.78,-15.5 642.78,-12 642.78,-19"/>
</g>
<!-- Node4 -->
<g id="node4" class="node">
<title>Node4</title>
<g id="a_node4"><a xlink:href="class_d_p_tree.html#a07314c44bb7b7ca37c735b70de3ccb9e" target="_top" xlink:title=" ">
<polygon fill="white" stroke="black" points="322,-6 322,-25 454,-25 454,-6 322,-6"/>
<text text-anchor="middle" x="388" y="-13" font-family="Helvetica,sans-Serif" font-size="10.00">DPTree::make_tree_DFS</text>
</a>
</g>
</g>
<!-- Node3&#45;&gt;Node4 -->
<g id="edge3" class="edge">
<title>Node3&#45;&gt;Node4</title>
<path fill="none" stroke="midnightblue" d="M479.49,-15.5C471,-15.5 462.39,-15.5 454.02,-15.5"/>
<polygon fill="midnightblue" stroke="midnightblue" points="479.75,-19 489.75,-15.5 479.75,-12 479.75,-19"/>
</g>
<!-- Node5 -->
<g id="node5" class="node">
<title>Node5</title>
<g id="a_node5"><a xlink:href="class_d_p_tree.html#a82b9507f4f5d056b98f40871b304f943" target="_top" xlink:title=" ">
<polygon fill="white" stroke="black" points="220,-6 220,-25 286,-25 286,-6 220,-6"/>
<text text-anchor="middle" x="253" y="-13" font-family="Helvetica,sans-Serif" font-size="10.00">DPTree::fit</text>
</a>
</g>
</g>
<!-- Node4&#45;&gt;Node5 -->
<g id="edge4" class="edge">
<title>Node4&#45;&gt;Node5</title>
<path fill="none" stroke="midnightblue" d="M311.56,-15.5C302.66,-15.5 293.97,-15.5 286.16,-15.5"/>
<polygon fill="midnightblue" stroke="midnightblue" points="311.67,-19 321.67,-15.5 311.67,-12 311.67,-19"/>
</g>
<!-- Node6 -->
<g id="node6" class="node">
<title>Node6</title>
<g id="a_node6"><a xlink:href="class_d_p_ensemble.html#a1652b5fde834bfb18416ebf438d3e10a" target="_top" xlink:title=" ">
<polygon fill="white" stroke="black" points="77,-6 77,-25 184,-25 184,-6 77,-6"/>
<text text-anchor="middle" x="130.5" y="-13" font-family="Helvetica,sans-Serif" font-size="10.00">DPEnsemble::train</text>
</a>
</g>
</g>
<!-- Node5&#45;&gt;Node6 -->
<g id="edge5" class="edge">
<title>Node5&#45;&gt;Node6</title>
<path fill="none" stroke="midnightblue" d="M209.66,-15.5C201.48,-15.5 192.82,-15.5 184.36,-15.5"/>
<polygon fill="midnightblue" stroke="midnightblue" points="209.71,-19 219.71,-15.5 209.71,-12 209.71,-19"/>
</g>
<!-- Node7 -->
<g id="node7" class="node">
<title>Node7</title>
<g id="a_node7"><a xlink:href="main_8cpp.html#a3c04138a5bfe5d72780bb7e82a18e627" target="_top" xlink:title=" ">
<polygon fill="white" stroke="black" points="0,-6 0,-25 41,-25 41,-6 0,-6"/>
<text text-anchor="middle" x="20.5" y="-13" font-family="Helvetica,sans-Serif" font-size="10.00">main</text>
</a>
</g>
</g>
<!-- Node6&#45;&gt;Node7 -->
<g id="edge6" class="edge">
<title>Node6&#45;&gt;Node7</title>
<path fill="none" stroke="midnightblue" d="M66.64,-15.5C57.4,-15.5 48.5,-15.5 41.09,-15.5"/>
<polygon fill="midnightblue" stroke="midnightblue" points="66.77,-19 76.77,-15.5 66.77,-12 66.77,-19"/>
</g>
</g>
</svg>
