<?xml version="1.0" encoding="UTF-8" standalone="no"?>
<!DOCTYPE svg PUBLIC "-//W3C//DTD SVG 1.1//EN"
 "http://www.w3.org/Graphics/SVG/1.1/DTD/svg11.dtd">
<!-- Generated by graphviz version 2.43.0 (0)
 -->
<!-- Title: DPEnsemble::train Pages: 1 -->
<svg width="942pt" height="209pt"
 viewBox="0.00 0.00 942.00 209.00" xmlns="http://www.w3.org/2000/svg" xmlns:xlink="http://www.w3.org/1999/xlink">
<g id="graph0" class="graph" transform="scale(1 1) rotate(0) translate(4 205)">
<title>DPEnsemble::train</title>
<polygon fill="white" stroke="transparent" points="-4,4 -4,-205 938,-205 938,4 -4,4"/>
<!-- Node1 -->
<g id="node1" class="node">
<title>Node1</title>
<g id="a_node1"><a xlink:title=" ">
<polygon fill="#bfbfbf" stroke="black" points="0,-101.5 0,-120.5 107,-120.5 107,-101.5 0,-101.5"/>
<text text-anchor="middle" x="53.5" y="-108.5" font-family="Helvetica,sans-Serif" font-size="10.00">DPEnsemble::train</text>
</a>
</g>
</g>
<!-- Node2 -->
<g id="node2" class="node">
<title>Node2</title>
<g id="a_node2"><a xlink:href="utils_8h.html#aeeffe725a130b4421d7fc165a4fa2ee3" target="_top" xlink:title=" ">
<polygon fill="white" stroke="black" points="349.5,-181.5 349.5,-200.5 396.5,-200.5 396.5,-181.5 349.5,-181.5"/>
<text text-anchor="middle" x="373" y="-188.5" font-family="Helvetica,sans-Serif" font-size="10.00">clamp</text>
</a>
</g>
</g>
<!-- Node1&#45;&gt;Node2 -->
<g id="edge1" class="edge">
<title>Node1&#45;&gt;Node2</title>
<path fill="none" stroke="midnightblue" d="M65.59,-120.66C81.5,-133.9 112.29,-157.27 143,-168 209.87,-191.37 293.95,-193.4 339.33,-192.44"/>
<polygon fill="midnightblue" stroke="midnightblue" points="339.57,-195.94 349.47,-192.16 339.38,-188.94 339.57,-195.94"/>
</g>
<!-- Node3 -->
<g id="node3" class="node">
<title>Node3</title>
<g id="a_node3"><a xlink:href="class_d_p_tree.html#a82b9507f4f5d056b98f40871b304f943" target="_top" xlink:title=" ">
<polygon fill="white" stroke="black" points="174,-139.5 174,-158.5 240,-158.5 240,-139.5 174,-139.5"/>
<text text-anchor="middle" x="207" y="-146.5" font-family="Helvetica,sans-Serif" font-size="10.00">DPTree::fit</text>
</a>
</g>
</g>
<!-- Node1&#45;&gt;Node3 -->
<g id="edge2" class="edge">
<title>Node1&#45;&gt;Node3</title>
<path fill="none" stroke="midnightblue" d="M92.73,-120.59C114.47,-126.04 141.73,-132.88 164.05,-138.48"/>
<polygon fill="midnightblue" stroke="midnightblue" points="163.38,-141.92 173.93,-140.96 165.08,-135.13 163.38,-141.92"/>
</g>
<!-- Node14 -->
<g id="node14" class="node">
<title>Node14</title>
<g id="a_node14"><a xlink:href="struct_data_set.html#afa2b0dcbd62ba4bf49ea37a1dcefeb83" target="_top" xlink:title=" ">
<polygon fill="white" stroke="black" points="149.5,-101.5 149.5,-120.5 264.5,-120.5 264.5,-101.5 149.5,-101.5"/>
<text text-anchor="middle" x="207" y="-108.5" font-family="Helvetica,sans-Serif" font-size="10.00">DataSet::get_subset</text>
</a>
</g>
</g>
<!-- Node1&#45;&gt;Node14 -->
<g id="edge15" class="edge">
<title>Node1&#45;&gt;Node14</title>
<path fill="none" stroke="midnightblue" d="M107.06,-111C117.42,-111 128.43,-111 139.19,-111"/>
<polygon fill="midnightblue" stroke="midnightblue" points="139.4,-114.5 149.4,-111 139.4,-107.5 139.4,-114.5"/>
</g>
<!-- Node15 -->
<g id="node15" class="node">
<title>Node15</title>
<g id="a_node15"><a xlink:href="struct_data_set.html#a30a01ecb39d3bfc9eb5e5923ed6f5d43" target="_top" xlink:title=" ">
<polygon fill="white" stroke="black" points="143,-63.5 143,-82.5 271,-82.5 271,-63.5 143,-63.5"/>
<text text-anchor="middle" x="207" y="-70.5" font-family="Helvetica,sans-Serif" font-size="10.00">DataSet::remove_rows</text>
</a>
</g>
</g>
<!-- Node1&#45;&gt;Node15 -->
<g id="edge16" class="edge">
<title>Node1&#45;&gt;Node15</title>
<path fill="none" stroke="midnightblue" d="M92.73,-101.41C112.63,-96.42 137.16,-90.27 158.29,-84.97"/>
<polygon fill="midnightblue" stroke="midnightblue" points="159.2,-88.35 168.05,-82.52 157.49,-81.56 159.2,-88.35"/>
</g>
<!-- Node16 -->
<g id="node16" class="node">
<title>Node16</title>
<g id="a_node16"><a xlink:href="class_d_p_ensemble.html#a2b446f94f9da238cae22580813c91196" target="_top" xlink:title=" ">
<polygon fill="white" stroke="black" points="148,-14 148,-44 266,-44 266,-14 148,-14"/>
<text text-anchor="start" x="156" y="-32" font-family="Helvetica,sans-Serif" font-size="10.00">DPEnsemble::update</text>
<text text-anchor="middle" x="207" y="-21" font-family="Helvetica,sans-Serif" font-size="10.00">_gradients</text>
</a>
</g>
</g>
<!-- Node1&#45;&gt;Node16 -->
<g id="edge17" class="edge">
<title>Node1&#45;&gt;Node16</title>
<path fill="none" stroke="midnightblue" d="M67.51,-101.47C84.35,-89.41 114.88,-68.46 143,-54 146.99,-51.95 151.2,-49.95 155.46,-48.04"/>
<polygon fill="midnightblue" stroke="midnightblue" points="157.02,-51.18 164.82,-44 154.25,-44.75 157.02,-51.18"/>
</g>
<!-- Node3&#45;&gt;Node2 -->
<g id="edge5" class="edge">
<title>Node3&#45;&gt;Node2</title>
<path fill="none" stroke="midnightblue" d="M240.01,-157.2C268.57,-164.51 310.21,-175.18 339.05,-182.56"/>
<polygon fill="midnightblue" stroke="midnightblue" points="338.5,-186.03 349.05,-185.12 340.23,-179.25 338.5,-186.03"/>
</g>
<!-- Node4 -->
<g id="node4" class="node">
<title>Node4</title>
<g id="a_node4"><a xlink:href="class_d_p_tree.html#a468d249a3e55f1527e50daf13e550c79" target="_top" xlink:title=" ">
<polygon fill="white" stroke="black" points="311,-132 311,-162 435,-162 435,-132 311,-132"/>
<text text-anchor="start" x="319" y="-150" font-family="Helvetica,sans-Serif" font-size="10.00">DPTree::add_laplacian</text>
<text text-anchor="middle" x="373" y="-139" font-family="Helvetica,sans-Serif" font-size="10.00">_noise</text>
</a>
</g>
</g>
<!-- Node3&#45;&gt;Node4 -->
<g id="edge3" class="edge">
<title>Node3&#45;&gt;Node4</title>
<path fill="none" stroke="midnightblue" d="M240.01,-148.61C257.31,-148.4 279.42,-148.13 300.57,-147.87"/>
<polygon fill="midnightblue" stroke="midnightblue" points="300.9,-151.37 310.85,-147.75 300.81,-144.37 300.9,-151.37"/>
</g>
<!-- Node6 -->
<g id="node6" class="node">
<title>Node6</title>
<g id="a_node6"><a xlink:href="class_d_p_tree.html#a07314c44bb7b7ca37c735b70de3ccb9e" target="_top" xlink:title=" ">
<polygon fill="white" stroke="black" points="307,-76.5 307,-95.5 439,-95.5 439,-76.5 307,-76.5"/>
<text text-anchor="middle" x="373" y="-83.5" font-family="Helvetica,sans-Serif" font-size="10.00">DPTree::make_tree_DFS</text>
</a>
</g>
</g>
<!-- Node3&#45;&gt;Node6 -->
<g id="edge6" class="edge">
<title>Node3&#45;&gt;Node6</title>
<path fill="none" stroke="midnightblue" d="M240.29,-140.06C250.22,-137.1 261.13,-133.62 271,-130 295.53,-120.99 322.65,-109.07 342.61,-99.9"/>
<polygon fill="midnightblue" stroke="midnightblue" points="344.18,-103.03 351.78,-95.65 341.24,-96.68 344.18,-103.03"/>
</g>
<!-- Node5 -->
<g id="node5" class="node">
<title>Node5</title>
<g id="a_node5"><a xlink:href="class_laplace.html#a357965a9024cbdb3866973b5ef22500c" target="_top" xlink:title=" ">
<polygon fill="white" stroke="black" points="475,-153 475,-183 618,-183 618,-153 475,-153"/>
<text text-anchor="start" x="483" y="-171" font-family="Helvetica,sans-Serif" font-size="10.00">Laplace::return_a_random</text>
<text text-anchor="middle" x="546.5" y="-160" font-family="Helvetica,sans-Serif" font-size="10.00">_variable</text>
</a>
</g>
</g>
<!-- Node4&#45;&gt;Node5 -->
<g id="edge4" class="edge">
<title>Node4&#45;&gt;Node5</title>
<path fill="none" stroke="midnightblue" d="M435.43,-154.52C444.92,-155.68 454.84,-156.9 464.67,-158.1"/>
<polygon fill="midnightblue" stroke="midnightblue" points="464.52,-161.61 474.87,-159.35 465.37,-154.66 464.52,-161.61"/>
</g>
<!-- Node7 -->
<g id="node7" class="node">
<title>Node7</title>
<g id="a_node7"><a xlink:href="class_d_p_tree.html#ad7f8755be37ad10cf104fba2076dce5e" target="_top" xlink:title=" ">
<polygon fill="white" stroke="black" points="483,-76.5 483,-95.5 610,-95.5 610,-76.5 483,-76.5"/>
<text text-anchor="middle" x="546.5" y="-83.5" font-family="Helvetica,sans-Serif" font-size="10.00">DPTree::find_best_split</text>
</a>
</g>
</g>
<!-- Node6&#45;&gt;Node7 -->
<g id="edge7" class="edge">
<title>Node6&#45;&gt;Node7</title>
<path fill="none" stroke="midnightblue" d="M439.33,-86C450.27,-86 461.68,-86 472.8,-86"/>
<polygon fill="midnightblue" stroke="midnightblue" points="472.9,-89.5 482.9,-86 472.9,-82.5 472.9,-89.5"/>
</g>
<!-- Node9 -->
<g id="node9" class="node">
<title>Node9</title>
<g id="a_node9"><a xlink:href="class_d_p_tree.html#af16f3e0373e606fe42b2104890b2d036" target="_top" xlink:title=" ">
<polygon fill="white" stroke="black" points="815,-52 815,-82 934,-82 934,-52 815,-52"/>
<text text-anchor="start" x="823" y="-70" font-family="Helvetica,sans-Serif" font-size="10.00">DPTree::samples_left</text>
<text text-anchor="middle" x="874.5" y="-59" font-family="Helvetica,sans-Serif" font-size="10.00">_right_partition</text>
</a>
</g>
</g>
<!-- Node6&#45;&gt;Node9 -->
<g id="edge14" class="edge">
<title>Node6&#45;&gt;Node9</title>
<path fill="none" stroke="midnightblue" d="M415.03,-76.49C433.28,-72.72 455.1,-68.86 475,-67 590.2,-56.26 724.96,-59.55 804.55,-63.13"/>
<polygon fill="midnightblue" stroke="midnightblue" points="804.78,-66.64 814.93,-63.61 805.11,-59.65 804.78,-66.64"/>
</g>
<!-- Node12 -->
<g id="node12" class="node">
<title>Node12</title>
<g id="a_node12"><a xlink:href="class_tree_node.html#ae671fa006ebb36f632b46b5aa1ec2899" target="_top" xlink:title=" ">
<polygon fill="white" stroke="black" points="496,-0.5 496,-19.5 597,-19.5 597,-0.5 496,-0.5"/>
<text text-anchor="middle" x="546.5" y="-7.5" font-family="Helvetica,sans-Serif" font-size="10.00">TreeNode::is_leaf</text>
</a>
</g>
</g>
<!-- Node6&#45;&gt;Node12 -->
<g id="edge12" class="edge">
<title>Node6&#45;&gt;Node12</title>
<path fill="none" stroke="midnightblue" d="M390.79,-76.38C410.54,-65.3 444.51,-46.96 475,-34 484.46,-29.98 494.84,-26.14 504.66,-22.76"/>
<polygon fill="midnightblue" stroke="midnightblue" points="505.88,-26.05 514.24,-19.54 503.65,-19.41 505.88,-26.05"/>
</g>
<!-- Node13 -->
<g id="node13" class="node">
<title>Node13</title>
<g id="a_node13"><a xlink:href="class_d_p_tree.html#a3a716a075edfae470e0fe7511634e922" target="_top" xlink:title=" ">
<polygon fill="white" stroke="black" points="478,-114.5 478,-133.5 615,-133.5 615,-114.5 478,-114.5"/>
<text text-anchor="middle" x="546.5" y="-121.5" font-family="Helvetica,sans-Serif" font-size="10.00">DPTree::make_leaf_node</text>
</a>
</g>
</g>
<!-- Node6&#45;&gt;Node13 -->
<g id="edge13" class="edge">
<title>Node6&#45;&gt;Node13</title>
<path fill="none" stroke="midnightblue" d="M417.28,-95.59C440.11,-100.65 468.32,-106.9 492.46,-112.25"/>
<polygon fill="midnightblue" stroke="midnightblue" points="492.01,-115.73 502.53,-114.48 493.53,-108.9 492.01,-115.73"/>
</g>
<!-- Node8 -->
<g id="node8" class="node">
<title>Node8</title>
<g id="a_node8"><a xlink:href="class_d_p_tree.html#ab9426a6ac2e5122e29ecbb6e9c4cd050" target="_top" xlink:title=" ">
<polygon fill="white" stroke="black" points="654,-76.5 654,-95.5 779,-95.5 779,-76.5 654,-76.5"/>
<text text-anchor="middle" x="716.5" y="-83.5" font-family="Helvetica,sans-Serif" font-size="10.00">DPTree::compute_gain</text>
</a>
</g>
</g>
<!-- Node7&#45;&gt;Node8 -->
<g id="edge8" class="edge">
<title>Node7&#45;&gt;Node8</title>
<path fill="none" stroke="midnightblue" d="M610.06,-86C620.99,-86 632.43,-86 643.59,-86"/>
<polygon fill="midnightblue" stroke="midnightblue" points="643.73,-89.5 653.73,-86 643.73,-82.5 643.73,-89.5"/>
</g>
<!-- Node10 -->
<g id="node10" class="node">
<title>Node10</title>
<g id="a_node10"><a xlink:href="class_d_p_tree.html#a7ce368c3888736d660dcf09587df4512" target="_top" xlink:title=" ">
<polygon fill="white" stroke="black" points="659.5,-115 659.5,-145 773.5,-145 773.5,-115 659.5,-115"/>
<text text-anchor="start" x="667.5" y="-133" font-family="Helvetica,sans-Serif" font-size="10.00">DPTree::exponential</text>
<text text-anchor="middle" x="716.5" y="-122" font-family="Helvetica,sans-Serif" font-size="10.00">_mechanism</text>
</a>
</g>
</g>
<!-- Node7&#45;&gt;Node10 -->
<g id="edge10" class="edge">
<title>Node7&#45;&gt;Node10</title>
<path fill="none" stroke="midnightblue" d="M583.95,-95.55C603.12,-100.57 627.21,-106.88 649.52,-112.72"/>
<polygon fill="midnightblue" stroke="midnightblue" points="648.73,-116.13 659.29,-115.28 650.5,-109.36 648.73,-116.13"/>
</g>
<!-- Node8&#45;&gt;Node9 -->
<g id="edge9" class="edge">
<title>Node8&#45;&gt;Node9</title>
<path fill="none" stroke="midnightblue" d="M779.16,-78.49C787.6,-77.46 796.32,-76.4 804.88,-75.36"/>
<polygon fill="midnightblue" stroke="midnightblue" points="805.33,-78.83 814.84,-74.15 804.49,-71.88 805.33,-78.83"/>
</g>
<!-- Node11 -->
<g id="node11" class="node">
<title>Node11</title>
<g id="a_node11"><a xlink:href="utils_8h.html#a35953abcfd9e2310fa2c6d440233fad5" target="_top" xlink:title=" ">
<polygon fill="white" stroke="black" points="834,-120.5 834,-139.5 915,-139.5 915,-120.5 834,-120.5"/>
<text text-anchor="middle" x="874.5" y="-127.5" font-family="Helvetica,sans-Serif" font-size="10.00">log_sum_exp</text>
</a>
</g>
</g>
<!-- Node10&#45;&gt;Node11 -->
<g id="edge11" class="edge">
<title>Node10&#45;&gt;Node11</title>
<path fill="none" stroke="midnightblue" d="M773.82,-130C790.14,-130 807.84,-130 823.73,-130"/>
<polygon fill="midnightblue" stroke="midnightblue" points="823.88,-133.5 833.88,-130 823.88,-126.5 823.88,-133.5"/>
</g>
<!-- Node17 -->
<g id="node17" class="node">
<title>Node17</title>
<g id="a_node17"><a xlink:href="class_d_p_ensemble.html#a2971bb16cab5ab57322993048ea3a729" target="_top" xlink:title=" ">
<polygon fill="white" stroke="black" points="314,-19.5 314,-38.5 432,-38.5 432,-19.5 314,-19.5"/>
<text text-anchor="middle" x="373" y="-26.5" font-family="Helvetica,sans-Serif" font-size="10.00">DPEnsemble::predict</text>
</a>
</g>
</g>
<!-- Node16&#45;&gt;Node17 -->
<g id="edge18" class="edge">
<title>Node16&#45;&gt;Node17</title>
<path fill="none" stroke="midnightblue" d="M266.28,-29C278.37,-29 291.2,-29 303.61,-29"/>
<polygon fill="midnightblue" stroke="midnightblue" points="303.91,-32.5 313.91,-29 303.91,-25.5 303.91,-32.5"/>
</g>
</g>
</svg>
