<?xml version="1.0" encoding="UTF-8" standalone="no"?>
<!DOCTYPE svg PUBLIC "-//W3C//DTD SVG 1.1//EN"
 "http://www.w3.org/Graphics/SVG/1.1/DTD/svg11.dtd">
<!-- Generated by graphviz version 2.43.0 (0)
 -->
<!-- Title: DPTree Pages: 1 -->
<svg width="387pt" height="164pt"
 viewBox="0.00 0.00 386.50 164.00" xmlns="http://www.w3.org/2000/svg" xmlns:xlink="http://www.w3.org/1999/xlink">
<g id="graph0" class="graph" transform="scale(1 1) rotate(0) translate(4 160)">
<title>DPTree</title>
<polygon fill="white" stroke="transparent" points="-4,4 -4,-160 382.5,-160 382.5,4 -4,4"/>
<!-- Node1 -->
<g id="node1" class="node">
<title>Node1</title>
<g id="a_node1"><a xlink:title=" ">
<polygon fill="#bfbfbf" stroke="black" points="180.5,-0.5 180.5,-19.5 230.5,-19.5 230.5,-0.5 180.5,-0.5"/>
<text text-anchor="middle" x="205.5" y="-7.5" font-family="Helvetica,sans-Serif" font-size="10.00">DPTree</text>
</a>
</g>
</g>
<!-- Node2 -->
<g id="node2" class="node">
<title>Node2</title>
<g id="a_node2"><a xlink:href="struct_tree_params.html" target="_top" xlink:title=" ">
<polygon fill="white" stroke="black" points="0,-68.5 0,-87.5 73,-87.5 73,-68.5 0,-68.5"/>
<text text-anchor="middle" x="36.5" y="-75.5" font-family="Helvetica,sans-Serif" font-size="10.00">TreeParams</text>
</a>
</g>
</g>
<!-- Node2&#45;&gt;Node1 -->
<g id="edge1" class="edge">
<title>Node2&#45;&gt;Node1</title>
<path fill="none" stroke="#9a32cd" stroke-dasharray="5,2" d="M53.67,-61.56C63.53,-53.46 76.5,-43.99 89.5,-38 118.99,-24.42 155.94,-17.34 180.1,-13.9"/>
<polygon fill="#9a32cd" stroke="#9a32cd" points="51.22,-59.06 45.89,-68.22 55.77,-64.38 51.22,-59.06"/>
<text text-anchor="middle" x="122" y="-41" font-family="Helvetica,sans-Serif" font-size="10.00"> tree_params</text>
</g>
<!-- Node3 -->
<g id="node3" class="node">
<title>Node3</title>
<g id="a_node3"><a xlink:href="class_tree_node.html" target="_top" xlink:title=" ">
<polygon fill="white" stroke="black" points="91.5,-68.5 91.5,-87.5 153.5,-87.5 153.5,-68.5 91.5,-68.5"/>
<text text-anchor="middle" x="122.5" y="-75.5" font-family="Helvetica,sans-Serif" font-size="10.00">TreeNode</text>
</a>
</g>
</g>
<!-- Node3&#45;&gt;Node1 -->
<g id="edge2" class="edge">
<title>Node3&#45;&gt;Node1</title>
<path fill="none" stroke="#9a32cd" stroke-dasharray="5,2" d="M141.41,-61.94C150.51,-54.7 161.57,-45.9 171.5,-38 179.29,-31.81 188.08,-24.82 194.78,-19.51"/>
<polygon fill="#9a32cd" stroke="#9a32cd" points="139.04,-59.36 133.4,-68.32 143.4,-64.83 139.04,-59.36"/>
<text text-anchor="middle" x="197.5" y="-41" font-family="Helvetica,sans-Serif" font-size="10.00"> root_node</text>
</g>
<!-- Node3&#45;&gt;Node3 -->
<g id="edge3" class="edge">
<title>Node3&#45;&gt;Node3</title>
<path fill="none" stroke="#9a32cd" stroke-dasharray="5,2" d="M163.65,-83.43C168.41,-82.43 171.5,-80.61 171.5,-78 171.5,-73.82 163.59,-71.69 153.6,-71.63"/>
<polygon fill="#9a32cd" stroke="#9a32cd" points="163.23,-79.96 153.6,-84.37 163.89,-86.92 163.23,-79.96"/>
<text text-anchor="middle" x="184.5" y="-81" font-family="Helvetica,sans-Serif" font-size="10.00"> right</text>
<text text-anchor="middle" x="184.5" y="-70" font-family="Helvetica,sans-Serif" font-size="10.00">left</text>
</g>
<!-- Node4 -->
<g id="node4" class="node">
<title>Node4</title>
<g id="a_node4"><a xlink:href="struct_model_params.html" target="_top" xlink:title=" ">
<polygon fill="white" stroke="black" points="216,-68.5 216,-87.5 299,-87.5 299,-68.5 216,-68.5"/>
<text text-anchor="middle" x="257.5" y="-75.5" font-family="Helvetica,sans-Serif" font-size="10.00">ModelParams</text>
</a>
</g>
</g>
<!-- Node4&#45;&gt;Node1 -->
<g id="edge4" class="edge">
<title>Node4&#45;&gt;Node1</title>
<path fill="none" stroke="#9a32cd" stroke-dasharray="5,2" d="M244.35,-60.31C234.21,-47.44 220.59,-30.16 212.47,-19.84"/>
<polygon fill="#9a32cd" stroke="#9a32cd" points="241.76,-62.68 250.7,-68.37 247.26,-58.35 241.76,-62.68"/>
<text text-anchor="middle" x="255.5" y="-41" font-family="Helvetica,sans-Serif" font-size="10.00"> params</text>
</g>
<!-- Node5 -->
<g id="node5" class="node">
<title>Node5</title>
<g id="a_node5"><a xlink:href="struct_data_set.html" target="_top" xlink:title=" ">
<polygon fill="white" stroke="black" points="317.5,-68.5 317.5,-87.5 373.5,-87.5 373.5,-68.5 317.5,-68.5"/>
<text text-anchor="middle" x="345.5" y="-75.5" font-family="Helvetica,sans-Serif" font-size="10.00">DataSet</text>
</a>
</g>
</g>
<!-- Node5&#45;&gt;Node1 -->
<g id="edge5" class="edge">
<title>Node5&#45;&gt;Node1</title>
<path fill="none" stroke="#9a32cd" stroke-dasharray="5,2" d="M323.79,-62.8C311.18,-54.9 294.8,-45.23 279.5,-38 263.68,-30.52 245.18,-23.77 230.63,-18.89"/>
<polygon fill="#9a32cd" stroke="#9a32cd" points="321.93,-65.77 332.25,-68.18 325.69,-59.86 321.93,-65.77"/>
<text text-anchor="middle" x="319.5" y="-41" font-family="Helvetica,sans-Serif" font-size="10.00"> dataset</text>
</g>
<!-- Node6 -->
<g id="node6" class="node">
<title>Node6</title>
<g id="a_node6"><a xlink:href="struct_scaler.html" target="_top" xlink:title=" ">
<polygon fill="white" stroke="black" points="322,-136.5 322,-155.5 369,-155.5 369,-136.5 322,-136.5"/>
<text text-anchor="middle" x="345.5" y="-143.5" font-family="Helvetica,sans-Serif" font-size="10.00">Scaler</text>
</a>
</g>
</g>
<!-- Node6&#45;&gt;Node5 -->
<g id="edge6" class="edge">
<title>Node6&#45;&gt;Node5</title>
<path fill="none" stroke="#9a32cd" stroke-dasharray="5,2" d="M345.5,-126.04C345.5,-113.47 345.5,-97.56 345.5,-87.84"/>
<polygon fill="#9a32cd" stroke="#9a32cd" points="342,-126.37 345.5,-136.37 349,-126.37 342,-126.37"/>
<text text-anchor="middle" x="362" y="-110" font-family="Helvetica,sans-Serif" font-size="10.00"> scaler</text>
</g>
</g>
</svg>
