<?xml version="1.0" encoding="UTF-8" standalone="no"?>
<!DOCTYPE svg PUBLIC "-//W3C//DTD SVG 1.1//EN"
 "http://www.w3.org/Graphics/SVG/1.1/DTD/svg11.dtd">
<!-- Generated by graphviz version 2.43.0 (0)
 -->
<!-- Title: DPEnsemble Pages: 1 -->
<svg width="171pt" height="162pt"
 viewBox="0.00 0.00 170.50 162.00" xmlns="http://www.w3.org/2000/svg" xmlns:xlink="http://www.w3.org/1999/xlink">
<g id="graph0" class="graph" transform="scale(1 1) rotate(0) translate(4 158)">
<title>DPEnsemble</title>
<polygon fill="white" stroke="transparent" points="-4,4 -4,-158 166.5,-158 166.5,4 -4,4"/>
<!-- Node1 -->
<g id="node1" class="node">
<title>Node1</title>
<g id="a_node1"><a xlink:title=" ">
<polygon fill="#bfbfbf" stroke="black" points="33.5,-0.5 33.5,-19.5 111.5,-19.5 111.5,-0.5 33.5,-0.5"/>
<text text-anchor="middle" x="72.5" y="-7.5" font-family="Helvetica,sans-Serif" font-size="10.00">DPEnsemble</text>
</a>
</g>
</g>
<!-- Node2 -->
<g id="node2" class="node">
<title>Node2</title>
<g id="a_node2"><a xlink:href="struct_model_params.html" target="_top" xlink:title=" ">
<polygon fill="white" stroke="black" points="0,-67.5 0,-86.5 83,-86.5 83,-67.5 0,-67.5"/>
<text text-anchor="middle" x="41.5" y="-74.5" font-family="Helvetica,sans-Serif" font-size="10.00">ModelParams</text>
</a>
</g>
</g>
<!-- Node2&#45;&gt;Node1 -->
<g id="edge1" class="edge">
<title>Node2&#45;&gt;Node1</title>
<path fill="none" stroke="#9a32cd" stroke-dasharray="5,2" d="M46.74,-57.57C48.82,-51.22 51.45,-44.17 54.5,-38 57.69,-31.53 62.19,-24.78 65.9,-19.65"/>
<polygon fill="#9a32cd" stroke="#9a32cd" points="43.35,-56.71 43.78,-67.29 50.04,-58.75 43.35,-56.71"/>
<text text-anchor="middle" x="74.5" y="-41" font-family="Helvetica,sans-Serif" font-size="10.00"> params</text>
</g>
<!-- Node3 -->
<g id="node3" class="node">
<title>Node3</title>
<g id="a_node3"><a xlink:href="struct_data_set.html" target="_top" xlink:title=" ">
<polygon fill="white" stroke="black" points="101.5,-67.5 101.5,-86.5 157.5,-86.5 157.5,-67.5 101.5,-67.5"/>
<text text-anchor="middle" x="129.5" y="-74.5" font-family="Helvetica,sans-Serif" font-size="10.00">DataSet</text>
</a>
</g>
</g>
<!-- Node3&#45;&gt;Node1 -->
<g id="edge2" class="edge">
<title>Node3&#45;&gt;Node1</title>
<path fill="none" stroke="#9a32cd" stroke-dasharray="5,2" d="M115.15,-59.63C104,-46.92 88.98,-29.8 80.07,-19.63"/>
<polygon fill="#9a32cd" stroke="#9a32cd" points="112.59,-62.02 121.81,-67.23 117.85,-57.41 112.59,-62.02"/>
<text text-anchor="middle" x="123.5" y="-41" font-family="Helvetica,sans-Serif" font-size="10.00"> dataset</text>
</g>
<!-- Node4 -->
<g id="node4" class="node">
<title>Node4</title>
<g id="a_node4"><a xlink:href="struct_scaler.html" target="_top" xlink:title=" ">
<polygon fill="white" stroke="black" points="106,-134.5 106,-153.5 153,-153.5 153,-134.5 106,-134.5"/>
<text text-anchor="middle" x="129.5" y="-141.5" font-family="Helvetica,sans-Serif" font-size="10.00">Scaler</text>
</a>
</g>
</g>
<!-- Node4&#45;&gt;Node3 -->
<g id="edge3" class="edge">
<title>Node4&#45;&gt;Node3</title>
<path fill="none" stroke="#9a32cd" stroke-dasharray="5,2" d="M129.5,-124.04C129.5,-111.67 129.5,-96.12 129.5,-86.63"/>
<polygon fill="#9a32cd" stroke="#9a32cd" points="126,-124.23 129.5,-134.23 133,-124.23 126,-124.23"/>
<text text-anchor="middle" x="146" y="-108" font-family="Helvetica,sans-Serif" font-size="10.00"> scaler</text>
</g>
</g>
</svg>
