<?xml version="1.0" encoding="UTF-8" standalone="no"?>
<!DOCTYPE svg PUBLIC "-//W3C//DTD SVG 1.1//EN"
 "http://www.w3.org/Graphics/SVG/1.1/DTD/svg11.dtd">
<!-- Generated by graphviz version 2.43.0 (0)
 -->
<!-- Title: base/include/data.h Pages: 1 -->
<svg width="230pt" height="252pt"
 viewBox="0.00 0.00 230.27 252.00" xmlns="http://www.w3.org/2000/svg" xmlns:xlink="http://www.w3.org/1999/xlink">
<g id="graph0" class="graph" transform="scale(1 1) rotate(0) translate(4 248)">
<title>base/include/data.h</title>
<polygon fill="white" stroke="transparent" points="-4,4 -4,-248 226.27,-248 226.27,4 -4,4"/>
<!-- Node1 -->
<g id="node1" class="node">
<title>Node1</title>
<g id="a_node1"><a xlink:title=" ">
<polygon fill="#bfbfbf" stroke="black" points="6.77,-224.5 6.77,-243.5 118.77,-243.5 118.77,-224.5 6.77,-224.5"/>
<text text-anchor="middle" x="62.77" y="-231.5" font-family="Helvetica,sans-Serif" font-size="10.00">base/include/data.h</text>
</a>
</g>
</g>
<!-- Node2 -->
<g id="node2" class="node">
<title>Node2</title>
<g id="a_node2"><a xlink:title=" ">
<polygon fill="white" stroke="#bfbfbf" points="30.27,-0.5 30.27,-19.5 77.27,-19.5 77.27,-0.5 30.27,-0.5"/>
<text text-anchor="middle" x="53.77" y="-7.5" font-family="Helvetica,sans-Serif" font-size="10.00">vector</text>
</a>
</g>
</g>
<!-- Node1&#45;&gt;Node2 -->
<g id="edge1" class="edge">
<title>Node1&#45;&gt;Node2</title>
<path fill="none" stroke="midnightblue" d="M46.14,-224.46C33.28,-216.84 16.43,-204.36 8.77,-188 -17.06,-132.86 21.19,-60.84 41.91,-28.3"/>
<polygon fill="midnightblue" stroke="midnightblue" points="44.88,-30.15 47.46,-19.87 39.04,-26.3 44.88,-30.15"/>
</g>
<!-- Node3 -->
<g id="node3" class="node">
<title>Node3</title>
<g id="a_node3"><a xlink:title=" ">
<polygon fill="white" stroke="#bfbfbf" points="17.77,-168.5 17.77,-187.5 49.77,-187.5 49.77,-168.5 17.77,-168.5"/>
<text text-anchor="middle" x="33.77" y="-175.5" font-family="Helvetica,sans-Serif" font-size="10.00">set</text>
</a>
</g>
</g>
<!-- Node1&#45;&gt;Node3 -->
<g id="edge2" class="edge">
<title>Node1&#45;&gt;Node3</title>
<path fill="none" stroke="midnightblue" d="M57.98,-224.08C54.01,-216.69 48.25,-205.95 43.34,-196.81"/>
<polygon fill="midnightblue" stroke="midnightblue" points="46.28,-194.91 38.47,-187.75 40.12,-198.22 46.28,-194.91"/>
</g>
<!-- Node4 -->
<g id="node4" class="node">
<title>Node4</title>
<g id="a_node4"><a xlink:href="utils_8h.html" target="_top" xlink:title=" ">
<polygon fill="white" stroke="black" points="68.27,-168.5 68.27,-187.5 115.27,-187.5 115.27,-168.5 68.27,-168.5"/>
<text text-anchor="middle" x="91.77" y="-175.5" font-family="Helvetica,sans-Serif" font-size="10.00">utils.h</text>
</a>
</g>
</g>
<!-- Node1&#45;&gt;Node4 -->
<g id="edge3" class="edge">
<title>Node1&#45;&gt;Node4</title>
<path fill="none" stroke="midnightblue" d="M62.39,-224.08C64.85,-216.53 70.39,-205.49 76.18,-196.23"/>
<polygon fill="midnightblue" stroke="midnightblue" points="79.21,-197.99 81.94,-187.75 73.42,-194.05 79.21,-197.99"/>
</g>
<!-- Node4&#45;&gt;Node1 -->
<g id="edge11" class="edge">
<title>Node4&#45;&gt;Node1</title>
<path fill="none" stroke="midnightblue" d="M92.2,-187.75C89.79,-195.25 84.27,-206.27 78.49,-215.57"/>
<polygon fill="midnightblue" stroke="midnightblue" points="75.43,-213.84 72.73,-224.08 81.23,-217.76 75.43,-213.84"/>
</g>
<!-- Node4&#45;&gt;Node2 -->
<g id="edge4" class="edge">
<title>Node4&#45;&gt;Node2</title>
<path fill="none" stroke="midnightblue" d="M81.06,-168.3C71.83,-160.07 59.18,-146.79 53.77,-132 41.19,-97.6 45.75,-53.92 49.93,-29.56"/>
<polygon fill="midnightblue" stroke="midnightblue" points="53.41,-30.04 51.82,-19.56 46.53,-28.74 53.41,-30.04"/>
</g>
<!-- Node5 -->
<g id="node5" class="node">
<title>Node5</title>
<g id="a_node5"><a xlink:title=" ">
<polygon fill="white" stroke="#bfbfbf" points="62.77,-112.5 62.77,-131.5 106.77,-131.5 106.77,-112.5 62.77,-112.5"/>
<text text-anchor="middle" x="84.77" y="-119.5" font-family="Helvetica,sans-Serif" font-size="10.00">string</text>
</a>
</g>
</g>
<!-- Node4&#45;&gt;Node5 -->
<g id="edge5" class="edge">
<title>Node4&#45;&gt;Node5</title>
<path fill="none" stroke="midnightblue" d="M90.61,-168.08C89.69,-160.93 88.35,-150.64 87.19,-141.69"/>
<polygon fill="midnightblue" stroke="midnightblue" points="90.66,-141.22 85.9,-131.75 83.72,-142.12 90.66,-141.22"/>
</g>
<!-- Node6 -->
<g id="node6" class="node">
<title>Node6</title>
<g id="a_node6"><a xlink:href="parameters_8h.html" target="_top" xlink:title=" ">
<polygon fill="white" stroke="black" points="124.77,-112.5 124.77,-131.5 206.77,-131.5 206.77,-112.5 124.77,-112.5"/>
<text text-anchor="middle" x="165.77" y="-119.5" font-family="Helvetica,sans-Serif" font-size="10.00">parameters.h</text>
</a>
</g>
</g>
<!-- Node4&#45;&gt;Node6 -->
<g id="edge6" class="edge">
<title>Node4&#45;&gt;Node6</title>
<path fill="none" stroke="midnightblue" d="M103.66,-168.32C114.92,-160.11 132.06,-147.6 145.48,-137.81"/>
<polygon fill="midnightblue" stroke="midnightblue" points="147.65,-140.56 153.66,-131.83 143.52,-134.9 147.65,-140.56"/>
</g>
<!-- Node6&#45;&gt;Node2 -->
<g id="edge8" class="edge">
<title>Node6&#45;&gt;Node2</title>
<path fill="none" stroke="midnightblue" d="M146.02,-112.36C129.97,-104.6 107.47,-91.98 91.77,-76 78.48,-62.48 68.05,-43.42 61.51,-29.43"/>
<polygon fill="midnightblue" stroke="midnightblue" points="64.54,-27.62 57.28,-19.9 58.14,-30.46 64.54,-27.62"/>
</g>
<!-- Node7 -->
<g id="node7" class="node">
<title>Node7</title>
<g id="a_node7"><a xlink:title=" ">
<polygon fill="white" stroke="#bfbfbf" points="100.77,-56.5 100.77,-75.5 158.77,-75.5 158.77,-56.5 100.77,-56.5"/>
<text text-anchor="middle" x="129.77" y="-63.5" font-family="Helvetica,sans-Serif" font-size="10.00">memory</text>
</a>
</g>
</g>
<!-- Node6&#45;&gt;Node7 -->
<g id="edge7" class="edge">
<title>Node6&#45;&gt;Node7</title>
<path fill="none" stroke="midnightblue" d="M159.83,-112.08C154.79,-104.53 147.43,-93.49 141.26,-84.23"/>
<polygon fill="midnightblue" stroke="midnightblue" points="144.06,-82.13 135.6,-75.75 138.24,-86.01 144.06,-82.13"/>
</g>
<!-- Node8 -->
<g id="node8" class="node">
<title>Node8</title>
<g id="a_node8"><a xlink:href="loss_8h.html" target="_top" xlink:title=" ">
<polygon fill="white" stroke="black" points="177.27,-56.5 177.27,-75.5 222.27,-75.5 222.27,-56.5 177.27,-56.5"/>
<text text-anchor="middle" x="199.77" y="-63.5" font-family="Helvetica,sans-Serif" font-size="10.00">loss.h</text>
</a>
</g>
</g>
<!-- Node6&#45;&gt;Node8 -->
<g id="edge9" class="edge">
<title>Node6&#45;&gt;Node8</title>
<path fill="none" stroke="midnightblue" d="M171.38,-112.08C176.14,-104.53 183.09,-93.49 188.92,-84.23"/>
<polygon fill="midnightblue" stroke="midnightblue" points="191.89,-86.08 194.26,-75.75 185.97,-82.35 191.89,-86.08"/>
</g>
<!-- Node8&#45;&gt;Node2 -->
<g id="edge10" class="edge">
<title>Node8&#45;&gt;Node2</title>
<path fill="none" stroke="midnightblue" d="M176.96,-56.56C152.67,-47.58 114.02,-33.29 86.5,-23.1"/>
<polygon fill="midnightblue" stroke="midnightblue" points="87.5,-19.74 76.9,-19.56 85.07,-26.31 87.5,-19.74"/>
</g>
</g>
</svg>
