<?xml version="1.0" encoding="UTF-8" standalone="no"?>
<!DOCTYPE svg PUBLIC "-//W3C//DTD SVG 1.1//EN"
 "http://www.w3.org/Graphics/SVG/1.1/DTD/svg11.dtd">
<!-- Generated by graphviz version 2.43.0 (0)
 -->
<!-- Title: base/include/data.h Pages: 1 -->
<svg width="531pt" height="274pt"
 viewBox="0.00 0.00 530.50 274.00" xmlns="http://www.w3.org/2000/svg" xmlns:xlink="http://www.w3.org/1999/xlink">
<g id="graph0" class="graph" transform="scale(1 1) rotate(0) translate(4 270)">
<title>base/include/data.h</title>
<polygon fill="white" stroke="transparent" points="-4,4 -4,-270 526.5,-270 526.5,4 -4,4"/>
<!-- Node1 -->
<g id="node1" class="node">
<title>Node1</title>
<g id="a_node1"><a xlink:title=" ">
<polygon fill="#bfbfbf" stroke="black" points="196,-246.5 196,-265.5 308,-265.5 308,-246.5 196,-246.5"/>
<text text-anchor="middle" x="252" y="-253.5" font-family="Helvetica,sans-Serif" font-size="10.00">base/include/data.h</text>
</a>
</g>
</g>
<!-- Node2 -->
<g id="node2" class="node">
<title>Node2</title>
<g id="a_node2"><a xlink:href="dp__tree_8h.html" target="_top" xlink:title=" ">
<polygon fill="white" stroke="black" points="77,-123.5 77,-153.5 195,-153.5 195,-123.5 77,-123.5"/>
<text text-anchor="start" x="85" y="-141.5" font-family="Helvetica,sans-Serif" font-size="10.00">base/include/gbdt/dp</text>
<text text-anchor="middle" x="136" y="-130.5" font-family="Helvetica,sans-Serif" font-size="10.00">_tree.h</text>
</a>
</g>
</g>
<!-- Node1&#45;&gt;Node2 -->
<g id="edge1" class="edge">
<title>Node1&#45;&gt;Node2</title>
<path fill="none" stroke="midnightblue" d="M221.86,-242.13C206.47,-234.47 188.26,-223.58 175,-210 158.87,-193.49 147.33,-168.97 141.17,-153.63"/>
<polygon fill="midnightblue" stroke="midnightblue" points="220.47,-245.35 231,-246.48 223.47,-239.03 220.47,-245.35"/>
</g>
<!-- Node3 -->
<g id="node3" class="node">
<title>Node3</title>
<g id="a_node3"><a xlink:href="dp__ensemble_8h.html" target="_top" xlink:title=" ">
<polygon fill="white" stroke="black" points="26,-56.5 26,-86.5 144,-86.5 144,-56.5 26,-56.5"/>
<text text-anchor="start" x="34" y="-74.5" font-family="Helvetica,sans-Serif" font-size="10.00">base/include/gbdt/dp</text>
<text text-anchor="middle" x="85" y="-63.5" font-family="Helvetica,sans-Serif" font-size="10.00">_ensemble.h</text>
</a>
</g>
</g>
<!-- Node1&#45;&gt;Node3 -->
<g id="edge10" class="edge">
<title>Node1&#45;&gt;Node3</title>
<path fill="none" stroke="midnightblue" d="M202.45,-243.63C157.95,-230.45 95.52,-203.82 68,-154 56.12,-132.49 67.52,-103.61 76.51,-86.63"/>
<polygon fill="midnightblue" stroke="midnightblue" points="201.64,-247.04 212.21,-246.4 203.54,-240.31 201.64,-247.04"/>
</g>
<!-- Node5 -->
<g id="node5" class="node">
<title>Node5</title>
<g id="a_node5"><a xlink:href="main_8cpp.html" target="_top" xlink:title=" ">
<polygon fill="white" stroke="black" points="233.5,-0.5 233.5,-19.5 338.5,-19.5 338.5,-0.5 233.5,-0.5"/>
<text text-anchor="middle" x="286" y="-7.5" font-family="Helvetica,sans-Serif" font-size="10.00">base/src/main.cpp</text>
</a>
</g>
</g>
<!-- Node1&#45;&gt;Node5 -->
<g id="edge12" class="edge">
<title>Node1&#45;&gt;Node5</title>
<path fill="none" stroke="midnightblue" d="M284.77,-242.29C300.06,-234.9 317.41,-224.21 329,-210 345.62,-189.64 343.72,-179.93 348,-154 355.53,-108.37 335.61,-96.34 313,-56 305.78,-43.13 296.89,-28.52 291.33,-19.54"/>
<polygon fill="midnightblue" stroke="midnightblue" points="283.24,-239.14 275.58,-246.46 286.13,-245.51 283.24,-239.14"/>
</g>
<!-- Node7 -->
<g id="node7" class="node">
<title>Node7</title>
<g id="a_node7"><a xlink:href="utils_8h.html" target="_top" xlink:title=" ">
<polygon fill="white" stroke="black" points="184,-190.5 184,-209.5 320,-209.5 320,-190.5 184,-190.5"/>
<text text-anchor="middle" x="252" y="-197.5" font-family="Helvetica,sans-Serif" font-size="10.00">base/include/gbdt/utils.h</text>
</a>
</g>
</g>
<!-- Node1&#45;&gt;Node7 -->
<g id="edge6" class="edge">
<title>Node1&#45;&gt;Node7</title>
<path fill="none" stroke="midnightblue" d="M245.53,-236.1C244.9,-227.14 245.34,-216.86 246.87,-209.75"/>
<polygon fill="midnightblue" stroke="midnightblue" points="242.07,-236.62 246.83,-246.08 249.01,-235.71 242.07,-236.62"/>
</g>
<!-- Node9 -->
<g id="node9" class="node">
<title>Node9</title>
<g id="a_node9"><a xlink:href="data_8cpp.html" target="_top" xlink:title=" ">
<polygon fill="white" stroke="black" points="395.5,-190.5 395.5,-209.5 522.5,-209.5 522.5,-190.5 395.5,-190.5"/>
<text text-anchor="middle" x="459" y="-197.5" font-family="Helvetica,sans-Serif" font-size="10.00">base/src/gbdt/data.cpp</text>
</a>
</g>
</g>
<!-- Node1&#45;&gt;Node9 -->
<g id="edge11" class="edge">
<title>Node1&#45;&gt;Node9</title>
<path fill="none" stroke="midnightblue" d="M294.82,-243.83C333.91,-233.63 390.83,-218.78 426.35,-209.52"/>
<polygon fill="midnightblue" stroke="midnightblue" points="293.59,-240.53 284.8,-246.44 295.36,-247.31 293.59,-240.53"/>
</g>
<!-- Node2&#45;&gt;Node3 -->
<g id="edge2" class="edge">
<title>Node2&#45;&gt;Node3</title>
<path fill="none" stroke="midnightblue" d="M118.7,-115.45C111.21,-105.9 102.66,-95 96.04,-86.58"/>
<polygon fill="midnightblue" stroke="midnightblue" points="116.01,-117.69 124.93,-123.4 121.51,-113.37 116.01,-117.69"/>
</g>
<!-- Node6 -->
<g id="node6" class="node">
<title>Node6</title>
<g id="a_node6"><a xlink:href="dp__tree_8cpp.html" target="_top" xlink:title=" ">
<polygon fill="white" stroke="black" points="162,-62 162,-81 304,-81 304,-62 162,-62"/>
<text text-anchor="middle" x="233" y="-69" font-family="Helvetica,sans-Serif" font-size="10.00">base/src/gbdt/dp_tree.cpp</text>
</a>
</g>
</g>
<!-- Node2&#45;&gt;Node6 -->
<g id="edge5" class="edge">
<title>Node2&#45;&gt;Node6</title>
<path fill="none" stroke="midnightblue" d="M165.64,-117.64C183.94,-105.37 206.49,-90.26 220.3,-81.01"/>
<polygon fill="midnightblue" stroke="midnightblue" points="163.41,-114.92 157.05,-123.4 167.3,-120.74 163.41,-114.92"/>
</g>
<!-- Node4 -->
<g id="node4" class="node">
<title>Node4</title>
<g id="a_node4"><a xlink:href="dp__ensemble_8cpp.html" target="_top" xlink:title=" ">
<polygon fill="white" stroke="black" points="0,-0.5 0,-19.5 170,-19.5 170,-0.5 0,-0.5"/>
<text text-anchor="middle" x="85" y="-7.5" font-family="Helvetica,sans-Serif" font-size="10.00">base/src/gbdt/dp_ensemble.cpp</text>
</a>
</g>
</g>
<!-- Node3&#45;&gt;Node4 -->
<g id="edge3" class="edge">
<title>Node3&#45;&gt;Node4</title>
<path fill="none" stroke="midnightblue" d="M85,-46.29C85,-36.86 85,-26.65 85,-19.66"/>
<polygon fill="midnightblue" stroke="midnightblue" points="81.5,-46.4 85,-56.4 88.5,-46.4 81.5,-46.4"/>
</g>
<!-- Node3&#45;&gt;Node5 -->
<g id="edge4" class="edge">
<title>Node3&#45;&gt;Node5</title>
<path fill="none" stroke="midnightblue" d="M142.2,-53.57C179.79,-42.44 227.38,-28.35 257.26,-19.51"/>
<polygon fill="midnightblue" stroke="midnightblue" points="140.97,-50.28 132.38,-56.47 142.96,-56.99 140.97,-50.28"/>
</g>
<!-- Node7&#45;&gt;Node1 -->
<g id="edge7" class="edge">
<title>Node7&#45;&gt;Node1</title>
<path fill="none" stroke="midnightblue" d="M258.46,-219.69C259.11,-228.64 258.68,-238.93 257.17,-246.08"/>
<polygon fill="midnightblue" stroke="midnightblue" points="261.92,-219.2 257.13,-209.75 254.98,-220.13 261.92,-219.2"/>
</g>
<!-- Node7&#45;&gt;Node2 -->
<g id="edge8" class="edge">
<title>Node7&#45;&gt;Node2</title>
<path fill="none" stroke="midnightblue" d="M226.28,-185.81C207.6,-176.23 182.38,-163.29 163.34,-153.52"/>
<polygon fill="midnightblue" stroke="midnightblue" points="224.88,-189.03 235.38,-190.48 228.08,-182.8 224.88,-189.03"/>
</g>
<!-- Node8 -->
<g id="node8" class="node">
<title>Node8</title>
<g id="a_node8"><a xlink:href="utils_8cpp.html" target="_top" xlink:title=" ">
<polygon fill="white" stroke="black" points="213,-129 213,-148 339,-148 339,-129 213,-129"/>
<text text-anchor="middle" x="276" y="-136" font-family="Helvetica,sans-Serif" font-size="10.00">base/src/gbdt/utils.cpp</text>
</a>
</g>
</g>
<!-- Node7&#45;&gt;Node8 -->
<g id="edge9" class="edge">
<title>Node7&#45;&gt;Node8</title>
<path fill="none" stroke="midnightblue" d="M259.26,-181C263.68,-170.05 269.11,-156.57 272.57,-148.01"/>
<polygon fill="midnightblue" stroke="midnightblue" points="255.93,-179.89 255.44,-190.48 262.43,-182.51 255.93,-179.89"/>
</g>
</g>
</svg>
