<?xml version="1.0" encoding="UTF-8" standalone="no"?>
<!DOCTYPE svg PUBLIC "-//W3C//DTD SVG 1.1//EN"
 "http://www.w3.org/Graphics/SVG/1.1/DTD/svg11.dtd">
<!-- Generated by graphviz version 2.43.0 (0)
 -->
<!-- Title: base/src/gbdt/data.cpp Pages: 1 -->
<svg width="545pt" height="308pt"
 viewBox="0.00 0.00 545.18 308.00" xmlns="http://www.w3.org/2000/svg" xmlns:xlink="http://www.w3.org/1999/xlink">
<g id="graph0" class="graph" transform="scale(1 1) rotate(0) translate(4 304)">
<title>base/src/gbdt/data.cpp</title>
<polygon fill="white" stroke="transparent" points="-4,4 -4,-304 541.18,-304 541.18,4 -4,4"/>
<!-- Node1 -->
<g id="node1" class="node">
<title>Node1</title>
<g id="a_node1"><a xlink:title=" ">
<polygon fill="#bfbfbf" stroke="black" points="137.18,-280.5 137.18,-299.5 264.18,-299.5 264.18,-280.5 137.18,-280.5"/>
<text text-anchor="middle" x="200.68" y="-287.5" font-family="Helvetica,sans-Serif" font-size="10.00">base/src/gbdt/data.cpp</text>
</a>
</g>
</g>
<!-- Node2 -->
<g id="node2" class="node">
<title>Node2</title>
<g id="a_node2"><a xlink:title=" ">
<polygon fill="white" stroke="#bfbfbf" points="326.18,-0.5 326.18,-19.5 373.18,-19.5 373.18,-0.5 326.18,-0.5"/>
<text text-anchor="middle" x="349.68" y="-7.5" font-family="Helvetica,sans-Serif" font-size="10.00">vector</text>
</a>
</g>
</g>
<!-- Node1&#45;&gt;Node2 -->
<g id="edge1" class="edge">
<title>Node1&#45;&gt;Node2</title>
<path fill="none" stroke="midnightblue" d="M139.52,-280.44C93.98,-272.87 36.85,-260.48 19.68,-244 -2.03,-223.16 0.68,-209.1 0.68,-179 0.68,-179 0.68,-179 0.68,-121 0.68,-55.3 228.51,-23.96 316.01,-14.34"/>
<polygon fill="midnightblue" stroke="midnightblue" points="316.39,-17.82 325.96,-13.28 315.65,-10.86 316.39,-17.82"/>
</g>
<!-- Node3 -->
<g id="node3" class="node">
<title>Node3</title>
<g id="a_node3"><a xlink:title=" ">
<polygon fill="white" stroke="#bfbfbf" points="28.68,-224.5 28.68,-243.5 84.68,-243.5 84.68,-224.5 28.68,-224.5"/>
<text text-anchor="middle" x="56.68" y="-231.5" font-family="Helvetica,sans-Serif" font-size="10.00">numeric</text>
</a>
</g>
</g>
<!-- Node1&#45;&gt;Node3 -->
<g id="edge2" class="edge">
<title>Node1&#45;&gt;Node3</title>
<path fill="none" stroke="midnightblue" d="M177.86,-280.44C153.85,-271.44 115.85,-257.19 88.81,-247.05"/>
<polygon fill="midnightblue" stroke="midnightblue" points="89.98,-243.75 79.39,-243.52 87.52,-250.3 89.98,-243.75"/>
</g>
<!-- Node4 -->
<g id="node4" class="node">
<title>Node4</title>
<g id="a_node4"><a xlink:title=" ">
<polygon fill="white" stroke="#bfbfbf" points="103.18,-224.5 103.18,-243.5 150.18,-243.5 150.18,-224.5 103.18,-224.5"/>
<text text-anchor="middle" x="126.68" y="-231.5" font-family="Helvetica,sans-Serif" font-size="10.00">queue</text>
</a>
</g>
</g>
<!-- Node1&#45;&gt;Node4 -->
<g id="edge3" class="edge">
<title>Node1&#45;&gt;Node4</title>
<path fill="none" stroke="midnightblue" d="M188.79,-280.32C177.53,-272.11 160.39,-259.6 146.97,-249.81"/>
<polygon fill="midnightblue" stroke="midnightblue" points="148.92,-246.9 138.78,-243.83 144.8,-252.56 148.92,-246.9"/>
</g>
<!-- Node5 -->
<g id="node5" class="node">
<title>Node5</title>
<g id="a_node5"><a xlink:title=" ">
<polygon fill="white" stroke="#bfbfbf" points="168.68,-224.5 168.68,-243.5 232.68,-243.5 232.68,-224.5 168.68,-224.5"/>
<text text-anchor="middle" x="200.68" y="-231.5" font-family="Helvetica,sans-Serif" font-size="10.00">algorithm</text>
</a>
</g>
</g>
<!-- Node1&#45;&gt;Node5 -->
<g id="edge4" class="edge">
<title>Node1&#45;&gt;Node5</title>
<path fill="none" stroke="midnightblue" d="M200.68,-280.08C200.68,-273.01 200.68,-262.86 200.68,-253.99"/>
<polygon fill="midnightblue" stroke="midnightblue" points="204.18,-253.75 200.68,-243.75 197.18,-253.75 204.18,-253.75"/>
</g>
<!-- Node6 -->
<g id="node6" class="node">
<title>Node6</title>
<g id="a_node6"><a xlink:title=" ">
<polygon fill="white" stroke="#bfbfbf" points="250.68,-224.5 250.68,-243.5 306.68,-243.5 306.68,-224.5 250.68,-224.5"/>
<text text-anchor="middle" x="278.68" y="-231.5" font-family="Helvetica,sans-Serif" font-size="10.00">sstream</text>
</a>
</g>
</g>
<!-- Node1&#45;&gt;Node6 -->
<g id="edge5" class="edge">
<title>Node1&#45;&gt;Node6</title>
<path fill="none" stroke="midnightblue" d="M213.21,-280.32C225.26,-271.98 243.7,-259.21 257.95,-249.35"/>
<polygon fill="midnightblue" stroke="midnightblue" points="259.95,-252.22 266.18,-243.65 255.96,-246.47 259.95,-252.22"/>
</g>
<!-- Node7 -->
<g id="node7" class="node">
<title>Node7</title>
<g id="a_node7"><a xlink:title=" ">
<polygon fill="white" stroke="#bfbfbf" points="325.18,-224.5 325.18,-243.5 372.18,-243.5 372.18,-224.5 325.18,-224.5"/>
<text text-anchor="middle" x="348.68" y="-231.5" font-family="Helvetica,sans-Serif" font-size="10.00">cmath</text>
</a>
</g>
</g>
<!-- Node1&#45;&gt;Node7 -->
<g id="edge6" class="edge">
<title>Node1&#45;&gt;Node7</title>
<path fill="none" stroke="midnightblue" d="M224.13,-280.44C248.81,-271.44 287.86,-257.19 315.65,-247.05"/>
<polygon fill="midnightblue" stroke="midnightblue" points="317.14,-250.23 325.34,-243.52 314.74,-243.66 317.14,-250.23"/>
</g>
<!-- Node8 -->
<g id="node8" class="node">
<title>Node8</title>
<g id="a_node8"><a xlink:href="data_8h.html" target="_top" xlink:title=" ">
<polygon fill="white" stroke="black" points="390.18,-224.5 390.18,-243.5 437.18,-243.5 437.18,-224.5 390.18,-224.5"/>
<text text-anchor="middle" x="413.68" y="-231.5" font-family="Helvetica,sans-Serif" font-size="10.00">data.h</text>
</a>
</g>
</g>
<!-- Node1&#45;&gt;Node8 -->
<g id="edge7" class="edge">
<title>Node1&#45;&gt;Node8</title>
<path fill="none" stroke="midnightblue" d="M235.91,-280.43C270.26,-272.02 324.2,-258.67 380.17,-244.09"/>
<polygon fill="midnightblue" stroke="midnightblue" points="381.11,-247.46 389.9,-241.55 379.34,-240.69 381.11,-247.46"/>
</g>
<!-- Node8&#45;&gt;Node2 -->
<g id="edge8" class="edge">
<title>Node8&#45;&gt;Node2</title>
<path fill="none" stroke="midnightblue" d="M392.29,-224.39C370.08,-214.95 337.6,-199.62 330.68,-188 300.29,-136.96 326.24,-62.79 341.06,-28.99"/>
<polygon fill="midnightblue" stroke="midnightblue" points="344.42,-30.07 345.4,-19.52 338.06,-27.15 344.42,-30.07"/>
</g>
<!-- Node9 -->
<g id="node9" class="node">
<title>Node9</title>
<g id="a_node9"><a xlink:title=" ">
<polygon fill="white" stroke="#bfbfbf" points="339.68,-168.5 339.68,-187.5 371.68,-187.5 371.68,-168.5 339.68,-168.5"/>
<text text-anchor="middle" x="355.68" y="-175.5" font-family="Helvetica,sans-Serif" font-size="10.00">set</text>
</a>
</g>
</g>
<!-- Node8&#45;&gt;Node9 -->
<g id="edge9" class="edge">
<title>Node8&#45;&gt;Node9</title>
<path fill="none" stroke="midnightblue" d="M404.36,-224.32C395.79,-216.34 382.87,-204.31 372.49,-194.65"/>
<polygon fill="midnightblue" stroke="midnightblue" points="374.87,-192.09 365.17,-187.83 370.1,-197.21 374.87,-192.09"/>
</g>
<!-- Node10 -->
<g id="node10" class="node">
<title>Node10</title>
<g id="a_node10"><a xlink:href="utils_8h.html" target="_top" xlink:title=" ">
<polygon fill="white" stroke="black" points="390.18,-168.5 390.18,-187.5 437.18,-187.5 437.18,-168.5 390.18,-168.5"/>
<text text-anchor="middle" x="413.68" y="-175.5" font-family="Helvetica,sans-Serif" font-size="10.00">utils.h</text>
</a>
</g>
</g>
<!-- Node8&#45;&gt;Node10 -->
<g id="edge10" class="edge">
<title>Node8&#45;&gt;Node10</title>
<path fill="none" stroke="midnightblue" d="M408.51,-224.08C407,-216.93 406.57,-206.64 407.22,-197.69"/>
<polygon fill="midnightblue" stroke="midnightblue" points="410.69,-198.13 408.55,-187.75 403.75,-197.2 410.69,-198.13"/>
</g>
<!-- Node10&#45;&gt;Node2 -->
<g id="edge11" class="edge">
<title>Node10&#45;&gt;Node2</title>
<path fill="none" stroke="midnightblue" d="M401.61,-168.48C391.11,-160.37 376.39,-147.17 368.68,-132 351.87,-98.95 349.14,-54.78 349.11,-29.98"/>
<polygon fill="midnightblue" stroke="midnightblue" points="352.62,-29.82 349.26,-19.77 345.62,-29.72 352.62,-29.82"/>
</g>
<!-- Node10&#45;&gt;Node8 -->
<g id="edge18" class="edge">
<title>Node10&#45;&gt;Node8</title>
<path fill="none" stroke="midnightblue" d="M418.81,-187.75C420.34,-194.86 420.78,-205.14 420.15,-214.1"/>
<polygon fill="midnightblue" stroke="midnightblue" points="416.67,-213.71 418.84,-224.08 423.61,-214.62 416.67,-213.71"/>
</g>
<!-- Node11 -->
<g id="node11" class="node">
<title>Node11</title>
<g id="a_node11"><a xlink:title=" ">
<polygon fill="white" stroke="#bfbfbf" points="377.68,-112.5 377.68,-131.5 421.68,-131.5 421.68,-112.5 377.68,-112.5"/>
<text text-anchor="middle" x="399.68" y="-119.5" font-family="Helvetica,sans-Serif" font-size="10.00">string</text>
</a>
</g>
</g>
<!-- Node10&#45;&gt;Node11 -->
<g id="edge12" class="edge">
<title>Node10&#45;&gt;Node11</title>
<path fill="none" stroke="midnightblue" d="M411.37,-168.08C409.51,-160.93 406.84,-150.64 404.52,-141.69"/>
<polygon fill="midnightblue" stroke="midnightblue" points="407.84,-140.55 401.95,-131.75 401.07,-142.31 407.84,-140.55"/>
</g>
<!-- Node12 -->
<g id="node12" class="node">
<title>Node12</title>
<g id="a_node12"><a xlink:href="parameters_8h.html" target="_top" xlink:title=" ">
<polygon fill="white" stroke="black" points="439.68,-112.5 439.68,-131.5 521.68,-131.5 521.68,-112.5 439.68,-112.5"/>
<text text-anchor="middle" x="480.68" y="-119.5" font-family="Helvetica,sans-Serif" font-size="10.00">parameters.h</text>
</a>
</g>
</g>
<!-- Node10&#45;&gt;Node12 -->
<g id="edge13" class="edge">
<title>Node10&#45;&gt;Node12</title>
<path fill="none" stroke="midnightblue" d="M424.44,-168.32C434.44,-160.26 449.56,-148.08 461.61,-138.37"/>
<polygon fill="midnightblue" stroke="midnightblue" points="464.13,-140.83 469.72,-131.83 459.73,-135.38 464.13,-140.83"/>
</g>
<!-- Node12&#45;&gt;Node2 -->
<g id="edge15" class="edge">
<title>Node12&#45;&gt;Node2</title>
<path fill="none" stroke="midnightblue" d="M463.24,-112.35C447.59,-104.15 424.41,-90.89 406.68,-76 389.52,-61.59 372.99,-41.88 362.19,-27.95"/>
<polygon fill="midnightblue" stroke="midnightblue" points="364.8,-25.6 355.97,-19.75 359.22,-29.83 364.8,-25.6"/>
</g>
<!-- Node13 -->
<g id="node13" class="node">
<title>Node13</title>
<g id="a_node13"><a xlink:title=" ">
<polygon fill="white" stroke="#bfbfbf" points="415.68,-56.5 415.68,-75.5 473.68,-75.5 473.68,-56.5 415.68,-56.5"/>
<text text-anchor="middle" x="444.68" y="-63.5" font-family="Helvetica,sans-Serif" font-size="10.00">memory</text>
</a>
</g>
</g>
<!-- Node12&#45;&gt;Node13 -->
<g id="edge14" class="edge">
<title>Node12&#45;&gt;Node13</title>
<path fill="none" stroke="midnightblue" d="M474.73,-112.08C469.7,-104.53 462.34,-93.49 456.16,-84.23"/>
<polygon fill="midnightblue" stroke="midnightblue" points="458.97,-82.13 450.51,-75.75 453.15,-86.01 458.97,-82.13"/>
</g>
<!-- Node14 -->
<g id="node14" class="node">
<title>Node14</title>
<g id="a_node14"><a xlink:href="loss_8h.html" target="_top" xlink:title=" ">
<polygon fill="white" stroke="black" points="492.18,-56.5 492.18,-75.5 537.18,-75.5 537.18,-56.5 492.18,-56.5"/>
<text text-anchor="middle" x="514.68" y="-63.5" font-family="Helvetica,sans-Serif" font-size="10.00">loss.h</text>
</a>
</g>
</g>
<!-- Node12&#45;&gt;Node14 -->
<g id="edge16" class="edge">
<title>Node12&#45;&gt;Node14</title>
<path fill="none" stroke="midnightblue" d="M486.29,-112.08C491.05,-104.53 498,-93.49 503.83,-84.23"/>
<polygon fill="midnightblue" stroke="midnightblue" points="506.8,-86.08 509.17,-75.75 500.88,-82.35 506.8,-86.08"/>
</g>
<!-- Node14&#45;&gt;Node2 -->
<g id="edge17" class="edge">
<title>Node14&#45;&gt;Node2</title>
<path fill="none" stroke="midnightblue" d="M492.08,-57.6C463.85,-48.36 415.3,-32.48 382.85,-21.86"/>
<polygon fill="midnightblue" stroke="midnightblue" points="383.93,-18.53 373.33,-18.74 381.75,-25.18 383.93,-18.53"/>
</g>
</g>
</svg>
