<?xml version="1.0" encoding="UTF-8" standalone="no"?>
<!DOCTYPE svg PUBLIC "-//W3C//DTD SVG 1.1//EN"
 "http://www.w3.org/Graphics/SVG/1.1/DTD/svg11.dtd">
<!-- Generated by graphviz version 2.43.0 (0)
 -->
<!-- Title: base/include Pages: 1 -->
<svg width="110pt" height="183pt"
 viewBox="0.00 0.00 110.00 183.00" xmlns="http://www.w3.org/2000/svg" xmlns:xlink="http://www.w3.org/1999/xlink">
<g id="graph0" class="graph" transform="scale(1 1) rotate(0) translate(4 179)">
<title>base/include</title>
<polygon fill="white" stroke="transparent" points="-4,4 -4,-179 106,-179 106,4 -4,4"/>
<g id="clust1" class="cluster">
<title>clusterdir_e914ee4d4a44400f1fdb170cb4ead18a</title>
<g id="a_clust1"><a xlink:href="dir_e914ee4d4a44400f1fdb170cb4ead18a.html" target="_top" xlink:title="base">
<polygon fill="#ddddee" stroke="black" points="8,-8 8,-167 94,-167 94,-8 8,-8"/>
<text text-anchor="middle" x="51" y="-155" font-family="Helvetica,sans-Serif" font-size="10.00">base</text>
</a>
</g>
</g>
<g id="clust2" class="cluster">
<title>clusterdir_86751c6d8ae9997ab6788777e7f7ee73</title>
<g id="a_clust2"><a xlink:href="dir_86751c6d8ae9997ab6788777e7f7ee73.html" target="_top">
<polygon fill="#eeeeff" stroke="black" points="16,-16 16,-140 86,-140 86,-16 16,-16"/>
</a>
</g>
</g>
<!-- dir_86751c6d8ae9997ab6788777e7f7ee73 -->
<g id="node1" class="node">
<title>dir_86751c6d8ae9997ab6788777e7f7ee73</title>
<text text-anchor="middle" x="51" y="-111.5" font-family="Helvetica,sans-Serif" font-size="10.00">include</text>
</g>
<!-- dir_5415e3b0fe8d4dc97d731d1c01bcb0c1 -->
<g id="node2" class="node">
<title>dir_5415e3b0fe8d4dc97d731d1c01bcb0c1</title>
<g id="a_node2"><a xlink:href="dir_5415e3b0fe8d4dc97d731d1c01bcb0c1.html" target="_top" xlink:title="gbdt">
<polygon fill="white" stroke="black" points="78,-60 24,-60 24,-24 78,-24 78,-60"/>
<text text-anchor="middle" x="51" y="-39.5" font-family="Helvetica,sans-Serif" font-size="10.00">gbdt</text>
</a>
</g>
</g>
<!-- dir_86751c6d8ae9997ab6788777e7f7ee73&#45;&gt;dir_5415e3b0fe8d4dc97d731d1c01bcb0c1 -->
<g id="edge1" class="edge">
<title>dir_86751c6d8ae9997ab6788777e7f7ee73&#45;&gt;dir_5415e3b0fe8d4dc97d731d1c01bcb0c1</title>
<path fill="none" stroke="black" d="M51,-95.7C51,-87.98 51,-78.71 51,-70.11"/>
<polygon fill="black" stroke="black" points="54.5,-70.1 51,-60.1 47.5,-70.1 54.5,-70.1"/>
<g id="a_edge1&#45;headlabel"><a xlink:href="dir_000001_000002.html" target="_top" xlink:title="2">
<text text-anchor="middle" x="57.34" y="-71.2" font-family="Helvetica,sans-Serif" font-size="10.00">2</text>
</a>
</g>
</g>
</g>
</svg>
