<?xml version="1.0" encoding="UTF-8" standalone="no"?>
<!DOCTYPE svg PUBLIC "-//W3C//DTD SVG 1.1//EN"
 "http://www.w3.org/Graphics/SVG/1.1/DTD/svg11.dtd">
<!-- Generated by graphviz version 2.43.0 (0)
 -->
<!-- Title: base/src/gbdt/dp_ensemble.cpp Pages: 1 -->
<svg width="634pt" height="420pt"
 viewBox="0.00 0.00 634.00 420.00" xmlns="http://www.w3.org/2000/svg" xmlns:xlink="http://www.w3.org/1999/xlink">
<g id="graph0" class="graph" transform="scale(1 1) rotate(0) translate(4 416)">
<title>base/src/gbdt/dp_ensemble.cpp</title>
<polygon fill="white" stroke="transparent" points="-4,4 -4,-416 630,-416 630,4 -4,4"/>
<!-- Node1 -->
<g id="node1" class="node">
<title>Node1</title>
<g id="a_node1"><a xlink:title=" ">
<polygon fill="#bfbfbf" stroke="black" points="131,-392.5 131,-411.5 301,-411.5 301,-392.5 131,-392.5"/>
<text text-anchor="middle" x="216" y="-399.5" font-family="Helvetica,sans-Serif" font-size="10.00">base/src/gbdt/dp_ensemble.cpp</text>
</a>
</g>
</g>
<!-- Node2 -->
<g id="node2" class="node">
<title>Node2</title>
<g id="a_node2"><a xlink:title=" ">
<polygon fill="white" stroke="#bfbfbf" points="0,-336.5 0,-355.5 56,-355.5 56,-336.5 0,-336.5"/>
<text text-anchor="middle" x="28" y="-343.5" font-family="Helvetica,sans-Serif" font-size="10.00">numeric</text>
</a>
</g>
</g>
<!-- Node1&#45;&gt;Node2 -->
<g id="edge1" class="edge">
<title>Node1&#45;&gt;Node2</title>
<path fill="none" stroke="midnightblue" d="M186.21,-392.44C153.7,-383.11 101.56,-368.13 66.09,-357.94"/>
<polygon fill="midnightblue" stroke="midnightblue" points="66.69,-354.47 56.11,-355.08 64.76,-361.2 66.69,-354.47"/>
</g>
<!-- Node3 -->
<g id="node3" class="node">
<title>Node3</title>
<g id="a_node3"><a xlink:title=" ">
<polygon fill="white" stroke="#bfbfbf" points="74,-336.5 74,-355.5 138,-355.5 138,-336.5 74,-336.5"/>
<text text-anchor="middle" x="106" y="-343.5" font-family="Helvetica,sans-Serif" font-size="10.00">algorithm</text>
</a>
</g>
</g>
<!-- Node1&#45;&gt;Node3 -->
<g id="edge2" class="edge">
<title>Node1&#45;&gt;Node3</title>
<path fill="none" stroke="midnightblue" d="M198.33,-392.32C180.61,-383.62 153.1,-370.12 132.71,-360.11"/>
<polygon fill="midnightblue" stroke="midnightblue" points="134.15,-356.92 123.63,-355.65 131.06,-363.2 134.15,-356.92"/>
</g>
<!-- Node4 -->
<g id="node4" class="node">
<title>Node4</title>
<g id="a_node4"><a xlink:title=" ">
<polygon fill="white" stroke="#bfbfbf" points="156,-336.5 156,-355.5 204,-355.5 204,-336.5 156,-336.5"/>
<text text-anchor="middle" x="180" y="-343.5" font-family="Helvetica,sans-Serif" font-size="10.00">mutex</text>
</a>
</g>
</g>
<!-- Node1&#45;&gt;Node4 -->
<g id="edge3" class="edge">
<title>Node1&#45;&gt;Node4</title>
<path fill="none" stroke="midnightblue" d="M210.06,-392.08C205.02,-384.53 197.66,-373.49 191.49,-364.23"/>
<polygon fill="midnightblue" stroke="midnightblue" points="194.29,-362.13 185.83,-355.75 188.47,-366.01 194.29,-362.13"/>
</g>
<!-- Node5 -->
<g id="node5" class="node">
<title>Node5</title>
<g id="a_node5"><a xlink:title=" ">
<polygon fill="white" stroke="#bfbfbf" points="222,-336.5 222,-355.5 282,-355.5 282,-336.5 222,-336.5"/>
<text text-anchor="middle" x="252" y="-343.5" font-family="Helvetica,sans-Serif" font-size="10.00">iostream</text>
</a>
</g>
</g>
<!-- Node1&#45;&gt;Node5 -->
<g id="edge4" class="edge">
<title>Node1&#45;&gt;Node5</title>
<path fill="none" stroke="midnightblue" d="M221.94,-392.08C226.98,-384.53 234.34,-373.49 240.51,-364.23"/>
<polygon fill="midnightblue" stroke="midnightblue" points="243.53,-366.01 246.17,-355.75 237.71,-362.13 243.53,-366.01"/>
</g>
<!-- Node6 -->
<g id="node6" class="node">
<title>Node6</title>
<g id="a_node6"><a xlink:title=" ">
<polygon fill="white" stroke="#bfbfbf" points="300.5,-336.5 300.5,-355.5 347.5,-355.5 347.5,-336.5 300.5,-336.5"/>
<text text-anchor="middle" x="324" y="-343.5" font-family="Helvetica,sans-Serif" font-size="10.00">cmath</text>
</a>
</g>
</g>
<!-- Node1&#45;&gt;Node6 -->
<g id="edge5" class="edge">
<title>Node1&#45;&gt;Node6</title>
<path fill="none" stroke="midnightblue" d="M233.35,-392.32C250.67,-383.66 277.52,-370.24 297.5,-360.25"/>
<polygon fill="midnightblue" stroke="midnightblue" points="299.31,-363.26 306.69,-355.65 296.18,-357 299.31,-363.26"/>
</g>
<!-- Node7 -->
<g id="node7" class="node">
<title>Node7</title>
<g id="a_node7"><a xlink:href="dp__ensemble_8h.html" target="_top" xlink:title=" ">
<polygon fill="white" stroke="black" points="365.5,-336.5 365.5,-355.5 456.5,-355.5 456.5,-336.5 365.5,-336.5"/>
<text text-anchor="middle" x="411" y="-343.5" font-family="Helvetica,sans-Serif" font-size="10.00">dp_ensemble.h</text>
</a>
</g>
</g>
<!-- Node1&#45;&gt;Node7 -->
<g id="edge6" class="edge">
<title>Node1&#45;&gt;Node7</title>
<path fill="none" stroke="midnightblue" d="M246.9,-392.44C280.27,-383.2 333.59,-368.44 370.35,-358.26"/>
<polygon fill="midnightblue" stroke="midnightblue" points="371.54,-361.56 380.25,-355.52 369.67,-354.81 371.54,-361.56"/>
</g>
<!-- Node8 -->
<g id="node8" class="node">
<title>Node8</title>
<g id="a_node8"><a xlink:title=" ">
<polygon fill="white" stroke="#bfbfbf" points="371.5,-0.5 371.5,-19.5 418.5,-19.5 418.5,-0.5 371.5,-0.5"/>
<text text-anchor="middle" x="395" y="-7.5" font-family="Helvetica,sans-Serif" font-size="10.00">vector</text>
</a>
</g>
</g>
<!-- Node7&#45;&gt;Node8 -->
<g id="edge7" class="edge">
<title>Node7&#45;&gt;Node8</title>
<path fill="none" stroke="midnightblue" d="M456.6,-341.63C519.71,-334.19 626,-310.47 626,-235 626,-235 626,-235 626,-121 626,-34.74 493.08,-16.05 428.9,-12.06"/>
<polygon fill="midnightblue" stroke="midnightblue" points="429.02,-8.56 418.85,-11.52 428.65,-15.55 429.02,-8.56"/>
</g>
<!-- Node9 -->
<g id="node9" class="node">
<title>Node9</title>
<g id="a_node9"><a xlink:title=" ">
<polygon fill="white" stroke="#bfbfbf" points="542.5,-224.5 542.5,-243.5 597.5,-243.5 597.5,-224.5 542.5,-224.5"/>
<text text-anchor="middle" x="570" y="-231.5" font-family="Helvetica,sans-Serif" font-size="10.00">fstream</text>
</a>
</g>
</g>
<!-- Node7&#45;&gt;Node9 -->
<g id="edge8" class="edge">
<title>Node7&#45;&gt;Node9</title>
<path fill="none" stroke="midnightblue" d="M423.48,-336.37C450.64,-317.57 515.41,-272.77 548.99,-249.53"/>
<polygon fill="midnightblue" stroke="midnightblue" points="551.35,-252.16 557.58,-243.59 547.37,-246.4 551.35,-252.16"/>
</g>
<!-- Node10 -->
<g id="node10" class="node">
<title>Node10</title>
<g id="a_node10"><a xlink:href="dp__tree_8h.html" target="_top" xlink:title=" ">
<polygon fill="white" stroke="black" points="380,-280.5 380,-299.5 442,-299.5 442,-280.5 380,-280.5"/>
<text text-anchor="middle" x="411" y="-287.5" font-family="Helvetica,sans-Serif" font-size="10.00">dp_tree.h</text>
</a>
</g>
</g>
<!-- Node7&#45;&gt;Node10 -->
<g id="edge9" class="edge">
<title>Node7&#45;&gt;Node10</title>
<path fill="none" stroke="midnightblue" d="M411,-336.08C411,-329.01 411,-318.86 411,-309.99"/>
<polygon fill="midnightblue" stroke="midnightblue" points="414.5,-309.75 411,-299.75 407.5,-309.75 414.5,-309.75"/>
</g>
<!-- Node13 -->
<g id="node13" class="node">
<title>Node13</title>
<g id="a_node13"><a xlink:href="parameters_8h.html" target="_top" xlink:title=" ">
<polygon fill="white" stroke="black" points="182,-112.5 182,-131.5 264,-131.5 264,-112.5 182,-112.5"/>
<text text-anchor="middle" x="223" y="-119.5" font-family="Helvetica,sans-Serif" font-size="10.00">parameters.h</text>
</a>
</g>
</g>
<!-- Node7&#45;&gt;Node13 -->
<g id="edge28" class="edge">
<title>Node7&#45;&gt;Node13</title>
<path fill="none" stroke="midnightblue" d="M395.03,-336.44C367.1,-320.9 308.69,-285.74 270,-244 250.21,-222.64 246.57,-215.13 236,-188 230.18,-173.07 226.85,-155.16 225.02,-141.92"/>
<polygon fill="midnightblue" stroke="midnightblue" points="228.45,-141.18 223.77,-131.68 221.5,-142.03 228.45,-141.18"/>
</g>
<!-- Node16 -->
<g id="node16" class="node">
<title>Node16</title>
<g id="a_node16"><a xlink:href="data_8h.html" target="_top" xlink:title=" ">
<polygon fill="white" stroke="black" points="308.5,-224.5 308.5,-243.5 355.5,-243.5 355.5,-224.5 308.5,-224.5"/>
<text text-anchor="middle" x="332" y="-231.5" font-family="Helvetica,sans-Serif" font-size="10.00">data.h</text>
</a>
</g>
</g>
<!-- Node7&#45;&gt;Node16 -->
<g id="edge29" class="edge">
<title>Node7&#45;&gt;Node16</title>
<path fill="none" stroke="midnightblue" d="M402.52,-336.45C394.05,-327.69 380.9,-313.48 371,-300 359.83,-284.79 348.93,-266.22 341.51,-252.83"/>
<polygon fill="midnightblue" stroke="midnightblue" points="344.42,-250.85 336.56,-243.74 338.27,-254.19 344.42,-250.85"/>
</g>
<!-- Node10&#45;&gt;Node8 -->
<g id="edge10" class="edge">
<title>Node10&#45;&gt;Node8</title>
<path fill="none" stroke="midnightblue" d="M428.94,-280.25C458.45,-264.45 514,-228.19 514,-179 514,-179 514,-179 514,-121 514,-73.3 461.8,-40.53 426.54,-23.84"/>
<polygon fill="midnightblue" stroke="midnightblue" points="427.66,-20.5 417.1,-19.56 424.77,-26.88 427.66,-20.5"/>
</g>
<!-- Node10&#45;&gt;Node9 -->
<g id="edge12" class="edge">
<title>Node10&#45;&gt;Node9</title>
<path fill="none" stroke="midnightblue" d="M436.19,-280.44C462.94,-271.36 505.4,-256.94 535.31,-246.78"/>
<polygon fill="midnightblue" stroke="midnightblue" points="536.58,-250.05 544.92,-243.52 534.33,-243.42 536.58,-250.05"/>
</g>
<!-- Node11 -->
<g id="node11" class="node">
<title>Node11</title>
<g id="a_node11"><a xlink:title=" ">
<polygon fill="white" stroke="#bfbfbf" points="454,-168.5 454,-187.5 486,-187.5 486,-168.5 454,-168.5"/>
<text text-anchor="middle" x="470" y="-175.5" font-family="Helvetica,sans-Serif" font-size="10.00">set</text>
</a>
</g>
</g>
<!-- Node10&#45;&gt;Node11 -->
<g id="edge11" class="edge">
<title>Node10&#45;&gt;Node11</title>
<path fill="none" stroke="midnightblue" d="M423.18,-280.46C433.82,-272.34 448.8,-259.12 457,-244 464.8,-229.62 467.95,-211.16 469.2,-197.59"/>
<polygon fill="midnightblue" stroke="midnightblue" points="472.7,-197.75 469.87,-187.54 465.71,-197.28 472.7,-197.75"/>
</g>
<!-- Node12 -->
<g id="node12" class="node">
<title>Node12</title>
<g id="a_node12"><a xlink:href="tree__node_8h.html" target="_top" xlink:title=" ">
<polygon fill="white" stroke="black" points="374,-224.5 374,-243.5 448,-243.5 448,-224.5 374,-224.5"/>
<text text-anchor="middle" x="411" y="-231.5" font-family="Helvetica,sans-Serif" font-size="10.00">tree_node.h</text>
</a>
</g>
</g>
<!-- Node10&#45;&gt;Node12 -->
<g id="edge13" class="edge">
<title>Node10&#45;&gt;Node12</title>
<path fill="none" stroke="midnightblue" d="M411,-280.08C411,-273.01 411,-262.86 411,-253.99"/>
<polygon fill="midnightblue" stroke="midnightblue" points="414.5,-253.75 411,-243.75 407.5,-253.75 414.5,-253.75"/>
</g>
<!-- Node10&#45;&gt;Node13 -->
<g id="edge14" class="edge">
<title>Node10&#45;&gt;Node13</title>
<path fill="none" stroke="midnightblue" d="M379.9,-283.37C353.96,-277.35 317.27,-265.59 292,-244 259.02,-215.82 238.38,-167.73 228.98,-141.46"/>
<polygon fill="midnightblue" stroke="midnightblue" points="232.18,-139.99 225.64,-131.66 225.55,-142.25 232.18,-139.99"/>
</g>
<!-- Node10&#45;&gt;Node16 -->
<g id="edge19" class="edge">
<title>Node10&#45;&gt;Node16</title>
<path fill="none" stroke="midnightblue" d="M398.31,-280.32C386.1,-271.98 367.42,-259.21 353,-249.35"/>
<polygon fill="midnightblue" stroke="midnightblue" points="354.89,-246.41 344.66,-243.65 350.94,-252.19 354.89,-246.41"/>
</g>
<!-- Node17 -->
<g id="node17" class="node">
<title>Node17</title>
<g id="a_node17"><a xlink:href="utils_8h.html" target="_top" xlink:title=" ">
<polygon fill="white" stroke="black" points="305.5,-168.5 305.5,-187.5 352.5,-187.5 352.5,-168.5 305.5,-168.5"/>
<text text-anchor="middle" x="329" y="-175.5" font-family="Helvetica,sans-Serif" font-size="10.00">utils.h</text>
</a>
</g>
</g>
<!-- Node10&#45;&gt;Node17 -->
<g id="edge27" class="edge">
<title>Node10&#45;&gt;Node17</title>
<path fill="none" stroke="midnightblue" d="M379.92,-285.91C353.45,-281.45 316.95,-270.56 299,-244 288.63,-228.65 300.5,-209.14 312.24,-195.52"/>
<polygon fill="midnightblue" stroke="midnightblue" points="315.08,-197.59 319.33,-187.88 309.96,-192.83 315.08,-197.59"/>
</g>
<!-- Node13&#45;&gt;Node8 -->
<g id="edge16" class="edge">
<title>Node13&#45;&gt;Node8</title>
<path fill="none" stroke="midnightblue" d="M212.48,-112.37C197.78,-99.29 174.46,-74.05 189,-56 210.21,-29.66 308.12,-17.9 360.96,-13.39"/>
<polygon fill="midnightblue" stroke="midnightblue" points="361.51,-16.86 371.2,-12.56 360.95,-9.88 361.51,-16.86"/>
</g>
<!-- Node14 -->
<g id="node14" class="node">
<title>Node14</title>
<g id="a_node14"><a xlink:title=" ">
<polygon fill="white" stroke="#bfbfbf" points="262,-56.5 262,-75.5 320,-75.5 320,-56.5 262,-56.5"/>
<text text-anchor="middle" x="291" y="-63.5" font-family="Helvetica,sans-Serif" font-size="10.00">memory</text>
</a>
</g>
</g>
<!-- Node13&#45;&gt;Node14 -->
<g id="edge15" class="edge">
<title>Node13&#45;&gt;Node14</title>
<path fill="none" stroke="midnightblue" d="M233.93,-112.32C244.17,-104.18 259.72,-91.84 272,-82.09"/>
<polygon fill="midnightblue" stroke="midnightblue" points="274.22,-84.79 279.88,-75.83 269.87,-79.31 274.22,-84.79"/>
</g>
<!-- Node15 -->
<g id="node15" class="node">
<title>Node15</title>
<g id="a_node15"><a xlink:href="loss_8h.html" target="_top" xlink:title=" ">
<polygon fill="white" stroke="black" points="198.5,-56.5 198.5,-75.5 243.5,-75.5 243.5,-56.5 198.5,-56.5"/>
<text text-anchor="middle" x="221" y="-63.5" font-family="Helvetica,sans-Serif" font-size="10.00">loss.h</text>
</a>
</g>
</g>
<!-- Node13&#45;&gt;Node15 -->
<g id="edge17" class="edge">
<title>Node13&#45;&gt;Node15</title>
<path fill="none" stroke="midnightblue" d="M222.67,-112.08C222.41,-105.01 222.03,-94.86 221.7,-85.99"/>
<polygon fill="midnightblue" stroke="midnightblue" points="225.19,-85.61 221.32,-75.75 218.2,-85.87 225.19,-85.61"/>
</g>
<!-- Node15&#45;&gt;Node8 -->
<g id="edge18" class="edge">
<title>Node15&#45;&gt;Node8</title>
<path fill="none" stroke="midnightblue" d="M243.75,-57.94C273.85,-48.6 327.13,-32.06 361.75,-21.32"/>
<polygon fill="midnightblue" stroke="midnightblue" points="362.9,-24.63 371.41,-18.32 360.82,-17.94 362.9,-24.63"/>
</g>
<!-- Node16&#45;&gt;Node8 -->
<g id="edge20" class="edge">
<title>Node16&#45;&gt;Node8</title>
<path fill="none" stroke="midnightblue" d="M341.52,-224.43C358.6,-208.33 393.9,-171.61 407,-132 418.55,-97.06 408.81,-53.61 401.42,-29.43"/>
<polygon fill="midnightblue" stroke="midnightblue" points="404.7,-28.2 398.27,-19.78 398.04,-30.37 404.7,-28.2"/>
</g>
<!-- Node16&#45;&gt;Node11 -->
<g id="edge21" class="edge">
<title>Node16&#45;&gt;Node11</title>
<path fill="none" stroke="midnightblue" d="M353.87,-224.44C378.42,-214.83 418.24,-199.26 444.27,-189.07"/>
<polygon fill="midnightblue" stroke="midnightblue" points="445.8,-192.23 453.84,-185.32 443.25,-185.71 445.8,-192.23"/>
</g>
<!-- Node16&#45;&gt;Node17 -->
<g id="edge22" class="edge">
<title>Node16&#45;&gt;Node17</title>
<path fill="none" stroke="midnightblue" d="M326.34,-224.08C324.45,-217.01 323.45,-206.86 323.58,-197.99"/>
<polygon fill="midnightblue" stroke="midnightblue" points="327.09,-197.99 324.36,-187.75 320.11,-197.46 327.09,-197.99"/>
</g>
<!-- Node17&#45;&gt;Node8 -->
<g id="edge23" class="edge">
<title>Node17&#45;&gt;Node8</title>
<path fill="none" stroke="midnightblue" d="M330.49,-168.41C332.82,-155.8 337.82,-131.65 345,-112 356.15,-81.5 373.86,-48.1 384.93,-28.38"/>
<polygon fill="midnightblue" stroke="midnightblue" points="388.01,-30.05 389.92,-19.63 381.92,-26.59 388.01,-30.05"/>
</g>
<!-- Node17&#45;&gt;Node13 -->
<g id="edge25" class="edge">
<title>Node17&#45;&gt;Node13</title>
<path fill="none" stroke="midnightblue" d="M311.97,-168.32C294.97,-159.66 268.62,-146.24 249.01,-136.25"/>
<polygon fill="midnightblue" stroke="midnightblue" points="250.49,-133.08 239.99,-131.65 247.31,-139.31 250.49,-133.08"/>
</g>
<!-- Node17&#45;&gt;Node16 -->
<g id="edge26" class="edge">
<title>Node17&#45;&gt;Node16</title>
<path fill="none" stroke="midnightblue" d="M334.62,-187.75C336.54,-194.86 337.56,-205.14 337.42,-214.1"/>
<polygon fill="midnightblue" stroke="midnightblue" points="333.93,-213.85 336.67,-224.08 340.91,-214.37 333.93,-213.85"/>
</g>
<!-- Node18 -->
<g id="node18" class="node">
<title>Node18</title>
<g id="a_node18"><a xlink:title=" ">
<polygon fill="white" stroke="#bfbfbf" points="354,-112.5 354,-131.5 398,-131.5 398,-112.5 354,-112.5"/>
<text text-anchor="middle" x="376" y="-119.5" font-family="Helvetica,sans-Serif" font-size="10.00">string</text>
</a>
</g>
</g>
<!-- Node17&#45;&gt;Node18 -->
<g id="edge24" class="edge">
<title>Node17&#45;&gt;Node18</title>
<path fill="none" stroke="midnightblue" d="M336.76,-168.08C343.54,-160.3 353.54,-148.8 361.76,-139.37"/>
<polygon fill="midnightblue" stroke="midnightblue" points="364.46,-141.59 368.38,-131.75 359.18,-137 364.46,-141.59"/>
</g>
</g>
</svg>
