<?xml version="1.0" encoding="UTF-8" standalone="no"?>
<!DOCTYPE svg PUBLIC "-//W3C//DTD SVG 1.1//EN"
 "http://www.w3.org/Graphics/SVG/1.1/DTD/svg11.dtd">
<!-- Generated by graphviz version 2.43.0 (0)
 -->
<!-- Title: base/include/gbdt/dp_tree.h Pages: 1 -->
<svg width="360pt" height="319pt"
 viewBox="0.00 0.00 360.00 319.00" xmlns="http://www.w3.org/2000/svg" xmlns:xlink="http://www.w3.org/1999/xlink">
<g id="graph0" class="graph" transform="scale(1 1) rotate(0) translate(4 315)">
<title>base/include/gbdt/dp_tree.h</title>
<polygon fill="white" stroke="transparent" points="-4,4 -4,-315 356,-315 356,4 -4,4"/>
<!-- Node1 -->
<g id="node1" class="node">
<title>Node1</title>
<g id="a_node1"><a xlink:title=" ">
<polygon fill="#bfbfbf" stroke="black" points="152,-280.5 152,-310.5 270,-310.5 270,-280.5 152,-280.5"/>
<text text-anchor="start" x="160" y="-298.5" font-family="Helvetica,sans-Serif" font-size="10.00">base/include/gbdt/dp</text>
<text text-anchor="middle" x="211" y="-287.5" font-family="Helvetica,sans-Serif" font-size="10.00">_tree.h</text>
</a>
</g>
</g>
<!-- Node2 -->
<g id="node2" class="node">
<title>Node2</title>
<g id="a_node2"><a xlink:title=" ">
<polygon fill="white" stroke="#bfbfbf" points="145.5,-0.5 145.5,-19.5 192.5,-19.5 192.5,-0.5 145.5,-0.5"/>
<text text-anchor="middle" x="169" y="-7.5" font-family="Helvetica,sans-Serif" font-size="10.00">vector</text>
</a>
</g>
</g>
<!-- Node1&#45;&gt;Node2 -->
<g id="edge1" class="edge">
<title>Node1&#45;&gt;Node2</title>
<path fill="none" stroke="midnightblue" d="M252.92,-280.42C294.49,-263.5 352,-230.74 352,-179 352,-179 352,-179 352,-121 352,-90.2 350.61,-76.91 328,-56 293.65,-24.22 238.51,-14.67 203.03,-11.92"/>
<polygon fill="midnightblue" stroke="midnightblue" points="202.9,-8.41 192.7,-11.27 202.46,-15.39 202.9,-8.41"/>
</g>
<!-- Node3 -->
<g id="node3" class="node">
<title>Node3</title>
<g id="a_node3"><a xlink:title=" ">
<polygon fill="white" stroke="#bfbfbf" points="0,-168.5 0,-187.5 32,-187.5 32,-168.5 0,-168.5"/>
<text text-anchor="middle" x="16" y="-175.5" font-family="Helvetica,sans-Serif" font-size="10.00">set</text>
</a>
</g>
</g>
<!-- Node1&#45;&gt;Node3 -->
<g id="edge2" class="edge">
<title>Node1&#45;&gt;Node3</title>
<path fill="none" stroke="midnightblue" d="M151.94,-294.05C110.97,-290.44 58.33,-278.64 27,-244 15.85,-231.68 13.81,-212.42 14.13,-198.07"/>
<polygon fill="midnightblue" stroke="midnightblue" points="17.64,-198.02 14.77,-187.83 10.66,-197.59 17.64,-198.02"/>
</g>
<!-- Node4 -->
<g id="node4" class="node">
<title>Node4</title>
<g id="a_node4"><a xlink:title=" ">
<polygon fill="white" stroke="#bfbfbf" points="100.5,-224.5 100.5,-243.5 155.5,-243.5 155.5,-224.5 100.5,-224.5"/>
<text text-anchor="middle" x="128" y="-231.5" font-family="Helvetica,sans-Serif" font-size="10.00">fstream</text>
</a>
</g>
</g>
<!-- Node1&#45;&gt;Node4 -->
<g id="edge3" class="edge">
<title>Node1&#45;&gt;Node4</title>
<path fill="none" stroke="midnightblue" d="M191.33,-280.4C178.4,-271.13 161.51,-259.03 148.43,-249.65"/>
<polygon fill="midnightblue" stroke="midnightblue" points="150.24,-246.64 140.08,-243.66 146.17,-252.33 150.24,-246.64"/>
</g>
<!-- Node5 -->
<g id="node5" class="node">
<title>Node5</title>
<g id="a_node5"><a xlink:href="tree__node_8h.html" target="_top" xlink:title=" ">
<polygon fill="white" stroke="black" points="174,-224.5 174,-243.5 248,-243.5 248,-224.5 174,-224.5"/>
<text text-anchor="middle" x="211" y="-231.5" font-family="Helvetica,sans-Serif" font-size="10.00">tree_node.h</text>
</a>
</g>
</g>
<!-- Node1&#45;&gt;Node5 -->
<g id="edge4" class="edge">
<title>Node1&#45;&gt;Node5</title>
<path fill="none" stroke="midnightblue" d="M211,-280.4C211,-272.47 211,-262.46 211,-253.86"/>
<polygon fill="midnightblue" stroke="midnightblue" points="214.5,-253.66 211,-243.66 207.5,-253.66 214.5,-253.66"/>
</g>
<!-- Node6 -->
<g id="node6" class="node">
<title>Node6</title>
<g id="a_node6"><a xlink:href="parameters_8h.html" target="_top" xlink:title=" ">
<polygon fill="white" stroke="black" points="211,-112.5 211,-131.5 293,-131.5 293,-112.5 211,-112.5"/>
<text text-anchor="middle" x="252" y="-119.5" font-family="Helvetica,sans-Serif" font-size="10.00">parameters.h</text>
</a>
</g>
</g>
<!-- Node1&#45;&gt;Node6 -->
<g id="edge5" class="edge">
<title>Node1&#45;&gt;Node6</title>
<path fill="none" stroke="midnightblue" d="M237.56,-280.47C250.83,-271.88 265.61,-259.55 273,-244 289.18,-209.96 273,-165.25 261.44,-140.82"/>
<polygon fill="midnightblue" stroke="midnightblue" points="264.48,-139.07 256.88,-131.69 258.22,-142.2 264.48,-139.07"/>
</g>
<!-- Node9 -->
<g id="node9" class="node">
<title>Node9</title>
<g id="a_node9"><a xlink:href="data_8h.html" target="_top" xlink:title=" ">
<polygon fill="white" stroke="black" points="35.5,-224.5 35.5,-243.5 82.5,-243.5 82.5,-224.5 35.5,-224.5"/>
<text text-anchor="middle" x="59" y="-231.5" font-family="Helvetica,sans-Serif" font-size="10.00">data.h</text>
</a>
</g>
</g>
<!-- Node1&#45;&gt;Node9 -->
<g id="edge10" class="edge">
<title>Node1&#45;&gt;Node9</title>
<path fill="none" stroke="midnightblue" d="M174.98,-280.4C149.36,-270.37 115.27,-257.03 90.69,-247.4"/>
<polygon fill="midnightblue" stroke="midnightblue" points="91.71,-244.04 81.12,-243.66 89.15,-250.56 91.71,-244.04"/>
</g>
<!-- Node10 -->
<g id="node10" class="node">
<title>Node10</title>
<g id="a_node10"><a xlink:href="utils_8h.html" target="_top" xlink:title=" ">
<polygon fill="white" stroke="black" points="122.5,-168.5 122.5,-187.5 169.5,-187.5 169.5,-168.5 122.5,-168.5"/>
<text text-anchor="middle" x="146" y="-175.5" font-family="Helvetica,sans-Serif" font-size="10.00">utils.h</text>
</a>
</g>
</g>
<!-- Node1&#45;&gt;Node10 -->
<g id="edge18" class="edge">
<title>Node1&#45;&gt;Node10</title>
<path fill="none" stroke="midnightblue" d="M231.07,-280.37C248.83,-266.08 270.06,-243.39 257,-224 239.95,-198.69 205.96,-187.61 180.06,-182.76"/>
<polygon fill="midnightblue" stroke="midnightblue" points="180.32,-179.26 169.88,-181.09 179.19,-186.16 180.32,-179.26"/>
</g>
<!-- Node6&#45;&gt;Node2 -->
<g id="edge7" class="edge">
<title>Node6&#45;&gt;Node2</title>
<path fill="none" stroke="midnightblue" d="M234.03,-112.35C219.87,-104.66 200.63,-92.14 189,-76 179.18,-62.38 174.1,-43.84 171.52,-30.04"/>
<polygon fill="midnightblue" stroke="midnightblue" points="174.92,-29.11 169.9,-19.78 168.01,-30.21 174.92,-29.11"/>
</g>
<!-- Node7 -->
<g id="node7" class="node">
<title>Node7</title>
<g id="a_node7"><a xlink:title=" ">
<polygon fill="white" stroke="#bfbfbf" points="261,-56.5 261,-75.5 319,-75.5 319,-56.5 261,-56.5"/>
<text text-anchor="middle" x="290" y="-63.5" font-family="Helvetica,sans-Serif" font-size="10.00">memory</text>
</a>
</g>
</g>
<!-- Node6&#45;&gt;Node7 -->
<g id="edge6" class="edge">
<title>Node6&#45;&gt;Node7</title>
<path fill="none" stroke="midnightblue" d="M258.27,-112.08C263.64,-104.46 271.52,-93.26 278.08,-83.94"/>
<polygon fill="midnightblue" stroke="midnightblue" points="280.95,-85.94 283.84,-75.75 275.22,-81.91 280.95,-85.94"/>
</g>
<!-- Node8 -->
<g id="node8" class="node">
<title>Node8</title>
<g id="a_node8"><a xlink:href="loss_8h.html" target="_top" xlink:title=" ">
<polygon fill="white" stroke="black" points="197.5,-56.5 197.5,-75.5 242.5,-75.5 242.5,-56.5 197.5,-56.5"/>
<text text-anchor="middle" x="220" y="-63.5" font-family="Helvetica,sans-Serif" font-size="10.00">loss.h</text>
</a>
</g>
</g>
<!-- Node6&#45;&gt;Node8 -->
<g id="edge8" class="edge">
<title>Node6&#45;&gt;Node8</title>
<path fill="none" stroke="midnightblue" d="M246.72,-112.08C242.29,-104.61 235.84,-93.72 230.38,-84.52"/>
<polygon fill="midnightblue" stroke="midnightblue" points="233.29,-82.57 225.19,-75.75 227.27,-86.14 233.29,-82.57"/>
</g>
<!-- Node8&#45;&gt;Node2 -->
<g id="edge9" class="edge">
<title>Node8&#45;&gt;Node2</title>
<path fill="none" stroke="midnightblue" d="M211.58,-56.08C204.15,-48.22 193.15,-36.57 184.19,-27.08"/>
<polygon fill="midnightblue" stroke="midnightblue" points="186.68,-24.62 177.26,-19.75 181.59,-29.42 186.68,-24.62"/>
</g>
<!-- Node9&#45;&gt;Node2 -->
<g id="edge11" class="edge">
<title>Node9&#45;&gt;Node2</title>
<path fill="none" stroke="midnightblue" d="M62.78,-224.41C74.21,-198.58 109.63,-119.54 143,-56 147.88,-46.7 153.7,-36.55 158.6,-28.25"/>
<polygon fill="midnightblue" stroke="midnightblue" points="161.69,-29.89 163.81,-19.51 155.68,-26.31 161.69,-29.89"/>
</g>
<!-- Node9&#45;&gt;Node3 -->
<g id="edge12" class="edge">
<title>Node9&#45;&gt;Node3</title>
<path fill="none" stroke="midnightblue" d="M51.9,-224.08C45.76,-216.38 36.73,-205.03 29.26,-195.65"/>
<polygon fill="midnightblue" stroke="midnightblue" points="31.94,-193.39 22.97,-187.75 26.46,-197.75 31.94,-193.39"/>
</g>
<!-- Node9&#45;&gt;Node10 -->
<g id="edge13" class="edge">
<title>Node9&#45;&gt;Node10</title>
<path fill="none" stroke="midnightblue" d="M67.86,-224.32C79.72,-215.82 100.53,-202.73 117.8,-192.8"/>
<polygon fill="midnightblue" stroke="midnightblue" points="119.94,-195.61 126.95,-187.65 116.51,-189.5 119.94,-195.61"/>
</g>
<!-- Node10&#45;&gt;Node2 -->
<g id="edge14" class="edge">
<title>Node10&#45;&gt;Node2</title>
<path fill="none" stroke="midnightblue" d="M144.51,-168.41C143.02,-159.38 140.85,-144.74 140,-132 139.41,-123.13 138.76,-120.8 140,-112 144.16,-82.43 154.86,-49.38 162.03,-29.39"/>
<polygon fill="midnightblue" stroke="midnightblue" points="165.41,-30.33 165.59,-19.74 158.85,-27.91 165.41,-30.33"/>
</g>
<!-- Node10&#45;&gt;Node6 -->
<g id="edge16" class="edge">
<title>Node10&#45;&gt;Node6</title>
<path fill="none" stroke="midnightblue" d="M163.03,-168.32C180.03,-159.66 206.38,-146.24 225.99,-136.25"/>
<polygon fill="midnightblue" stroke="midnightblue" points="227.69,-139.31 235.01,-131.65 224.51,-133.08 227.69,-139.31"/>
</g>
<!-- Node10&#45;&gt;Node9 -->
<g id="edge17" class="edge">
<title>Node10&#45;&gt;Node9</title>
<path fill="none" stroke="midnightblue" d="M136.92,-187.83C125.02,-196.34 104.36,-209.34 87.19,-219.21"/>
<polygon fill="midnightblue" stroke="midnightblue" points="85.1,-216.37 78.09,-224.32 88.53,-222.47 85.1,-216.37"/>
</g>
<!-- Node11 -->
<g id="node11" class="node">
<title>Node11</title>
<g id="a_node11"><a xlink:title=" ">
<polygon fill="white" stroke="#bfbfbf" points="149,-112.5 149,-131.5 193,-131.5 193,-112.5 149,-112.5"/>
<text text-anchor="middle" x="171" y="-119.5" font-family="Helvetica,sans-Serif" font-size="10.00">string</text>
</a>
</g>
</g>
<!-- Node10&#45;&gt;Node11 -->
<g id="edge15" class="edge">
<title>Node10&#45;&gt;Node11</title>
<path fill="none" stroke="midnightblue" d="M150.13,-168.08C153.51,-160.77 158.42,-150.18 162.62,-141.1"/>
<polygon fill="midnightblue" stroke="midnightblue" points="165.92,-142.3 166.95,-131.75 159.57,-139.36 165.92,-142.3"/>
</g>
</g>
</svg>
