<?xml version="1.0" encoding="UTF-8" standalone="no"?>
<!DOCTYPE svg PUBLIC "-//W3C//DTD SVG 1.1//EN"
 "http://www.w3.org/Graphics/SVG/1.1/DTD/svg11.dtd">
<!-- Generated by graphviz version 2.43.0 (0)
 -->
<!-- Title: base/src/main.cpp Pages: 1 -->
<svg width="734pt" height="420pt"
 viewBox="0.00 0.00 734.20 420.00" xmlns="http://www.w3.org/2000/svg" xmlns:xlink="http://www.w3.org/1999/xlink">
<g id="graph0" class="graph" transform="scale(1 1) rotate(0) translate(4 416)">
<title>base/src/main.cpp</title>
<polygon fill="white" stroke="transparent" points="-4,4 -4,-416 730.2,-416 730.2,4 -4,4"/>
<!-- Node1 -->
<g id="node1" class="node">
<title>Node1</title>
<g id="a_node1"><a xlink:title=" ">
<polygon fill="#bfbfbf" stroke="black" points="427.2,-392.5 427.2,-411.5 532.2,-411.5 532.2,-392.5 427.2,-392.5"/>
<text text-anchor="middle" x="479.7" y="-399.5" font-family="Helvetica,sans-Serif" font-size="10.00">base/src/main.cpp</text>
</a>
</g>
</g>
<!-- Node2 -->
<g id="node2" class="node">
<title>Node2</title>
<g id="a_node2"><a xlink:title=" ">
<polygon fill="white" stroke="#bfbfbf" points="26.7,-336.5 26.7,-355.5 82.7,-355.5 82.7,-336.5 26.7,-336.5"/>
<text text-anchor="middle" x="54.7" y="-343.5" font-family="Helvetica,sans-Serif" font-size="10.00">numeric</text>
</a>
</g>
</g>
<!-- Node1&#45;&gt;Node2 -->
<g id="edge1" class="edge">
<title>Node1&#45;&gt;Node2</title>
<path fill="none" stroke="midnightblue" d="M427.13,-396.4C353.12,-389.57 214.11,-375.43 96.7,-356 95.46,-355.79 94.2,-355.58 92.93,-355.35"/>
<polygon fill="midnightblue" stroke="midnightblue" points="93.58,-351.91 83.1,-353.46 92.26,-358.79 93.58,-351.91"/>
</g>
<!-- Node3 -->
<g id="node3" class="node">
<title>Node3</title>
<g id="a_node3"><a xlink:title=" ">
<polygon fill="white" stroke="#bfbfbf" points="157.2,-0.5 157.2,-19.5 204.2,-19.5 204.2,-0.5 157.2,-0.5"/>
<text text-anchor="middle" x="180.7" y="-7.5" font-family="Helvetica,sans-Serif" font-size="10.00">vector</text>
</a>
</g>
</g>
<!-- Node1&#45;&gt;Node3 -->
<g id="edge2" class="edge">
<title>Node1&#45;&gt;Node3</title>
<path fill="none" stroke="midnightblue" d="M482.26,-392.25C487.45,-373.74 498.7,-329.18 498.7,-291 498.7,-291 498.7,-291 498.7,-121 498.7,-73.09 456.46,-75.51 412.7,-56 346.47,-26.47 261.12,-16.27 214.61,-12.78"/>
<polygon fill="midnightblue" stroke="midnightblue" points="214.69,-9.28 204.47,-12.08 214.21,-16.26 214.69,-9.28"/>
</g>
<!-- Node4 -->
<g id="node4" class="node">
<title>Node4</title>
<g id="a_node4"><a xlink:title=" ">
<polygon fill="white" stroke="#bfbfbf" points="526.7,-336.5 526.7,-355.5 586.7,-355.5 586.7,-336.5 526.7,-336.5"/>
<text text-anchor="middle" x="556.7" y="-343.5" font-family="Helvetica,sans-Serif" font-size="10.00">iostream</text>
</a>
</g>
</g>
<!-- Node1&#45;&gt;Node4 -->
<g id="edge3" class="edge">
<title>Node1&#45;&gt;Node4</title>
<path fill="none" stroke="midnightblue" d="M492.07,-392.32C503.86,-384.06 521.83,-371.45 535.84,-361.63"/>
<polygon fill="midnightblue" stroke="midnightblue" points="538.18,-364.26 544.36,-355.65 534.16,-358.53 538.18,-364.26"/>
</g>
<!-- Node5 -->
<g id="node5" class="node">
<title>Node5</title>
<g id="a_node5"><a xlink:title=" ">
<polygon fill="white" stroke="#bfbfbf" points="604.7,-336.5 604.7,-355.5 660.7,-355.5 660.7,-336.5 604.7,-336.5"/>
<text text-anchor="middle" x="632.7" y="-343.5" font-family="Helvetica,sans-Serif" font-size="10.00">iomanip</text>
</a>
</g>
</g>
<!-- Node1&#45;&gt;Node5 -->
<g id="edge4" class="edge">
<title>Node1&#45;&gt;Node5</title>
<path fill="none" stroke="midnightblue" d="M503.94,-392.44C529.57,-383.4 570.19,-369.06 598.94,-358.92"/>
<polygon fill="midnightblue" stroke="midnightblue" points="600.31,-362.15 608.57,-355.52 597.98,-355.54 600.31,-362.15"/>
</g>
<!-- Node6 -->
<g id="node6" class="node">
<title>Node6</title>
<g id="a_node6"><a xlink:title=" ">
<polygon fill="white" stroke="#bfbfbf" points="679.2,-336.5 679.2,-355.5 726.2,-355.5 726.2,-336.5 679.2,-336.5"/>
<text text-anchor="middle" x="702.7" y="-343.5" font-family="Helvetica,sans-Serif" font-size="10.00">cmath</text>
</a>
</g>
</g>
<!-- Node1&#45;&gt;Node6 -->
<g id="edge5" class="edge">
<title>Node1&#45;&gt;Node6</title>
<path fill="none" stroke="midnightblue" d="M517.28,-392.49C553.66,-384.17 610.58,-370.92 669.14,-356.08"/>
<polygon fill="midnightblue" stroke="midnightblue" points="670.11,-359.44 678.93,-353.58 668.38,-352.66 670.11,-359.44"/>
</g>
<!-- Node7 -->
<g id="node7" class="node">
<title>Node7</title>
<g id="a_node7"><a xlink:href="parameters_8h.html" target="_top" xlink:title=" ">
<polygon fill="white" stroke="black" points="231.7,-112.5 231.7,-131.5 313.7,-131.5 313.7,-112.5 231.7,-112.5"/>
<text text-anchor="middle" x="272.7" y="-119.5" font-family="Helvetica,sans-Serif" font-size="10.00">parameters.h</text>
</a>
</g>
</g>
<!-- Node1&#45;&gt;Node7 -->
<g id="edge6" class="edge">
<title>Node1&#45;&gt;Node7</title>
<path fill="none" stroke="midnightblue" d="M477.14,-392.25C471.95,-373.74 460.7,-329.18 460.7,-291 460.7,-291 460.7,-291 460.7,-233 460.7,-169.45 379.7,-141.94 324.03,-130.53"/>
<polygon fill="midnightblue" stroke="midnightblue" points="324.44,-127.04 313.96,-128.58 323.11,-133.92 324.44,-127.04"/>
</g>
<!-- Node10 -->
<g id="node10" class="node">
<title>Node10</title>
<g id="a_node10"><a xlink:href="dp__ensemble_8h.html" target="_top" xlink:title=" ">
<polygon fill="white" stroke="black" points="297.7,-336.5 297.7,-355.5 413.7,-355.5 413.7,-336.5 297.7,-336.5"/>
<text text-anchor="middle" x="355.7" y="-343.5" font-family="Helvetica,sans-Serif" font-size="10.00">gbdt/dp_ensemble.h</text>
</a>
</g>
</g>
<!-- Node1&#45;&gt;Node10 -->
<g id="edge11" class="edge">
<title>Node1&#45;&gt;Node10</title>
<path fill="none" stroke="midnightblue" d="M460.05,-392.44C439.74,-383.6 407.8,-369.69 384.6,-359.59"/>
<polygon fill="midnightblue" stroke="midnightblue" points="385.82,-356.3 375.26,-355.52 383.03,-362.72 385.82,-356.3"/>
</g>
<!-- Node15 -->
<g id="node15" class="node">
<title>Node15</title>
<g id="a_node15"><a xlink:href="data_8h.html" target="_top" xlink:title=" ">
<polygon fill="white" stroke="black" points="29.2,-224.5 29.2,-243.5 76.2,-243.5 76.2,-224.5 29.2,-224.5"/>
<text text-anchor="middle" x="52.7" y="-231.5" font-family="Helvetica,sans-Serif" font-size="10.00">data.h</text>
</a>
</g>
</g>
<!-- Node1&#45;&gt;Node15 -->
<g id="edge31" class="edge">
<title>Node1&#45;&gt;Node15</title>
<path fill="none" stroke="midnightblue" d="M427.07,-394.51C354.74,-383.77 222.46,-357.5 124.7,-300 102.37,-286.87 80.88,-266.05 67.29,-251.52"/>
<polygon fill="midnightblue" stroke="midnightblue" points="69.57,-248.83 60.24,-243.8 64.4,-253.55 69.57,-248.83"/>
</g>
<!-- Node7&#45;&gt;Node3 -->
<g id="edge8" class="edge">
<title>Node7&#45;&gt;Node3</title>
<path fill="none" stroke="midnightblue" d="M250.47,-112.49C234.17,-105.16 212.7,-93.05 199.7,-76 189.46,-62.57 184.73,-43.76 182.55,-29.82"/>
<polygon fill="midnightblue" stroke="midnightblue" points="186.02,-29.37 181.29,-19.89 179.08,-30.25 186.02,-29.37"/>
</g>
<!-- Node8 -->
<g id="node8" class="node">
<title>Node8</title>
<g id="a_node8"><a xlink:title=" ">
<polygon fill="white" stroke="#bfbfbf" points="208.7,-56.5 208.7,-75.5 266.7,-75.5 266.7,-56.5 208.7,-56.5"/>
<text text-anchor="middle" x="237.7" y="-63.5" font-family="Helvetica,sans-Serif" font-size="10.00">memory</text>
</a>
</g>
</g>
<!-- Node7&#45;&gt;Node8 -->
<g id="edge7" class="edge">
<title>Node7&#45;&gt;Node8</title>
<path fill="none" stroke="midnightblue" d="M266.92,-112.08C262.03,-104.53 254.87,-93.49 248.87,-84.23"/>
<polygon fill="midnightblue" stroke="midnightblue" points="251.75,-82.24 243.37,-75.75 245.87,-86.05 251.75,-82.24"/>
</g>
<!-- Node9 -->
<g id="node9" class="node">
<title>Node9</title>
<g id="a_node9"><a xlink:href="loss_8h.html" target="_top" xlink:title=" ">
<polygon fill="white" stroke="black" points="285.2,-56.5 285.2,-75.5 330.2,-75.5 330.2,-56.5 285.2,-56.5"/>
<text text-anchor="middle" x="307.7" y="-63.5" font-family="Helvetica,sans-Serif" font-size="10.00">loss.h</text>
</a>
</g>
</g>
<!-- Node7&#45;&gt;Node9 -->
<g id="edge9" class="edge">
<title>Node7&#45;&gt;Node9</title>
<path fill="none" stroke="midnightblue" d="M278.48,-112.08C283.37,-104.53 290.53,-93.49 296.53,-84.23"/>
<polygon fill="midnightblue" stroke="midnightblue" points="299.53,-86.05 302.03,-75.75 293.65,-82.24 299.53,-86.05"/>
</g>
<!-- Node9&#45;&gt;Node3 -->
<g id="edge10" class="edge">
<title>Node9&#45;&gt;Node3</title>
<path fill="none" stroke="midnightblue" d="M287.58,-56.44C266.68,-47.56 233.77,-33.56 209.98,-23.45"/>
<polygon fill="midnightblue" stroke="midnightblue" points="211.3,-20.21 200.73,-19.52 208.56,-26.65 211.3,-20.21"/>
</g>
<!-- Node10&#45;&gt;Node3 -->
<g id="edge12" class="edge">
<title>Node10&#45;&gt;Node3</title>
<path fill="none" stroke="midnightblue" d="M365.59,-336.4C384.22,-319.18 422.7,-278.38 422.7,-235 422.7,-235 422.7,-235 422.7,-121 422.7,-30.72 281.41,-14.18 214.75,-11.4"/>
<polygon fill="midnightblue" stroke="midnightblue" points="214.46,-7.89 204.35,-11.06 214.22,-14.89 214.46,-7.89"/>
</g>
<!-- Node10&#45;&gt;Node7 -->
<g id="edge29" class="edge">
<title>Node10&#45;&gt;Node7</title>
<path fill="none" stroke="midnightblue" d="M358.91,-336.41C366,-316.07 381.18,-263.66 365.7,-224 351.18,-186.79 315.81,-155.01 293.12,-137.5"/>
<polygon fill="midnightblue" stroke="midnightblue" points="295.21,-134.7 285.11,-131.51 291.02,-140.3 295.21,-134.7"/>
</g>
<!-- Node11 -->
<g id="node11" class="node">
<title>Node11</title>
<g id="a_node11"><a xlink:title=" ">
<polygon fill="white" stroke="#bfbfbf" points="301.2,-224.5 301.2,-243.5 356.2,-243.5 356.2,-224.5 301.2,-224.5"/>
<text text-anchor="middle" x="328.7" y="-231.5" font-family="Helvetica,sans-Serif" font-size="10.00">fstream</text>
</a>
</g>
</g>
<!-- Node10&#45;&gt;Node11 -->
<g id="edge13" class="edge">
<title>Node10&#45;&gt;Node11</title>
<path fill="none" stroke="midnightblue" d="M353.58,-336.37C349.22,-318.62 339.17,-277.67 333.27,-253.6"/>
<polygon fill="midnightblue" stroke="midnightblue" points="336.59,-252.47 330.81,-243.59 329.79,-254.14 336.59,-252.47"/>
</g>
<!-- Node12 -->
<g id="node12" class="node">
<title>Node12</title>
<g id="a_node12"><a xlink:href="dp__tree_8h.html" target="_top" xlink:title=" ">
<polygon fill="white" stroke="black" points="176.7,-280.5 176.7,-299.5 238.7,-299.5 238.7,-280.5 176.7,-280.5"/>
<text text-anchor="middle" x="207.7" y="-287.5" font-family="Helvetica,sans-Serif" font-size="10.00">dp_tree.h</text>
</a>
</g>
</g>
<!-- Node10&#45;&gt;Node12 -->
<g id="edge14" class="edge">
<title>Node10&#45;&gt;Node12</title>
<path fill="none" stroke="midnightblue" d="M332.25,-336.44C307.57,-327.44 268.52,-313.19 240.72,-303.05"/>
<polygon fill="midnightblue" stroke="midnightblue" points="241.64,-299.66 231.04,-299.52 239.24,-306.23 241.64,-299.66"/>
</g>
<!-- Node10&#45;&gt;Node15 -->
<g id="edge30" class="edge">
<title>Node10&#45;&gt;Node15</title>
<path fill="none" stroke="midnightblue" d="M303.04,-336.48C264.67,-329.3 211.89,-317.38 167.7,-300 133,-286.35 95.99,-263.82 73.6,-249.19"/>
<polygon fill="midnightblue" stroke="midnightblue" points="75.49,-246.25 65.22,-243.64 71.62,-252.08 75.49,-246.25"/>
</g>
<!-- Node12&#45;&gt;Node3 -->
<g id="edge15" class="edge">
<title>Node12&#45;&gt;Node3</title>
<path fill="none" stroke="midnightblue" d="M176.37,-285.32C128.93,-279.14 42.01,-265.23 19.7,-244 -2.1,-223.25 0.7,-209.1 0.7,-179 0.7,-179 0.7,-179 0.7,-121 0.7,-53.16 94.94,-25.9 147.05,-16.02"/>
<polygon fill="midnightblue" stroke="midnightblue" points="147.94,-19.41 157.17,-14.21 146.71,-12.52 147.94,-19.41"/>
</g>
<!-- Node12&#45;&gt;Node7 -->
<g id="edge19" class="edge">
<title>Node12&#45;&gt;Node7</title>
<path fill="none" stroke="midnightblue" d="M220.45,-280.23C231.16,-272.13 245.92,-259.09 253.7,-244 270.69,-211.04 273.35,-166.84 273.32,-142"/>
<polygon fill="midnightblue" stroke="midnightblue" points="276.82,-141.72 273.15,-131.78 269.82,-141.84 276.82,-141.72"/>
</g>
<!-- Node12&#45;&gt;Node11 -->
<g id="edge17" class="edge">
<title>Node12&#45;&gt;Node11</title>
<path fill="none" stroke="midnightblue" d="M226.87,-280.44C246.61,-271.64 277.59,-257.81 300.19,-247.72"/>
<polygon fill="midnightblue" stroke="midnightblue" points="301.91,-250.79 309.62,-243.52 299.06,-244.4 301.91,-250.79"/>
</g>
<!-- Node13 -->
<g id="node13" class="node">
<title>Node13</title>
<g id="a_node13"><a xlink:title=" ">
<polygon fill="white" stroke="#bfbfbf" points="146.7,-168.5 146.7,-187.5 178.7,-187.5 178.7,-168.5 146.7,-168.5"/>
<text text-anchor="middle" x="162.7" y="-175.5" font-family="Helvetica,sans-Serif" font-size="10.00">set</text>
</a>
</g>
</g>
<!-- Node12&#45;&gt;Node13 -->
<g id="edge16" class="edge">
<title>Node12&#45;&gt;Node13</title>
<path fill="none" stroke="midnightblue" d="M193.91,-280.19C182.87,-272.24 168.2,-259.45 161.7,-244 155.55,-229.37 156.46,-211.2 158.52,-197.79"/>
<polygon fill="midnightblue" stroke="midnightblue" points="161.99,-198.31 160.41,-187.83 155.11,-197.01 161.99,-198.31"/>
</g>
<!-- Node14 -->
<g id="node14" class="node">
<title>Node14</title>
<g id="a_node14"><a xlink:href="tree__node_8h.html" target="_top" xlink:title=" ">
<polygon fill="white" stroke="black" points="170.7,-224.5 170.7,-243.5 244.7,-243.5 244.7,-224.5 170.7,-224.5"/>
<text text-anchor="middle" x="207.7" y="-231.5" font-family="Helvetica,sans-Serif" font-size="10.00">tree_node.h</text>
</a>
</g>
</g>
<!-- Node12&#45;&gt;Node14 -->
<g id="edge18" class="edge">
<title>Node12&#45;&gt;Node14</title>
<path fill="none" stroke="midnightblue" d="M207.7,-280.08C207.7,-273.01 207.7,-262.86 207.7,-253.99"/>
<polygon fill="midnightblue" stroke="midnightblue" points="211.2,-253.75 207.7,-243.75 204.2,-253.75 211.2,-253.75"/>
</g>
<!-- Node12&#45;&gt;Node15 -->
<g id="edge20" class="edge">
<title>Node12&#45;&gt;Node15</title>
<path fill="none" stroke="midnightblue" d="M183.14,-280.44C156.95,-271.32 115.31,-256.81 86.14,-246.65"/>
<polygon fill="midnightblue" stroke="midnightblue" points="86.98,-243.24 76.38,-243.25 84.68,-249.85 86.98,-243.24"/>
</g>
<!-- Node16 -->
<g id="node16" class="node">
<title>Node16</title>
<g id="a_node16"><a xlink:href="utils_8h.html" target="_top" xlink:title=" ">
<polygon fill="white" stroke="black" points="81.2,-168.5 81.2,-187.5 128.2,-187.5 128.2,-168.5 81.2,-168.5"/>
<text text-anchor="middle" x="104.7" y="-175.5" font-family="Helvetica,sans-Serif" font-size="10.00">utils.h</text>
</a>
</g>
</g>
<!-- Node12&#45;&gt;Node16 -->
<g id="edge28" class="edge">
<title>Node12&#45;&gt;Node16</title>
<path fill="none" stroke="midnightblue" d="M195.6,-280.47C183.94,-271.95 166.14,-258.12 152.7,-244 138.4,-228.97 124.61,-209.62 115.5,-195.95"/>
<polygon fill="midnightblue" stroke="midnightblue" points="118.4,-193.98 110,-187.52 112.53,-197.81 118.4,-193.98"/>
</g>
<!-- Node15&#45;&gt;Node3 -->
<g id="edge21" class="edge">
<title>Node15&#45;&gt;Node3</title>
<path fill="none" stroke="midnightblue" d="M54.52,-224.36C57.35,-211.68 63.36,-187.45 71.7,-168 94.38,-115.11 101.87,-101.82 136.7,-56 144.7,-45.48 154.96,-34.85 163.57,-26.57"/>
<polygon fill="midnightblue" stroke="midnightblue" points="165.99,-29.09 170.89,-19.69 161.2,-23.99 165.99,-29.09"/>
</g>
<!-- Node15&#45;&gt;Node13 -->
<g id="edge22" class="edge">
<title>Node15&#45;&gt;Node13</title>
<path fill="none" stroke="midnightblue" d="M70.37,-224.32C88.51,-215.42 116.91,-201.48 137.42,-191.41"/>
<polygon fill="midnightblue" stroke="midnightblue" points="139.07,-194.5 146.5,-186.95 135.99,-188.22 139.07,-194.5"/>
</g>
<!-- Node15&#45;&gt;Node16 -->
<g id="edge23" class="edge">
<title>Node15&#45;&gt;Node16</title>
<path fill="none" stroke="midnightblue" d="M56.12,-224.08C62.15,-216.06 73.33,-204.1 83.59,-194.51"/>
<polygon fill="midnightblue" stroke="midnightblue" points="86.03,-197.03 91.14,-187.75 81.36,-191.81 86.03,-197.03"/>
</g>
<!-- Node16&#45;&gt;Node3 -->
<g id="edge24" class="edge">
<title>Node16&#45;&gt;Node3</title>
<path fill="none" stroke="midnightblue" d="M106.56,-168.37C109.42,-155.71 115.48,-131.5 123.7,-112 136.74,-81.07 156.97,-47.59 169.5,-28"/>
<polygon fill="midnightblue" stroke="midnightblue" points="172.46,-29.86 174.96,-19.57 166.58,-26.06 172.46,-29.86"/>
</g>
<!-- Node16&#45;&gt;Node7 -->
<g id="edge26" class="edge">
<title>Node16&#45;&gt;Node7</title>
<path fill="none" stroke="midnightblue" d="M128.41,-169.38C156.53,-160.34 203.69,-145.18 236.41,-134.67"/>
<polygon fill="midnightblue" stroke="midnightblue" points="237.61,-137.96 246.06,-131.56 235.47,-131.29 237.61,-137.96"/>
</g>
<!-- Node16&#45;&gt;Node15 -->
<g id="edge27" class="edge">
<title>Node16&#45;&gt;Node15</title>
<path fill="none" stroke="midnightblue" d="M101.34,-187.83C95.31,-195.87 84.06,-207.91 73.76,-217.54"/>
<polygon fill="midnightblue" stroke="midnightblue" points="71.29,-215.05 66.17,-224.32 75.96,-220.27 71.29,-215.05"/>
</g>
<!-- Node17 -->
<g id="node17" class="node">
<title>Node17</title>
<g id="a_node17"><a xlink:title=" ">
<polygon fill="white" stroke="#bfbfbf" points="132.7,-112.5 132.7,-131.5 176.7,-131.5 176.7,-112.5 132.7,-112.5"/>
<text text-anchor="middle" x="154.7" y="-119.5" font-family="Helvetica,sans-Serif" font-size="10.00">string</text>
</a>
</g>
</g>
<!-- Node16&#45;&gt;Node17 -->
<g id="edge25" class="edge">
<title>Node16&#45;&gt;Node17</title>
<path fill="none" stroke="midnightblue" d="M112.96,-168.08C120.17,-160.3 130.81,-148.8 139.55,-139.37"/>
<polygon fill="midnightblue" stroke="midnightblue" points="142.37,-141.47 146.6,-131.75 137.24,-136.71 142.37,-141.47"/>
</g>
</g>
</svg>
