<?xml version="1.0" encoding="UTF-8" standalone="no"?>
<!DOCTYPE svg PUBLIC "-//W3C//DTD SVG 1.1//EN"
 "http://www.w3.org/Graphics/SVG/1.1/DTD/svg11.dtd">
<!-- Generated by graphviz version 2.43.0 (0)
 -->
<!-- Title: DataSet::shuffle_dataset Pages: 1 -->
<svg width="390pt" height="78pt"
 viewBox="0.00 0.00 390.00 77.50" xmlns="http://www.w3.org/2000/svg" xmlns:xlink="http://www.w3.org/1999/xlink">
<g id="graph0" class="graph" transform="scale(1 1) rotate(0) translate(4 73.5)">
<title>DataSet::shuffle_dataset</title>
<polygon fill="white" stroke="transparent" points="-4,4 -4,-73.5 386,-73.5 386,4 -4,4"/>
<!-- Node1 -->
<g id="node1" class="node">
<title>Node1</title>
<g id="a_node1"><a xlink:title=" ">
<polygon fill="#bfbfbf" stroke="black" points="245,-22.5 245,-41.5 382,-41.5 382,-22.5 245,-22.5"/>
<text text-anchor="middle" x="313.5" y="-29.5" font-family="Helvetica,sans-Serif" font-size="10.00">DataSet::shuffle_dataset</text>
</a>
</g>
</g>
<!-- Node2 -->
<g id="node2" class="node">
<title>Node2</title>
<g id="a_node2"><a xlink:href="data_8cpp.html#ac589716071ac7ced3174606af5f79d78" target="_top" xlink:title=" ">
<polygon fill="white" stroke="black" points="77,-39 77,-69 209,-69 209,-39 77,-39"/>
<text text-anchor="start" x="85" y="-57" font-family="Helvetica,sans-Serif" font-size="10.00">create_cross_validation</text>
<text text-anchor="middle" x="143" y="-46" font-family="Helvetica,sans-Serif" font-size="10.00">_inputs</text>
</a>
</g>
</g>
<!-- Node1&#45;&gt;Node2 -->
<g id="edge1" class="edge">
<title>Node1&#45;&gt;Node2</title>
<path fill="none" stroke="midnightblue" d="M234.88,-42.13C226.27,-43.26 217.55,-44.4 209.11,-45.5"/>
<polygon fill="midnightblue" stroke="midnightblue" points="235.47,-45.59 244.94,-40.82 234.57,-38.65 235.47,-45.59"/>
</g>
<!-- Node4 -->
<g id="node4" class="node">
<title>Node4</title>
<g id="a_node4"><a xlink:href="data_8cpp.html#a92f53534e1457b64d825fa24610631d3" target="_top" xlink:title=" ">
<polygon fill="white" stroke="black" points="77,-0.5 77,-19.5 209,-19.5 209,-0.5 77,-0.5"/>
<text text-anchor="middle" x="143" y="-7.5" font-family="Helvetica,sans-Serif" font-size="10.00">train_test_split_random</text>
</a>
</g>
</g>
<!-- Node1&#45;&gt;Node4 -->
<g id="edge3" class="edge">
<title>Node1&#45;&gt;Node4</title>
<path fill="none" stroke="midnightblue" d="M234.88,-21.87C226.27,-20.74 217.55,-19.6 209.11,-18.5"/>
<polygon fill="midnightblue" stroke="midnightblue" points="234.57,-25.35 244.94,-23.18 235.47,-18.41 234.57,-25.35"/>
</g>
<!-- Node3 -->
<g id="node3" class="node">
<title>Node3</title>
<g id="a_node3"><a xlink:href="main_8cpp.html#a3c04138a5bfe5d72780bb7e82a18e627" target="_top" xlink:title=" ">
<polygon fill="white" stroke="black" points="0,-44.5 0,-63.5 41,-63.5 41,-44.5 0,-44.5"/>
<text text-anchor="middle" x="20.5" y="-51.5" font-family="Helvetica,sans-Serif" font-size="10.00">main</text>
</a>
</g>
</g>
<!-- Node2&#45;&gt;Node3 -->
<g id="edge2" class="edge">
<title>Node2&#45;&gt;Node3</title>
<path fill="none" stroke="midnightblue" d="M66.58,-54C57.3,-54 48.53,-54 41.24,-54"/>
<polygon fill="midnightblue" stroke="midnightblue" points="66.81,-57.5 76.81,-54 66.81,-50.5 66.81,-57.5"/>
</g>
</g>
</svg>
