<?xml version="1.0" encoding="UTF-8" standalone="no"?>
<!DOCTYPE svg PUBLIC "-//W3C//DTD SVG 1.1//EN"
 "http://www.w3.org/Graphics/SVG/1.1/DTD/svg11.dtd">
<!-- Generated by graphviz version 2.43.0 (0)
 -->
<!-- Title: base/src/gbdt/utils.cpp Pages: 1 -->
<svg width="398pt" height="252pt"
 viewBox="0.00 0.00 398.00 252.00" xmlns="http://www.w3.org/2000/svg" xmlns:xlink="http://www.w3.org/1999/xlink">
<g id="graph0" class="graph" transform="scale(1 1) rotate(0) translate(4 248)">
<title>base/src/gbdt/utils.cpp</title>
<polygon fill="white" stroke="transparent" points="-4,4 -4,-248 394,-248 394,4 -4,4"/>
<!-- Node1 -->
<g id="node1" class="node">
<title>Node1</title>
<g id="a_node1"><a xlink:title=" ">
<polygon fill="#bfbfbf" stroke="black" points="78,-224.5 78,-243.5 204,-243.5 204,-224.5 78,-224.5"/>
<text text-anchor="middle" x="141" y="-231.5" font-family="Helvetica,sans-Serif" font-size="10.00">base/src/gbdt/utils.cpp</text>
</a>
</g>
</g>
<!-- Node2 -->
<g id="node2" class="node">
<title>Node2</title>
<g id="a_node2"><a xlink:title=" ">
<polygon fill="white" stroke="#bfbfbf" points="0,-168.5 0,-187.5 64,-187.5 64,-168.5 0,-168.5"/>
<text text-anchor="middle" x="32" y="-175.5" font-family="Helvetica,sans-Serif" font-size="10.00">algorithm</text>
</a>
</g>
</g>
<!-- Node1&#45;&gt;Node2 -->
<g id="edge1" class="edge">
<title>Node1&#45;&gt;Node2</title>
<path fill="none" stroke="midnightblue" d="M123.49,-224.32C105.93,-215.62 78.67,-202.12 58.47,-192.11"/>
<polygon fill="midnightblue" stroke="midnightblue" points="59.98,-188.96 49.47,-187.65 56.88,-195.23 59.98,-188.96"/>
</g>
<!-- Node3 -->
<g id="node3" class="node">
<title>Node3</title>
<g id="a_node3"><a xlink:title=" ">
<polygon fill="white" stroke="#bfbfbf" points="82.5,-168.5 82.5,-187.5 129.5,-187.5 129.5,-168.5 82.5,-168.5"/>
<text text-anchor="middle" x="106" y="-175.5" font-family="Helvetica,sans-Serif" font-size="10.00">cmath</text>
</a>
</g>
</g>
<!-- Node1&#45;&gt;Node3 -->
<g id="edge2" class="edge">
<title>Node1&#45;&gt;Node3</title>
<path fill="none" stroke="midnightblue" d="M135.22,-224.08C130.33,-216.53 123.17,-205.49 117.17,-196.23"/>
<polygon fill="midnightblue" stroke="midnightblue" points="120.05,-194.24 111.67,-187.75 114.17,-198.05 120.05,-194.24"/>
</g>
<!-- Node4 -->
<g id="node4" class="node">
<title>Node4</title>
<g id="a_node4"><a xlink:title=" ">
<polygon fill="white" stroke="#bfbfbf" points="148,-168.5 148,-187.5 204,-187.5 204,-168.5 148,-168.5"/>
<text text-anchor="middle" x="176" y="-175.5" font-family="Helvetica,sans-Serif" font-size="10.00">numeric</text>
</a>
</g>
</g>
<!-- Node1&#45;&gt;Node4 -->
<g id="edge3" class="edge">
<title>Node1&#45;&gt;Node4</title>
<path fill="none" stroke="midnightblue" d="M146.78,-224.08C151.67,-216.53 158.83,-205.49 164.83,-196.23"/>
<polygon fill="midnightblue" stroke="midnightblue" points="167.83,-198.05 170.33,-187.75 161.95,-194.24 167.83,-198.05"/>
</g>
<!-- Node5 -->
<g id="node5" class="node">
<title>Node5</title>
<g id="a_node5"><a xlink:href="utils_8h.html" target="_top" xlink:title=" ">
<polygon fill="white" stroke="black" points="222.5,-168.5 222.5,-187.5 269.5,-187.5 269.5,-168.5 222.5,-168.5"/>
<text text-anchor="middle" x="246" y="-175.5" font-family="Helvetica,sans-Serif" font-size="10.00">utils.h</text>
</a>
</g>
</g>
<!-- Node1&#45;&gt;Node5 -->
<g id="edge4" class="edge">
<title>Node1&#45;&gt;Node5</title>
<path fill="none" stroke="midnightblue" d="M157.87,-224.32C174.71,-215.66 200.81,-202.24 220.24,-192.25"/>
<polygon fill="midnightblue" stroke="midnightblue" points="221.88,-195.34 229.17,-187.65 218.68,-189.12 221.88,-195.34"/>
</g>
<!-- Node6 -->
<g id="node6" class="node">
<title>Node6</title>
<g id="a_node6"><a xlink:title=" ">
<polygon fill="white" stroke="#bfbfbf" points="191.5,-0.5 191.5,-19.5 238.5,-19.5 238.5,-0.5 191.5,-0.5"/>
<text text-anchor="middle" x="215" y="-7.5" font-family="Helvetica,sans-Serif" font-size="10.00">vector</text>
</a>
</g>
</g>
<!-- Node5&#45;&gt;Node6 -->
<g id="edge5" class="edge">
<title>Node5&#45;&gt;Node6</title>
<path fill="none" stroke="midnightblue" d="M222.33,-169.07C191.04,-158.36 139.21,-139.7 134,-132 107.99,-93.52 161.03,-47.95 193.06,-25.29"/>
<polygon fill="midnightblue" stroke="midnightblue" points="195.19,-28.07 201.45,-19.53 191.22,-22.3 195.19,-28.07"/>
</g>
<!-- Node7 -->
<g id="node7" class="node">
<title>Node7</title>
<g id="a_node7"><a xlink:title=" ">
<polygon fill="white" stroke="#bfbfbf" points="143,-112.5 143,-131.5 187,-131.5 187,-112.5 143,-112.5"/>
<text text-anchor="middle" x="165" y="-119.5" font-family="Helvetica,sans-Serif" font-size="10.00">string</text>
</a>
</g>
</g>
<!-- Node5&#45;&gt;Node7 -->
<g id="edge6" class="edge">
<title>Node5&#45;&gt;Node7</title>
<path fill="none" stroke="midnightblue" d="M232.99,-168.32C220.47,-159.98 201.32,-147.21 186.53,-137.35"/>
<polygon fill="midnightblue" stroke="midnightblue" points="188.24,-134.29 177.98,-131.65 184.36,-140.11 188.24,-134.29"/>
</g>
<!-- Node8 -->
<g id="node8" class="node">
<title>Node8</title>
<g id="a_node8"><a xlink:href="parameters_8h.html" target="_top" xlink:title=" ">
<polygon fill="white" stroke="black" points="205,-112.5 205,-131.5 287,-131.5 287,-112.5 205,-112.5"/>
<text text-anchor="middle" x="246" y="-119.5" font-family="Helvetica,sans-Serif" font-size="10.00">parameters.h</text>
</a>
</g>
</g>
<!-- Node5&#45;&gt;Node8 -->
<g id="edge7" class="edge">
<title>Node5&#45;&gt;Node8</title>
<path fill="none" stroke="midnightblue" d="M246,-168.08C246,-161.01 246,-150.86 246,-141.99"/>
<polygon fill="midnightblue" stroke="midnightblue" points="249.5,-141.75 246,-131.75 242.5,-141.75 249.5,-141.75"/>
</g>
<!-- Node11 -->
<g id="node11" class="node">
<title>Node11</title>
<g id="a_node11"><a xlink:href="data_8h.html" target="_top" xlink:title=" ">
<polygon fill="white" stroke="black" points="305.5,-112.5 305.5,-131.5 352.5,-131.5 352.5,-112.5 305.5,-112.5"/>
<text text-anchor="middle" x="329" y="-119.5" font-family="Helvetica,sans-Serif" font-size="10.00">data.h</text>
</a>
</g>
</g>
<!-- Node5&#45;&gt;Node11 -->
<g id="edge12" class="edge">
<title>Node5&#45;&gt;Node11</title>
<path fill="none" stroke="midnightblue" d="M254.22,-168.32C265.45,-159.82 285.29,-146.73 301.82,-136.8"/>
<polygon fill="midnightblue" stroke="midnightblue" points="303.73,-139.73 310.59,-131.65 300.19,-133.69 303.73,-139.73"/>
</g>
<!-- Node8&#45;&gt;Node6 -->
<g id="edge9" class="edge">
<title>Node8&#45;&gt;Node6</title>
<path fill="none" stroke="midnightblue" d="M218.72,-112.45C201.71,-105.55 181.17,-93.97 171,-76 160.82,-58.03 178.12,-38.55 193.93,-25.65"/>
<polygon fill="midnightblue" stroke="midnightblue" points="196.09,-28.4 201.91,-19.55 191.84,-22.84 196.09,-28.4"/>
</g>
<!-- Node9 -->
<g id="node9" class="node">
<title>Node9</title>
<g id="a_node9"><a xlink:title=" ">
<polygon fill="white" stroke="#bfbfbf" points="180,-56.5 180,-75.5 238,-75.5 238,-56.5 180,-56.5"/>
<text text-anchor="middle" x="209" y="-63.5" font-family="Helvetica,sans-Serif" font-size="10.00">memory</text>
</a>
</g>
</g>
<!-- Node8&#45;&gt;Node9 -->
<g id="edge8" class="edge">
<title>Node8&#45;&gt;Node9</title>
<path fill="none" stroke="midnightblue" d="M239.89,-112.08C234.72,-104.53 227.15,-93.49 220.81,-84.23"/>
<polygon fill="midnightblue" stroke="midnightblue" points="223.54,-82.02 215,-75.75 217.76,-85.98 223.54,-82.02"/>
</g>
<!-- Node10 -->
<g id="node10" class="node">
<title>Node10</title>
<g id="a_node10"><a xlink:href="loss_8h.html" target="_top" xlink:title=" ">
<polygon fill="white" stroke="black" points="256.5,-56.5 256.5,-75.5 301.5,-75.5 301.5,-56.5 256.5,-56.5"/>
<text text-anchor="middle" x="279" y="-63.5" font-family="Helvetica,sans-Serif" font-size="10.00">loss.h</text>
</a>
</g>
</g>
<!-- Node8&#45;&gt;Node10 -->
<g id="edge10" class="edge">
<title>Node8&#45;&gt;Node10</title>
<path fill="none" stroke="midnightblue" d="M251.45,-112.08C256.01,-104.61 262.67,-93.72 268.29,-84.52"/>
<polygon fill="midnightblue" stroke="midnightblue" points="271.42,-86.11 273.65,-75.75 265.45,-82.46 271.42,-86.11"/>
</g>
<!-- Node10&#45;&gt;Node6 -->
<g id="edge11" class="edge">
<title>Node10&#45;&gt;Node6</title>
<path fill="none" stroke="midnightblue" d="M268.72,-56.32C259.16,-48.26 244.72,-36.08 233.22,-26.37"/>
<polygon fill="midnightblue" stroke="midnightblue" points="235.37,-23.61 225.47,-19.83 230.86,-28.96 235.37,-23.61"/>
</g>
<!-- Node11&#45;&gt;Node5 -->
<g id="edge15" class="edge">
<title>Node11&#45;&gt;Node5</title>
<path fill="none" stroke="midnightblue" d="M320.57,-131.83C309.3,-140.34 289.6,-153.34 273.17,-163.21"/>
<polygon fill="midnightblue" stroke="midnightblue" points="271.31,-160.25 264.45,-168.32 274.85,-166.28 271.31,-160.25"/>
</g>
<!-- Node11&#45;&gt;Node6 -->
<g id="edge13" class="edge">
<title>Node11&#45;&gt;Node6</title>
<path fill="none" stroke="midnightblue" d="M328.67,-112.37C327.71,-98.84 324.04,-72.46 310,-56 294.12,-37.39 268.82,-25.93 248.32,-19.24"/>
<polygon fill="midnightblue" stroke="midnightblue" points="249.29,-15.87 238.7,-16.32 247.26,-22.57 249.29,-15.87"/>
</g>
<!-- Node12 -->
<g id="node12" class="node">
<title>Node12</title>
<g id="a_node12"><a xlink:title=" ">
<polygon fill="white" stroke="#bfbfbf" points="358,-56.5 358,-75.5 390,-75.5 390,-56.5 358,-56.5"/>
<text text-anchor="middle" x="374" y="-63.5" font-family="Helvetica,sans-Serif" font-size="10.00">set</text>
</a>
</g>
</g>
<!-- Node11&#45;&gt;Node12 -->
<g id="edge14" class="edge">
<title>Node11&#45;&gt;Node12</title>
<path fill="none" stroke="midnightblue" d="M336.43,-112.08C342.85,-104.38 352.31,-93.03 360.12,-83.65"/>
<polygon fill="midnightblue" stroke="midnightblue" points="362.99,-85.67 366.71,-75.75 357.62,-81.19 362.99,-85.67"/>
</g>
</g>
</svg>
