<?xml version="1.0" encoding="UTF-8" standalone="no"?>
<!DOCTYPE svg PUBLIC "-//W3C//DTD SVG 1.1//EN"
 "http://www.w3.org/Graphics/SVG/1.1/DTD/svg11.dtd">
<!-- Generated by graphviz version 2.43.0 (0)
 -->
<!-- Title: base/include/gbdt/utils.h Pages: 1 -->
<svg width="271pt" height="196pt"
 viewBox="0.00 0.00 271.22 196.00" xmlns="http://www.w3.org/2000/svg" xmlns:xlink="http://www.w3.org/1999/xlink">
<g id="graph0" class="graph" transform="scale(1 1) rotate(0) translate(4 192)">
<title>base/include/gbdt/utils.h</title>
<polygon fill="white" stroke="transparent" points="-4,4 -4,-192 267.22,-192 267.22,4 -4,4"/>
<!-- Node1 -->
<g id="node1" class="node">
<title>Node1</title>
<g id="a_node1"><a xlink:title=" ">
<polygon fill="#bfbfbf" stroke="black" points="51.22,-168.5 51.22,-187.5 187.22,-187.5 187.22,-168.5 51.22,-168.5"/>
<text text-anchor="middle" x="119.22" y="-175.5" font-family="Helvetica,sans-Serif" font-size="10.00">base/include/gbdt/utils.h</text>
</a>
</g>
</g>
<!-- Node2 -->
<g id="node2" class="node">
<title>Node2</title>
<g id="a_node2"><a xlink:title=" ">
<polygon fill="white" stroke="#bfbfbf" points="64.72,-0.5 64.72,-19.5 111.72,-19.5 111.72,-0.5 64.72,-0.5"/>
<text text-anchor="middle" x="88.22" y="-7.5" font-family="Helvetica,sans-Serif" font-size="10.00">vector</text>
</a>
</g>
</g>
<!-- Node1&#45;&gt;Node2 -->
<g id="edge1" class="edge">
<title>Node1&#45;&gt;Node2</title>
<path fill="none" stroke="midnightblue" d="M64.08,-168.42C42.62,-162.09 20.13,-151.1 7.22,-132 -18.79,-93.52 34.25,-47.95 66.28,-25.29"/>
<polygon fill="midnightblue" stroke="midnightblue" points="68.41,-28.07 74.67,-19.53 64.44,-22.3 68.41,-28.07"/>
</g>
<!-- Node3 -->
<g id="node3" class="node">
<title>Node3</title>
<g id="a_node3"><a xlink:title=" ">
<polygon fill="white" stroke="#bfbfbf" points="16.22,-112.5 16.22,-131.5 60.22,-131.5 60.22,-112.5 16.22,-112.5"/>
<text text-anchor="middle" x="38.22" y="-119.5" font-family="Helvetica,sans-Serif" font-size="10.00">string</text>
</a>
</g>
</g>
<!-- Node1&#45;&gt;Node3 -->
<g id="edge2" class="edge">
<title>Node1&#45;&gt;Node3</title>
<path fill="none" stroke="midnightblue" d="M106.21,-168.32C93.69,-159.98 74.54,-147.21 59.75,-137.35"/>
<polygon fill="midnightblue" stroke="midnightblue" points="61.46,-134.29 51.2,-131.65 57.58,-140.11 61.46,-134.29"/>
</g>
<!-- Node4 -->
<g id="node4" class="node">
<title>Node4</title>
<g id="a_node4"><a xlink:href="parameters_8h.html" target="_top" xlink:title=" ">
<polygon fill="white" stroke="black" points="78.22,-112.5 78.22,-131.5 160.22,-131.5 160.22,-112.5 78.22,-112.5"/>
<text text-anchor="middle" x="119.22" y="-119.5" font-family="Helvetica,sans-Serif" font-size="10.00">parameters.h</text>
</a>
</g>
</g>
<!-- Node1&#45;&gt;Node4 -->
<g id="edge3" class="edge">
<title>Node1&#45;&gt;Node4</title>
<path fill="none" stroke="midnightblue" d="M119.22,-168.08C119.22,-161.01 119.22,-150.86 119.22,-141.99"/>
<polygon fill="midnightblue" stroke="midnightblue" points="122.72,-141.75 119.22,-131.75 115.72,-141.75 122.72,-141.75"/>
</g>
<!-- Node7 -->
<g id="node7" class="node">
<title>Node7</title>
<g id="a_node7"><a xlink:href="data_8h.html" target="_top" xlink:title=" ">
<polygon fill="white" stroke="black" points="178.72,-112.5 178.72,-131.5 225.72,-131.5 225.72,-112.5 178.72,-112.5"/>
<text text-anchor="middle" x="202.22" y="-119.5" font-family="Helvetica,sans-Serif" font-size="10.00">data.h</text>
</a>
</g>
</g>
<!-- Node1&#45;&gt;Node7 -->
<g id="edge8" class="edge">
<title>Node1&#45;&gt;Node7</title>
<path fill="none" stroke="midnightblue" d="M127.44,-168.32C138.67,-159.82 158.5,-146.73 175.04,-136.8"/>
<polygon fill="midnightblue" stroke="midnightblue" points="176.95,-139.73 183.81,-131.65 173.41,-133.69 176.95,-139.73"/>
</g>
<!-- Node4&#45;&gt;Node2 -->
<g id="edge5" class="edge">
<title>Node4&#45;&gt;Node2</title>
<path fill="none" stroke="midnightblue" d="M91.94,-112.45C74.93,-105.55 54.39,-93.97 44.22,-76 34.04,-58.03 51.34,-38.55 67.15,-25.65"/>
<polygon fill="midnightblue" stroke="midnightblue" points="69.31,-28.4 75.13,-19.55 65.06,-22.84 69.31,-28.4"/>
</g>
<!-- Node5 -->
<g id="node5" class="node">
<title>Node5</title>
<g id="a_node5"><a xlink:title=" ">
<polygon fill="white" stroke="#bfbfbf" points="53.22,-56.5 53.22,-75.5 111.22,-75.5 111.22,-56.5 53.22,-56.5"/>
<text text-anchor="middle" x="82.22" y="-63.5" font-family="Helvetica,sans-Serif" font-size="10.00">memory</text>
</a>
</g>
</g>
<!-- Node4&#45;&gt;Node5 -->
<g id="edge4" class="edge">
<title>Node4&#45;&gt;Node5</title>
<path fill="none" stroke="midnightblue" d="M113.11,-112.08C107.94,-104.53 100.37,-93.49 94.02,-84.23"/>
<polygon fill="midnightblue" stroke="midnightblue" points="96.76,-82.02 88.22,-75.75 90.98,-85.98 96.76,-82.02"/>
</g>
<!-- Node6 -->
<g id="node6" class="node">
<title>Node6</title>
<g id="a_node6"><a xlink:href="loss_8h.html" target="_top" xlink:title=" ">
<polygon fill="white" stroke="black" points="129.72,-56.5 129.72,-75.5 174.72,-75.5 174.72,-56.5 129.72,-56.5"/>
<text text-anchor="middle" x="152.22" y="-63.5" font-family="Helvetica,sans-Serif" font-size="10.00">loss.h</text>
</a>
</g>
</g>
<!-- Node4&#45;&gt;Node6 -->
<g id="edge6" class="edge">
<title>Node4&#45;&gt;Node6</title>
<path fill="none" stroke="midnightblue" d="M124.67,-112.08C129.23,-104.61 135.89,-93.72 141.51,-84.52"/>
<polygon fill="midnightblue" stroke="midnightblue" points="144.64,-86.11 146.87,-75.75 138.67,-82.46 144.64,-86.11"/>
</g>
<!-- Node6&#45;&gt;Node2 -->
<g id="edge7" class="edge">
<title>Node6&#45;&gt;Node2</title>
<path fill="none" stroke="midnightblue" d="M141.94,-56.32C132.38,-48.26 117.94,-36.08 106.43,-26.37"/>
<polygon fill="midnightblue" stroke="midnightblue" points="108.59,-23.61 98.69,-19.83 104.07,-28.96 108.59,-23.61"/>
</g>
<!-- Node7&#45;&gt;Node1 -->
<g id="edge11" class="edge">
<title>Node7&#45;&gt;Node1</title>
<path fill="none" stroke="midnightblue" d="M193.79,-131.83C182.52,-140.34 162.82,-153.34 146.39,-163.21"/>
<polygon fill="midnightblue" stroke="midnightblue" points="144.52,-160.25 137.67,-168.32 148.07,-166.28 144.52,-160.25"/>
</g>
<!-- Node7&#45;&gt;Node2 -->
<g id="edge9" class="edge">
<title>Node7&#45;&gt;Node2</title>
<path fill="none" stroke="midnightblue" d="M201.89,-112.37C200.93,-98.84 197.26,-72.46 183.22,-56 167.34,-37.39 142.04,-25.93 121.54,-19.24"/>
<polygon fill="midnightblue" stroke="midnightblue" points="122.51,-15.87 111.92,-16.32 120.48,-22.57 122.51,-15.87"/>
</g>
<!-- Node8 -->
<g id="node8" class="node">
<title>Node8</title>
<g id="a_node8"><a xlink:title=" ">
<polygon fill="white" stroke="#bfbfbf" points="231.22,-56.5 231.22,-75.5 263.22,-75.5 263.22,-56.5 231.22,-56.5"/>
<text text-anchor="middle" x="247.22" y="-63.5" font-family="Helvetica,sans-Serif" font-size="10.00">set</text>
</a>
</g>
</g>
<!-- Node7&#45;&gt;Node8 -->
<g id="edge10" class="edge">
<title>Node7&#45;&gt;Node8</title>
<path fill="none" stroke="midnightblue" d="M209.65,-112.08C216.07,-104.38 225.52,-93.03 233.34,-83.65"/>
<polygon fill="midnightblue" stroke="midnightblue" points="236.21,-85.67 239.93,-75.75 230.84,-81.19 236.21,-85.67"/>
</g>
</g>
</svg>
