<?xml version="1.0" encoding="UTF-8" standalone="no"?>
<!DOCTYPE svg PUBLIC "-//W3C//DTD SVG 1.1//EN"
 "http://www.w3.org/Graphics/SVG/1.1/DTD/svg11.dtd">
<!-- Generated by graphviz version 2.40.1 (20161225.0304)
 -->
<!-- Title: DPEnsemble::train Pages: 1 -->
<svg width="882pt" height="165pt"
 viewBox="0.00 0.00 882.00 165.00" xmlns="http://www.w3.org/2000/svg" xmlns:xlink="http://www.w3.org/1999/xlink">
<g id="graph0" class="graph" transform="scale(1 1) rotate(0) translate(4 161)">
<title>DPEnsemble::train</title>
<polygon fill="#ffffff" stroke="transparent" points="-4,4 -4,-161 878,-161 878,4 -4,4"/>
<!-- Node11 -->
<g id="node1" class="node">
<title>Node11</title>
<polygon fill="#bfbfbf" stroke="#000000" points="0,-69 0,-88 99,-88 99,-69 0,-69"/>
<text text-anchor="middle" x="49.5" y="-76" font-family="Helvetica,sans-Serif" font-size="10.00" fill="#000000">DPEnsemble::train</text>
</g>
<!-- Node12 -->
<g id="node2" class="node">
<title>Node12</title>
<g id="a_node2"><a xlink:href="class_d_p_ensemble.html#a2b446f94f9da238cae22580813c91196" target="_top" xlink:title="DPEnsemble::update\l_gradients">
<polygon fill="#ffffff" stroke="#000000" points="138.5,-126.5 138.5,-156.5 248.5,-156.5 248.5,-126.5 138.5,-126.5"/>
<text text-anchor="start" x="146.5" y="-144.5" font-family="Helvetica,sans-Serif" font-size="10.00" fill="#000000">DPEnsemble::update</text>
<text text-anchor="middle" x="193.5" y="-133.5" font-family="Helvetica,sans-Serif" font-size="10.00" fill="#000000">_gradients</text>
</a>
</g>
</g>
<!-- Node11&#45;&gt;Node12 -->
<g id="edge1" class="edge">
<title>Node11&#45;&gt;Node12</title>
<path fill="none" stroke="#191970" d="M70.8964,-88.1116C88.1681,-95.8457 113.1106,-106.9591 135,-116.5 139.3885,-118.4128 143.9679,-120.3946 148.5478,-122.3671"/>
<polygon fill="#191970" stroke="#191970" points="147.3186,-125.6482 157.8883,-126.3779 150.0806,-119.2162 147.3186,-125.6482"/>
</g>
<!-- Node16 -->
<g id="node6" class="node">
<title>Node16</title>
<g id="a_node6"><a xlink:href="struct_data_set.html#afa2b0dcbd62ba4bf49ea37a1dcefeb83" target="_top" xlink:title="DataSet::get_subset">
<polygon fill="#ffffff" stroke="#000000" points="140,-88 140,-107 247,-107 247,-88 140,-88"/>
<text text-anchor="middle" x="193.5" y="-95" font-family="Helvetica,sans-Serif" font-size="10.00" fill="#000000">DataSet::get_subset</text>
</a>
</g>
</g>
<!-- Node11&#45;&gt;Node16 -->
<g id="edge5" class="edge">
<title>Node11&#45;&gt;Node16</title>
<path fill="none" stroke="#191970" d="M99.0566,-85.0387C108.9413,-86.343 119.4531,-87.7299 129.7377,-89.0869"/>
<polygon fill="#191970" stroke="#191970" points="129.543,-92.5915 139.9149,-90.4297 130.4587,-85.6516 129.543,-92.5915"/>
</g>
<!-- Node17 -->
<g id="node7" class="node">
<title>Node17</title>
<g id="a_node7"><a xlink:href="class_d_p_tree.html#a82b9507f4f5d056b98f40871b304f943" target="_top" xlink:title="DPTree::fit">
<polygon fill="#ffffff" stroke="#000000" points="161,-50 161,-69 226,-69 226,-50 161,-50"/>
<text text-anchor="middle" x="193.5" y="-57" font-family="Helvetica,sans-Serif" font-size="10.00" fill="#000000">DPTree::fit</text>
</a>
</g>
</g>
<!-- Node11&#45;&gt;Node17 -->
<g id="edge6" class="edge">
<title>Node11&#45;&gt;Node17</title>
<path fill="none" stroke="#191970" d="M99.0566,-71.9613C115.7409,-69.7599 134.2116,-67.3228 150.361,-65.192"/>
<polygon fill="#191970" stroke="#191970" points="151.1399,-68.6196 160.5961,-63.8415 150.2241,-61.6798 151.1399,-68.6196"/>
</g>
<!-- Node25 -->
<g id="node15" class="node">
<title>Node25</title>
<g id="a_node15"><a xlink:href="struct_data_set.html#a30a01ecb39d3bfc9eb5e5923ed6f5d43" target="_top" xlink:title="DataSet::remove_rows">
<polygon fill="#ffffff" stroke="#000000" points="135,-12 135,-31 252,-31 252,-12 135,-12"/>
<text text-anchor="middle" x="193.5" y="-19" font-family="Helvetica,sans-Serif" font-size="10.00" fill="#000000">DataSet::remove_rows</text>
</a>
</g>
</g>
<!-- Node11&#45;&gt;Node25 -->
<g id="edge15" class="edge">
<title>Node11&#45;&gt;Node25</title>
<path fill="none" stroke="#191970" d="M69.2931,-68.9977C86.4661,-60.9241 112.0976,-49.2812 135,-40.5 140.5571,-38.3693 146.4673,-36.2658 152.3135,-34.2786"/>
<polygon fill="#191970" stroke="#191970" points="153.6284,-37.5301 162.0182,-31.0599 151.4248,-30.886 153.6284,-37.5301"/>
</g>
<!-- Node13 -->
<g id="node3" class="node">
<title>Node13</title>
<g id="a_node3"><a xlink:href="class_d_p_ensemble.html#a4c4302580bdbeaa4ca2c2091cad018c5" target="_top" xlink:title="DPEnsemble::predict\l_ensemble">
<polygon fill="#ffffff" stroke="#000000" points="293.5,-126.5 293.5,-156.5 403.5,-156.5 403.5,-126.5 293.5,-126.5"/>
<text text-anchor="start" x="301.5" y="-144.5" font-family="Helvetica,sans-Serif" font-size="10.00" fill="#000000">DPEnsemble::predict</text>
<text text-anchor="middle" x="348.5" y="-133.5" font-family="Helvetica,sans-Serif" font-size="10.00" fill="#000000">_ensemble</text>
</a>
</g>
</g>
<!-- Node12&#45;&gt;Node13 -->
<g id="edge2" class="edge">
<title>Node12&#45;&gt;Node13</title>
<path fill="none" stroke="#191970" d="M248.5836,-141.5C259.8228,-141.5 271.7501,-141.5 283.3032,-141.5"/>
<polygon fill="#191970" stroke="#191970" points="283.3328,-145.0001 293.3328,-141.5 283.3327,-138.0001 283.3328,-145.0001"/>
</g>
<!-- Node14 -->
<g id="node4" class="node">
<title>Node14</title>
<g id="a_node4"><a xlink:href="class_d_p_tree.html#a1e28d69924f6d57ea7e57ad8ee138f42" target="_top" xlink:title="DPTree::predict_tree">
<polygon fill="#ffffff" stroke="#000000" points="455.5,-132 455.5,-151 562.5,-151 562.5,-132 455.5,-132"/>
<text text-anchor="middle" x="509" y="-139" font-family="Helvetica,sans-Serif" font-size="10.00" fill="#000000">DPTree::predict_tree</text>
</a>
</g>
</g>
<!-- Node13&#45;&gt;Node14 -->
<g id="edge3" class="edge">
<title>Node13&#45;&gt;Node14</title>
<path fill="none" stroke="#191970" d="M403.735,-141.5C417.0306,-141.5 431.3441,-141.5 445.002,-141.5"/>
<polygon fill="#191970" stroke="#191970" points="445.2909,-145.0001 455.2908,-141.5 445.2908,-138.0001 445.2909,-145.0001"/>
</g>
<!-- Node15 -->
<g id="node5" class="node">
<title>Node15</title>
<g id="a_node5"><a xlink:href="class_d_p_tree.html#ad8ad2f100c65b9961bd6b2c4af46636c" target="_top" xlink:title="DPTree::_predict">
<polygon fill="#ffffff" stroke="#000000" points="622,-132 622,-151 713,-151 713,-132 622,-132"/>
<text text-anchor="middle" x="667.5" y="-139" font-family="Helvetica,sans-Serif" font-size="10.00" fill="#000000">DPTree::_predict</text>
</a>
</g>
</g>
<!-- Node14&#45;&gt;Node15 -->
<g id="edge4" class="edge">
<title>Node14&#45;&gt;Node15</title>
<path fill="none" stroke="#191970" d="M562.6609,-141.5C578.4265,-141.5 595.7057,-141.5 611.6072,-141.5"/>
<polygon fill="#191970" stroke="#191970" points="611.8281,-145.0001 621.828,-141.5 611.828,-138.0001 611.8281,-145.0001"/>
</g>
<!-- Node18 -->
<g id="node8" class="node">
<title>Node18</title>
<g id="a_node8"><a xlink:href="class_d_p_tree.html#a54cea43a3929249de4be25f607a16339" target="_top" xlink:title="DPTree::make_tree_dfs">
<polygon fill="#ffffff" stroke="#000000" points="288,-50 288,-69 409,-69 409,-50 288,-50"/>
<text text-anchor="middle" x="348.5" y="-57" font-family="Helvetica,sans-Serif" font-size="10.00" fill="#000000">DPTree::make_tree_dfs</text>
</a>
</g>
</g>
<!-- Node17&#45;&gt;Node18 -->
<g id="edge7" class="edge">
<title>Node17&#45;&gt;Node18</title>
<path fill="none" stroke="#191970" d="M226.3715,-59.5C241.3029,-59.5 259.587,-59.5 277.4151,-59.5"/>
<polygon fill="#191970" stroke="#191970" points="277.8307,-63.0001 287.8306,-59.5 277.8306,-56.0001 277.8307,-63.0001"/>
</g>
<!-- Node24 -->
<g id="node14" class="node">
<title>Node24</title>
<g id="a_node14"><a xlink:href="class_d_p_tree.html#a468d249a3e55f1527e50daf13e550c79" target="_top" xlink:title="DPTree::add_laplacian\l_noise">
<polygon fill="#ffffff" stroke="#000000" points="290.5,-.5 290.5,-30.5 406.5,-30.5 406.5,-.5 290.5,-.5"/>
<text text-anchor="start" x="298.5" y="-18.5" font-family="Helvetica,sans-Serif" font-size="10.00" fill="#000000">DPTree::add_laplacian</text>
<text text-anchor="middle" x="348.5" y="-7.5" font-family="Helvetica,sans-Serif" font-size="10.00" fill="#000000">_noise</text>
</a>
</g>
</g>
<!-- Node17&#45;&gt;Node24 -->
<g id="edge14" class="edge">
<title>Node17&#45;&gt;Node24</title>
<path fill="none" stroke="#191970" d="M226.3715,-50.1687C243.6308,-45.2693 265.3695,-39.0983 285.7058,-33.3254"/>
<polygon fill="#191970" stroke="#191970" points="286.8866,-36.6286 295.5507,-30.5308 284.975,-29.8947 286.8866,-36.6286"/>
</g>
<!-- Node19 -->
<g id="node9" class="node">
<title>Node19</title>
<g id="a_node9"><a xlink:href="class_d_p_tree.html#a3a716a075edfae470e0fe7511634e922" target="_top" xlink:title="DPTree::make_leaf_node">
<polygon fill="#ffffff" stroke="#000000" points="445,-88 445,-107 573,-107 573,-88 445,-88"/>
<text text-anchor="middle" x="509" y="-95" font-family="Helvetica,sans-Serif" font-size="10.00" fill="#000000">DPTree::make_leaf_node</text>
</a>
</g>
</g>
<!-- Node18&#45;&gt;Node19 -->
<g id="edge8" class="edge">
<title>Node18&#45;&gt;Node19</title>
<path fill="none" stroke="#191970" d="M389.0009,-69.089C410.1806,-74.1035 436.3022,-80.2881 458.7604,-85.6053"/>
<polygon fill="#191970" stroke="#191970" points="458.2529,-89.0818 468.7903,-87.9799 459.8657,-82.2701 458.2529,-89.0818"/>
</g>
<!-- Node20 -->
<g id="node10" class="node">
<title>Node20</title>
<g id="a_node10"><a xlink:href="class_d_p_tree.html#ad7f8755be37ad10cf104fba2076dce5e" target="_top" xlink:title="DPTree::find_best_split">
<polygon fill="#ffffff" stroke="#000000" points="449.5,-50 449.5,-69 568.5,-69 568.5,-50 449.5,-50"/>
<text text-anchor="middle" x="509" y="-57" font-family="Helvetica,sans-Serif" font-size="10.00" fill="#000000">DPTree::find_best_split</text>
</a>
</g>
</g>
<!-- Node18&#45;&gt;Node20 -->
<g id="edge9" class="edge">
<title>Node18&#45;&gt;Node20</title>
<path fill="none" stroke="#191970" d="M409.1782,-59.5C418.9291,-59.5 429.0906,-59.5 439.0378,-59.5"/>
<polygon fill="#191970" stroke="#191970" points="439.2999,-63.0001 449.2999,-59.5 439.2999,-56.0001 439.2999,-63.0001"/>
</g>
<!-- Node22 -->
<g id="node12" class="node">
<title>Node22</title>
<g id="a_node12"><a xlink:href="class_d_p_tree.html#af16f3e0373e606fe42b2104890b2d036" target="_top" xlink:title="DPTree::samples_left\l_right_partition">
<polygon fill="#ffffff" stroke="#000000" points="762,-44.5 762,-74.5 874,-74.5 874,-44.5 762,-44.5"/>
<text text-anchor="start" x="770" y="-62.5" font-family="Helvetica,sans-Serif" font-size="10.00" fill="#000000">DPTree::samples_left</text>
<text text-anchor="middle" x="818" y="-51.5" font-family="Helvetica,sans-Serif" font-size="10.00" fill="#000000">_right_partition</text>
</a>
</g>
</g>
<!-- Node18&#45;&gt;Node22 -->
<g id="edge13" class="edge">
<title>Node18&#45;&gt;Node22</title>
<path fill="none" stroke="#191970" d="M389.5991,-49.9222C406.6446,-46.3386 426.6817,-42.625 445,-40.5 569.0853,-26.1057 602.1803,-17.9763 726,-34.5 737.92,-36.0907 750.4845,-38.7923 762.3675,-41.8459"/>
<polygon fill="#191970" stroke="#191970" points="761.5941,-45.2622 772.1598,-44.4772 763.4106,-38.502 761.5941,-45.2622"/>
</g>
<!-- Node21 -->
<g id="node11" class="node">
<title>Node21</title>
<g id="a_node11"><a xlink:href="class_d_p_tree.html#ab9426a6ac2e5122e29ecbb6e9c4cd050" target="_top" xlink:title="DPTree::compute_gain">
<polygon fill="#ffffff" stroke="#000000" points="609,-94 609,-113 726,-113 726,-94 609,-94"/>
<text text-anchor="middle" x="667.5" y="-101" font-family="Helvetica,sans-Serif" font-size="10.00" fill="#000000">DPTree::compute_gain</text>
</a>
</g>
</g>
<!-- Node20&#45;&gt;Node21 -->
<g id="edge10" class="edge">
<title>Node20&#45;&gt;Node21</title>
<path fill="none" stroke="#191970" d="M543.3921,-69.0473C566.8624,-75.5627 598.1593,-84.2508 623.4523,-91.2722"/>
<polygon fill="#191970" stroke="#191970" points="622.6031,-94.6688 633.175,-93.9713 624.4756,-87.9239 622.6031,-94.6688"/>
</g>
<!-- Node23 -->
<g id="node13" class="node">
<title>Node23</title>
<g id="a_node13"><a xlink:href="class_d_p_tree.html#a7ce368c3888736d660dcf09587df4512" target="_top" xlink:title="DPTree::exponential\l_mechanism">
<polygon fill="#ffffff" stroke="#000000" points="614.5,-44.5 614.5,-74.5 720.5,-74.5 720.5,-44.5 614.5,-44.5"/>
<text text-anchor="start" x="622.5" y="-62.5" font-family="Helvetica,sans-Serif" font-size="10.00" fill="#000000">DPTree::exponential</text>
<text text-anchor="middle" x="667.5" y="-51.5" font-family="Helvetica,sans-Serif" font-size="10.00" fill="#000000">_mechanism</text>
</a>
</g>
</g>
<!-- Node20&#45;&gt;Node23 -->
<g id="edge12" class="edge">
<title>Node20&#45;&gt;Node23</title>
<path fill="none" stroke="#191970" d="M568.9221,-59.5C580.4486,-59.5 592.5561,-59.5 604.1861,-59.5"/>
<polygon fill="#191970" stroke="#191970" points="604.2568,-63.0001 614.2567,-59.5 604.2567,-56.0001 604.2568,-63.0001"/>
</g>
<!-- Node21&#45;&gt;Node22 -->
<g id="edge11" class="edge">
<title>Node21&#45;&gt;Node22</title>
<path fill="none" stroke="#191970" d="M700.1563,-93.9527C716.7226,-89.1094 737.3955,-83.0654 756.7806,-77.398"/>
<polygon fill="#191970" stroke="#191970" points="757.8536,-80.7309 766.4696,-74.5654 755.8892,-74.0122 757.8536,-80.7309"/>
</g>
</g>
</svg>
