<?xml version="1.0" encoding="UTF-8" standalone="no"?>
<!DOCTYPE svg PUBLIC "-//W3C//DTD SVG 1.1//EN"
 "http://www.w3.org/Graphics/SVG/1.1/DTD/svg11.dtd">
<!-- Generated by graphviz version 2.40.1 (20161225.0304)
 -->
<!-- Title: DPTree::samples_left_right_partition Pages: 1 -->
<svg width="895pt" height="53pt"
 viewBox="0.00 0.00 895.00 52.50" xmlns="http://www.w3.org/2000/svg" xmlns:xlink="http://www.w3.org/1999/xlink">
<g id="graph0" class="graph" transform="scale(1 1) rotate(0) translate(4 48.5)">
<title>DPTree::samples_left_right_partition</title>
<polygon fill="#ffffff" stroke="transparent" points="-4,4 -4,-48.5 891,-48.5 891,4 -4,4"/>
<!-- Node75 -->
<g id="node1" class="node">
<title>Node75</title>
<polygon fill="#bfbfbf" stroke="#000000" points="0,-14 0,-44 112,-44 112,-14 0,-14"/>
<text text-anchor="start" x="8" y="-32" font-family="Helvetica,sans-Serif" font-size="10.00" fill="#000000">DPTree::samples_left</text>
<text text-anchor="middle" x="56" y="-21" font-family="Helvetica,sans-Serif" font-size="10.00" fill="#000000">_right_partition</text>
</g>
<!-- Node76 -->
<g id="node2" class="node">
<title>Node76</title>
<g id="a_node2"><a xlink:href="class_d_p_tree.html#a54cea43a3929249de4be25f607a16339" target="_top" xlink:title="DPTree::make_tree_dfs">
<polygon fill="#ffffff" stroke="#000000" points="456,-19.5 456,-38.5 577,-38.5 577,-19.5 456,-19.5"/>
<text text-anchor="middle" x="516.5" y="-26.5" font-family="Helvetica,sans-Serif" font-size="10.00" fill="#000000">DPTree::make_tree_dfs</text>
</a>
</g>
</g>
<!-- Node75&#45;&gt;Node76 -->
<g id="edge1" class="edge">
<title>Node75&#45;&gt;Node76</title>
<path fill="none" stroke="#191970" d="M122.0148,-29C211.3004,-29 369.3033,-29 455.775,-29"/>
<polygon fill="#191970" stroke="#191970" points="122.006,-25.5001 112.006,-29 122.0059,-32.5001 122.006,-25.5001"/>
</g>
<!-- Node80 -->
<g id="node6" class="node">
<title>Node80</title>
<g id="a_node6"><a xlink:href="class_d_p_tree.html#ab9426a6ac2e5122e29ecbb6e9c4cd050" target="_top" xlink:title="DPTree::compute_gain">
<polygon fill="#ffffff" stroke="#000000" points="148,-.5 148,-19.5 265,-19.5 265,-.5 148,-.5"/>
<text text-anchor="middle" x="206.5" y="-7.5" font-family="Helvetica,sans-Serif" font-size="10.00" fill="#000000">DPTree::compute_gain</text>
</a>
</g>
</g>
<!-- Node75&#45;&gt;Node80 -->
<g id="edge5" class="edge">
<title>Node75&#45;&gt;Node80</title>
<path fill="none" stroke="#191970" d="M122.0427,-20.6624C130.6503,-19.5757 139.421,-18.4684 147.8953,-17.3986"/>
<polygon fill="#191970" stroke="#191970" points="121.5235,-17.2001 112.0406,-21.9251 122.4003,-24.1449 121.5235,-17.2001"/>
</g>
<!-- Node77 -->
<g id="node3" class="node">
<title>Node77</title>
<g id="a_node3"><a xlink:href="class_d_p_tree.html#a82b9507f4f5d056b98f40871b304f943" target="_top" xlink:title="DPTree::fit">
<polygon fill="#ffffff" stroke="#000000" points="613,-19.5 613,-38.5 678,-38.5 678,-19.5 613,-19.5"/>
<text text-anchor="middle" x="645.5" y="-26.5" font-family="Helvetica,sans-Serif" font-size="10.00" fill="#000000">DPTree::fit</text>
</a>
</g>
</g>
<!-- Node76&#45;&gt;Node77 -->
<g id="edge2" class="edge">
<title>Node76&#45;&gt;Node77</title>
<path fill="none" stroke="#191970" d="M587.3052,-29C596.207,-29 604.9471,-29 612.8384,-29"/>
<polygon fill="#191970" stroke="#191970" points="587.2227,-25.5001 577.2226,-29 587.2226,-32.5001 587.2227,-25.5001"/>
</g>
<!-- Node78 -->
<g id="node4" class="node">
<title>Node78</title>
<g id="a_node4"><a xlink:href="class_d_p_ensemble.html#a1652b5fde834bfb18416ebf438d3e10a" target="_top" xlink:title="DPEnsemble::train">
<polygon fill="#ffffff" stroke="#000000" points="714,-19.5 714,-38.5 813,-38.5 813,-19.5 714,-19.5"/>
<text text-anchor="middle" x="763.5" y="-26.5" font-family="Helvetica,sans-Serif" font-size="10.00" fill="#000000">DPEnsemble::train</text>
</a>
</g>
</g>
<!-- Node77&#45;&gt;Node78 -->
<g id="edge3" class="edge">
<title>Node77&#45;&gt;Node78</title>
<path fill="none" stroke="#191970" d="M688.2567,-29C696.5489,-29 705.3053,-29 713.798,-29"/>
<polygon fill="#191970" stroke="#191970" points="688.0564,-25.5001 678.0564,-29 688.0563,-32.5001 688.0564,-25.5001"/>
</g>
<!-- Node79 -->
<g id="node5" class="node">
<title>Node79</title>
<g id="a_node5"><a xlink:href="main_8cpp.html#a3c04138a5bfe5d72780bb7e82a18e627" target="_top" xlink:title="main">
<polygon fill="#ffffff" stroke="#000000" points="849,-19.5 849,-38.5 887,-38.5 887,-19.5 849,-19.5"/>
<text text-anchor="middle" x="868" y="-26.5" font-family="Helvetica,sans-Serif" font-size="10.00" fill="#000000">main</text>
</a>
</g>
</g>
<!-- Node78&#45;&gt;Node79 -->
<g id="edge4" class="edge">
<title>Node78&#45;&gt;Node79</title>
<path fill="none" stroke="#191970" d="M823.3404,-29C832.5271,-29 841.394,-29 848.7722,-29"/>
<polygon fill="#191970" stroke="#191970" points="823.3016,-25.5001 813.3016,-29 823.3015,-32.5001 823.3016,-25.5001"/>
</g>
<!-- Node81 -->
<g id="node7" class="node">
<title>Node81</title>
<g id="a_node7"><a xlink:href="class_d_p_tree.html#ad7f8755be37ad10cf104fba2076dce5e" target="_top" xlink:title="DPTree::find_best_split">
<polygon fill="#ffffff" stroke="#000000" points="301,-.5 301,-19.5 420,-19.5 420,-.5 301,-.5"/>
<text text-anchor="middle" x="360.5" y="-7.5" font-family="Helvetica,sans-Serif" font-size="10.00" fill="#000000">DPTree::find_best_split</text>
</a>
</g>
</g>
<!-- Node80&#45;&gt;Node81 -->
<g id="edge6" class="edge">
<title>Node80&#45;&gt;Node81</title>
<path fill="none" stroke="#191970" d="M275.1743,-10C283.7821,-10 292.5304,-10 300.982,-10"/>
<polygon fill="#191970" stroke="#191970" points="275.1601,-6.5001 265.1601,-10 275.1601,-13.5001 275.1601,-6.5001"/>
</g>
<!-- Node81&#45;&gt;Node76 -->
<g id="edge7" class="edge">
<title>Node81&#45;&gt;Node76</title>
<path fill="none" stroke="#191970" d="M430.5419,-18.5307C438.9557,-19.5555 447.4943,-20.5955 455.7606,-21.6023"/>
<polygon fill="#191970" stroke="#191970" points="430.7174,-15.0263 420.3675,-17.2916 429.871,-21.975 430.7174,-15.0263"/>
</g>
</g>
</svg>
