<?xml version="1.0" encoding="UTF-8" standalone="no"?>
<!DOCTYPE svg PUBLIC "-//W3C//DTD SVG 1.1//EN"
 "http://www.w3.org/Graphics/SVG/1.1/DTD/svg11.dtd">
<!-- Generated by graphviz version 2.40.1 (20161225.0304)
 -->
<!-- Title: DPTree::make_tree_DFS Pages: 1 -->
<svg width="601pt" height="154pt"
 viewBox="0.00 0.00 601.00 154.00" xmlns="http://www.w3.org/2000/svg" xmlns:xlink="http://www.w3.org/1999/xlink">
<g id="graph0" class="graph" transform="scale(1 1) rotate(0) translate(4 150)">
<title>DPTree::make_tree_DFS</title>
<polygon fill="#ffffff" stroke="transparent" points="-4,4 -4,-150 597,-150 597,4 -4,4"/>
<!-- Node43 -->
<g id="node1" class="node">
<title>Node43</title>
<polygon fill="#bfbfbf" stroke="#000000" points="0,-57.5 0,-76.5 128,-76.5 128,-57.5 0,-57.5"/>
<text text-anchor="middle" x="64" y="-64.5" font-family="Helvetica,sans-Serif" font-size="10.00" fill="#000000">DPTree::make_tree_DFS</text>
</g>
<!-- Node44 -->
<g id="node2" class="node">
<title>Node44</title>
<g id="a_node2"><a xlink:href="class_d_p_tree.html#a3a716a075edfae470e0fe7511634e922" target="_top" xlink:title="DPTree::make_leaf_node">
<polygon fill="#ffffff" stroke="#000000" points="164,-117.5 164,-136.5 292,-136.5 292,-117.5 164,-117.5"/>
<text text-anchor="middle" x="228" y="-124.5" font-family="Helvetica,sans-Serif" font-size="10.00" fill="#000000">DPTree::make_leaf_node</text>
</a>
</g>
</g>
<!-- Node43&#45;&gt;Node44 -->
<g id="edge1" class="edge">
<title>Node43&#45;&gt;Node44</title>
<path fill="none" stroke="#191970" d="M85.6055,-76.5956C105.6968,-85.3416 136.57,-98.3327 164,-108 170.3897,-110.252 177.1982,-112.4661 183.901,-114.5423"/>
<polygon fill="#191970" stroke="#191970" points="182.9996,-117.9262 193.5848,-117.4738 185.0278,-111.2265 182.9996,-117.9262"/>
</g>
<!-- Node45 -->
<g id="node3" class="node">
<title>Node45</title>
<g id="a_node3"><a xlink:href="class_d_p_tree.html#ad7f8755be37ad10cf104fba2076dce5e" target="_top" xlink:title="DPTree::find_best_split">
<polygon fill="#ffffff" stroke="#000000" points="168.5,-79.5 168.5,-98.5 287.5,-98.5 287.5,-79.5 168.5,-79.5"/>
<text text-anchor="middle" x="228" y="-86.5" font-family="Helvetica,sans-Serif" font-size="10.00" fill="#000000">DPTree::find_best_split</text>
</a>
</g>
</g>
<!-- Node43&#45;&gt;Node45 -->
<g id="edge2" class="edge">
<title>Node43&#45;&gt;Node45</title>
<path fill="none" stroke="#191970" d="M128.3464,-75.6318C138.1369,-76.9452 148.2799,-78.3058 158.1805,-79.634"/>
<polygon fill="#191970" stroke="#191970" points="158.0088,-83.1422 168.3854,-81.0029 158.9396,-76.2044 158.0088,-83.1422"/>
</g>
<!-- Node47 -->
<g id="node5" class="node">
<title>Node47</title>
<g id="a_node5"><a xlink:href="class_d_p_tree.html#af16f3e0373e606fe42b2104890b2d036" target="_top" xlink:title="DPTree::samples_left\l_right_partition">
<polygon fill="#ffffff" stroke="#000000" points="481,-77 481,-107 593,-107 593,-77 481,-77"/>
<text text-anchor="start" x="489" y="-95" font-family="Helvetica,sans-Serif" font-size="10.00" fill="#000000">DPTree::samples_left</text>
<text text-anchor="middle" x="537" y="-84" font-family="Helvetica,sans-Serif" font-size="10.00" fill="#000000">_right_partition</text>
</a>
</g>
</g>
<!-- Node43&#45;&gt;Node47 -->
<g id="edge7" class="edge">
<title>Node43&#45;&gt;Node47</title>
<path fill="none" stroke="#191970" d="M128.0468,-61.8548C204.0318,-56.9356 334.3597,-52.2351 445,-67 456.92,-68.5907 469.4845,-71.2923 481.3675,-74.3459"/>
<polygon fill="#191970" stroke="#191970" points="480.5941,-77.7622 491.1598,-76.9772 482.4106,-71.002 480.5941,-77.7622"/>
</g>
<!-- Node49 -->
<g id="node7" class="node">
<title>Node49</title>
<g id="a_node7"><a xlink:href="class_tree_node.html#ae671fa006ebb36f632b46b5aa1ec2899" target="_top" xlink:title="TreeNode::is_leaf">
<polygon fill="#ffffff" stroke="#000000" points="181,-.5 181,-19.5 275,-19.5 275,-.5 181,-.5"/>
<text text-anchor="middle" x="228" y="-7.5" font-family="Helvetica,sans-Serif" font-size="10.00" fill="#000000">TreeNode::is_leaf</text>
</a>
</g>
</g>
<!-- Node43&#45;&gt;Node49 -->
<g id="edge6" class="edge">
<title>Node43&#45;&gt;Node49</title>
<path fill="none" stroke="#191970" d="M91.4499,-57.4595C118.6487,-48.0062 160.5017,-33.4598 190.703,-22.963"/>
<polygon fill="#191970" stroke="#191970" points="192.1638,-26.1607 200.4605,-19.5716 189.8657,-19.5487 192.1638,-26.1607"/>
</g>
<!-- Node46 -->
<g id="node4" class="node">
<title>Node46</title>
<g id="a_node4"><a xlink:href="class_d_p_tree.html#ab9426a6ac2e5122e29ecbb6e9c4cd050" target="_top" xlink:title="DPTree::compute_gain">
<polygon fill="#ffffff" stroke="#000000" points="328,-126.5 328,-145.5 445,-145.5 445,-126.5 328,-126.5"/>
<text text-anchor="middle" x="386.5" y="-133.5" font-family="Helvetica,sans-Serif" font-size="10.00" fill="#000000">DPTree::compute_gain</text>
</a>
</g>
</g>
<!-- Node45&#45;&gt;Node46 -->
<g id="edge3" class="edge">
<title>Node45&#45;&gt;Node46</title>
<path fill="none" stroke="#191970" d="M260.0748,-98.5112C284.3785,-105.7179 317.9889,-115.6844 344.4459,-123.5297"/>
<polygon fill="#191970" stroke="#191970" points="343.6188,-126.935 354.2012,-126.4224 345.6089,-120.2239 343.6188,-126.935"/>
</g>
<!-- Node48 -->
<g id="node6" class="node">
<title>Node48</title>
<g id="a_node6"><a xlink:href="class_d_p_tree.html#a7ce368c3888736d660dcf09587df4512" target="_top" xlink:title="DPTree::exponential\l_mechanism">
<polygon fill="#ffffff" stroke="#000000" points="333.5,-77 333.5,-107 439.5,-107 439.5,-77 333.5,-77"/>
<text text-anchor="start" x="341.5" y="-95" font-family="Helvetica,sans-Serif" font-size="10.00" fill="#000000">DPTree::exponential</text>
<text text-anchor="middle" x="386.5" y="-84" font-family="Helvetica,sans-Serif" font-size="10.00" fill="#000000">_mechanism</text>
</a>
</g>
</g>
<!-- Node45&#45;&gt;Node48 -->
<g id="edge5" class="edge">
<title>Node45&#45;&gt;Node48</title>
<path fill="none" stroke="#191970" d="M287.9221,-90.1342C299.4486,-90.3523 311.5561,-90.5815 323.1861,-90.8016"/>
<polygon fill="#191970" stroke="#191970" points="323.1923,-94.3023 333.2567,-90.9922 323.3248,-87.3035 323.1923,-94.3023"/>
</g>
<!-- Node46&#45;&gt;Node47 -->
<g id="edge4" class="edge">
<title>Node46&#45;&gt;Node47</title>
<path fill="none" stroke="#191970" d="M419.1563,-126.4527C435.7226,-121.6094 456.3955,-115.5654 475.7806,-109.898"/>
<polygon fill="#191970" stroke="#191970" points="476.8536,-113.2309 485.4696,-107.0654 474.8892,-106.5122 476.8536,-113.2309"/>
</g>
</g>
</svg>
