<?xml version="1.0" encoding="UTF-8" standalone="no"?>
<!DOCTYPE svg PUBLIC "-//W3C//DTD SVG 1.1//EN"
 "http://www.w3.org/Graphics/SVG/1.1/DTD/svg11.dtd">
<!-- Generated by graphviz version 2.40.1 (20161225.0304)
 -->
<!-- Title: DPTree Pages: 1 -->
<svg width="365pt" height="164pt"
 viewBox="0.00 0.00 365.00 164.00" xmlns="http://www.w3.org/2000/svg" xmlns:xlink="http://www.w3.org/1999/xlink">
<g id="graph0" class="graph" transform="scale(1 1) rotate(0) translate(4 160)">
<title>DPTree</title>
<polygon fill="#ffffff" stroke="transparent" points="-4,4 -4,-160 361,-160 361,4 -4,4"/>
<!-- Node1 -->
<g id="node1" class="node">
<title>Node1</title>
<polygon fill="#bfbfbf" stroke="#000000" points="184,-.5 184,-19.5 234,-19.5 234,-.5 184,-.5"/>
<text text-anchor="middle" x="209" y="-7.5" font-family="Helvetica,sans-Serif" font-size="10.00" fill="#000000">DPTree</text>
</g>
<!-- Node2 -->
<g id="node2" class="node">
<title>Node2</title>
<g id="a_node2"><a xlink:href="struct_tree_params.html" target="_top" xlink:title="TreeParams">
<polygon fill="#ffffff" stroke="#000000" points="0,-68.5 0,-87.5 70,-87.5 70,-68.5 0,-68.5"/>
<text text-anchor="middle" x="35" y="-75.5" font-family="Helvetica,sans-Serif" font-size="10.00" fill="#000000">TreeParams</text>
</a>
</g>
</g>
<!-- Node2&#45;&gt;Node1 -->
<g id="edge1" class="edge">
<title>Node2&#45;&gt;Node1</title>
<path fill="none" stroke="#9a32cd" stroke-dasharray="5,2" d="M55.296,-62.4782C66.9628,-54.1941 82.202,-44.4136 97,-38 125.5044,-25.6459 160.5501,-17.9873 183.7665,-13.8671"/>
<polygon fill="#9a32cd" stroke="#9a32cd" points="53.1456,-59.7146 47.137,-68.4409 57.2759,-65.3662 53.1456,-59.7146"/>
<text text-anchor="middle" x="126" y="-41" font-family="Helvetica,sans-Serif" font-size="10.00" fill="#000000"> tree_params</text>
</g>
<!-- Node3 -->
<g id="node3" class="node">
<title>Node3</title>
<g id="a_node3"><a xlink:href="class_tree_node.html" target="_top" xlink:title="TreeNode">
<polygon fill="#ffffff" stroke="#000000" points="88.5,-68.5 88.5,-87.5 147.5,-87.5 147.5,-68.5 88.5,-68.5"/>
<text text-anchor="middle" x="118" y="-75.5" font-family="Helvetica,sans-Serif" font-size="10.00" fill="#000000">TreeNode</text>
</a>
</g>
</g>
<!-- Node3&#45;&gt;Node1 -->
<g id="edge2" class="edge">
<title>Node3&#45;&gt;Node1</title>
<path fill="none" stroke="#9a32cd" stroke-dasharray="5,2" d="M139.0875,-62.2423C156.7798,-49.0217 181.4683,-30.5731 196.2795,-19.5054"/>
<polygon fill="#9a32cd" stroke="#9a32cd" points="136.9536,-59.4676 131.0381,-68.2573 141.1437,-65.075 136.9536,-59.4676"/>
<text text-anchor="middle" x="192" y="-41" font-family="Helvetica,sans-Serif" font-size="10.00" fill="#000000"> root_node</text>
</g>
<!-- Node3&#45;&gt;Node3 -->
<g id="edge3" class="edge">
<title>Node3&#45;&gt;Node3</title>
<path fill="none" stroke="#9a32cd" stroke-dasharray="5,2" d="M157.6722,-83.4785C162.4076,-82.4824 165.5,-80.6563 165.5,-78 165.5,-73.75 157.5833,-71.625 147.6875,-71.625"/>
<polygon fill="#9a32cd" stroke="#9a32cd" points="157.3344,-79.9947 147.6875,-84.375 157.9605,-86.9666 157.3344,-79.9947"/>
<text text-anchor="middle" x="176.5" y="-81" font-family="Helvetica,sans-Serif" font-size="10.00" fill="#000000"> right</text>
<text text-anchor="middle" x="176.5" y="-70" font-family="Helvetica,sans-Serif" font-size="10.00" fill="#000000">left</text>
</g>
<!-- Node4 -->
<g id="node4" class="node">
<title>Node4</title>
<g id="a_node4"><a xlink:href="struct_model_params.html" target="_top" xlink:title="ModelParams">
<polygon fill="#ffffff" stroke="#000000" points="205.5,-68.5 205.5,-87.5 282.5,-87.5 282.5,-68.5 205.5,-68.5"/>
<text text-anchor="middle" x="244" y="-75.5" font-family="Helvetica,sans-Serif" font-size="10.00" fill="#000000">ModelParams</text>
</a>
</g>
</g>
<!-- Node4&#45;&gt;Node1 -->
<g id="edge4" class="edge">
<title>Node4&#45;&gt;Node1</title>
<path fill="none" stroke="#9a32cd" stroke-dasharray="5,2" d="M234.3932,-59.3354C227.7953,-46.5165 219.3036,-30.0185 214.0053,-19.7247"/>
<polygon fill="#9a32cd" stroke="#9a32cd" points="231.2969,-60.9677 238.9854,-68.2573 237.5208,-57.7641 231.2969,-60.9677"/>
<text text-anchor="middle" x="247" y="-41" font-family="Helvetica,sans-Serif" font-size="10.00" fill="#000000"> params</text>
</g>
<!-- Node5 -->
<g id="node5" class="node">
<title>Node5</title>
<g id="a_node5"><a xlink:href="struct_data_set.html" target="_top" xlink:title="DataSet">
<polygon fill="#ffffff" stroke="#000000" points="300.5,-68.5 300.5,-87.5 353.5,-87.5 353.5,-68.5 300.5,-68.5"/>
<text text-anchor="middle" x="327" y="-75.5" font-family="Helvetica,sans-Serif" font-size="10.00" fill="#000000">DataSet</text>
</a>
</g>
</g>
<!-- Node5&#45;&gt;Node1 -->
<g id="edge5" class="edge">
<title>Node5&#45;&gt;Node1</title>
<path fill="none" stroke="#9a32cd" stroke-dasharray="5,2" d="M306.153,-62.3652C295.3474,-54.5889 281.7699,-45.3147 269,-38 257.0305,-31.1437 243.0988,-24.5629 231.6745,-19.5057"/>
<polygon fill="#9a32cd" stroke="#9a32cd" points="304.3612,-65.391 314.499,-68.4691 308.4935,-59.7407 304.3612,-65.391"/>
<text text-anchor="middle" x="303" y="-41" font-family="Helvetica,sans-Serif" font-size="10.00" fill="#000000"> dataset</text>
</g>
<!-- Node6 -->
<g id="node6" class="node">
<title>Node6</title>
<g id="a_node6"><a xlink:href="struct_scaler.html" target="_top" xlink:title="Scaler">
<polygon fill="#ffffff" stroke="#000000" points="305,-136.5 305,-155.5 349,-155.5 349,-136.5 305,-136.5"/>
<text text-anchor="middle" x="327" y="-143.5" font-family="Helvetica,sans-Serif" font-size="10.00" fill="#000000">Scaler</text>
</a>
</g>
</g>
<!-- Node6&#45;&gt;Node5 -->
<g id="edge6" class="edge">
<title>Node6&#45;&gt;Node5</title>
<path fill="none" stroke="#9a32cd" stroke-dasharray="5,2" d="M327,-126.1951C327,-113.5514 327,-97.7157 327,-87.7247"/>
<polygon fill="#9a32cd" stroke="#9a32cd" points="323.5001,-126.2572 327,-136.2573 330.5001,-126.2573 323.5001,-126.2572"/>
<text text-anchor="middle" x="342" y="-110" font-family="Helvetica,sans-Serif" font-size="10.00" fill="#000000"> scaler</text>
</g>
</g>
</svg>
