<?xml version="1.0" encoding="UTF-8" standalone="no"?>
<!DOCTYPE svg PUBLIC "-//W3C//DTD SVG 1.1//EN"
 "http://www.w3.org/Graphics/SVG/1.1/DTD/svg11.dtd">
<!-- Generated by graphviz version 2.40.1 (20161225.0304)
 -->
<!-- Title: DPEnsemble::train Pages: 1 -->
<svg width="890pt" height="204pt"
 viewBox="0.00 0.00 890.00 203.50" xmlns="http://www.w3.org/2000/svg" xmlns:xlink="http://www.w3.org/1999/xlink">
<g id="graph0" class="graph" transform="scale(1 1) rotate(0) translate(4 199.5)">
<title>DPEnsemble::train</title>
<polygon fill="#ffffff" stroke="transparent" points="-4,4 -4,-199.5 886,-199.5 886,4 -4,4"/>
<!-- Node9 -->
<g id="node1" class="node">
<title>Node9</title>
<polygon fill="#bfbfbf" stroke="#000000" points="0,-85 0,-104 99,-104 99,-85 0,-85"/>
<text text-anchor="middle" x="49.5" y="-92" font-family="Helvetica,sans-Serif" font-size="10.00" fill="#000000">DPEnsemble::train</text>
</g>
<!-- Node10 -->
<g id="node2" class="node">
<title>Node10</title>
<g id="a_node2"><a xlink:href="class_d_p_ensemble.html#a2b446f94f9da238cae22580813c91196" target="_top" xlink:title="DPEnsemble::update\l_gradients">
<polygon fill="#ffffff" stroke="#000000" points="138.5,-142.5 138.5,-172.5 248.5,-172.5 248.5,-142.5 138.5,-142.5"/>
<text text-anchor="start" x="146.5" y="-160.5" font-family="Helvetica,sans-Serif" font-size="10.00" fill="#000000">DPEnsemble::update</text>
<text text-anchor="middle" x="193.5" y="-149.5" font-family="Helvetica,sans-Serif" font-size="10.00" fill="#000000">_gradients</text>
</a>
</g>
</g>
<!-- Node9&#45;&gt;Node10 -->
<g id="edge1" class="edge">
<title>Node9&#45;&gt;Node10</title>
<path fill="none" stroke="#191970" d="M70.8964,-104.1116C88.1681,-111.8457 113.1106,-122.9591 135,-132.5 139.3885,-134.4128 143.9679,-136.3946 148.5478,-138.3671"/>
<polygon fill="#191970" stroke="#191970" points="147.3186,-141.6482 157.8883,-142.3779 150.0806,-135.2162 147.3186,-141.6482"/>
</g>
<!-- Node12 -->
<g id="node4" class="node">
<title>Node12</title>
<g id="a_node4"><a xlink:href="struct_data_set.html#afa2b0dcbd62ba4bf49ea37a1dcefeb83" target="_top" xlink:title="DataSet::get_subset">
<polygon fill="#ffffff" stroke="#000000" points="140,-104 140,-123 247,-123 247,-104 140,-104"/>
<text text-anchor="middle" x="193.5" y="-111" font-family="Helvetica,sans-Serif" font-size="10.00" fill="#000000">DataSet::get_subset</text>
</a>
</g>
</g>
<!-- Node9&#45;&gt;Node12 -->
<g id="edge3" class="edge">
<title>Node9&#45;&gt;Node12</title>
<path fill="none" stroke="#191970" d="M99.0566,-101.0387C108.9413,-102.343 119.4531,-103.7299 129.7377,-105.0869"/>
<polygon fill="#191970" stroke="#191970" points="129.543,-108.5915 139.9149,-106.4297 130.4587,-101.6516 129.543,-108.5915"/>
</g>
<!-- Node13 -->
<g id="node5" class="node">
<title>Node13</title>
<g id="a_node5"><a xlink:href="class_d_p_tree.html#a82b9507f4f5d056b98f40871b304f943" target="_top" xlink:title="DPTree::fit">
<polygon fill="#ffffff" stroke="#000000" points="161,-66 161,-85 226,-85 226,-66 161,-66"/>
<text text-anchor="middle" x="193.5" y="-73" font-family="Helvetica,sans-Serif" font-size="10.00" fill="#000000">DPTree::fit</text>
</a>
</g>
</g>
<!-- Node9&#45;&gt;Node13 -->
<g id="edge4" class="edge">
<title>Node9&#45;&gt;Node13</title>
<path fill="none" stroke="#191970" d="M99.0566,-87.9613C115.7409,-85.7599 134.2116,-83.3228 150.361,-81.192"/>
<polygon fill="#191970" stroke="#191970" points="151.1399,-84.6196 160.5961,-79.8415 150.2241,-77.6798 151.1399,-84.6196"/>
</g>
<!-- Node23 -->
<g id="node15" class="node">
<title>Node23</title>
<g id="a_node15"><a xlink:href="struct_data_set.html#a30a01ecb39d3bfc9eb5e5923ed6f5d43" target="_top" xlink:title="DataSet::remove_rows">
<polygon fill="#ffffff" stroke="#000000" points="135,-28 135,-47 252,-47 252,-28 135,-28"/>
<text text-anchor="middle" x="193.5" y="-35" font-family="Helvetica,sans-Serif" font-size="10.00" fill="#000000">DataSet::remove_rows</text>
</a>
</g>
</g>
<!-- Node9&#45;&gt;Node23 -->
<g id="edge15" class="edge">
<title>Node9&#45;&gt;Node23</title>
<path fill="none" stroke="#191970" d="M69.2931,-84.9977C86.4661,-76.9241 112.0976,-65.2812 135,-56.5 140.5571,-54.3693 146.4673,-52.2658 152.3135,-50.2786"/>
<polygon fill="#191970" stroke="#191970" points="153.6284,-53.5301 162.0182,-47.0599 151.4248,-46.886 153.6284,-53.5301"/>
</g>
<!-- Node11 -->
<g id="node3" class="node">
<title>Node11</title>
<g id="a_node3"><a xlink:href="class_d_p_ensemble.html#a2971bb16cab5ab57322993048ea3a729" target="_top" xlink:title="DPEnsemble::predict">
<polygon fill="#ffffff" stroke="#000000" points="297,-148 297,-167 407,-167 407,-148 297,-148"/>
<text text-anchor="middle" x="352" y="-155" font-family="Helvetica,sans-Serif" font-size="10.00" fill="#000000">DPEnsemble::predict</text>
</a>
</g>
</g>
<!-- Node10&#45;&gt;Node11 -->
<g id="edge2" class="edge">
<title>Node10&#45;&gt;Node11</title>
<path fill="none" stroke="#191970" d="M248.9356,-157.5C261.0709,-157.5 274.0275,-157.5 286.5138,-157.5"/>
<polygon fill="#191970" stroke="#191970" points="286.8634,-161.0001 296.8633,-157.5 286.8633,-154.0001 286.8634,-161.0001"/>
</g>
<!-- Node14 -->
<g id="node6" class="node">
<title>Node14</title>
<g id="a_node6"><a xlink:href="class_d_p_tree.html#a07314c44bb7b7ca37c735b70de3ccb9e" target="_top" xlink:title="DPTree::make_tree_DFS">
<polygon fill="#ffffff" stroke="#000000" points="288,-88 288,-107 416,-107 416,-88 288,-88"/>
<text text-anchor="middle" x="352" y="-95" font-family="Helvetica,sans-Serif" font-size="10.00" fill="#000000">DPTree::make_tree_DFS</text>
</a>
</g>
</g>
<!-- Node13&#45;&gt;Node14 -->
<g id="edge5" class="edge">
<title>Node13&#45;&gt;Node14</title>
<path fill="none" stroke="#191970" d="M226.3413,-80.0584C241.3367,-82.1398 259.7548,-84.6963 277.8201,-87.2037"/>
<polygon fill="#191970" stroke="#191970" points="277.4099,-90.6803 287.7962,-88.5884 278.3723,-83.7467 277.4099,-90.6803"/>
</g>
<!-- Node21 -->
<g id="node13" class="node">
<title>Node21</title>
<g id="a_node13"><a xlink:href="class_d_p_tree.html#a468d249a3e55f1527e50daf13e550c79" target="_top" xlink:title="DPTree::add_laplacian\l_noise">
<polygon fill="#ffffff" stroke="#000000" points="294,-19.5 294,-49.5 410,-49.5 410,-19.5 294,-19.5"/>
<text text-anchor="start" x="302" y="-37.5" font-family="Helvetica,sans-Serif" font-size="10.00" fill="#000000">DPTree::add_laplacian</text>
<text text-anchor="middle" x="352" y="-26.5" font-family="Helvetica,sans-Serif" font-size="10.00" fill="#000000">_noise</text>
</a>
</g>
</g>
<!-- Node13&#45;&gt;Node21 -->
<g id="edge13" class="edge">
<title>Node13&#45;&gt;Node21</title>
<path fill="none" stroke="#191970" d="M226.3413,-67.0048C243.0949,-62.671 264.121,-57.2321 284.1541,-52.05"/>
<polygon fill="#191970" stroke="#191970" points="285.0809,-55.4256 293.8857,-49.5327 283.3278,-48.6486 285.0809,-55.4256"/>
</g>
<!-- Node15 -->
<g id="node7" class="node">
<title>Node15</title>
<g id="a_node7"><a xlink:href="class_d_p_tree.html#a3a716a075edfae470e0fe7511634e922" target="_top" xlink:title="DPTree::make_leaf_node">
<polygon fill="#ffffff" stroke="#000000" points="452.5,-167 452.5,-186 580.5,-186 580.5,-167 452.5,-167"/>
<text text-anchor="middle" x="516.5" y="-174" font-family="Helvetica,sans-Serif" font-size="10.00" fill="#000000">DPTree::make_leaf_node</text>
</a>
</g>
</g>
<!-- Node14&#45;&gt;Node15 -->
<g id="edge6" class="edge">
<title>Node14&#45;&gt;Node15</title>
<path fill="none" stroke="#191970" d="M366.8517,-107.0493C390.264,-121.9925 434.8501,-149.9758 452,-157.5 457.1446,-159.7571 462.6343,-161.837 468.1577,-163.7267"/>
<polygon fill="#191970" stroke="#191970" points="467.4771,-167.1845 478.0686,-166.9196 469.6236,-160.5217 467.4771,-167.1845"/>
</g>
<!-- Node16 -->
<g id="node8" class="node">
<title>Node16</title>
<g id="a_node8"><a xlink:href="class_d_p_tree.html#ad7f8755be37ad10cf104fba2076dce5e" target="_top" xlink:title="DPTree::find_best_split">
<polygon fill="#ffffff" stroke="#000000" points="457,-129 457,-148 576,-148 576,-129 457,-129"/>
<text text-anchor="middle" x="516.5" y="-136" font-family="Helvetica,sans-Serif" font-size="10.00" fill="#000000">DPTree::find_best_split</text>
</a>
</g>
</g>
<!-- Node14&#45;&gt;Node16 -->
<g id="edge7" class="edge">
<title>Node14&#45;&gt;Node16</title>
<path fill="none" stroke="#191970" d="M390.1531,-107.0093C413.4269,-112.8101 443.3888,-120.2777 468.2938,-126.4851"/>
<polygon fill="#191970" stroke="#191970" points="467.7196,-129.949 478.2692,-128.9714 469.4126,-123.1568 467.7196,-129.949"/>
</g>
<!-- Node18 -->
<g id="node10" class="node">
<title>Node18</title>
<g id="a_node10"><a xlink:href="class_d_p_tree.html#af16f3e0373e606fe42b2104890b2d036" target="_top" xlink:title="DPTree::samples_left\l_right_partition">
<polygon fill="#ffffff" stroke="#000000" points="770,-126.5 770,-156.5 882,-156.5 882,-126.5 770,-126.5"/>
<text text-anchor="start" x="778" y="-144.5" font-family="Helvetica,sans-Serif" font-size="10.00" fill="#000000">DPTree::samples_left</text>
<text text-anchor="middle" x="826" y="-133.5" font-family="Helvetica,sans-Serif" font-size="10.00" fill="#000000">_right_partition</text>
</a>
</g>
</g>
<!-- Node14&#45;&gt;Node18 -->
<g id="edge12" class="edge">
<title>Node14&#45;&gt;Node18</title>
<path fill="none" stroke="#191970" d="M416.2794,-96.9054C492.5256,-97.1113 623.2546,-100.338 734,-117.5 744.3836,-119.1091 755.2917,-121.402 765.8215,-123.939"/>
<polygon fill="#191970" stroke="#191970" points="765.2207,-127.3966 775.7716,-126.4318 766.922,-120.6064 765.2207,-127.3966"/>
</g>
<!-- Node20 -->
<g id="node12" class="node">
<title>Node20</title>
<g id="a_node12"><a xlink:href="class_tree_node.html#ae671fa006ebb36f632b46b5aa1ec2899" target="_top" xlink:title="TreeNode::is_leaf">
<polygon fill="#ffffff" stroke="#000000" points="469.5,-50 469.5,-69 563.5,-69 563.5,-50 469.5,-50"/>
<text text-anchor="middle" x="516.5" y="-57" font-family="Helvetica,sans-Serif" font-size="10.00" fill="#000000">TreeNode::is_leaf</text>
</a>
</g>
</g>
<!-- Node14&#45;&gt;Node20 -->
<g id="edge11" class="edge">
<title>Node14&#45;&gt;Node20</title>
<path fill="none" stroke="#191970" d="M393.5103,-87.911C415.3156,-82.8739 442.2318,-76.6562 465.3191,-71.3229"/>
<polygon fill="#191970" stroke="#191970" points="466.3326,-74.6811 475.2882,-69.0201 464.757,-67.8607 466.3326,-74.6811"/>
</g>
<!-- Node17 -->
<g id="node9" class="node">
<title>Node17</title>
<g id="a_node9"><a xlink:href="class_d_p_tree.html#ab9426a6ac2e5122e29ecbb6e9c4cd050" target="_top" xlink:title="DPTree::compute_gain">
<polygon fill="#ffffff" stroke="#000000" points="617,-176 617,-195 734,-195 734,-176 617,-176"/>
<text text-anchor="middle" x="675.5" y="-183" font-family="Helvetica,sans-Serif" font-size="10.00" fill="#000000">DPTree::compute_gain</text>
</a>
</g>
</g>
<!-- Node16&#45;&gt;Node17 -->
<g id="edge8" class="edge">
<title>Node16&#45;&gt;Node17</title>
<path fill="none" stroke="#191970" d="M548.9849,-148.0583C559.2292,-151.0755 570.5884,-154.424 581,-157.5 598.1229,-162.5587 616.9869,-168.1453 633.3281,-172.9891"/>
<polygon fill="#191970" stroke="#191970" points="632.5562,-176.4108 643.1386,-175.8977 634.546,-169.6995 632.5562,-176.4108"/>
</g>
<!-- Node19 -->
<g id="node11" class="node">
<title>Node19</title>
<g id="a_node11"><a xlink:href="class_d_p_tree.html#a7ce368c3888736d660dcf09587df4512" target="_top" xlink:title="DPTree::exponential\l_mechanism">
<polygon fill="#ffffff" stroke="#000000" points="622.5,-126.5 622.5,-156.5 728.5,-156.5 728.5,-126.5 622.5,-126.5"/>
<text text-anchor="start" x="630.5" y="-144.5" font-family="Helvetica,sans-Serif" font-size="10.00" fill="#000000">DPTree::exponential</text>
<text text-anchor="middle" x="675.5" y="-133.5" font-family="Helvetica,sans-Serif" font-size="10.00" fill="#000000">_mechanism</text>
</a>
</g>
</g>
<!-- Node16&#45;&gt;Node19 -->
<g id="edge10" class="edge">
<title>Node16&#45;&gt;Node19</title>
<path fill="none" stroke="#191970" d="M576.1581,-139.6256C587.8807,-139.8468 600.2181,-140.0796 612.0596,-140.303"/>
<polygon fill="#191970" stroke="#191970" points="612.2458,-143.8071 622.3101,-140.4964 612.3779,-136.8083 612.2458,-143.8071"/>
</g>
<!-- Node17&#45;&gt;Node18 -->
<g id="edge9" class="edge">
<title>Node17&#45;&gt;Node18</title>
<path fill="none" stroke="#191970" d="M708.1563,-175.9527C724.7226,-171.1094 745.3955,-165.0654 764.7806,-159.398"/>
<polygon fill="#191970" stroke="#191970" points="765.8536,-162.7309 774.4696,-156.5654 763.8892,-156.0122 765.8536,-162.7309"/>
</g>
<!-- Node22 -->
<g id="node14" class="node">
<title>Node22</title>
<g id="a_node14"><a xlink:href="class_laplace.html#a357965a9024cbdb3866973b5ef22500c" target="_top" xlink:title="Laplace::return_a_random\l_variable">
<polygon fill="#ffffff" stroke="#000000" points="452,-.5 452,-30.5 581,-30.5 581,-.5 452,-.5"/>
<text text-anchor="start" x="460" y="-18.5" font-family="Helvetica,sans-Serif" font-size="10.00" fill="#000000">Laplace::return_a_random</text>
<text text-anchor="middle" x="516.5" y="-7.5" font-family="Helvetica,sans-Serif" font-size="10.00" fill="#000000">_variable</text>
</a>
</g>
</g>
<!-- Node21&#45;&gt;Node22 -->
<g id="edge14" class="edge">
<title>Node21&#45;&gt;Node22</title>
<path fill="none" stroke="#191970" d="M410.4597,-27.7478C420.6072,-26.5758 431.2832,-25.3427 441.7935,-24.1287"/>
<polygon fill="#191970" stroke="#191970" points="442.2646,-27.5977 451.797,-22.9733 441.4614,-20.6439 442.2646,-27.5977"/>
</g>
</g>
</svg>
