<?xml version="1.0" encoding="UTF-8" standalone="no"?>
<!DOCTYPE svg PUBLIC "-//W3C//DTD SVG 1.1//EN"
 "http://www.w3.org/Graphics/SVG/1.1/DTD/svg11.dtd">
<!-- Generated by graphviz version 2.40.1 (20161225.0304)
 -->
<!-- Title: DPEnsemble::predict_ensemble Pages: 1 -->
<svg width="473pt" height="61pt"
 viewBox="0.00 0.00 473.00 61.00" xmlns="http://www.w3.org/2000/svg" xmlns:xlink="http://www.w3.org/1999/xlink">
<g id="graph0" class="graph" transform="scale(1 1) rotate(0) translate(4 57)">
<title>DPEnsemble::predict_ensemble</title>
<polygon fill="#ffffff" stroke="transparent" points="-4,4 -4,-57 469,-57 469,4 -4,4"/>
<!-- Node7 -->
<g id="node1" class="node">
<title>Node7</title>
<polygon fill="#bfbfbf" stroke="#000000" points="0,-.5 0,-30.5 110,-30.5 110,-.5 0,-.5"/>
<text text-anchor="start" x="8" y="-18.5" font-family="Helvetica,sans-Serif" font-size="10.00" fill="#000000">DPEnsemble::predict</text>
<text text-anchor="middle" x="55" y="-7.5" font-family="Helvetica,sans-Serif" font-size="10.00" fill="#000000">_ensemble</text>
</g>
<!-- Node8 -->
<g id="node2" class="node">
<title>Node8</title>
<g id="a_node2"><a xlink:href="class_d_p_ensemble.html#a2b446f94f9da238cae22580813c91196" target="_top" xlink:title="DPEnsemble::update\l_gradients">
<polygon fill="#ffffff" stroke="#000000" points="146,-22.5 146,-52.5 256,-52.5 256,-22.5 146,-22.5"/>
<text text-anchor="start" x="154" y="-40.5" font-family="Helvetica,sans-Serif" font-size="10.00" fill="#000000">DPEnsemble::update</text>
<text text-anchor="middle" x="201" y="-29.5" font-family="Helvetica,sans-Serif" font-size="10.00" fill="#000000">_gradients</text>
</a>
</g>
</g>
<!-- Node7&#45;&gt;Node8 -->
<g id="edge1" class="edge">
<title>Node7&#45;&gt;Node8</title>
<path fill="none" stroke="#191970" d="M120.1314,-25.3143C128.6759,-26.6018 137.3658,-27.9113 145.7256,-29.171"/>
<polygon fill="#191970" stroke="#191970" points="120.6062,-21.8464 110.1963,-23.8173 119.5632,-28.7683 120.6062,-21.8464"/>
</g>
<!-- Node10 -->
<g id="node4" class="node">
<title>Node10</title>
<g id="a_node4"><a xlink:href="main_8cpp.html#a3c04138a5bfe5d72780bb7e82a18e627" target="_top" xlink:title="main">
<polygon fill="#ffffff" stroke="#000000" points="427,-3 427,-22 465,-22 465,-3 427,-3"/>
<text text-anchor="middle" x="446" y="-10" font-family="Helvetica,sans-Serif" font-size="10.00" fill="#000000">main</text>
</a>
</g>
</g>
<!-- Node7&#45;&gt;Node10 -->
<g id="edge4" class="edge">
<title>Node7&#45;&gt;Node10</title>
<path fill="none" stroke="#191970" d="M120.3737,-13.0855C128.9912,-12.8433 137.7073,-12.6367 146,-12.5 251.9752,-10.7536 379.0366,-11.7837 426.6947,-12.2797"/>
<polygon fill="#191970" stroke="#191970" points="120.2255,-9.5883 110.334,-13.3842 120.4337,-16.5852 120.2255,-9.5883"/>
</g>
<!-- Node9 -->
<g id="node3" class="node">
<title>Node9</title>
<g id="a_node3"><a xlink:href="class_d_p_ensemble.html#a1652b5fde834bfb18416ebf438d3e10a" target="_top" xlink:title="DPEnsemble::train">
<polygon fill="#ffffff" stroke="#000000" points="292,-25 292,-44 391,-44 391,-25 292,-25"/>
<text text-anchor="middle" x="341.5" y="-32" font-family="Helvetica,sans-Serif" font-size="10.00" fill="#000000">DPEnsemble::train</text>
</a>
</g>
</g>
<!-- Node8&#45;&gt;Node9 -->
<g id="edge2" class="edge">
<title>Node8&#45;&gt;Node9</title>
<path fill="none" stroke="#191970" d="M266.3733,-36.1041C274.84,-35.9233 283.4017,-35.7405 291.5632,-35.5663"/>
<polygon fill="#191970" stroke="#191970" points="266.049,-32.6102 256.1261,-36.3229 266.1985,-39.6086 266.049,-32.6102"/>
</g>
<!-- Node9&#45;&gt;Node10 -->
<g id="edge3" class="edge">
<title>Node9&#45;&gt;Node10</title>
<path fill="none" stroke="#191970" d="M396.7168,-22.8754C407.6007,-20.5841 418.3123,-18.329 426.9546,-16.5096"/>
<polygon fill="#191970" stroke="#191970" points="395.7919,-19.4933 386.7274,-24.9784 397.234,-26.3432 395.7919,-19.4933"/>
</g>
</g>
</svg>
