<?xml version="1.0" encoding="UTF-8" standalone="no"?>
<!DOCTYPE svg PUBLIC "-//W3C//DTD SVG 1.1//EN"
 "http://www.w3.org/Graphics/SVG/1.1/DTD/svg11.dtd">
<!-- Generated by graphviz version 2.40.1 (20161225.0304)
 -->
<!-- Title: DPEnsemble::predict_ensemble Pages: 1 -->
<svg width="388pt" height="39pt"
 viewBox="0.00 0.00 388.00 39.00" xmlns="http://www.w3.org/2000/svg" xmlns:xlink="http://www.w3.org/1999/xlink">
<g id="graph0" class="graph" transform="scale(1 1) rotate(0) translate(4 35)">
<title>DPEnsemble::predict_ensemble</title>
<polygon fill="#ffffff" stroke="transparent" points="-4,4 -4,-35 384,-35 384,4 -4,4"/>
<!-- Node4 -->
<g id="node1" class="node">
<title>Node4</title>
<polygon fill="#bfbfbf" stroke="#000000" points="0,-.5 0,-30.5 110,-30.5 110,-.5 0,-.5"/>
<text text-anchor="start" x="8" y="-18.5" font-family="Helvetica,sans-Serif" font-size="10.00" fill="#000000">DPEnsemble::predict</text>
<text text-anchor="middle" x="55" y="-7.5" font-family="Helvetica,sans-Serif" font-size="10.00" fill="#000000">_ensemble</text>
</g>
<!-- Node5 -->
<g id="node2" class="node">
<title>Node5</title>
<g id="a_node2"><a xlink:href="class_d_p_tree.html#a1e28d69924f6d57ea7e57ad8ee138f42" target="_top" xlink:title="DPTree::predict_tree">
<polygon fill="#ffffff" stroke="#000000" points="146,-6 146,-25 253,-25 253,-6 146,-6"/>
<text text-anchor="middle" x="199.5" y="-13" font-family="Helvetica,sans-Serif" font-size="10.00" fill="#000000">DPTree::predict_tree</text>
</a>
</g>
</g>
<!-- Node4&#45;&gt;Node5 -->
<g id="edge1" class="edge">
<title>Node4&#45;&gt;Node5</title>
<path fill="none" stroke="#191970" d="M110.0415,-15.5C118.32,-15.5 126.9186,-15.5 135.3672,-15.5"/>
<polygon fill="#191970" stroke="#191970" points="135.5668,-19.0001 145.5667,-15.5 135.5667,-12.0001 135.5668,-19.0001"/>
</g>
<!-- Node6 -->
<g id="node3" class="node">
<title>Node6</title>
<g id="a_node3"><a xlink:href="class_d_p_tree.html#ad8ad2f100c65b9961bd6b2c4af46636c" target="_top" xlink:title="DPTree::_predict">
<polygon fill="#ffffff" stroke="#000000" points="289,-6 289,-25 380,-25 380,-6 289,-6"/>
<text text-anchor="middle" x="334.5" y="-13" font-family="Helvetica,sans-Serif" font-size="10.00" fill="#000000">DPTree::_predict</text>
</a>
</g>
</g>
<!-- Node5&#45;&gt;Node6 -->
<g id="edge2" class="edge">
<title>Node5&#45;&gt;Node6</title>
<path fill="none" stroke="#191970" d="M253.2435,-15.5C261.6075,-15.5 270.2657,-15.5 278.6747,-15.5"/>
<polygon fill="#191970" stroke="#191970" points="278.7717,-19.0001 288.7716,-15.5 278.7716,-12.0001 278.7717,-19.0001"/>
</g>
</g>
</svg>
