<?xml version="1.0" encoding="UTF-8" standalone="no"?>
<!DOCTYPE svg PUBLIC "-//W3C//DTD SVG 1.1//EN"
 "http://www.w3.org/Graphics/SVG/1.1/DTD/svg11.dtd">
<!-- Generated by graphviz version 2.40.1 (20161225.0304)
 -->
<!-- Title: DPEnsemble Pages: 1 -->
<svg width="160pt" height="162pt"
 viewBox="0.00 0.00 159.50 162.00" xmlns="http://www.w3.org/2000/svg" xmlns:xlink="http://www.w3.org/1999/xlink">
<g id="graph0" class="graph" transform="scale(1 1) rotate(0) translate(4 158)">
<title>DPEnsemble</title>
<polygon fill="#ffffff" stroke="transparent" points="-4,4 -4,-158 155.5,-158 155.5,4 -4,4"/>
<!-- Node1 -->
<g id="node1" class="node">
<title>Node1</title>
<polygon fill="#bfbfbf" stroke="#000000" points="36.5,-.5 36.5,-19.5 110.5,-19.5 110.5,-.5 36.5,-.5"/>
<text text-anchor="middle" x="73.5" y="-7.5" font-family="Helvetica,sans-Serif" font-size="10.00" fill="#000000">DPEnsemble</text>
</g>
<!-- Node2 -->
<g id="node2" class="node">
<title>Node2</title>
<g id="a_node2"><a xlink:href="struct_model_params.html" target="_top" xlink:title="ModelParams">
<polygon fill="#ffffff" stroke="#000000" points="0,-67.5 0,-86.5 77,-86.5 77,-67.5 0,-67.5"/>
<text text-anchor="middle" x="38.5" y="-74.5" font-family="Helvetica,sans-Serif" font-size="10.00" fill="#000000">ModelParams</text>
</a>
</g>
</g>
<!-- Node2&#45;&gt;Node1 -->
<g id="edge1" class="edge">
<title>Node2&#45;&gt;Node1</title>
<path fill="none" stroke="#9a32cd" stroke-dasharray="5,2" d="M43.5747,-57.4284C45.6069,-51.0392 48.249,-44.0388 51.5,-38 55.0752,-31.359 60.2393,-24.6886 64.6658,-19.525"/>
<polygon fill="#9a32cd" stroke="#9a32cd" points="40.1285,-56.7485 40.7305,-67.3262 46.8562,-58.6818 40.1285,-56.7485"/>
<text text-anchor="middle" x="69.5" y="-41" font-family="Helvetica,sans-Serif" font-size="10.00" fill="#000000"> params</text>
</g>
<!-- Node3 -->
<g id="node3" class="node">
<title>Node3</title>
<g id="a_node3"><a xlink:href="struct_data_set.html" target="_top" xlink:title="DataSet">
<polygon fill="#ffffff" stroke="#000000" points="95,-67.5 95,-86.5 148,-86.5 148,-67.5 95,-67.5"/>
<text text-anchor="middle" x="121.5" y="-74.5" font-family="Helvetica,sans-Serif" font-size="10.00" fill="#000000">DataSet</text>
</a>
</g>
</g>
<!-- Node3&#45;&gt;Node1 -->
<g id="edge2" class="edge">
<title>Node3&#45;&gt;Node1</title>
<path fill="none" stroke="#9a32cd" stroke-dasharray="5,2" d="M108.5904,-58.9803C99.5052,-46.2989 87.7019,-29.8235 80.3645,-19.5817"/>
<polygon fill="#9a32cd" stroke="#9a32cd" points="105.9537,-61.3097 114.6228,-67.4005 111.6441,-57.233 105.9537,-61.3097"/>
<text text-anchor="middle" x="117.5" y="-41" font-family="Helvetica,sans-Serif" font-size="10.00" fill="#000000"> dataset</text>
</g>
<!-- Node4 -->
<g id="node4" class="node">
<title>Node4</title>
<g id="a_node4"><a xlink:href="struct_scaler.html" target="_top" xlink:title="Scaler">
<polygon fill="#ffffff" stroke="#000000" points="99.5,-134.5 99.5,-153.5 143.5,-153.5 143.5,-134.5 99.5,-134.5"/>
<text text-anchor="middle" x="121.5" y="-141.5" font-family="Helvetica,sans-Serif" font-size="10.00" fill="#000000">Scaler</text>
</a>
</g>
</g>
<!-- Node4&#45;&gt;Node3 -->
<g id="edge3" class="edge">
<title>Node4&#45;&gt;Node3</title>
<path fill="none" stroke="#9a32cd" stroke-dasharray="5,2" d="M121.5,-124.1079C121.5,-111.714 121.5,-96.3263 121.5,-86.5817"/>
<polygon fill="#9a32cd" stroke="#9a32cd" points="118.0001,-124.4005 121.5,-134.4005 125.0001,-124.4006 118.0001,-124.4005"/>
<text text-anchor="middle" x="136.5" y="-108" font-family="Helvetica,sans-Serif" font-size="10.00" fill="#000000"> scaler</text>
</g>
</g>
</svg>
