<?xml version="1.0" encoding="UTF-8" standalone="no"?>
<!DOCTYPE svg PUBLIC "-//W3C//DTD SVG 1.1//EN"
 "http://www.w3.org/Graphics/SVG/1.1/DTD/svg11.dtd">
<!-- Generated by graphviz version 2.40.1 (20161225.0304)
 -->
<!-- Title: Task Pages: 1 -->
<svg width="196pt" height="84pt"
 viewBox="0.00 0.00 196.00 84.00" xmlns="http://www.w3.org/2000/svg" xmlns:xlink="http://www.w3.org/1999/xlink">
<g id="graph0" class="graph" transform="scale(1 1) rotate(0) translate(4 80)">
<title>Task</title>
<polygon fill="#ffffff" stroke="transparent" points="-4,4 -4,-80 192,-80 192,4 -4,4"/>
<!-- Node0 -->
<g id="node1" class="node">
<title>Node0</title>
<polygon fill="#bfbfbf" stroke="#000000" points="84,-56.5 84,-75.5 122,-75.5 122,-56.5 84,-56.5"/>
<text text-anchor="middle" x="103" y="-63.5" font-family="Helvetica,sans-Serif" font-size="10.00" fill="#000000">Task</text>
</g>
<!-- Node1 -->
<g id="node2" class="node">
<title>Node1</title>
<g id="a_node2"><a xlink:href="class_binary_classification.html" target="_top" xlink:title="BinaryClassification">
<polygon fill="#ffffff" stroke="#000000" points="0,-.5 0,-19.5 104,-19.5 104,-.5 0,-.5"/>
<text text-anchor="middle" x="52" y="-7.5" font-family="Helvetica,sans-Serif" font-size="10.00" fill="#000000">BinaryClassification</text>
</a>
</g>
</g>
<!-- Node0&#45;&gt;Node1 -->
<g id="edge1" class="edge">
<title>Node0&#45;&gt;Node1</title>
<path fill="none" stroke="#191970" d="M87.3251,-48.7884C78.6006,-39.2085 68.0646,-27.6396 60.7817,-19.6427"/>
<polygon fill="#191970" stroke="#191970" points="84.7954,-51.2088 94.1165,-56.2455 89.9709,-46.4954 84.7954,-51.2088"/>
</g>
<!-- Node2 -->
<g id="node3" class="node">
<title>Node2</title>
<g id="a_node3"><a xlink:href="class_regression.html" target="_top" xlink:title="Regression">
<polygon fill="#ffffff" stroke="#000000" points="122,-.5 122,-19.5 188,-19.5 188,-.5 122,-.5"/>
<text text-anchor="middle" x="155" y="-7.5" font-family="Helvetica,sans-Serif" font-size="10.00" fill="#000000">Regression</text>
</a>
</g>
</g>
<!-- Node0&#45;&gt;Node2 -->
<g id="edge2" class="edge">
<title>Node0&#45;&gt;Node2</title>
<path fill="none" stroke="#191970" d="M118.9822,-48.7884C127.8778,-39.2085 138.6204,-27.6396 146.0461,-19.6427"/>
<polygon fill="#191970" stroke="#191970" points="116.2975,-46.536 112.0577,-56.2455 121.427,-51.2992 116.2975,-46.536"/>
</g>
</g>
</svg>
