<?xml version="1.0" encoding="UTF-8" standalone="no"?>
<!DOCTYPE svg PUBLIC "-//W3C//DTD SVG 1.1//EN"
 "http://www.w3.org/Graphics/SVG/1.1/DTD/svg11.dtd">
<!-- Generated by graphviz version 2.40.1 (20161225.0304)
 -->
<!-- Title: DPTree::samples_left_right_partition Pages: 1 -->
<svg width="902pt" height="53pt"
 viewBox="0.00 0.00 902.00 52.50" xmlns="http://www.w3.org/2000/svg" xmlns:xlink="http://www.w3.org/1999/xlink">
<g id="graph0" class="graph" transform="scale(1 1) rotate(0) translate(4 48.5)">
<title>DPTree::samples_left_right_partition</title>
<polygon fill="#ffffff" stroke="transparent" points="-4,4 -4,-48.5 898,-48.5 898,4 -4,4"/>
<!-- Node74 -->
<g id="node1" class="node">
<title>Node74</title>
<polygon fill="#bfbfbf" stroke="#000000" points="0,-14 0,-44 112,-44 112,-14 0,-14"/>
<text text-anchor="start" x="8" y="-32" font-family="Helvetica,sans-Serif" font-size="10.00" fill="#000000">DPTree::samples_left</text>
<text text-anchor="middle" x="56" y="-21" font-family="Helvetica,sans-Serif" font-size="10.00" fill="#000000">_right_partition</text>
</g>
<!-- Node75 -->
<g id="node2" class="node">
<title>Node75</title>
<g id="a_node2"><a xlink:href="class_d_p_tree.html#a07314c44bb7b7ca37c735b70de3ccb9e" target="_top" xlink:title="DPTree::make_tree_DFS">
<polygon fill="#ffffff" stroke="#000000" points="456,-19.5 456,-38.5 584,-38.5 584,-19.5 456,-19.5"/>
<text text-anchor="middle" x="520" y="-26.5" font-family="Helvetica,sans-Serif" font-size="10.00" fill="#000000">DPTree::make_tree_DFS</text>
</a>
</g>
</g>
<!-- Node74&#45;&gt;Node75 -->
<g id="edge1" class="edge">
<title>Node74&#45;&gt;Node75</title>
<path fill="none" stroke="#191970" d="M122.6727,-29C211.6344,-29 368.1011,-29 455.7941,-29"/>
<polygon fill="#191970" stroke="#191970" points="122.4317,-25.5001 112.4316,-29 122.4316,-32.5001 122.4317,-25.5001"/>
</g>
<!-- Node79 -->
<g id="node6" class="node">
<title>Node79</title>
<g id="a_node6"><a xlink:href="class_d_p_tree.html#ab9426a6ac2e5122e29ecbb6e9c4cd050" target="_top" xlink:title="DPTree::compute_gain">
<polygon fill="#ffffff" stroke="#000000" points="148,-.5 148,-19.5 265,-19.5 265,-.5 148,-.5"/>
<text text-anchor="middle" x="206.5" y="-7.5" font-family="Helvetica,sans-Serif" font-size="10.00" fill="#000000">DPTree::compute_gain</text>
</a>
</g>
</g>
<!-- Node74&#45;&gt;Node79 -->
<g id="edge5" class="edge">
<title>Node74&#45;&gt;Node79</title>
<path fill="none" stroke="#191970" d="M122.0427,-20.6624C130.6503,-19.5757 139.421,-18.4684 147.8953,-17.3986"/>
<polygon fill="#191970" stroke="#191970" points="121.5235,-17.2001 112.0406,-21.9251 122.4003,-24.1449 121.5235,-17.2001"/>
</g>
<!-- Node76 -->
<g id="node3" class="node">
<title>Node76</title>
<g id="a_node3"><a xlink:href="class_d_p_tree.html#a82b9507f4f5d056b98f40871b304f943" target="_top" xlink:title="DPTree::fit">
<polygon fill="#ffffff" stroke="#000000" points="620,-19.5 620,-38.5 685,-38.5 685,-19.5 620,-19.5"/>
<text text-anchor="middle" x="652.5" y="-26.5" font-family="Helvetica,sans-Serif" font-size="10.00" fill="#000000">DPTree::fit</text>
</a>
</g>
</g>
<!-- Node75&#45;&gt;Node76 -->
<g id="edge2" class="edge">
<title>Node75&#45;&gt;Node76</title>
<path fill="none" stroke="#191970" d="M594.3552,-29C603.2096,-29 611.868,-29 619.6847,-29"/>
<polygon fill="#191970" stroke="#191970" points="594.3094,-25.5001 584.3093,-29 594.3093,-32.5001 594.3094,-25.5001"/>
</g>
<!-- Node77 -->
<g id="node4" class="node">
<title>Node77</title>
<g id="a_node4"><a xlink:href="class_d_p_ensemble.html#a1652b5fde834bfb18416ebf438d3e10a" target="_top" xlink:title="DPEnsemble::train">
<polygon fill="#ffffff" stroke="#000000" points="721,-19.5 721,-38.5 820,-38.5 820,-19.5 721,-19.5"/>
<text text-anchor="middle" x="770.5" y="-26.5" font-family="Helvetica,sans-Serif" font-size="10.00" fill="#000000">DPEnsemble::train</text>
</a>
</g>
</g>
<!-- Node76&#45;&gt;Node77 -->
<g id="edge3" class="edge">
<title>Node76&#45;&gt;Node77</title>
<path fill="none" stroke="#191970" d="M695.2567,-29C703.5489,-29 712.3053,-29 720.798,-29"/>
<polygon fill="#191970" stroke="#191970" points="695.0564,-25.5001 685.0564,-29 695.0563,-32.5001 695.0564,-25.5001"/>
</g>
<!-- Node78 -->
<g id="node5" class="node">
<title>Node78</title>
<g id="a_node5"><a xlink:href="main_8cpp.html#a3c04138a5bfe5d72780bb7e82a18e627" target="_top" xlink:title="main">
<polygon fill="#ffffff" stroke="#000000" points="856,-19.5 856,-38.5 894,-38.5 894,-19.5 856,-19.5"/>
<text text-anchor="middle" x="875" y="-26.5" font-family="Helvetica,sans-Serif" font-size="10.00" fill="#000000">main</text>
</a>
</g>
</g>
<!-- Node77&#45;&gt;Node78 -->
<g id="edge4" class="edge">
<title>Node77&#45;&gt;Node78</title>
<path fill="none" stroke="#191970" d="M830.3404,-29C839.5271,-29 848.394,-29 855.7722,-29"/>
<polygon fill="#191970" stroke="#191970" points="830.3016,-25.5001 820.3016,-29 830.3015,-32.5001 830.3016,-25.5001"/>
</g>
<!-- Node80 -->
<g id="node7" class="node">
<title>Node80</title>
<g id="a_node7"><a xlink:href="class_d_p_tree.html#ad7f8755be37ad10cf104fba2076dce5e" target="_top" xlink:title="DPTree::find_best_split">
<polygon fill="#ffffff" stroke="#000000" points="301,-.5 301,-19.5 420,-19.5 420,-.5 301,-.5"/>
<text text-anchor="middle" x="360.5" y="-7.5" font-family="Helvetica,sans-Serif" font-size="10.00" fill="#000000">DPTree::find_best_split</text>
</a>
</g>
</g>
<!-- Node79&#45;&gt;Node80 -->
<g id="edge6" class="edge">
<title>Node79&#45;&gt;Node80</title>
<path fill="none" stroke="#191970" d="M275.1743,-10C283.7821,-10 292.5304,-10 300.982,-10"/>
<polygon fill="#191970" stroke="#191970" points="275.1601,-6.5001 265.1601,-10 275.1601,-13.5001 275.1601,-6.5001"/>
</g>
<!-- Node80&#45;&gt;Node75 -->
<g id="edge7" class="edge">
<title>Node80&#45;&gt;Node75</title>
<path fill="none" stroke="#191970" d="M430.5119,-18.34C438.9271,-19.3424 447.4891,-20.3623 455.8156,-21.3542"/>
<polygon fill="#191970" stroke="#191970" points="430.6895,-14.8365 420.3457,-17.129 429.8615,-21.7873 430.6895,-14.8365"/>
</g>
</g>
</svg>
