<?xml version="1.0" encoding="UTF-8" standalone="no"?>
<!DOCTYPE svg PUBLIC "-//W3C//DTD SVG 1.1//EN"
 "http://www.w3.org/Graphics/SVG/1.1/DTD/svg11.dtd">
<!-- Generated by graphviz version 2.40.1 (20161225.0304)
 -->
<!-- Title: DPTree::compute_gain Pages: 1 -->
<svg width="747pt" height="28pt"
 viewBox="0.00 0.00 747.00 28.00" xmlns="http://www.w3.org/2000/svg" xmlns:xlink="http://www.w3.org/1999/xlink">
<g id="graph0" class="graph" transform="scale(1 1) rotate(0) translate(4 24)">
<title>DPTree::compute_gain</title>
<polygon fill="#ffffff" stroke="transparent" points="-4,4 -4,-24 743,-24 743,4 -4,4"/>
<!-- Node16 -->
<g id="node1" class="node">
<title>Node16</title>
<polygon fill="#bfbfbf" stroke="#000000" points="0,-.5 0,-19.5 117,-19.5 117,-.5 0,-.5"/>
<text text-anchor="middle" x="58.5" y="-7.5" font-family="Helvetica,sans-Serif" font-size="10.00" fill="#000000">DPTree::compute_gain</text>
</g>
<!-- Node17 -->
<g id="node2" class="node">
<title>Node17</title>
<g id="a_node2"><a xlink:href="class_d_p_tree.html#ad7f8755be37ad10cf104fba2076dce5e" target="_top" xlink:title="DPTree::find_best_split">
<polygon fill="#ffffff" stroke="#000000" points="153,-.5 153,-19.5 272,-19.5 272,-.5 153,-.5"/>
<text text-anchor="middle" x="212.5" y="-7.5" font-family="Helvetica,sans-Serif" font-size="10.00" fill="#000000">DPTree::find_best_split</text>
</a>
</g>
</g>
<!-- Node16&#45;&gt;Node17 -->
<g id="edge1" class="edge">
<title>Node16&#45;&gt;Node17</title>
<path fill="none" stroke="#191970" d="M127.1743,-10C135.7821,-10 144.5304,-10 152.982,-10"/>
<polygon fill="#191970" stroke="#191970" points="127.1601,-6.5001 117.1601,-10 127.1601,-13.5001 127.1601,-6.5001"/>
</g>
<!-- Node18 -->
<g id="node3" class="node">
<title>Node18</title>
<g id="a_node3"><a xlink:href="class_d_p_tree.html#a54cea43a3929249de4be25f607a16339" target="_top" xlink:title="DPTree::make_tree_dfs">
<polygon fill="#ffffff" stroke="#000000" points="308,-.5 308,-19.5 429,-19.5 429,-.5 308,-.5"/>
<text text-anchor="middle" x="368.5" y="-7.5" font-family="Helvetica,sans-Serif" font-size="10.00" fill="#000000">DPTree::make_tree_dfs</text>
</a>
</g>
</g>
<!-- Node17&#45;&gt;Node18 -->
<g id="edge2" class="edge">
<title>Node17&#45;&gt;Node18</title>
<path fill="none" stroke="#191970" d="M282.5419,-10C290.9557,-10 299.4943,-10 307.7606,-10"/>
<polygon fill="#191970" stroke="#191970" points="282.3676,-6.5001 272.3675,-10 282.3675,-13.5001 282.3676,-6.5001"/>
</g>
<!-- Node19 -->
<g id="node4" class="node">
<title>Node19</title>
<g id="a_node4"><a xlink:href="class_d_p_tree.html#a82b9507f4f5d056b98f40871b304f943" target="_top" xlink:title="DPTree::fit">
<polygon fill="#ffffff" stroke="#000000" points="465,-.5 465,-19.5 530,-19.5 530,-.5 465,-.5"/>
<text text-anchor="middle" x="497.5" y="-7.5" font-family="Helvetica,sans-Serif" font-size="10.00" fill="#000000">DPTree::fit</text>
</a>
</g>
</g>
<!-- Node18&#45;&gt;Node19 -->
<g id="edge3" class="edge">
<title>Node18&#45;&gt;Node19</title>
<path fill="none" stroke="#191970" d="M439.3052,-10C448.207,-10 456.9471,-10 464.8384,-10"/>
<polygon fill="#191970" stroke="#191970" points="439.2227,-6.5001 429.2226,-10 439.2226,-13.5001 439.2227,-6.5001"/>
</g>
<!-- Node20 -->
<g id="node5" class="node">
<title>Node20</title>
<g id="a_node5"><a xlink:href="class_d_p_ensemble.html#a1652b5fde834bfb18416ebf438d3e10a" target="_top" xlink:title="DPEnsemble::train">
<polygon fill="#ffffff" stroke="#000000" points="566,-.5 566,-19.5 665,-19.5 665,-.5 566,-.5"/>
<text text-anchor="middle" x="615.5" y="-7.5" font-family="Helvetica,sans-Serif" font-size="10.00" fill="#000000">DPEnsemble::train</text>
</a>
</g>
</g>
<!-- Node19&#45;&gt;Node20 -->
<g id="edge4" class="edge">
<title>Node19&#45;&gt;Node20</title>
<path fill="none" stroke="#191970" d="M540.2567,-10C548.5489,-10 557.3053,-10 565.798,-10"/>
<polygon fill="#191970" stroke="#191970" points="540.0564,-6.5001 530.0564,-10 540.0563,-13.5001 540.0564,-6.5001"/>
</g>
<!-- Node21 -->
<g id="node6" class="node">
<title>Node21</title>
<g id="a_node6"><a xlink:href="main_8cpp.html#a3c04138a5bfe5d72780bb7e82a18e627" target="_top" xlink:title="main">
<polygon fill="#ffffff" stroke="#000000" points="701,-.5 701,-19.5 739,-19.5 739,-.5 701,-.5"/>
<text text-anchor="middle" x="720" y="-7.5" font-family="Helvetica,sans-Serif" font-size="10.00" fill="#000000">main</text>
</a>
</g>
</g>
<!-- Node20&#45;&gt;Node21 -->
<g id="edge5" class="edge">
<title>Node20&#45;&gt;Node21</title>
<path fill="none" stroke="#191970" d="M675.3404,-10C684.5271,-10 693.394,-10 700.7722,-10"/>
<polygon fill="#191970" stroke="#191970" points="675.3016,-6.5001 665.3016,-10 675.3015,-13.5001 675.3016,-6.5001"/>
</g>
</g>
</svg>
