<?xml version="1.0" encoding="UTF-8" standalone="no"?>
<!DOCTYPE svg PUBLIC "-//W3C//DTD SVG 1.1//EN"
 "http://www.w3.org/Graphics/SVG/1.1/DTD/svg11.dtd">
<!-- Generated by graphviz version 2.40.1 (20161225.0304)
 -->
<!-- Title: DPTree::find_best_split Pages: 1 -->
<svg width="594pt" height="28pt"
 viewBox="0.00 0.00 594.00 28.00" xmlns="http://www.w3.org/2000/svg" xmlns:xlink="http://www.w3.org/1999/xlink">
<g id="graph0" class="graph" transform="scale(1 1) rotate(0) translate(4 24)">
<title>DPTree::find_best_split</title>
<polygon fill="#ffffff" stroke="transparent" points="-4,4 -4,-24 590,-24 590,4 -4,4"/>
<!-- Node35 -->
<g id="node1" class="node">
<title>Node35</title>
<polygon fill="#bfbfbf" stroke="#000000" points="0,-.5 0,-19.5 119,-19.5 119,-.5 0,-.5"/>
<text text-anchor="middle" x="59.5" y="-7.5" font-family="Helvetica,sans-Serif" font-size="10.00" fill="#000000">DPTree::find_best_split</text>
</g>
<!-- Node36 -->
<g id="node2" class="node">
<title>Node36</title>
<g id="a_node2"><a xlink:href="class_d_p_tree.html#a54cea43a3929249de4be25f607a16339" target="_top" xlink:title="DPTree::make_tree_dfs">
<polygon fill="#ffffff" stroke="#000000" points="155,-.5 155,-19.5 276,-19.5 276,-.5 155,-.5"/>
<text text-anchor="middle" x="215.5" y="-7.5" font-family="Helvetica,sans-Serif" font-size="10.00" fill="#000000">DPTree::make_tree_dfs</text>
</a>
</g>
</g>
<!-- Node35&#45;&gt;Node36 -->
<g id="edge1" class="edge">
<title>Node35&#45;&gt;Node36</title>
<path fill="none" stroke="#191970" d="M129.5419,-10C137.9557,-10 146.4943,-10 154.7606,-10"/>
<polygon fill="#191970" stroke="#191970" points="129.3676,-6.5001 119.3675,-10 129.3675,-13.5001 129.3676,-6.5001"/>
</g>
<!-- Node37 -->
<g id="node3" class="node">
<title>Node37</title>
<g id="a_node3"><a xlink:href="class_d_p_tree.html#a82b9507f4f5d056b98f40871b304f943" target="_top" xlink:title="DPTree::fit">
<polygon fill="#ffffff" stroke="#000000" points="312,-.5 312,-19.5 377,-19.5 377,-.5 312,-.5"/>
<text text-anchor="middle" x="344.5" y="-7.5" font-family="Helvetica,sans-Serif" font-size="10.00" fill="#000000">DPTree::fit</text>
</a>
</g>
</g>
<!-- Node36&#45;&gt;Node37 -->
<g id="edge2" class="edge">
<title>Node36&#45;&gt;Node37</title>
<path fill="none" stroke="#191970" d="M286.3052,-10C295.207,-10 303.9471,-10 311.8384,-10"/>
<polygon fill="#191970" stroke="#191970" points="286.2227,-6.5001 276.2226,-10 286.2226,-13.5001 286.2227,-6.5001"/>
</g>
<!-- Node38 -->
<g id="node4" class="node">
<title>Node38</title>
<g id="a_node4"><a xlink:href="class_d_p_ensemble.html#a1652b5fde834bfb18416ebf438d3e10a" target="_top" xlink:title="DPEnsemble::train">
<polygon fill="#ffffff" stroke="#000000" points="413,-.5 413,-19.5 512,-19.5 512,-.5 413,-.5"/>
<text text-anchor="middle" x="462.5" y="-7.5" font-family="Helvetica,sans-Serif" font-size="10.00" fill="#000000">DPEnsemble::train</text>
</a>
</g>
</g>
<!-- Node37&#45;&gt;Node38 -->
<g id="edge3" class="edge">
<title>Node37&#45;&gt;Node38</title>
<path fill="none" stroke="#191970" d="M387.2567,-10C395.5489,-10 404.3053,-10 412.798,-10"/>
<polygon fill="#191970" stroke="#191970" points="387.0564,-6.5001 377.0564,-10 387.0563,-13.5001 387.0564,-6.5001"/>
</g>
<!-- Node39 -->
<g id="node5" class="node">
<title>Node39</title>
<g id="a_node5"><a xlink:href="main_8cpp.html#a3c04138a5bfe5d72780bb7e82a18e627" target="_top" xlink:title="main">
<polygon fill="#ffffff" stroke="#000000" points="548,-.5 548,-19.5 586,-19.5 586,-.5 548,-.5"/>
<text text-anchor="middle" x="567" y="-7.5" font-family="Helvetica,sans-Serif" font-size="10.00" fill="#000000">main</text>
</a>
</g>
</g>
<!-- Node38&#45;&gt;Node39 -->
<g id="edge4" class="edge">
<title>Node38&#45;&gt;Node39</title>
<path fill="none" stroke="#191970" d="M522.3404,-10C531.5271,-10 540.394,-10 547.7722,-10"/>
<polygon fill="#191970" stroke="#191970" points="522.3016,-6.5001 512.3016,-10 522.3015,-13.5001 522.3016,-6.5001"/>
</g>
</g>
</svg>
