<?xml version="1.0" encoding="UTF-8" standalone="no"?>
<!DOCTYPE svg PUBLIC "-//W3C//DTD SVG 1.1//EN"
 "http://www.w3.org/Graphics/SVG/1.1/DTD/svg11.dtd">
<!-- Generated by graphviz version 2.40.1 (20161225.0304)
 -->
<!-- Title: DPTree::make_tree_dfs Pages: 1 -->
<svg width="594pt" height="96pt"
 viewBox="0.00 0.00 594.00 96.48" xmlns="http://www.w3.org/2000/svg" xmlns:xlink="http://www.w3.org/1999/xlink">
<g id="graph0" class="graph" transform="scale(1 1) rotate(0) translate(4 92.4773)">
<title>DPTree::make_tree_dfs</title>
<polygon fill="#ffffff" stroke="transparent" points="-4,4 -4,-92.4773 590,-92.4773 590,4 -4,4"/>
<!-- Node57 -->
<g id="node1" class="node">
<title>Node57</title>
<polygon fill="#bfbfbf" stroke="#000000" points="0,-24.9773 0,-43.9773 121,-43.9773 121,-24.9773 0,-24.9773"/>
<text text-anchor="middle" x="60.5" y="-31.9773" font-family="Helvetica,sans-Serif" font-size="10.00" fill="#000000">DPTree::make_tree_dfs</text>
</g>
<!-- Node58 -->
<g id="node2" class="node">
<title>Node58</title>
<g id="a_node2"><a xlink:href="class_d_p_tree.html#a3a716a075edfae470e0fe7511634e922" target="_top" xlink:title="DPTree::make_leaf_node">
<polygon fill="#ffffff" stroke="#000000" points="157,-62.9773 157,-81.9773 285,-81.9773 285,-62.9773 157,-62.9773"/>
<text text-anchor="middle" x="221" y="-69.9773" font-family="Helvetica,sans-Serif" font-size="10.00" fill="#000000">DPTree::make_leaf_node</text>
</a>
</g>
</g>
<!-- Node57&#45;&gt;Node58 -->
<g id="edge1" class="edge">
<title>Node57&#45;&gt;Node58</title>
<path fill="none" stroke="#191970" d="M101.0009,-44.0663C122.1806,-49.0809 148.3022,-55.2654 170.7604,-60.5826"/>
<polygon fill="#191970" stroke="#191970" points="170.2529,-64.0591 180.7903,-62.9573 171.8657,-57.2475 170.2529,-64.0591"/>
</g>
<!-- Node59 -->
<g id="node3" class="node">
<title>Node59</title>
<g id="a_node3"><a xlink:href="class_d_p_tree.html#ad7f8755be37ad10cf104fba2076dce5e" target="_top" xlink:title="DPTree::find_best_split">
<polygon fill="#ffffff" stroke="#000000" points="161.5,-24.9773 161.5,-43.9773 280.5,-43.9773 280.5,-24.9773 161.5,-24.9773"/>
<text text-anchor="middle" x="221" y="-31.9773" font-family="Helvetica,sans-Serif" font-size="10.00" fill="#000000">DPTree::find_best_split</text>
</a>
</g>
</g>
<!-- Node57&#45;&gt;Node59 -->
<g id="edge2" class="edge">
<title>Node57&#45;&gt;Node59</title>
<path fill="none" stroke="#191970" d="M121.1782,-34.4773C130.9291,-34.4773 141.0906,-34.4773 151.0378,-34.4773"/>
<polygon fill="#191970" stroke="#191970" points="151.2999,-37.9774 161.2999,-34.4773 151.2999,-30.9774 151.2999,-37.9774"/>
</g>
<!-- Node61 -->
<g id="node5" class="node">
<title>Node61</title>
<g id="a_node5"><a xlink:href="class_d_p_tree.html#af16f3e0373e606fe42b2104890b2d036" target="_top" xlink:title="DPTree::samples_left\l_right_partition">
<polygon fill="#ffffff" stroke="#000000" points="474,-19.4773 474,-49.4773 586,-49.4773 586,-19.4773 474,-19.4773"/>
<text text-anchor="start" x="482" y="-37.4773" font-family="Helvetica,sans-Serif" font-size="10.00" fill="#000000">DPTree::samples_left</text>
<text text-anchor="middle" x="530" y="-26.4773" font-family="Helvetica,sans-Serif" font-size="10.00" fill="#000000">_right_partition</text>
</a>
</g>
</g>
<!-- Node57&#45;&gt;Node61 -->
<g id="edge6" class="edge">
<title>Node57&#45;&gt;Node61</title>
<path fill="none" stroke="#191970" d="M101.5991,-24.8996C118.6446,-21.3159 138.6817,-17.6023 157,-15.4773 281.0853,-1.0831 314.1803,7.0464 438,-9.4773 449.92,-11.0681 462.4845,-13.7696 474.3675,-16.8233"/>
<polygon fill="#191970" stroke="#191970" points="473.5941,-20.2396 484.1598,-19.4546 475.4106,-13.4794 473.5941,-20.2396"/>
</g>
<!-- Node60 -->
<g id="node4" class="node">
<title>Node60</title>
<g id="a_node4"><a xlink:href="class_d_p_tree.html#ab9426a6ac2e5122e29ecbb6e9c4cd050" target="_top" xlink:title="DPTree::compute_gain">
<polygon fill="#ffffff" stroke="#000000" points="321,-68.9773 321,-87.9773 438,-87.9773 438,-68.9773 321,-68.9773"/>
<text text-anchor="middle" x="379.5" y="-75.9773" font-family="Helvetica,sans-Serif" font-size="10.00" fill="#000000">DPTree::compute_gain</text>
</a>
</g>
</g>
<!-- Node59&#45;&gt;Node60 -->
<g id="edge3" class="edge">
<title>Node59&#45;&gt;Node60</title>
<path fill="none" stroke="#191970" d="M255.3921,-44.0247C278.8624,-50.5401 310.1593,-59.2282 335.4523,-66.2496"/>
<polygon fill="#191970" stroke="#191970" points="334.6031,-69.6461 345.175,-68.9486 336.4756,-62.9012 334.6031,-69.6461"/>
</g>
<!-- Node62 -->
<g id="node6" class="node">
<title>Node62</title>
<g id="a_node6"><a xlink:href="class_d_p_tree.html#a7ce368c3888736d660dcf09587df4512" target="_top" xlink:title="DPTree::exponential\l_mechanism">
<polygon fill="#ffffff" stroke="#000000" points="326.5,-19.4773 326.5,-49.4773 432.5,-49.4773 432.5,-19.4773 326.5,-19.4773"/>
<text text-anchor="start" x="334.5" y="-37.4773" font-family="Helvetica,sans-Serif" font-size="10.00" fill="#000000">DPTree::exponential</text>
<text text-anchor="middle" x="379.5" y="-26.4773" font-family="Helvetica,sans-Serif" font-size="10.00" fill="#000000">_mechanism</text>
</a>
</g>
</g>
<!-- Node59&#45;&gt;Node62 -->
<g id="edge5" class="edge">
<title>Node59&#45;&gt;Node62</title>
<path fill="none" stroke="#191970" d="M280.9221,-34.4773C292.4486,-34.4773 304.5561,-34.4773 316.1861,-34.4773"/>
<polygon fill="#191970" stroke="#191970" points="316.2568,-37.9774 326.2567,-34.4773 316.2567,-30.9774 316.2568,-37.9774"/>
</g>
<!-- Node60&#45;&gt;Node61 -->
<g id="edge4" class="edge">
<title>Node60&#45;&gt;Node61</title>
<path fill="none" stroke="#191970" d="M412.1563,-68.93C428.7226,-64.0867 449.3955,-58.0428 468.7806,-52.3754"/>
<polygon fill="#191970" stroke="#191970" points="469.8536,-55.7083 478.4696,-49.5427 467.8892,-48.9895 469.8536,-55.7083"/>
</g>
</g>
</svg>
