<?xml version="1.0" encoding="UTF-8" standalone="no"?>
<!DOCTYPE svg PUBLIC "-//W3C//DTD SVG 1.1//EN"
 "http://www.w3.org/Graphics/SVG/1.1/DTD/svg11.dtd">
<!-- Generated by graphviz version 2.40.1 (20161225.0304)
 -->
<!-- Title: DPTree::predict Pages: 1 -->
<svg width="351pt" height="28pt"
 viewBox="0.00 0.00 351.00 28.00" xmlns="http://www.w3.org/2000/svg" xmlns:xlink="http://www.w3.org/1999/xlink">
<g id="graph0" class="graph" transform="scale(1 1) rotate(0) translate(4 24)">
<title>DPTree::predict</title>
<polygon fill="#ffffff" stroke="transparent" points="-4,4 -4,-24 347,-24 347,4 -4,4"/>
<!-- Node69 -->
<g id="node1" class="node">
<title>Node69</title>
<polygon fill="#bfbfbf" stroke="#000000" points="0,-.5 0,-19.5 86,-19.5 86,-.5 0,-.5"/>
<text text-anchor="middle" x="43" y="-7.5" font-family="Helvetica,sans-Serif" font-size="10.00" fill="#000000">DPTree::predict</text>
</g>
<!-- Node70 -->
<g id="node2" class="node">
<title>Node70</title>
<g id="a_node2"><a xlink:href="class_d_p_tree.html#ad8ad2f100c65b9961bd6b2c4af46636c" target="_top" xlink:title="DPTree::_predict">
<polygon fill="#ffffff" stroke="#000000" points="122,-.5 122,-19.5 213,-19.5 213,-.5 122,-.5"/>
<text text-anchor="middle" x="167.5" y="-7.5" font-family="Helvetica,sans-Serif" font-size="10.00" fill="#000000">DPTree::_predict</text>
</a>
</g>
</g>
<!-- Node69&#45;&gt;Node70 -->
<g id="edge1" class="edge">
<title>Node69&#45;&gt;Node70</title>
<path fill="none" stroke="#191970" d="M86.1947,-10C94.3832,-10 103.0586,-10 111.5745,-10"/>
<polygon fill="#191970" stroke="#191970" points="111.8395,-13.5001 121.8395,-10 111.8394,-6.5001 111.8395,-13.5001"/>
</g>
<!-- Node71 -->
<g id="node3" class="node">
<title>Node71</title>
<g id="a_node3"><a xlink:href="class_tree_node.html#ae671fa006ebb36f632b46b5aa1ec2899" target="_top" xlink:title="TreeNode::is_leaf">
<polygon fill="#ffffff" stroke="#000000" points="249,-.5 249,-19.5 343,-19.5 343,-.5 249,-.5"/>
<text text-anchor="middle" x="296" y="-7.5" font-family="Helvetica,sans-Serif" font-size="10.00" fill="#000000">TreeNode::is_leaf</text>
</a>
</g>
</g>
<!-- Node70&#45;&gt;Node71 -->
<g id="edge2" class="edge">
<title>Node70&#45;&gt;Node71</title>
<path fill="none" stroke="#191970" d="M213.1661,-10C221.3718,-10 230.02,-10 238.509,-10"/>
<polygon fill="#191970" stroke="#191970" points="238.7444,-13.5001 248.7444,-10 238.7443,-6.5001 238.7444,-13.5001"/>
</g>
</g>
</svg>
