<?xml version="1.0" encoding="UTF-8" standalone="no"?>
<!DOCTYPE svg PUBLIC "-//W3C//DTD SVG 1.1//EN"
 "http://www.w3.org/Graphics/SVG/1.1/DTD/svg11.dtd">
<!-- Generated by graphviz version 2.40.1 (20161225.0304)
 -->
<!-- Title: DPTree::fit Pages: 1 -->
<svg width="703pt" height="204pt"
 viewBox="0.00 0.00 703.00 203.50" xmlns="http://www.w3.org/2000/svg" xmlns:xlink="http://www.w3.org/1999/xlink">
<g id="graph0" class="graph" transform="scale(1 1) rotate(0) translate(4 199.5)">
<title>DPTree::fit</title>
<polygon fill="#ffffff" stroke="transparent" points="-4,4 -4,-199.5 699,-199.5 699,4 -4,4"/>
<!-- Node39 -->
<g id="node1" class="node">
<title>Node39</title>
<polygon fill="#bfbfbf" stroke="#000000" points="0,-47 0,-66 65,-66 65,-47 0,-47"/>
<text text-anchor="middle" x="32.5" y="-54" font-family="Helvetica,sans-Serif" font-size="10.00" fill="#000000">DPTree::fit</text>
</g>
<!-- Node40 -->
<g id="node2" class="node">
<title>Node40</title>
<g id="a_node2"><a xlink:href="class_d_p_tree.html#a07314c44bb7b7ca37c735b70de3ccb9e" target="_top" xlink:title="DPTree::make_tree_DFS">
<polygon fill="#ffffff" stroke="#000000" points="101,-88 101,-107 229,-107 229,-88 101,-88"/>
<text text-anchor="middle" x="165" y="-95" font-family="Helvetica,sans-Serif" font-size="10.00" fill="#000000">DPTree::make_tree_DFS</text>
</a>
</g>
</g>
<!-- Node39&#45;&gt;Node40 -->
<g id="edge1" class="edge">
<title>Node39&#45;&gt;Node40</title>
<path fill="none" stroke="#191970" d="M63.2312,-66.0093C81.4123,-71.6351 104.6604,-78.8289 124.3457,-84.9202"/>
<polygon fill="#191970" stroke="#191970" points="123.3887,-88.2877 133.9765,-87.9003 125.458,-81.6006 123.3887,-88.2877"/>
</g>
<!-- Node47 -->
<g id="node9" class="node">
<title>Node47</title>
<g id="a_node9"><a xlink:href="class_d_p_tree.html#a468d249a3e55f1527e50daf13e550c79" target="_top" xlink:title="DPTree::add_laplacian\l_noise">
<polygon fill="#ffffff" stroke="#000000" points="107,-19.5 107,-49.5 223,-49.5 223,-19.5 107,-19.5"/>
<text text-anchor="start" x="115" y="-37.5" font-family="Helvetica,sans-Serif" font-size="10.00" fill="#000000">DPTree::add_laplacian</text>
<text text-anchor="middle" x="165" y="-26.5" font-family="Helvetica,sans-Serif" font-size="10.00" fill="#000000">_noise</text>
</a>
</g>
</g>
<!-- Node39&#45;&gt;Node47 -->
<g id="edge9" class="edge">
<title>Node39&#45;&gt;Node47</title>
<path fill="none" stroke="#191970" d="M65.2528,-51.0618C74.8753,-49.4641 85.7772,-47.654 96.7522,-45.8317"/>
<polygon fill="#191970" stroke="#191970" points="97.5257,-49.2513 106.8173,-44.1605 96.379,-42.3458 97.5257,-49.2513"/>
</g>
<!-- Node41 -->
<g id="node3" class="node">
<title>Node41</title>
<g id="a_node3"><a xlink:href="class_d_p_tree.html#a3a716a075edfae470e0fe7511634e922" target="_top" xlink:title="DPTree::make_leaf_node">
<polygon fill="#ffffff" stroke="#000000" points="265.5,-167 265.5,-186 393.5,-186 393.5,-167 265.5,-167"/>
<text text-anchor="middle" x="329.5" y="-174" font-family="Helvetica,sans-Serif" font-size="10.00" fill="#000000">DPTree::make_leaf_node</text>
</a>
</g>
</g>
<!-- Node40&#45;&gt;Node41 -->
<g id="edge2" class="edge">
<title>Node40&#45;&gt;Node41</title>
<path fill="none" stroke="#191970" d="M178.3162,-107.0016C196.9418,-119.9313 232.1834,-143.1023 265,-157.5 270.1446,-159.7571 275.6343,-161.837 281.1577,-163.7267"/>
<polygon fill="#191970" stroke="#191970" points="280.4771,-167.1845 291.0686,-166.9196 282.6236,-160.5217 280.4771,-167.1845"/>
</g>
<!-- Node42 -->
<g id="node4" class="node">
<title>Node42</title>
<g id="a_node4"><a xlink:href="class_d_p_tree.html#ad7f8755be37ad10cf104fba2076dce5e" target="_top" xlink:title="DPTree::find_best_split">
<polygon fill="#ffffff" stroke="#000000" points="270,-129 270,-148 389,-148 389,-129 270,-129"/>
<text text-anchor="middle" x="329.5" y="-136" font-family="Helvetica,sans-Serif" font-size="10.00" fill="#000000">DPTree::find_best_split</text>
</a>
</g>
</g>
<!-- Node40&#45;&gt;Node42 -->
<g id="edge3" class="edge">
<title>Node40&#45;&gt;Node42</title>
<path fill="none" stroke="#191970" d="M203.1531,-107.0093C226.4269,-112.8101 256.3888,-120.2777 281.2938,-126.4851"/>
<polygon fill="#191970" stroke="#191970" points="280.7196,-129.949 291.2692,-128.9714 282.4126,-123.1568 280.7196,-129.949"/>
</g>
<!-- Node44 -->
<g id="node6" class="node">
<title>Node44</title>
<g id="a_node6"><a xlink:href="class_d_p_tree.html#af16f3e0373e606fe42b2104890b2d036" target="_top" xlink:title="DPTree::samples_left\l_right_partition">
<polygon fill="#ffffff" stroke="#000000" points="583,-126.5 583,-156.5 695,-156.5 695,-126.5 583,-126.5"/>
<text text-anchor="start" x="591" y="-144.5" font-family="Helvetica,sans-Serif" font-size="10.00" fill="#000000">DPTree::samples_left</text>
<text text-anchor="middle" x="639" y="-133.5" font-family="Helvetica,sans-Serif" font-size="10.00" fill="#000000">_right_partition</text>
</a>
</g>
</g>
<!-- Node40&#45;&gt;Node44 -->
<g id="edge8" class="edge">
<title>Node40&#45;&gt;Node44</title>
<path fill="none" stroke="#191970" d="M229.2794,-96.9054C305.5256,-97.1113 436.2546,-100.338 547,-117.5 557.3836,-119.1091 568.2917,-121.402 578.8215,-123.939"/>
<polygon fill="#191970" stroke="#191970" points="578.2207,-127.3966 588.7716,-126.4318 579.922,-120.6064 578.2207,-127.3966"/>
</g>
<!-- Node46 -->
<g id="node8" class="node">
<title>Node46</title>
<g id="a_node8"><a xlink:href="class_tree_node.html#ae671fa006ebb36f632b46b5aa1ec2899" target="_top" xlink:title="TreeNode::is_leaf">
<polygon fill="#ffffff" stroke="#000000" points="282.5,-50 282.5,-69 376.5,-69 376.5,-50 282.5,-50"/>
<text text-anchor="middle" x="329.5" y="-57" font-family="Helvetica,sans-Serif" font-size="10.00" fill="#000000">TreeNode::is_leaf</text>
</a>
</g>
</g>
<!-- Node40&#45;&gt;Node46 -->
<g id="edge7" class="edge">
<title>Node40&#45;&gt;Node46</title>
<path fill="none" stroke="#191970" d="M206.5103,-87.911C228.3156,-82.8739 255.2318,-76.6562 278.3191,-71.3229"/>
<polygon fill="#191970" stroke="#191970" points="279.3326,-74.6811 288.2882,-69.0201 277.757,-67.8607 279.3326,-74.6811"/>
</g>
<!-- Node43 -->
<g id="node5" class="node">
<title>Node43</title>
<g id="a_node5"><a xlink:href="class_d_p_tree.html#ab9426a6ac2e5122e29ecbb6e9c4cd050" target="_top" xlink:title="DPTree::compute_gain">
<polygon fill="#ffffff" stroke="#000000" points="430,-176 430,-195 547,-195 547,-176 430,-176"/>
<text text-anchor="middle" x="488.5" y="-183" font-family="Helvetica,sans-Serif" font-size="10.00" fill="#000000">DPTree::compute_gain</text>
</a>
</g>
</g>
<!-- Node42&#45;&gt;Node43 -->
<g id="edge4" class="edge">
<title>Node42&#45;&gt;Node43</title>
<path fill="none" stroke="#191970" d="M361.9849,-148.0583C372.2292,-151.0755 383.5884,-154.424 394,-157.5 411.1229,-162.5587 429.9869,-168.1453 446.3281,-172.9891"/>
<polygon fill="#191970" stroke="#191970" points="445.5562,-176.4108 456.1386,-175.8977 447.546,-169.6995 445.5562,-176.4108"/>
</g>
<!-- Node45 -->
<g id="node7" class="node">
<title>Node45</title>
<g id="a_node7"><a xlink:href="class_d_p_tree.html#a7ce368c3888736d660dcf09587df4512" target="_top" xlink:title="DPTree::exponential\l_mechanism">
<polygon fill="#ffffff" stroke="#000000" points="435.5,-126.5 435.5,-156.5 541.5,-156.5 541.5,-126.5 435.5,-126.5"/>
<text text-anchor="start" x="443.5" y="-144.5" font-family="Helvetica,sans-Serif" font-size="10.00" fill="#000000">DPTree::exponential</text>
<text text-anchor="middle" x="488.5" y="-133.5" font-family="Helvetica,sans-Serif" font-size="10.00" fill="#000000">_mechanism</text>
</a>
</g>
</g>
<!-- Node42&#45;&gt;Node45 -->
<g id="edge6" class="edge">
<title>Node42&#45;&gt;Node45</title>
<path fill="none" stroke="#191970" d="M389.1581,-139.6256C400.8807,-139.8468 413.2181,-140.0796 425.0596,-140.303"/>
<polygon fill="#191970" stroke="#191970" points="425.2458,-143.8071 435.3101,-140.4964 425.3779,-136.8083 425.2458,-143.8071"/>
</g>
<!-- Node43&#45;&gt;Node44 -->
<g id="edge5" class="edge">
<title>Node43&#45;&gt;Node44</title>
<path fill="none" stroke="#191970" d="M521.1563,-175.9527C537.7226,-171.1094 558.3955,-165.0654 577.7806,-159.398"/>
<polygon fill="#191970" stroke="#191970" points="578.8536,-162.7309 587.4696,-156.5654 576.8892,-156.0122 578.8536,-162.7309"/>
</g>
<!-- Node48 -->
<g id="node10" class="node">
<title>Node48</title>
<g id="a_node10"><a xlink:href="class_laplace.html#a357965a9024cbdb3866973b5ef22500c" target="_top" xlink:title="Laplace::return_a_random\l_variable">
<polygon fill="#ffffff" stroke="#000000" points="265,-.5 265,-30.5 394,-30.5 394,-.5 265,-.5"/>
<text text-anchor="start" x="273" y="-18.5" font-family="Helvetica,sans-Serif" font-size="10.00" fill="#000000">Laplace::return_a_random</text>
<text text-anchor="middle" x="329.5" y="-7.5" font-family="Helvetica,sans-Serif" font-size="10.00" fill="#000000">_variable</text>
</a>
</g>
</g>
<!-- Node47&#45;&gt;Node48 -->
<g id="edge10" class="edge">
<title>Node47&#45;&gt;Node48</title>
<path fill="none" stroke="#191970" d="M223.4597,-27.7478C233.6072,-26.5758 244.2832,-25.3427 254.7935,-24.1287"/>
<polygon fill="#191970" stroke="#191970" points="255.2646,-27.5977 264.797,-22.9733 254.4614,-20.6439 255.2646,-27.5977"/>
</g>
</g>
</svg>
