<?xml version="1.0" encoding="UTF-8" standalone="no"?>
<!DOCTYPE svg PUBLIC "-//W3C//DTD SVG 1.1//EN"
 "http://www.w3.org/Graphics/SVG/1.1/DTD/svg11.dtd">
<!-- Generated by graphviz version 2.40.1 (20161225.0304)
 -->
<!-- Title: DPTree::_predict Pages: 1 -->
<svg width="743pt" height="61pt"
 viewBox="0.00 0.00 743.00 61.00" xmlns="http://www.w3.org/2000/svg" xmlns:xlink="http://www.w3.org/1999/xlink">
<g id="graph0" class="graph" transform="scale(1 1) rotate(0) translate(4 57)">
<title>DPTree::_predict</title>
<polygon fill="#ffffff" stroke="transparent" points="-4,4 -4,-57 739,-57 739,4 -4,4"/>
<!-- Node3 -->
<g id="node1" class="node">
<title>Node3</title>
<polygon fill="#bfbfbf" stroke="#000000" points="0,-6 0,-25 91,-25 91,-6 0,-6"/>
<text text-anchor="middle" x="45.5" y="-13" font-family="Helvetica,sans-Serif" font-size="10.00" fill="#000000">DPTree::_predict</text>
</g>
<!-- Node4 -->
<g id="node2" class="node">
<title>Node4</title>
<g id="a_node2"><a xlink:href="class_d_p_tree.html#a1e28d69924f6d57ea7e57ad8ee138f42" target="_top" xlink:title="DPTree::predict_tree">
<polygon fill="#ffffff" stroke="#000000" points="127,-6 127,-25 234,-25 234,-6 127,-6"/>
<text text-anchor="middle" x="180.5" y="-13" font-family="Helvetica,sans-Serif" font-size="10.00" fill="#000000">DPTree::predict_tree</text>
</a>
</g>
</g>
<!-- Node3&#45;&gt;Node4 -->
<g id="edge1" class="edge">
<title>Node3&#45;&gt;Node4</title>
<path fill="none" stroke="#191970" d="M101.3538,-15.5C109.8066,-15.5 118.5108,-15.5 126.9142,-15.5"/>
<polygon fill="#191970" stroke="#191970" points="101.2049,-12.0001 91.2048,-15.5 101.2048,-19.0001 101.2049,-12.0001"/>
</g>
<!-- Node5 -->
<g id="node3" class="node">
<title>Node5</title>
<g id="a_node3"><a xlink:href="class_d_p_ensemble.html#a4c4302580bdbeaa4ca2c2091cad018c5" target="_top" xlink:title="DPEnsemble::predict\l_ensemble">
<polygon fill="#ffffff" stroke="#000000" points="270,-.5 270,-30.5 380,-30.5 380,-.5 270,-.5"/>
<text text-anchor="start" x="278" y="-18.5" font-family="Helvetica,sans-Serif" font-size="10.00" fill="#000000">DPEnsemble::predict</text>
<text text-anchor="middle" x="325" y="-7.5" font-family="Helvetica,sans-Serif" font-size="10.00" fill="#000000">_ensemble</text>
</a>
</g>
</g>
<!-- Node4&#45;&gt;Node5 -->
<g id="edge2" class="edge">
<title>Node4&#45;&gt;Node5</title>
<path fill="none" stroke="#191970" d="M244.4644,-15.5C252.8795,-15.5 261.4464,-15.5 269.7006,-15.5"/>
<polygon fill="#191970" stroke="#191970" points="244.3065,-12.0001 234.3065,-15.5 244.3064,-19.0001 244.3065,-12.0001"/>
</g>
<!-- Node6 -->
<g id="node4" class="node">
<title>Node6</title>
<g id="a_node4"><a xlink:href="class_d_p_ensemble.html#a2b446f94f9da238cae22580813c91196" target="_top" xlink:title="DPEnsemble::update\l_gradients">
<polygon fill="#ffffff" stroke="#000000" points="416,-22.5 416,-52.5 526,-52.5 526,-22.5 416,-22.5"/>
<text text-anchor="start" x="424" y="-40.5" font-family="Helvetica,sans-Serif" font-size="10.00" fill="#000000">DPEnsemble::update</text>
<text text-anchor="middle" x="471" y="-29.5" font-family="Helvetica,sans-Serif" font-size="10.00" fill="#000000">_gradients</text>
</a>
</g>
</g>
<!-- Node5&#45;&gt;Node6 -->
<g id="edge3" class="edge">
<title>Node5&#45;&gt;Node6</title>
<path fill="none" stroke="#191970" d="M390.1314,-25.3143C398.6759,-26.6018 407.3658,-27.9113 415.7256,-29.171"/>
<polygon fill="#191970" stroke="#191970" points="390.6062,-21.8464 380.1963,-23.8173 389.5632,-28.7683 390.6062,-21.8464"/>
</g>
<!-- Node8 -->
<g id="node6" class="node">
<title>Node8</title>
<g id="a_node6"><a xlink:href="main_8cpp.html#a3c04138a5bfe5d72780bb7e82a18e627" target="_top" xlink:title="main">
<polygon fill="#ffffff" stroke="#000000" points="697,-3 697,-22 735,-22 735,-3 697,-3"/>
<text text-anchor="middle" x="716" y="-10" font-family="Helvetica,sans-Serif" font-size="10.00" fill="#000000">main</text>
</a>
</g>
</g>
<!-- Node5&#45;&gt;Node8 -->
<g id="edge6" class="edge">
<title>Node5&#45;&gt;Node8</title>
<path fill="none" stroke="#191970" d="M390.3737,-13.0855C398.9912,-12.8433 407.7073,-12.6367 416,-12.5 521.9752,-10.7536 649.0366,-11.7837 696.6947,-12.2797"/>
<polygon fill="#191970" stroke="#191970" points="390.2255,-9.5883 380.334,-13.3842 390.4337,-16.5852 390.2255,-9.5883"/>
</g>
<!-- Node7 -->
<g id="node5" class="node">
<title>Node7</title>
<g id="a_node5"><a xlink:href="class_d_p_ensemble.html#a1652b5fde834bfb18416ebf438d3e10a" target="_top" xlink:title="DPEnsemble::train">
<polygon fill="#ffffff" stroke="#000000" points="562,-25 562,-44 661,-44 661,-25 562,-25"/>
<text text-anchor="middle" x="611.5" y="-32" font-family="Helvetica,sans-Serif" font-size="10.00" fill="#000000">DPEnsemble::train</text>
</a>
</g>
</g>
<!-- Node6&#45;&gt;Node7 -->
<g id="edge4" class="edge">
<title>Node6&#45;&gt;Node7</title>
<path fill="none" stroke="#191970" d="M536.3733,-36.1041C544.84,-35.9233 553.4017,-35.7405 561.5632,-35.5663"/>
<polygon fill="#191970" stroke="#191970" points="536.049,-32.6102 526.1261,-36.3229 536.1985,-39.6086 536.049,-32.6102"/>
</g>
<!-- Node7&#45;&gt;Node8 -->
<g id="edge5" class="edge">
<title>Node7&#45;&gt;Node8</title>
<path fill="none" stroke="#191970" d="M666.7168,-22.8754C677.6007,-20.5841 688.3123,-18.329 696.9546,-16.5096"/>
<polygon fill="#191970" stroke="#191970" points="665.7919,-19.4933 656.7274,-24.9784 667.234,-26.3432 665.7919,-19.4933"/>
</g>
</g>
</svg>
