<?xml version="1.0" encoding="UTF-8" standalone="no"?>
<!DOCTYPE svg PUBLIC "-//W3C//DTD SVG 1.1//EN"
 "http://www.w3.org/Graphics/SVG/1.1/DTD/svg11.dtd">
<!-- Generated by graphviz version 2.40.1 (20161225.0304)
 -->
<!-- Title: DPTree::predict_tree Pages: 1 -->
<svg width="616pt" height="61pt"
 viewBox="0.00 0.00 616.00 61.00" xmlns="http://www.w3.org/2000/svg" xmlns:xlink="http://www.w3.org/1999/xlink">
<g id="graph0" class="graph" transform="scale(1 1) rotate(0) translate(4 57)">
<title>DPTree::predict_tree</title>
<polygon fill="#ffffff" stroke="transparent" points="-4,4 -4,-57 612,-57 612,4 -4,4"/>
<!-- Node69 -->
<g id="node1" class="node">
<title>Node69</title>
<polygon fill="#bfbfbf" stroke="#000000" points="0,-6 0,-25 107,-25 107,-6 0,-6"/>
<text text-anchor="middle" x="53.5" y="-13" font-family="Helvetica,sans-Serif" font-size="10.00" fill="#000000">DPTree::predict_tree</text>
</g>
<!-- Node70 -->
<g id="node2" class="node">
<title>Node70</title>
<g id="a_node2"><a xlink:href="class_d_p_ensemble.html#a4c4302580bdbeaa4ca2c2091cad018c5" target="_top" xlink:title="DPEnsemble::predict\l_ensemble">
<polygon fill="#ffffff" stroke="#000000" points="143,-.5 143,-30.5 253,-30.5 253,-.5 143,-.5"/>
<text text-anchor="start" x="151" y="-18.5" font-family="Helvetica,sans-Serif" font-size="10.00" fill="#000000">DPEnsemble::predict</text>
<text text-anchor="middle" x="198" y="-7.5" font-family="Helvetica,sans-Serif" font-size="10.00" fill="#000000">_ensemble</text>
</a>
</g>
</g>
<!-- Node69&#45;&gt;Node70 -->
<g id="edge1" class="edge">
<title>Node69&#45;&gt;Node70</title>
<path fill="none" stroke="#191970" d="M117.4644,-15.5C125.8795,-15.5 134.4464,-15.5 142.7006,-15.5"/>
<polygon fill="#191970" stroke="#191970" points="117.3065,-12.0001 107.3065,-15.5 117.3064,-19.0001 117.3065,-12.0001"/>
</g>
<!-- Node71 -->
<g id="node3" class="node">
<title>Node71</title>
<g id="a_node3"><a xlink:href="class_d_p_ensemble.html#a2b446f94f9da238cae22580813c91196" target="_top" xlink:title="DPEnsemble::update\l_gradients">
<polygon fill="#ffffff" stroke="#000000" points="289,-22.5 289,-52.5 399,-52.5 399,-22.5 289,-22.5"/>
<text text-anchor="start" x="297" y="-40.5" font-family="Helvetica,sans-Serif" font-size="10.00" fill="#000000">DPEnsemble::update</text>
<text text-anchor="middle" x="344" y="-29.5" font-family="Helvetica,sans-Serif" font-size="10.00" fill="#000000">_gradients</text>
</a>
</g>
</g>
<!-- Node70&#45;&gt;Node71 -->
<g id="edge2" class="edge">
<title>Node70&#45;&gt;Node71</title>
<path fill="none" stroke="#191970" d="M263.1314,-25.3143C271.6759,-26.6018 280.3658,-27.9113 288.7256,-29.171"/>
<polygon fill="#191970" stroke="#191970" points="263.6062,-21.8464 253.1963,-23.8173 262.5632,-28.7683 263.6062,-21.8464"/>
</g>
<!-- Node73 -->
<g id="node5" class="node">
<title>Node73</title>
<g id="a_node5"><a xlink:href="main_8cpp.html#a3c04138a5bfe5d72780bb7e82a18e627" target="_top" xlink:title="main">
<polygon fill="#ffffff" stroke="#000000" points="570,-3 570,-22 608,-22 608,-3 570,-3"/>
<text text-anchor="middle" x="589" y="-10" font-family="Helvetica,sans-Serif" font-size="10.00" fill="#000000">main</text>
</a>
</g>
</g>
<!-- Node70&#45;&gt;Node73 -->
<g id="edge5" class="edge">
<title>Node70&#45;&gt;Node73</title>
<path fill="none" stroke="#191970" d="M263.3737,-13.0855C271.9912,-12.8433 280.7073,-12.6367 289,-12.5 394.9752,-10.7536 522.0366,-11.7837 569.6947,-12.2797"/>
<polygon fill="#191970" stroke="#191970" points="263.2255,-9.5883 253.334,-13.3842 263.4337,-16.5852 263.2255,-9.5883"/>
</g>
<!-- Node72 -->
<g id="node4" class="node">
<title>Node72</title>
<g id="a_node4"><a xlink:href="class_d_p_ensemble.html#a1652b5fde834bfb18416ebf438d3e10a" target="_top" xlink:title="DPEnsemble::train">
<polygon fill="#ffffff" stroke="#000000" points="435,-25 435,-44 534,-44 534,-25 435,-25"/>
<text text-anchor="middle" x="484.5" y="-32" font-family="Helvetica,sans-Serif" font-size="10.00" fill="#000000">DPEnsemble::train</text>
</a>
</g>
</g>
<!-- Node71&#45;&gt;Node72 -->
<g id="edge3" class="edge">
<title>Node71&#45;&gt;Node72</title>
<path fill="none" stroke="#191970" d="M409.3733,-36.1041C417.84,-35.9233 426.4017,-35.7405 434.5632,-35.5663"/>
<polygon fill="#191970" stroke="#191970" points="409.049,-32.6102 399.1261,-36.3229 409.1985,-39.6086 409.049,-32.6102"/>
</g>
<!-- Node72&#45;&gt;Node73 -->
<g id="edge4" class="edge">
<title>Node72&#45;&gt;Node73</title>
<path fill="none" stroke="#191970" d="M539.7168,-22.8754C550.6007,-20.5841 561.3123,-18.329 569.9546,-16.5096"/>
<polygon fill="#191970" stroke="#191970" points="538.7919,-19.4933 529.7274,-24.9784 540.234,-26.3432 538.7919,-19.4933"/>
</g>
</g>
</svg>
