<?xml version="1.0" encoding="UTF-8" standalone="no"?>
<!DOCTYPE svg PUBLIC "-//W3C//DTD SVG 1.1//EN"
 "http://www.w3.org/Graphics/SVG/1.1/DTD/svg11.dtd">
<!-- Generated by graphviz version 2.40.1 (20161225.0304)
 -->
<!-- Title: TreeNode::is_leaf Pages: 1 -->
<svg width="597pt" height="104pt"
 viewBox="0.00 0.00 597.00 104.00" xmlns="http://www.w3.org/2000/svg" xmlns:xlink="http://www.w3.org/1999/xlink">
<g id="graph0" class="graph" transform="scale(1 1) rotate(0) translate(4 100)">
<title>TreeNode::is_leaf</title>
<polygon fill="#ffffff" stroke="transparent" points="-4,4 -4,-100 593,-100 593,4 -4,4"/>
<!-- Node5 -->
<g id="node1" class="node">
<title>Node5</title>
<polygon fill="#bfbfbf" stroke="#000000" points="0,-38.5 0,-57.5 94,-57.5 94,-38.5 0,-38.5"/>
<text text-anchor="middle" x="47" y="-45.5" font-family="Helvetica,sans-Serif" font-size="10.00" fill="#000000">TreeNode::is_leaf</text>
</g>
<!-- Node6 -->
<g id="node2" class="node">
<title>Node6</title>
<g id="a_node2"><a xlink:href="class_d_p_tree.html#a07314c44bb7b7ca37c735b70de3ccb9e" target="_top" xlink:title="DPTree::make_tree_DFS">
<polygon fill="#ffffff" stroke="#000000" points="130,-76.5 130,-95.5 258,-95.5 258,-76.5 130,-76.5"/>
<text text-anchor="middle" x="194" y="-83.5" font-family="Helvetica,sans-Serif" font-size="10.00" fill="#000000">DPTree::make_tree_DFS</text>
</a>
</g>
</g>
<!-- Node5&#45;&gt;Node6 -->
<g id="edge1" class="edge">
<title>Node5&#45;&gt;Node6</title>
<path fill="none" stroke="#191970" d="M93.8548,-60.1121C114.3276,-65.4044 137.9903,-71.5213 157.1724,-76.4799"/>
<polygon fill="#191970" stroke="#191970" points="94.652,-56.7032 84.0943,-57.589 92.9001,-63.4805 94.652,-56.7032"/>
</g>
<!-- Node10 -->
<g id="node6" class="node">
<title>Node10</title>
<g id="a_node6"><a xlink:href="class_d_p_tree.html#ad8ad2f100c65b9961bd6b2c4af46636c" target="_top" xlink:title="DPTree::_predict">
<polygon fill="#ffffff" stroke="#000000" points="148.5,-38.5 148.5,-57.5 239.5,-57.5 239.5,-38.5 148.5,-38.5"/>
<text text-anchor="middle" x="194" y="-45.5" font-family="Helvetica,sans-Serif" font-size="10.00" fill="#000000">DPTree::_predict</text>
</a>
</g>
</g>
<!-- Node5&#45;&gt;Node10 -->
<g id="edge5" class="edge">
<title>Node5&#45;&gt;Node10</title>
<path fill="none" stroke="#191970" d="M104.6719,-48C119.1428,-48 134.473,-48 148.2721,-48"/>
<polygon fill="#191970" stroke="#191970" points="104.3209,-44.5001 94.3209,-48 104.3208,-51.5001 104.3209,-44.5001"/>
</g>
<!-- Node12 -->
<g id="node8" class="node">
<title>Node12</title>
<g id="a_node8"><a xlink:href="class_d_p_tree.html#afc4d6d427b66508a5133c3db40dde9e8" target="_top" xlink:title="DPTree::delete_tree">
<polygon fill="#ffffff" stroke="#000000" points="142,-.5 142,-19.5 246,-19.5 246,-.5 142,-.5"/>
<text text-anchor="middle" x="194" y="-7.5" font-family="Helvetica,sans-Serif" font-size="10.00" fill="#000000">DPTree::delete_tree</text>
</a>
</g>
</g>
<!-- Node5&#45;&gt;Node12 -->
<g id="edge7" class="edge">
<title>Node5&#45;&gt;Node12</title>
<path fill="none" stroke="#191970" d="M93.8548,-35.8879C114.3276,-30.5956 137.9903,-24.4787 157.1724,-19.5201"/>
<polygon fill="#191970" stroke="#191970" points="92.9001,-32.5195 84.0943,-38.411 94.652,-39.2968 92.9001,-32.5195"/>
</g>
<!-- Node7 -->
<g id="node3" class="node">
<title>Node7</title>
<g id="a_node3"><a xlink:href="class_d_p_tree.html#a82b9507f4f5d056b98f40871b304f943" target="_top" xlink:title="DPTree::fit">
<polygon fill="#ffffff" stroke="#000000" points="304.5,-76.5 304.5,-95.5 369.5,-95.5 369.5,-76.5 304.5,-76.5"/>
<text text-anchor="middle" x="337" y="-83.5" font-family="Helvetica,sans-Serif" font-size="10.00" fill="#000000">DPTree::fit</text>
</a>
</g>
</g>
<!-- Node6&#45;&gt;Node7 -->
<g id="edge2" class="edge">
<title>Node6&#45;&gt;Node7</title>
<path fill="none" stroke="#191970" d="M268.4608,-86C281.0247,-86 293.4664,-86 304.2307,-86"/>
<polygon fill="#191970" stroke="#191970" points="268.3884,-82.5001 258.3884,-86 268.3884,-89.5001 268.3884,-82.5001"/>
</g>
<!-- Node8 -->
<g id="node4" class="node">
<title>Node8</title>
<g id="a_node4"><a xlink:href="class_d_p_ensemble.html#a1652b5fde834bfb18416ebf438d3e10a" target="_top" xlink:title="DPEnsemble::train">
<polygon fill="#ffffff" stroke="#000000" points="416,-76.5 416,-95.5 515,-95.5 515,-76.5 416,-76.5"/>
<text text-anchor="middle" x="465.5" y="-83.5" font-family="Helvetica,sans-Serif" font-size="10.00" fill="#000000">DPEnsemble::train</text>
</a>
</g>
</g>
<!-- Node7&#45;&gt;Node8 -->
<g id="edge3" class="edge">
<title>Node7&#45;&gt;Node8</title>
<path fill="none" stroke="#191970" d="M379.9739,-86C391.4643,-86 403.978,-86 415.7984,-86"/>
<polygon fill="#191970" stroke="#191970" points="379.7585,-82.5001 369.7585,-86 379.7584,-89.5001 379.7585,-82.5001"/>
</g>
<!-- Node9 -->
<g id="node5" class="node">
<title>Node9</title>
<g id="a_node5"><a xlink:href="main_8cpp.html#a3c04138a5bfe5d72780bb7e82a18e627" target="_top" xlink:title="main">
<polygon fill="#ffffff" stroke="#000000" points="551,-76.5 551,-95.5 589,-95.5 589,-76.5 551,-76.5"/>
<text text-anchor="middle" x="570" y="-83.5" font-family="Helvetica,sans-Serif" font-size="10.00" fill="#000000">main</text>
</a>
</g>
</g>
<!-- Node8&#45;&gt;Node9 -->
<g id="edge4" class="edge">
<title>Node8&#45;&gt;Node9</title>
<path fill="none" stroke="#191970" d="M525.3404,-86C534.5271,-86 543.394,-86 550.7722,-86"/>
<polygon fill="#191970" stroke="#191970" points="525.3016,-82.5001 515.3016,-86 525.3015,-89.5001 525.3016,-82.5001"/>
</g>
<!-- Node11 -->
<g id="node7" class="node">
<title>Node11</title>
<g id="a_node7"><a xlink:href="class_d_p_tree.html#a39f0f669f0e72d17e6177e2a7d6d7abd" target="_top" xlink:title="DPTree::predict">
<polygon fill="#ffffff" stroke="#000000" points="294,-38.5 294,-57.5 380,-57.5 380,-38.5 294,-38.5"/>
<text text-anchor="middle" x="337" y="-45.5" font-family="Helvetica,sans-Serif" font-size="10.00" fill="#000000">DPTree::predict</text>
</a>
</g>
</g>
<!-- Node10&#45;&gt;Node11 -->
<g id="edge6" class="edge">
<title>Node10&#45;&gt;Node11</title>
<path fill="none" stroke="#191970" d="M250.0241,-48C264.5536,-48 279.9786,-48 293.7406,-48"/>
<polygon fill="#191970" stroke="#191970" points="249.6393,-44.5001 239.6393,-48 249.6392,-51.5001 249.6393,-44.5001"/>
</g>
</g>
</svg>
