<?xml version="1.0" encoding="UTF-8" standalone="no"?>
<!DOCTYPE svg PUBLIC "-//W3C//DTD SVG 1.1//EN"
 "http://www.w3.org/Graphics/SVG/1.1/DTD/svg11.dtd">
<!-- Generated by graphviz version 2.40.1 (20161225.0304)
 -->
<!-- Title: DPTree::add_laplacian_noise Pages: 1 -->
<svg width="289pt" height="39pt"
 viewBox="0.00 0.00 289.00 39.00" xmlns="http://www.w3.org/2000/svg" xmlns:xlink="http://www.w3.org/1999/xlink">
<g id="graph0" class="graph" transform="scale(1 1) rotate(0) translate(4 35)">
<title>DPTree::add_laplacian_noise</title>
<polygon fill="#ffffff" stroke="transparent" points="-4,4 -4,-35 285,-35 285,4 -4,4"/>
<!-- Node6 -->
<g id="node1" class="node">
<title>Node6</title>
<polygon fill="#bfbfbf" stroke="#000000" points="0,-.5 0,-30.5 116,-30.5 116,-.5 0,-.5"/>
<text text-anchor="start" x="8" y="-18.5" font-family="Helvetica,sans-Serif" font-size="10.00" fill="#000000">DPTree::add_laplacian</text>
<text text-anchor="middle" x="58" y="-7.5" font-family="Helvetica,sans-Serif" font-size="10.00" fill="#000000">_noise</text>
</g>
<!-- Node7 -->
<g id="node2" class="node">
<title>Node7</title>
<g id="a_node2"><a xlink:href="class_laplace.html#a357965a9024cbdb3866973b5ef22500c" target="_top" xlink:title="Laplace::return_a_random\l_variable">
<polygon fill="#ffffff" stroke="#000000" points="152,-.5 152,-30.5 281,-30.5 281,-.5 152,-.5"/>
<text text-anchor="start" x="160" y="-18.5" font-family="Helvetica,sans-Serif" font-size="10.00" fill="#000000">Laplace::return_a_random</text>
<text text-anchor="middle" x="216.5" y="-7.5" font-family="Helvetica,sans-Serif" font-size="10.00" fill="#000000">_variable</text>
</a>
</g>
</g>
<!-- Node6&#45;&gt;Node7 -->
<g id="edge1" class="edge">
<title>Node6&#45;&gt;Node7</title>
<path fill="none" stroke="#191970" d="M116.1195,-15.5C124.5019,-15.5 133.2244,-15.5 141.8733,-15.5"/>
<polygon fill="#191970" stroke="#191970" points="141.9677,-19.0001 151.9677,-15.5 141.9677,-12.0001 141.9677,-19.0001"/>
</g>
</g>
</svg>
