<?xml version="1.0" encoding="UTF-8" standalone="no"?>
<!DOCTYPE svg PUBLIC "-//W3C//DTD SVG 1.1//EN"
 "http://www.w3.org/Graphics/SVG/1.1/DTD/svg11.dtd">
<!-- Generated by graphviz version 2.40.1 (20161225.0304)
 -->
<!-- Title: DPTree::fit Pages: 1 -->
<svg width="702pt" height="154pt"
 viewBox="0.00 0.00 702.00 154.00" xmlns="http://www.w3.org/2000/svg" xmlns:xlink="http://www.w3.org/1999/xlink">
<g id="graph0" class="graph" transform="scale(1 1) rotate(0) translate(4 150)">
<title>DPTree::fit</title>
<polygon fill="#ffffff" stroke="transparent" points="-4,4 -4,-150 698,-150 698,4 -4,4"/>
<!-- Node30 -->
<g id="node1" class="node">
<title>Node30</title>
<polygon fill="#bfbfbf" stroke="#000000" points="0,-57.5 0,-76.5 65,-76.5 65,-57.5 0,-57.5"/>
<text text-anchor="middle" x="32.5" y="-64.5" font-family="Helvetica,sans-Serif" font-size="10.00" fill="#000000">DPTree::fit</text>
</g>
<!-- Node31 -->
<g id="node2" class="node">
<title>Node31</title>
<g id="a_node2"><a xlink:href="class_d_p_tree.html#a07314c44bb7b7ca37c735b70de3ccb9e" target="_top" xlink:title="DPTree::make_tree_DFS">
<polygon fill="#ffffff" stroke="#000000" points="101,-57.5 101,-76.5 229,-76.5 229,-57.5 101,-57.5"/>
<text text-anchor="middle" x="165" y="-64.5" font-family="Helvetica,sans-Serif" font-size="10.00" fill="#000000">DPTree::make_tree_DFS</text>
</a>
</g>
</g>
<!-- Node30&#45;&gt;Node31 -->
<g id="edge1" class="edge">
<title>Node30&#45;&gt;Node31</title>
<path fill="none" stroke="#191970" d="M65.2528,-67C73.1037,-67 81.8063,-67 90.7054,-67"/>
<polygon fill="#191970" stroke="#191970" points="90.8014,-70.5001 100.8013,-67 90.8013,-63.5001 90.8014,-70.5001"/>
</g>
<!-- Node32 -->
<g id="node3" class="node">
<title>Node32</title>
<g id="a_node3"><a xlink:href="class_d_p_tree.html#a3a716a075edfae470e0fe7511634e922" target="_top" xlink:title="DPTree::make_leaf_node">
<polygon fill="#ffffff" stroke="#000000" points="265,-117.5 265,-136.5 393,-136.5 393,-117.5 265,-117.5"/>
<text text-anchor="middle" x="329" y="-124.5" font-family="Helvetica,sans-Serif" font-size="10.00" fill="#000000">DPTree::make_leaf_node</text>
</a>
</g>
</g>
<!-- Node31&#45;&gt;Node32 -->
<g id="edge2" class="edge">
<title>Node31&#45;&gt;Node32</title>
<path fill="none" stroke="#191970" d="M186.6055,-76.5956C206.6968,-85.3416 237.57,-98.3327 265,-108 271.3897,-110.252 278.1982,-112.4661 284.901,-114.5423"/>
<polygon fill="#191970" stroke="#191970" points="283.9996,-117.9262 294.5848,-117.4738 286.0278,-111.2265 283.9996,-117.9262"/>
</g>
<!-- Node33 -->
<g id="node4" class="node">
<title>Node33</title>
<g id="a_node4"><a xlink:href="class_d_p_tree.html#ad7f8755be37ad10cf104fba2076dce5e" target="_top" xlink:title="DPTree::find_best_split">
<polygon fill="#ffffff" stroke="#000000" points="269.5,-79.5 269.5,-98.5 388.5,-98.5 388.5,-79.5 269.5,-79.5"/>
<text text-anchor="middle" x="329" y="-86.5" font-family="Helvetica,sans-Serif" font-size="10.00" fill="#000000">DPTree::find_best_split</text>
</a>
</g>
</g>
<!-- Node31&#45;&gt;Node33 -->
<g id="edge3" class="edge">
<title>Node31&#45;&gt;Node33</title>
<path fill="none" stroke="#191970" d="M229.3464,-75.6318C239.1369,-76.9452 249.2799,-78.3058 259.1805,-79.634"/>
<polygon fill="#191970" stroke="#191970" points="259.0088,-83.1422 269.3854,-81.0029 259.9396,-76.2044 259.0088,-83.1422"/>
</g>
<!-- Node35 -->
<g id="node6" class="node">
<title>Node35</title>
<g id="a_node6"><a xlink:href="class_d_p_tree.html#af16f3e0373e606fe42b2104890b2d036" target="_top" xlink:title="DPTree::samples_left\l_right_partition">
<polygon fill="#ffffff" stroke="#000000" points="582,-77 582,-107 694,-107 694,-77 582,-77"/>
<text text-anchor="start" x="590" y="-95" font-family="Helvetica,sans-Serif" font-size="10.00" fill="#000000">DPTree::samples_left</text>
<text text-anchor="middle" x="638" y="-84" font-family="Helvetica,sans-Serif" font-size="10.00" fill="#000000">_right_partition</text>
</a>
</g>
</g>
<!-- Node31&#45;&gt;Node35 -->
<g id="edge8" class="edge">
<title>Node31&#45;&gt;Node35</title>
<path fill="none" stroke="#191970" d="M229.0468,-61.8548C305.0318,-56.9356 435.3597,-52.2351 546,-67 557.92,-68.5907 570.4845,-71.2923 582.3675,-74.3459"/>
<polygon fill="#191970" stroke="#191970" points="581.5941,-77.7622 592.1598,-76.9772 583.4106,-71.002 581.5941,-77.7622"/>
</g>
<!-- Node37 -->
<g id="node8" class="node">
<title>Node37</title>
<g id="a_node8"><a xlink:href="class_tree_node.html#ae671fa006ebb36f632b46b5aa1ec2899" target="_top" xlink:title="TreeNode::is_leaf">
<polygon fill="#ffffff" stroke="#000000" points="282,-.5 282,-19.5 376,-19.5 376,-.5 282,-.5"/>
<text text-anchor="middle" x="329" y="-7.5" font-family="Helvetica,sans-Serif" font-size="10.00" fill="#000000">TreeNode::is_leaf</text>
</a>
</g>
</g>
<!-- Node31&#45;&gt;Node37 -->
<g id="edge7" class="edge">
<title>Node31&#45;&gt;Node37</title>
<path fill="none" stroke="#191970" d="M192.4499,-57.4595C219.6487,-48.0062 261.5017,-33.4598 291.703,-22.963"/>
<polygon fill="#191970" stroke="#191970" points="293.1638,-26.1607 301.4605,-19.5716 290.8657,-19.5487 293.1638,-26.1607"/>
</g>
<!-- Node34 -->
<g id="node5" class="node">
<title>Node34</title>
<g id="a_node5"><a xlink:href="class_d_p_tree.html#ab9426a6ac2e5122e29ecbb6e9c4cd050" target="_top" xlink:title="DPTree::compute_gain">
<polygon fill="#ffffff" stroke="#000000" points="429,-126.5 429,-145.5 546,-145.5 546,-126.5 429,-126.5"/>
<text text-anchor="middle" x="487.5" y="-133.5" font-family="Helvetica,sans-Serif" font-size="10.00" fill="#000000">DPTree::compute_gain</text>
</a>
</g>
</g>
<!-- Node33&#45;&gt;Node34 -->
<g id="edge4" class="edge">
<title>Node33&#45;&gt;Node34</title>
<path fill="none" stroke="#191970" d="M361.0748,-98.5112C385.3785,-105.7179 418.9889,-115.6844 445.4459,-123.5297"/>
<polygon fill="#191970" stroke="#191970" points="444.6188,-126.935 455.2012,-126.4224 446.6089,-120.2239 444.6188,-126.935"/>
</g>
<!-- Node36 -->
<g id="node7" class="node">
<title>Node36</title>
<g id="a_node7"><a xlink:href="class_d_p_tree.html#a7ce368c3888736d660dcf09587df4512" target="_top" xlink:title="DPTree::exponential\l_mechanism">
<polygon fill="#ffffff" stroke="#000000" points="434.5,-77 434.5,-107 540.5,-107 540.5,-77 434.5,-77"/>
<text text-anchor="start" x="442.5" y="-95" font-family="Helvetica,sans-Serif" font-size="10.00" fill="#000000">DPTree::exponential</text>
<text text-anchor="middle" x="487.5" y="-84" font-family="Helvetica,sans-Serif" font-size="10.00" fill="#000000">_mechanism</text>
</a>
</g>
</g>
<!-- Node33&#45;&gt;Node36 -->
<g id="edge6" class="edge">
<title>Node33&#45;&gt;Node36</title>
<path fill="none" stroke="#191970" d="M388.9221,-90.1342C400.4486,-90.3523 412.5561,-90.5815 424.1861,-90.8016"/>
<polygon fill="#191970" stroke="#191970" points="424.1923,-94.3023 434.2567,-90.9922 424.3248,-87.3035 424.1923,-94.3023"/>
</g>
<!-- Node34&#45;&gt;Node35 -->
<g id="edge5" class="edge">
<title>Node34&#45;&gt;Node35</title>
<path fill="none" stroke="#191970" d="M520.1563,-126.4527C536.7226,-121.6094 557.3955,-115.5654 576.7806,-109.898"/>
<polygon fill="#191970" stroke="#191970" points="577.8536,-113.2309 586.4696,-107.0654 575.8892,-106.5122 577.8536,-113.2309"/>
</g>
</g>
</svg>
