<?xml version="1.0" encoding="UTF-8" standalone="no"?>
<!DOCTYPE svg PUBLIC "-//W3C//DTD SVG 1.1//EN"
 "http://www.w3.org/Graphics/SVG/1.1/DTD/svg11.dtd">
<!-- Generated by graphviz version 2.40.1 (20161225.0304)
 -->
<!-- Title: DPEnsemble::predict Pages: 1 -->
<svg width="473pt" height="59pt"
 viewBox="0.00 0.00 473.00 58.50" xmlns="http://www.w3.org/2000/svg" xmlns:xlink="http://www.w3.org/1999/xlink">
<g id="graph0" class="graph" transform="scale(1 1) rotate(0) translate(4 54.5)">
<title>DPEnsemble::predict</title>
<polygon fill="#ffffff" stroke="transparent" points="-4,4 -4,-54.5 469,-54.5 469,4 -4,4"/>
<!-- Node5 -->
<g id="node1" class="node">
<title>Node5</title>
<polygon fill="#bfbfbf" stroke="#000000" points="0,-3.5 0,-22.5 110,-22.5 110,-3.5 0,-3.5"/>
<text text-anchor="middle" x="55" y="-10.5" font-family="Helvetica,sans-Serif" font-size="10.00" fill="#000000">DPEnsemble::predict</text>
</g>
<!-- Node6 -->
<g id="node2" class="node">
<title>Node6</title>
<g id="a_node2"><a xlink:href="class_d_p_ensemble.html#a2b446f94f9da238cae22580813c91196" target="_top" xlink:title="DPEnsemble::update\l_gradients">
<polygon fill="#ffffff" stroke="#000000" points="146,-20 146,-50 256,-50 256,-20 146,-20"/>
<text text-anchor="start" x="154" y="-38" font-family="Helvetica,sans-Serif" font-size="10.00" fill="#000000">DPEnsemble::update</text>
<text text-anchor="middle" x="201" y="-27" font-family="Helvetica,sans-Serif" font-size="10.00" fill="#000000">_gradients</text>
</a>
</g>
</g>
<!-- Node5&#45;&gt;Node6 -->
<g id="edge1" class="edge">
<title>Node5&#45;&gt;Node6</title>
<path fill="none" stroke="#191970" d="M120.1314,-22.8143C128.6759,-24.1018 137.3658,-25.4113 145.7256,-26.671"/>
<polygon fill="#191970" stroke="#191970" points="120.6062,-19.3464 110.1963,-21.3173 119.5632,-26.2683 120.6062,-19.3464"/>
</g>
<!-- Node8 -->
<g id="node4" class="node">
<title>Node8</title>
<g id="a_node4"><a xlink:href="main_8cpp.html#a3c04138a5bfe5d72780bb7e82a18e627" target="_top" xlink:title="main">
<polygon fill="#ffffff" stroke="#000000" points="427,-.5 427,-19.5 465,-19.5 465,-.5 427,-.5"/>
<text text-anchor="middle" x="446" y="-7.5" font-family="Helvetica,sans-Serif" font-size="10.00" fill="#000000">main</text>
</a>
</g>
</g>
<!-- Node5&#45;&gt;Node8 -->
<g id="edge4" class="edge">
<title>Node5&#45;&gt;Node8</title>
<path fill="none" stroke="#191970" d="M120.3737,-10.5855C128.9912,-10.3433 137.7073,-10.1367 146,-10 251.9752,-8.2536 379.0366,-9.2837 426.6947,-9.7797"/>
<polygon fill="#191970" stroke="#191970" points="120.2255,-7.0883 110.334,-10.8842 120.4337,-14.0852 120.2255,-7.0883"/>
</g>
<!-- Node7 -->
<g id="node3" class="node">
<title>Node7</title>
<g id="a_node3"><a xlink:href="class_d_p_ensemble.html#a1652b5fde834bfb18416ebf438d3e10a" target="_top" xlink:title="DPEnsemble::train">
<polygon fill="#ffffff" stroke="#000000" points="292,-22.5 292,-41.5 391,-41.5 391,-22.5 292,-22.5"/>
<text text-anchor="middle" x="341.5" y="-29.5" font-family="Helvetica,sans-Serif" font-size="10.00" fill="#000000">DPEnsemble::train</text>
</a>
</g>
</g>
<!-- Node6&#45;&gt;Node7 -->
<g id="edge2" class="edge">
<title>Node6&#45;&gt;Node7</title>
<path fill="none" stroke="#191970" d="M266.3733,-33.6041C274.84,-33.4233 283.4017,-33.2405 291.5632,-33.0663"/>
<polygon fill="#191970" stroke="#191970" points="266.049,-30.1102 256.1261,-33.8229 266.1985,-37.1086 266.049,-30.1102"/>
</g>
<!-- Node7&#45;&gt;Node8 -->
<g id="edge3" class="edge">
<title>Node7&#45;&gt;Node8</title>
<path fill="none" stroke="#191970" d="M396.7168,-20.3754C407.6007,-18.0841 418.3123,-15.829 426.9546,-14.0096"/>
<polygon fill="#191970" stroke="#191970" points="395.7919,-16.9933 386.7274,-22.4784 397.234,-23.8432 395.7919,-16.9933"/>
</g>
</g>
</svg>
