<?xml version="1.0" encoding="UTF-8" standalone="no"?>
<!DOCTYPE svg PUBLIC "-//W3C//DTD SVG 1.1//EN"
 "http://www.w3.org/Graphics/SVG/1.1/DTD/svg11.dtd">
<!-- Generated by graphviz version 2.40.1 (20161225.0304)
 -->
<!-- Title: DPEnsemble::update_gradients Pages: 1 -->
<svg width="534pt" height="39pt"
 viewBox="0.00 0.00 534.00 39.00" xmlns="http://www.w3.org/2000/svg" xmlns:xlink="http://www.w3.org/1999/xlink">
<g id="graph0" class="graph" transform="scale(1 1) rotate(0) translate(4 35)">
<title>DPEnsemble::update_gradients</title>
<polygon fill="#ffffff" stroke="transparent" points="-4,4 -4,-35 530,-35 530,4 -4,4"/>
<!-- Node28 -->
<g id="node1" class="node">
<title>Node28</title>
<polygon fill="#bfbfbf" stroke="#000000" points="0,-.5 0,-30.5 110,-30.5 110,-.5 0,-.5"/>
<text text-anchor="start" x="8" y="-18.5" font-family="Helvetica,sans-Serif" font-size="10.00" fill="#000000">DPEnsemble::update</text>
<text text-anchor="middle" x="55" y="-7.5" font-family="Helvetica,sans-Serif" font-size="10.00" fill="#000000">_gradients</text>
</g>
<!-- Node29 -->
<g id="node2" class="node">
<title>Node29</title>
<g id="a_node2"><a xlink:href="class_d_p_ensemble.html#a4c4302580bdbeaa4ca2c2091cad018c5" target="_top" xlink:title="DPEnsemble::predict\l_ensemble">
<polygon fill="#ffffff" stroke="#000000" points="146,-.5 146,-30.5 256,-30.5 256,-.5 146,-.5"/>
<text text-anchor="start" x="154" y="-18.5" font-family="Helvetica,sans-Serif" font-size="10.00" fill="#000000">DPEnsemble::predict</text>
<text text-anchor="middle" x="201" y="-7.5" font-family="Helvetica,sans-Serif" font-size="10.00" fill="#000000">_ensemble</text>
</a>
</g>
</g>
<!-- Node28&#45;&gt;Node29 -->
<g id="edge1" class="edge">
<title>Node28&#45;&gt;Node29</title>
<path fill="none" stroke="#191970" d="M110.1963,-15.5C118.4633,-15.5 127.0546,-15.5 135.5101,-15.5"/>
<polygon fill="#191970" stroke="#191970" points="135.7256,-19.0001 145.7256,-15.5 135.7256,-12.0001 135.7256,-19.0001"/>
</g>
<!-- Node30 -->
<g id="node3" class="node">
<title>Node30</title>
<g id="a_node3"><a xlink:href="class_d_p_tree.html#a1e28d69924f6d57ea7e57ad8ee138f42" target="_top" xlink:title="DPTree::predict_tree">
<polygon fill="#ffffff" stroke="#000000" points="292,-6 292,-25 399,-25 399,-6 292,-6"/>
<text text-anchor="middle" x="345.5" y="-13" font-family="Helvetica,sans-Serif" font-size="10.00" fill="#000000">DPTree::predict_tree</text>
</a>
</g>
</g>
<!-- Node29&#45;&gt;Node30 -->
<g id="edge2" class="edge">
<title>Node29&#45;&gt;Node30</title>
<path fill="none" stroke="#191970" d="M256.0415,-15.5C264.32,-15.5 272.9186,-15.5 281.3672,-15.5"/>
<polygon fill="#191970" stroke="#191970" points="281.5668,-19.0001 291.5667,-15.5 281.5667,-12.0001 281.5668,-19.0001"/>
</g>
<!-- Node31 -->
<g id="node4" class="node">
<title>Node31</title>
<g id="a_node4"><a xlink:href="class_d_p_tree.html#ad8ad2f100c65b9961bd6b2c4af46636c" target="_top" xlink:title="DPTree::_predict">
<polygon fill="#ffffff" stroke="#000000" points="435,-6 435,-25 526,-25 526,-6 435,-6"/>
<text text-anchor="middle" x="480.5" y="-13" font-family="Helvetica,sans-Serif" font-size="10.00" fill="#000000">DPTree::_predict</text>
</a>
</g>
</g>
<!-- Node30&#45;&gt;Node31 -->
<g id="edge3" class="edge">
<title>Node30&#45;&gt;Node31</title>
<path fill="none" stroke="#191970" d="M399.2435,-15.5C407.6075,-15.5 416.2657,-15.5 424.6747,-15.5"/>
<polygon fill="#191970" stroke="#191970" points="424.7717,-19.0001 434.7716,-15.5 424.7716,-12.0001 424.7717,-19.0001"/>
</g>
</g>
</svg>
