<?xml version="1.0" encoding="UTF-8" standalone="no"?>
<!DOCTYPE svg PUBLIC "-//W3C//DTD SVG 1.1//EN"
 "http://www.w3.org/Graphics/SVG/1.1/DTD/svg11.dtd">
<!-- Generated by graphviz version 2.40.1 (20161225.0304)
 -->
<!-- Title: include/data.h Pages: 1 -->
<svg width="220pt" height="252pt"
 viewBox="0.00 0.00 219.92 252.00" xmlns="http://www.w3.org/2000/svg" xmlns:xlink="http://www.w3.org/1999/xlink">
<g id="graph0" class="graph" transform="scale(1 1) rotate(0) translate(4 248)">
<title>include/data.h</title>
<polygon fill="#ffffff" stroke="transparent" points="-4,4 -4,-248 215.9196,-248 215.9196,4 -4,4"/>
<!-- Node0 -->
<g id="node1" class="node">
<title>Node0</title>
<polygon fill="#bfbfbf" stroke="#000000" points="20.9196,-224.5 20.9196,-243.5 97.9196,-243.5 97.9196,-224.5 20.9196,-224.5"/>
<text text-anchor="middle" x="59.4196" y="-231.5" font-family="Helvetica,sans-Serif" font-size="10.00" fill="#000000">include/data.h</text>
</g>
<!-- Node1 -->
<g id="node2" class="node">
<title>Node1</title>
<polygon fill="#ffffff" stroke="#bfbfbf" points="29.4196,-.5 29.4196,-19.5 73.4196,-19.5 73.4196,-.5 29.4196,-.5"/>
<text text-anchor="middle" x="51.4196" y="-7.5" font-family="Helvetica,sans-Serif" font-size="10.00" fill="#000000">vector</text>
</g>
<!-- Node0&#45;&gt;Node1 -->
<g id="edge1" class="edge">
<title>Node0&#45;&gt;Node1</title>
<path fill="none" stroke="#191970" d="M42.6822,-224.2988C30.6611,-216.2823 15.3965,-203.6887 8.4196,-188 -16.1541,-132.7428 19.5333,-61.3242 39.4948,-28.2714"/>
<polygon fill="#191970" stroke="#191970" points="42.546,-29.9932 44.8734,-19.6571 36.6083,-26.2858 42.546,-29.9932"/>
</g>
<!-- Node2 -->
<g id="node3" class="node">
<title>Node2</title>
<polygon fill="#ffffff" stroke="#bfbfbf" points="17.4196,-168.5 17.4196,-187.5 47.4196,-187.5 47.4196,-168.5 17.4196,-168.5"/>
<text text-anchor="middle" x="32.4196" y="-175.5" font-family="Helvetica,sans-Serif" font-size="10.00" fill="#000000">set</text>
</g>
<!-- Node0&#45;&gt;Node2 -->
<g id="edge2" class="edge">
<title>Node0&#45;&gt;Node2</title>
<path fill="none" stroke="#191970" d="M54.7165,-224.2455C51.0772,-216.6973 45.9272,-206.0158 41.4934,-196.8197"/>
<polygon fill="#191970" stroke="#191970" points="44.5644,-195.1303 37.0687,-187.6427 38.2591,-198.1704 44.5644,-195.1303"/>
</g>
<!-- Node3 -->
<g id="node4" class="node">
<title>Node3</title>
<g id="a_node4"><a xlink:href="utils_8h.html" target="_top" xlink:title="utils.h">
<polygon fill="#ffffff" stroke="#000000" points="65.9196,-168.5 65.9196,-187.5 108.9196,-187.5 108.9196,-168.5 65.9196,-168.5"/>
<text text-anchor="middle" x="87.4196" y="-175.5" font-family="Helvetica,sans-Serif" font-size="10.00" fill="#000000">utils.h</text>
</a>
</g>
</g>
<!-- Node0&#45;&gt;Node3 -->
<g id="edge3" class="edge">
<title>Node0&#45;&gt;Node3</title>
<path fill="none" stroke="#191970" d="M59.0299,-224.2455C61.3958,-216.5367 66.5162,-205.5598 71.9311,-196.2348"/>
<polygon fill="#191970" stroke="#191970" points="74.9763,-197.9675 77.3531,-187.6427 69.0564,-194.2318 74.9763,-197.9675"/>
</g>
<!-- Node3&#45;&gt;Node0 -->
<g id="edge11" class="edge">
<title>Node3&#45;&gt;Node0</title>
<path fill="none" stroke="#191970" d="M87.8434,-187.6427C85.5043,-195.3197 80.3987,-206.2887 74.9867,-215.6296"/>
<polygon fill="#191970" stroke="#191970" points="71.9284,-213.918 69.5636,-224.2455 77.8526,-217.6468 71.9284,-213.918"/>
</g>
<!-- Node3&#45;&gt;Node1 -->
<g id="edge4" class="edge">
<title>Node3&#45;&gt;Node1</title>
<path fill="none" stroke="#191970" d="M76.5648,-168.2679C67.8853,-159.7019 56.3779,-146.3808 51.4196,-132 39.5054,-97.4449 43.654,-54.0386 47.6234,-29.4167"/>
<polygon fill="#191970" stroke="#191970" points="51.0776,-29.9823 49.3762,-19.525 44.185,-28.7609 51.0776,-29.9823"/>
</g>
<!-- Node4 -->
<g id="node5" class="node">
<title>Node4</title>
<polygon fill="#ffffff" stroke="#bfbfbf" points="60.9196,-112.5 60.9196,-131.5 101.9196,-131.5 101.9196,-112.5 60.9196,-112.5"/>
<text text-anchor="middle" x="81.4196" y="-119.5" font-family="Helvetica,sans-Serif" font-size="10.00" fill="#000000">string</text>
</g>
<!-- Node3&#45;&gt;Node4 -->
<g id="edge5" class="edge">
<title>Node3&#45;&gt;Node4</title>
<path fill="none" stroke="#191970" d="M86.3744,-168.2455C85.5915,-160.9382 84.494,-150.6944 83.5308,-141.7046"/>
<polygon fill="#191970" stroke="#191970" points="86.9982,-141.2129 82.4527,-131.6427 80.038,-141.9587 86.9982,-141.2129"/>
</g>
<!-- Node5 -->
<g id="node6" class="node">
<title>Node5</title>
<g id="a_node6"><a xlink:href="parameters_8h.html" target="_top" xlink:title="parameters.h">
<polygon fill="#ffffff" stroke="#000000" points="120.4196,-112.5 120.4196,-131.5 194.4196,-131.5 194.4196,-112.5 120.4196,-112.5"/>
<text text-anchor="middle" x="157.4196" y="-119.5" font-family="Helvetica,sans-Serif" font-size="10.00" fill="#000000">parameters.h</text>
</a>
</g>
</g>
<!-- Node3&#45;&gt;Node5 -->
<g id="edge6" class="edge">
<title>Node3&#45;&gt;Node5</title>
<path fill="none" stroke="#191970" d="M99.6126,-168.2455C110.0517,-159.8943 125.285,-147.7076 137.4935,-137.9408"/>
<polygon fill="#191970" stroke="#191970" points="139.744,-140.6227 145.3662,-131.6427 135.3711,-135.1566 139.744,-140.6227"/>
</g>
<!-- Node5&#45;&gt;Node1 -->
<g id="edge8" class="edge">
<title>Node5&#45;&gt;Node1</title>
<path fill="none" stroke="#191970" d="M138.6951,-112.4272C123.9926,-104.2317 103.6893,-91.3415 89.4196,-76 76.5214,-62.1331 66.1606,-43.1221 59.5356,-29.0645"/>
<polygon fill="#191970" stroke="#191970" points="62.6839,-27.5316 55.3889,-19.8482 56.3002,-30.4038 62.6839,-27.5316"/>
</g>
<!-- Node6 -->
<g id="node7" class="node">
<title>Node6</title>
<polygon fill="#ffffff" stroke="#bfbfbf" points="98.4196,-56.5 98.4196,-75.5 150.4196,-75.5 150.4196,-56.5 98.4196,-56.5"/>
<text text-anchor="middle" x="124.4196" y="-63.5" font-family="Helvetica,sans-Serif" font-size="10.00" fill="#000000">memory</text>
</g>
<!-- Node5&#45;&gt;Node6 -->
<g id="edge7" class="edge">
<title>Node5&#45;&gt;Node6</title>
<path fill="none" stroke="#191970" d="M151.6714,-112.2455C147.176,-104.617 140.7947,-93.7881 135.3371,-84.5267"/>
<polygon fill="#191970" stroke="#191970" points="138.1942,-82.4811 130.1019,-75.6427 132.1634,-86.035 138.1942,-82.4811"/>
</g>
<!-- Node7 -->
<g id="node8" class="node">
<title>Node7</title>
<g id="a_node8"><a xlink:href="loss_8h.html" target="_top" xlink:title="loss.h">
<polygon fill="#ffffff" stroke="#000000" points="168.9196,-56.5 168.9196,-75.5 211.9196,-75.5 211.9196,-56.5 168.9196,-56.5"/>
<text text-anchor="middle" x="190.4196" y="-63.5" font-family="Helvetica,sans-Serif" font-size="10.00" fill="#000000">loss.h</text>
</a>
</g>
</g>
<!-- Node5&#45;&gt;Node7 -->
<g id="edge9" class="edge">
<title>Node5&#45;&gt;Node7</title>
<path fill="none" stroke="#191970" d="M163.1677,-112.2455C167.6631,-104.617 174.0444,-93.7881 179.502,-84.5267"/>
<polygon fill="#191970" stroke="#191970" points="182.6757,-86.035 184.7373,-75.6427 176.6449,-82.4811 182.6757,-86.035"/>
</g>
<!-- Node7&#45;&gt;Node1 -->
<g id="edge10" class="edge">
<title>Node7&#45;&gt;Node1</title>
<path fill="none" stroke="#191970" d="M168.7008,-57.25C145.681,-47.9758 109.1062,-33.2407 82.9214,-22.6914"/>
<polygon fill="#191970" stroke="#191970" points="84.028,-19.3639 73.4445,-18.8734 81.4121,-25.8568 84.028,-19.3639"/>
</g>
</g>
</svg>
