<?xml version="1.0" encoding="UTF-8" standalone="no"?>
<!DOCTYPE svg PUBLIC "-//W3C//DTD SVG 1.1//EN"
 "http://www.w3.org/Graphics/SVG/1.1/DTD/svg11.dtd">
<!-- Generated by graphviz version 2.40.1 (20161225.0304)
 -->
<!-- Title: create_cross_validation_inputs Pages: 1 -->
<svg width="288pt" height="78pt"
 viewBox="0.00 0.00 288.00 77.50" xmlns="http://www.w3.org/2000/svg" xmlns:xlink="http://www.w3.org/1999/xlink">
<g id="graph0" class="graph" transform="scale(1 1) rotate(0) translate(4 73.5)">
<title>create_cross_validation_inputs</title>
<polygon fill="#ffffff" stroke="transparent" points="-4,4 -4,-73.5 284,-73.5 284,4 -4,4"/>
<!-- Node2 -->
<g id="node1" class="node">
<title>Node2</title>
<polygon fill="#bfbfbf" stroke="#000000" points="0,-17 0,-47 119,-47 119,-17 0,-17"/>
<text text-anchor="start" x="8" y="-35" font-family="Helvetica,sans-Serif" font-size="10.00" fill="#000000">create_cross_validation</text>
<text text-anchor="middle" x="59.5" y="-24" font-family="Helvetica,sans-Serif" font-size="10.00" fill="#000000">_inputs</text>
</g>
<!-- Node3 -->
<g id="node2" class="node">
<title>Node3</title>
<g id="a_node2"><a xlink:href="struct_train_test_split.html#a31428fbb8eeabbaee4bc9dbb56292b7b" target="_top" xlink:title="TrainTestSplit::TrainTest\lSplit">
<polygon fill="#ffffff" stroke="#000000" points="155,-39 155,-69 280,-69 280,-39 155,-39"/>
<text text-anchor="start" x="163" y="-57" font-family="Helvetica,sans-Serif" font-size="10.00" fill="#000000">TrainTestSplit::TrainTest</text>
<text text-anchor="middle" x="217.5" y="-46" font-family="Helvetica,sans-Serif" font-size="10.00" fill="#000000">Split</text>
</a>
</g>
</g>
<!-- Node2&#45;&gt;Node3 -->
<g id="edge1" class="edge">
<title>Node2&#45;&gt;Node3</title>
<path fill="none" stroke="#191970" d="M129.156,-41.6989C137.6872,-42.8868 146.3659,-44.0953 154.7865,-45.2677"/>
<polygon fill="#191970" stroke="#191970" points="129.6202,-38.2299 119.233,-40.3173 128.6548,-45.163 129.6202,-38.2299"/>
</g>
<!-- Node4 -->
<g id="node3" class="node">
<title>Node4</title>
<g id="a_node3"><a xlink:href="main_8cpp.html#a3c04138a5bfe5d72780bb7e82a18e627" target="_top" xlink:title="main">
<polygon fill="#ffffff" stroke="#000000" points="198.5,-.5 198.5,-19.5 236.5,-19.5 236.5,-.5 198.5,-.5"/>
<text text-anchor="middle" x="217.5" y="-7.5" font-family="Helvetica,sans-Serif" font-size="10.00" fill="#000000">main</text>
</a>
</g>
</g>
<!-- Node2&#45;&gt;Node4 -->
<g id="edge2" class="edge">
<title>Node2&#45;&gt;Node4</title>
<path fill="none" stroke="#191970" d="M129.1811,-22.2976C154.3936,-18.787 180.8902,-15.0976 198.2051,-12.6866"/>
<polygon fill="#191970" stroke="#191970" points="128.6548,-18.837 119.233,-23.6827 129.6202,-25.7701 128.6548,-18.837"/>
</g>
</g>
</svg>
