<?xml version="1.0" encoding="UTF-8" standalone="no"?>
<!DOCTYPE svg PUBLIC "-//W3C//DTD SVG 1.1//EN"
 "http://www.w3.org/Graphics/SVG/1.1/DTD/svg11.dtd">
<!-- Generated by graphviz version 2.40.1 (20161225.0304)
 -->
<!-- Title: include/data.h Pages: 1 -->
<svg width="447pt" height="252pt"
 viewBox="0.00 0.00 447.00 252.00" xmlns="http://www.w3.org/2000/svg" xmlns:xlink="http://www.w3.org/1999/xlink">
<g id="graph0" class="graph" transform="scale(1 1) rotate(0) translate(4 248)">
<title>include/data.h</title>
<polygon fill="#ffffff" stroke="transparent" points="-4,4 -4,-248 443,-248 443,4 -4,4"/>
<!-- Node8 -->
<g id="node1" class="node">
<title>Node8</title>
<polygon fill="#bfbfbf" stroke="#000000" points="183.5,-224.5 183.5,-243.5 260.5,-243.5 260.5,-224.5 183.5,-224.5"/>
<text text-anchor="middle" x="222" y="-231.5" font-family="Helvetica,sans-Serif" font-size="10.00" fill="#000000">include/data.h</text>
</g>
<!-- Node9 -->
<g id="node2" class="node">
<title>Node9</title>
<g id="a_node2"><a xlink:href="dp__tree_8h.html" target="_top" xlink:title="include/gbdt/dp_tree.h">
<polygon fill="#ffffff" stroke="#000000" points="67.5,-112.5 67.5,-131.5 180.5,-131.5 180.5,-112.5 67.5,-112.5"/>
<text text-anchor="middle" x="124" y="-119.5" font-family="Helvetica,sans-Serif" font-size="10.00" fill="#000000">include/gbdt/dp_tree.h</text>
</a>
</g>
</g>
<!-- Node8&#45;&gt;Node9 -->
<g id="edge1" class="edge">
<title>Node8&#45;&gt;Node9</title>
<path fill="none" stroke="#191970" d="M199.013,-218.7088C187.6538,-210.4581 174.2269,-199.6 164,-188 148.2281,-170.1105 135.0506,-145.1902 128.4848,-131.6652"/>
<polygon fill="#191970" stroke="#191970" points="197.0175,-221.5843 207.2093,-224.4791 201.0472,-215.8605 197.0175,-221.5843"/>
</g>
<!-- Node10 -->
<g id="node3" class="node">
<title>Node10</title>
<g id="a_node3"><a xlink:href="dp__ensemble_8h.html" target="_top" xlink:title="include/gbdt/dp_ensemble.h">
<polygon fill="#ffffff" stroke="#000000" points="0,-56.5 0,-75.5 138,-75.5 138,-56.5 0,-56.5"/>
<text text-anchor="middle" x="69" y="-63.5" font-family="Helvetica,sans-Serif" font-size="10.00" fill="#000000">include/gbdt/dp_ensemble.h</text>
</a>
</g>
</g>
<!-- Node8&#45;&gt;Node10 -->
<g id="edge10" class="edge">
<title>Node8&#45;&gt;Node10</title>
<path fill="none" stroke="#191970" d="M179.5842,-221.0463C140.0618,-206.4456 83.5095,-178.47 58,-132 48.05,-113.8743 57.2547,-89.0463 63.7876,-75.5995"/>
<polygon fill="#191970" stroke="#191970" points="178.6413,-224.4256 189.236,-224.4733 180.9835,-217.829 178.6413,-224.4256"/>
</g>
<!-- Node12 -->
<g id="node5" class="node">
<title>Node12</title>
<g id="a_node5"><a xlink:href="main_8cpp.html" target="_top" xlink:title="src/main.cpp">
<polygon fill="#ffffff" stroke="#000000" points="202.5,-.5 202.5,-19.5 275.5,-19.5 275.5,-.5 202.5,-.5"/>
<text text-anchor="middle" x="239" y="-7.5" font-family="Helvetica,sans-Serif" font-size="10.00" fill="#000000">src/main.cpp</text>
</a>
</g>
</g>
<!-- Node8&#45;&gt;Node12 -->
<g id="edge12" class="edge">
<title>Node8&#45;&gt;Node12</title>
<path fill="none" stroke="#191970" d="M246.9429,-218.8823C258.3446,-210.9081 271.2324,-200.2383 280,-188 295.3914,-166.5157 295.4894,-158.0408 300,-132 307.8812,-86.5004 268.3627,-39.5303 249.0822,-19.7295"/>
<polygon fill="#191970" stroke="#191970" points="244.9882,-215.9789 238.6065,-224.4362 248.8693,-221.8045 244.9882,-215.9789"/>
</g>
<!-- Node14 -->
<g id="node7" class="node">
<title>Node14</title>
<g id="a_node7"><a xlink:href="utils_8h.html" target="_top" xlink:title="include/gbdt/utils.h">
<polygon fill="#ffffff" stroke="#000000" points="173,-168.5 173,-187.5 271,-187.5 271,-168.5 173,-168.5"/>
<text text-anchor="middle" x="222" y="-175.5" font-family="Helvetica,sans-Serif" font-size="10.00" fill="#000000">include/gbdt/utils.h</text>
</a>
</g>
</g>
<!-- Node8&#45;&gt;Node14 -->
<g id="edge6" class="edge">
<title>Node8&#45;&gt;Node14</title>
<path fill="none" stroke="#191970" d="M215.5113,-214.1575C214.919,-205.155 215.3335,-194.9199 216.7549,-187.6427"/>
<polygon fill="#191970" stroke="#191970" points="212.0561,-214.739 216.7332,-224.2455 219.0053,-213.8972 212.0561,-214.739"/>
</g>
<!-- Node16 -->
<g id="node9" class="node">
<title>Node16</title>
<g id="a_node9"><a xlink:href="data_8cpp.html" target="_top" xlink:title="src/gbdt/data.cpp">
<polygon fill="#ffffff" stroke="#000000" points="347,-168.5 347,-187.5 439,-187.5 439,-168.5 347,-168.5"/>
<text text-anchor="middle" x="393" y="-175.5" font-family="Helvetica,sans-Serif" font-size="10.00" fill="#000000">src/gbdt/data.cpp</text>
</a>
</g>
</g>
<!-- Node8&#45;&gt;Node16 -->
<g id="edge11" class="edge">
<title>Node8&#45;&gt;Node16</title>
<path fill="none" stroke="#191970" d="M261.1148,-221.1905C292.4432,-210.9309 335.6871,-196.7691 363.9876,-187.5011"/>
<polygon fill="#191970" stroke="#191970" points="259.81,-217.9348 251.3959,-224.3733 261.9886,-224.5872 259.81,-217.9348"/>
</g>
<!-- Node9&#45;&gt;Node10 -->
<g id="edge2" class="edge">
<title>Node9&#45;&gt;Node10</title>
<path fill="none" stroke="#191970" d="M107.3774,-105.0751C97.9145,-95.4402 86.4031,-83.7196 78.4705,-75.6427"/>
<polygon fill="#191970" stroke="#191970" points="104.9155,-107.5635 114.4197,-112.2455 109.9097,-102.6585 104.9155,-107.5635"/>
</g>
<!-- Node13 -->
<g id="node6" class="node">
<title>Node13</title>
<g id="a_node6"><a xlink:href="dp__tree_8cpp.html" target="_top" xlink:title="src/gbdt/dp_tree.cpp">
<polygon fill="#ffffff" stroke="#000000" points="156,-56.5 156,-75.5 262,-75.5 262,-56.5 156,-56.5"/>
<text text-anchor="middle" x="209" y="-63.5" font-family="Helvetica,sans-Serif" font-size="10.00" fill="#000000">src/gbdt/dp_tree.cpp</text>
</a>
</g>
</g>
<!-- Node9&#45;&gt;Node13 -->
<g id="edge5" class="edge">
<title>Node9&#45;&gt;Node13</title>
<path fill="none" stroke="#191970" d="M147.5419,-106.49C162.539,-96.6096 181.4973,-84.1194 194.3638,-75.6427"/>
<polygon fill="#191970" stroke="#191970" points="145.2309,-103.8212 138.8059,-112.2455 149.0821,-109.6666 145.2309,-103.8212"/>
</g>
<!-- Node11 -->
<g id="node4" class="node">
<title>Node11</title>
<g id="a_node4"><a xlink:href="dp__ensemble_8cpp.html" target="_top" xlink:title="src/gbdt/dp_ensemble.cpp">
<polygon fill="#ffffff" stroke="#000000" points="3.5,-.5 3.5,-19.5 134.5,-19.5 134.5,-.5 3.5,-.5"/>
<text text-anchor="middle" x="69" y="-7.5" font-family="Helvetica,sans-Serif" font-size="10.00" fill="#000000">src/gbdt/dp_ensemble.cpp</text>
</a>
</g>
</g>
<!-- Node10&#45;&gt;Node11 -->
<g id="edge3" class="edge">
<title>Node10&#45;&gt;Node11</title>
<path fill="none" stroke="#191970" d="M69,-46.1575C69,-37.155 69,-26.9199 69,-19.6427"/>
<polygon fill="#191970" stroke="#191970" points="65.5001,-46.2455 69,-56.2455 72.5001,-46.2456 65.5001,-46.2455"/>
</g>
<!-- Node10&#45;&gt;Node12 -->
<g id="edge4" class="edge">
<title>Node10&#45;&gt;Node12</title>
<path fill="none" stroke="#191970" d="M107.886,-53.1905C139.0312,-42.9309 182.0223,-28.7691 210.1573,-19.5011"/>
<polygon fill="#191970" stroke="#191970" points="106.6269,-49.9202 98.224,-56.3733 108.8171,-56.5687 106.6269,-49.9202"/>
</g>
<!-- Node14&#45;&gt;Node8 -->
<g id="edge7" class="edge">
<title>Node14&#45;&gt;Node8</title>
<path fill="none" stroke="#191970" d="M228.4795,-197.7046C229.0821,-206.6944 228.6779,-216.9382 227.2668,-224.2455"/>
<polygon fill="#191970" stroke="#191970" points="231.9368,-197.1421 227.2451,-187.6427 224.9889,-197.9945 231.9368,-197.1421"/>
</g>
<!-- Node14&#45;&gt;Node9 -->
<g id="edge8" class="edge">
<title>Node14&#45;&gt;Node9</title>
<path fill="none" stroke="#191970" d="M195.8314,-163.0465C178.3942,-153.0824 155.9889,-140.2794 140.8747,-131.6427"/>
<polygon fill="#191970" stroke="#191970" points="194.5108,-166.323 204.9297,-168.2455 197.9838,-160.2453 194.5108,-166.323"/>
</g>
<!-- Node15 -->
<g id="node8" class="node">
<title>Node15</title>
<g id="a_node8"><a xlink:href="utils_8cpp.html" target="_top" xlink:title="src/gbdt/utils.cpp">
<polygon fill="#ffffff" stroke="#000000" points="199,-112.5 199,-131.5 291,-131.5 291,-112.5 199,-112.5"/>
<text text-anchor="middle" x="245" y="-119.5" font-family="Helvetica,sans-Serif" font-size="10.00" fill="#000000">src/gbdt/utils.cpp</text>
</a>
</g>
</g>
<!-- Node14&#45;&gt;Node15 -->
<g id="edge9" class="edge">
<title>Node14&#45;&gt;Node15</title>
<path fill="none" stroke="#191970" d="M229.9066,-158.7493C233.6617,-149.6064 237.9851,-139.0798 241.0396,-131.6427"/>
<polygon fill="#191970" stroke="#191970" points="226.568,-157.6656 226.0063,-168.2455 233.0431,-160.3251 226.568,-157.6656"/>
</g>
</g>
</svg>
