<?xml version="1.0" encoding="UTF-8" standalone="no"?>
<!DOCTYPE svg PUBLIC "-//W3C//DTD SVG 1.1//EN"
 "http://www.w3.org/Graphics/SVG/1.1/DTD/svg11.dtd">
<!-- Generated by graphviz version 2.40.1 (20161225.0304)
 -->
<!-- Title: train_test_split_random Pages: 1 -->
<svg width="287pt" height="66pt"
 viewBox="0.00 0.00 287.00 66.00" xmlns="http://www.w3.org/2000/svg" xmlns:xlink="http://www.w3.org/1999/xlink">
<g id="graph0" class="graph" transform="scale(1 1) rotate(0) translate(4 62)">
<title>train_test_split_random</title>
<polygon fill="#ffffff" stroke="transparent" points="-4,4 -4,-62 283,-62 283,4 -4,4"/>
<!-- Node9 -->
<g id="node1" class="node">
<title>Node9</title>
<polygon fill="#bfbfbf" stroke="#000000" points="0,-19.5 0,-38.5 118,-38.5 118,-19.5 0,-19.5"/>
<text text-anchor="middle" x="59" y="-26.5" font-family="Helvetica,sans-Serif" font-size="10.00" fill="#000000">train_test_split_random</text>
</g>
<!-- Node10 -->
<g id="node2" class="node">
<title>Node10</title>
<g id="a_node2"><a xlink:href="struct_data_set.html#aebb5495574ec71c44491713db5e0bdfd" target="_top" xlink:title="DataSet::shuffle_dataset">
<polygon fill="#ffffff" stroke="#000000" points="154,-38.5 154,-57.5 279,-57.5 279,-38.5 154,-38.5"/>
<text text-anchor="middle" x="216.5" y="-45.5" font-family="Helvetica,sans-Serif" font-size="10.00" fill="#000000">DataSet::shuffle_dataset</text>
</a>
</g>
</g>
<!-- Node9&#45;&gt;Node10 -->
<g id="edge1" class="edge">
<title>Node9&#45;&gt;Node10</title>
<path fill="none" stroke="#191970" d="M118.0953,-36.129C126.5022,-37.1431 135.2283,-38.1958 143.8561,-39.2366"/>
<polygon fill="#191970" stroke="#191970" points="143.567,-42.727 153.9142,-40.45 144.4054,-35.7774 143.567,-42.727"/>
</g>
<!-- Node11 -->
<g id="node3" class="node">
<title>Node11</title>
<g id="a_node3"><a xlink:href="struct_data_set.html#ac9b99505bafd5b1cccf8a361c3ac84a7" target="_top" xlink:title="DataSet::DataSet">
<polygon fill="#ffffff" stroke="#000000" points="169,-.5 169,-19.5 264,-19.5 264,-.5 169,-.5"/>
<text text-anchor="middle" x="216.5" y="-7.5" font-family="Helvetica,sans-Serif" font-size="10.00" fill="#000000">DataSet::DataSet</text>
</a>
</g>
</g>
<!-- Node9&#45;&gt;Node11 -->
<g id="edge2" class="edge">
<title>Node9&#45;&gt;Node11</title>
<path fill="none" stroke="#191970" d="M118.0953,-21.871C131.4503,-20.26 145.611,-18.5517 158.9032,-16.9482"/>
<polygon fill="#191970" stroke="#191970" points="159.3621,-20.4183 168.8709,-15.7457 158.5236,-13.4687 159.3621,-20.4183"/>
</g>
</g>
</svg>
