<?xml version="1.0" encoding="UTF-8" standalone="no"?>
<!DOCTYPE svg PUBLIC "-//W3C//DTD SVG 1.1//EN"
 "http://www.w3.org/Graphics/SVG/1.1/DTD/svg11.dtd">
<!-- Generated by graphviz version 2.40.1 (20161225.0304)
 -->
<!-- Title: inverse_scale Pages: 1 -->
<svg width="246pt" height="78pt"
 viewBox="0.00 0.00 246.00 77.50" xmlns="http://www.w3.org/2000/svg" xmlns:xlink="http://www.w3.org/1999/xlink">
<g id="graph0" class="graph" transform="scale(1 1) rotate(0) translate(4 73.5)">
<title>inverse_scale</title>
<polygon fill="#ffffff" stroke="transparent" points="-4,4 -4,-73.5 242,-73.5 242,4 -4,4"/>
<!-- Node6 -->
<g id="node1" class="node">
<title>Node6</title>
<polygon fill="#bfbfbf" stroke="#000000" points="0,-22.5 0,-41.5 77,-41.5 77,-22.5 0,-22.5"/>
<text text-anchor="middle" x="38.5" y="-29.5" font-family="Helvetica,sans-Serif" font-size="10.00" fill="#000000">inverse_scale</text>
</g>
<!-- Node7 -->
<g id="node2" class="node">
<title>Node7</title>
<g id="a_node2"><a xlink:href="struct_train_test_split.html#a31428fbb8eeabbaee4bc9dbb56292b7b" target="_top" xlink:title="TrainTestSplit::TrainTest\lSplit">
<polygon fill="#ffffff" stroke="#000000" points="113,-39 113,-69 238,-69 238,-39 113,-39"/>
<text text-anchor="start" x="121" y="-57" font-family="Helvetica,sans-Serif" font-size="10.00" fill="#000000">TrainTestSplit::TrainTest</text>
<text text-anchor="middle" x="175.5" y="-46" font-family="Helvetica,sans-Serif" font-size="10.00" fill="#000000">Split</text>
</a>
</g>
</g>
<!-- Node6&#45;&gt;Node7 -->
<g id="edge1" class="edge">
<title>Node6&#45;&gt;Node7</title>
<path fill="none" stroke="#191970" d="M86.9972,-39.7879C95.3804,-41.1341 104.2018,-42.5507 112.8956,-43.9467"/>
<polygon fill="#191970" stroke="#191970" points="87.4552,-36.3167 77.0267,-38.1868 86.3453,-43.2281 87.4552,-36.3167"/>
</g>
<!-- Node8 -->
<g id="node3" class="node">
<title>Node8</title>
<g id="a_node3"><a xlink:href="main_8cpp.html#a3c04138a5bfe5d72780bb7e82a18e627" target="_top" xlink:title="main">
<polygon fill="#ffffff" stroke="#000000" points="156.5,-.5 156.5,-19.5 194.5,-19.5 194.5,-.5 156.5,-.5"/>
<text text-anchor="middle" x="175.5" y="-7.5" font-family="Helvetica,sans-Serif" font-size="10.00" fill="#000000">main</text>
</a>
</g>
</g>
<!-- Node6&#45;&gt;Node8 -->
<g id="edge2" class="edge">
<title>Node6&#45;&gt;Node8</title>
<path fill="none" stroke="#191970" d="M86.9952,-24.2125C110.8505,-20.3817 138.254,-15.9811 156.1697,-13.1041"/>
<polygon fill="#191970" stroke="#191970" points="86.3453,-20.7719 77.0267,-25.8132 87.4552,-27.6833 86.3453,-20.7719"/>
</g>
</g>
</svg>
