<?xml version="1.0" encoding="UTF-8" standalone="no"?>
<!DOCTYPE svg PUBLIC "-//W3C//DTD SVG 1.1//EN"
 "http://www.w3.org/Graphics/SVG/1.1/DTD/svg11.dtd">
<!-- Generated by graphviz version 2.40.1 (20161225.0304)
 -->
<!-- Title: src/gbdt/data.cpp Pages: 1 -->
<svg width="515pt" height="308pt"
 viewBox="0.00 0.00 515.18 308.00" xmlns="http://www.w3.org/2000/svg" xmlns:xlink="http://www.w3.org/1999/xlink">
<g id="graph0" class="graph" transform="scale(1 1) rotate(0) translate(4 304)">
<title>src/gbdt/data.cpp</title>
<polygon fill="#ffffff" stroke="transparent" points="-4,4 -4,-304 511.1811,-304 511.1811,4 -4,4"/>
<!-- Node0 -->
<g id="node1" class="node">
<title>Node0</title>
<polygon fill="#bfbfbf" stroke="#000000" points="141.6811,-280.5 141.6811,-299.5 233.6811,-299.5 233.6811,-280.5 141.6811,-280.5"/>
<text text-anchor="middle" x="187.6811" y="-287.5" font-family="Helvetica,sans-Serif" font-size="10.00" fill="#000000">src/gbdt/data.cpp</text>
</g>
<!-- Node1 -->
<g id="node2" class="node">
<title>Node1</title>
<polygon fill="#ffffff" stroke="#bfbfbf" points="305.6811,-.5 305.6811,-19.5 349.6811,-19.5 349.6811,-.5 305.6811,-.5"/>
<text text-anchor="middle" x="327.6811" y="-7.5" font-family="Helvetica,sans-Serif" font-size="10.00" fill="#000000">vector</text>
</g>
<!-- Node0&#45;&gt;Node1 -->
<g id="edge1" class="edge">
<title>Node0&#45;&gt;Node1</title>
<path fill="none" stroke="#191970" d="M141.3796,-282.5407C97.8365,-274.6289 36.8449,-260.9415 19.6811,-244 -2.0433,-222.557 .6811,-208.5246 .6811,-178 .6811,-178 .6811,-178 .6811,-122 .6811,-60.1279 212.8552,-25.2621 295.3856,-14.0405"/>
<polygon fill="#191970" stroke="#191970" points="296.0107,-17.4882 305.4622,-12.7008 295.0881,-10.5493 296.0107,-17.4882"/>
</g>
<!-- Node2 -->
<g id="node3" class="node">
<title>Node2</title>
<polygon fill="#ffffff" stroke="#bfbfbf" points="29.1811,-224.5 29.1811,-243.5 80.1811,-243.5 80.1811,-224.5 29.1811,-224.5"/>
<text text-anchor="middle" x="54.6811" y="-231.5" font-family="Helvetica,sans-Serif" font-size="10.00" fill="#000000">numeric</text>
</g>
<!-- Node0&#45;&gt;Node2 -->
<g id="edge2" class="edge">
<title>Node0&#45;&gt;Node2</title>
<path fill="none" stroke="#191970" d="M164.8176,-280.3733C143.2762,-271.3032 110.7973,-257.6279 86.6855,-247.4755"/>
<polygon fill="#191970" stroke="#191970" points="87.8209,-244.156 77.2463,-243.5011 85.1044,-250.6075 87.8209,-244.156"/>
</g>
<!-- Node3 -->
<g id="node4" class="node">
<title>Node3</title>
<polygon fill="#ffffff" stroke="#bfbfbf" points="98.1811,-224.5 98.1811,-243.5 141.1811,-243.5 141.1811,-224.5 98.1811,-224.5"/>
<text text-anchor="middle" x="119.6811" y="-231.5" font-family="Helvetica,sans-Serif" font-size="10.00" fill="#000000">queue</text>
</g>
<!-- Node0&#45;&gt;Node3 -->
<g id="edge3" class="edge">
<title>Node0&#45;&gt;Node3</title>
<path fill="none" stroke="#191970" d="M175.8364,-280.2455C165.7932,-271.9746 151.1817,-259.9416 139.3807,-250.2232"/>
<polygon fill="#191970" stroke="#191970" points="141.3344,-247.298 131.3901,-243.6427 136.8844,-252.7015 141.3344,-247.298"/>
</g>
<!-- Node4 -->
<g id="node5" class="node">
<title>Node4</title>
<polygon fill="#ffffff" stroke="#bfbfbf" points="159.6811,-224.5 159.6811,-243.5 215.6811,-243.5 215.6811,-224.5 159.6811,-224.5"/>
<text text-anchor="middle" x="187.6811" y="-231.5" font-family="Helvetica,sans-Serif" font-size="10.00" fill="#000000">algorithm</text>
</g>
<!-- Node0&#45;&gt;Node4 -->
<g id="edge4" class="edge">
<title>Node0&#45;&gt;Node4</title>
<path fill="none" stroke="#191970" d="M187.6811,-280.2455C187.6811,-272.9382 187.6811,-262.6944 187.6811,-253.7046"/>
<polygon fill="#191970" stroke="#191970" points="191.1812,-253.6426 187.6811,-243.6427 184.1812,-253.6427 191.1812,-253.6426"/>
</g>
<!-- Node5 -->
<g id="node6" class="node">
<title>Node5</title>
<polygon fill="#ffffff" stroke="#bfbfbf" points="233.6811,-224.5 233.6811,-243.5 285.6811,-243.5 285.6811,-224.5 233.6811,-224.5"/>
<text text-anchor="middle" x="259.6811" y="-231.5" font-family="Helvetica,sans-Serif" font-size="10.00" fill="#000000">sstream</text>
</g>
<!-- Node0&#45;&gt;Node5 -->
<g id="edge5" class="edge">
<title>Node0&#45;&gt;Node5</title>
<path fill="none" stroke="#191970" d="M200.2226,-280.2455C210.9598,-271.8943 226.6285,-259.7076 239.1858,-249.9408"/>
<polygon fill="#191970" stroke="#191970" points="241.5387,-252.5449 247.2834,-243.6427 237.241,-247.0194 241.5387,-252.5449"/>
</g>
<!-- Node6 -->
<g id="node7" class="node">
<title>Node6</title>
<polygon fill="#ffffff" stroke="#bfbfbf" points="303.6811,-224.5 303.6811,-243.5 347.6811,-243.5 347.6811,-224.5 303.6811,-224.5"/>
<text text-anchor="middle" x="325.6811" y="-231.5" font-family="Helvetica,sans-Serif" font-size="10.00" fill="#000000">cmath</text>
</g>
<!-- Node0&#45;&gt;Node6 -->
<g id="edge6" class="edge">
<title>Node0&#45;&gt;Node6</title>
<path fill="none" stroke="#191970" d="M211.4042,-280.3733C234.263,-271.0972 268.9915,-257.0045 294.1641,-246.7895"/>
<polygon fill="#191970" stroke="#191970" points="295.6833,-249.9503 303.6334,-242.9469 293.0511,-243.464 295.6833,-249.9503"/>
</g>
<!-- Node7 -->
<g id="node8" class="node">
<title>Node7</title>
<g id="a_node8"><a xlink:href="data_8h.html" target="_top" xlink:title="data.h">
<polygon fill="#ffffff" stroke="#000000" points="365.6811,-224.5 365.6811,-243.5 409.6811,-243.5 409.6811,-224.5 365.6811,-224.5"/>
<text text-anchor="middle" x="387.6811" y="-231.5" font-family="Helvetica,sans-Serif" font-size="10.00" fill="#000000">data.h</text>
</a>
</g>
</g>
<!-- Node0&#45;&gt;Node7 -->
<g id="edge7" class="edge">
<title>Node0&#45;&gt;Node7</title>
<path fill="none" stroke="#191970" d="M224.7444,-280.4397C256.9993,-272.0023 305.2204,-259.1082 355.6037,-244.2338"/>
<polygon fill="#191970" stroke="#191970" points="356.7787,-247.536 365.3685,-241.3339 354.7858,-240.8257 356.7787,-247.536"/>
</g>
<!-- Node7&#45;&gt;Node1 -->
<g id="edge8" class="edge">
<title>Node7&#45;&gt;Node1</title>
<path fill="none" stroke="#191970" d="M366.1408,-224.4565C345.0221,-214.6054 315.0883,-199.145 308.6811,-188 279.2027,-136.7237 304.0537,-63.3131 318.7477,-29.016"/>
<polygon fill="#191970" stroke="#191970" points="322.0281,-30.2536 322.9104,-19.6956 315.6366,-27.399 322.0281,-30.2536"/>
</g>
<!-- Node8 -->
<g id="node9" class="node">
<title>Node8</title>
<polygon fill="#ffffff" stroke="#bfbfbf" points="317.6811,-168.5 317.6811,-187.5 347.6811,-187.5 347.6811,-168.5 317.6811,-168.5"/>
<text text-anchor="middle" x="332.6811" y="-175.5" font-family="Helvetica,sans-Serif" font-size="10.00" fill="#000000">set</text>
</g>
<!-- Node7&#45;&gt;Node8 -->
<g id="edge9" class="edge">
<title>Node7&#45;&gt;Node8</title>
<path fill="none" stroke="#191970" d="M378.1008,-224.2455C370.1353,-216.1352 358.6171,-204.4075 349.1732,-194.7919"/>
<polygon fill="#191970" stroke="#191970" points="351.6558,-192.3247 342.1516,-187.6427 346.6616,-197.2297 351.6558,-192.3247"/>
</g>
<!-- Node9 -->
<g id="node10" class="node">
<title>Node9</title>
<g id="a_node10"><a xlink:href="utils_8h.html" target="_top" xlink:title="utils.h">
<polygon fill="#ffffff" stroke="#000000" points="366.1811,-168.5 366.1811,-187.5 409.1811,-187.5 409.1811,-168.5 366.1811,-168.5"/>
<text text-anchor="middle" x="387.6811" y="-175.5" font-family="Helvetica,sans-Serif" font-size="10.00" fill="#000000">utils.h</text>
</a>
</g>
</g>
<!-- Node7&#45;&gt;Node9 -->
<g id="edge10" class="edge">
<title>Node7&#45;&gt;Node9</title>
<path fill="none" stroke="#191970" d="M382.4143,-224.2455C381.0032,-216.9382 380.599,-206.6944 381.2016,-197.7046"/>
<polygon fill="#191970" stroke="#191970" points="384.6922,-197.9945 382.436,-187.6427 377.7443,-197.1421 384.6922,-197.9945"/>
</g>
<!-- Node9&#45;&gt;Node1 -->
<g id="edge11" class="edge">
<title>Node9&#45;&gt;Node1</title>
<path fill="none" stroke="#191970" d="M375.939,-168.3344C366.4325,-159.8088 353.5341,-146.5099 346.6811,-132 330.8832,-98.5511 327.7502,-54.7596 327.3861,-29.7691"/>
<polygon fill="#191970" stroke="#191970" points="330.8861,-29.7119 327.378,-19.7147 323.8861,-29.7175 330.8861,-29.7119"/>
</g>
<!-- Node9&#45;&gt;Node7 -->
<g id="edge18" class="edge">
<title>Node9&#45;&gt;Node7</title>
<path fill="none" stroke="#191970" d="M392.9262,-187.6427C394.3476,-194.9199 394.7621,-205.155 394.1698,-214.1575"/>
<polygon fill="#191970" stroke="#191970" points="390.6758,-213.8972 392.948,-224.2455 397.625,-214.739 390.6758,-213.8972"/>
</g>
<!-- Node10 -->
<g id="node11" class="node">
<title>Node10</title>
<polygon fill="#ffffff" stroke="#bfbfbf" points="356.1811,-112.5 356.1811,-131.5 397.1811,-131.5 397.1811,-112.5 356.1811,-112.5"/>
<text text-anchor="middle" x="376.6811" y="-119.5" font-family="Helvetica,sans-Serif" font-size="10.00" fill="#000000">string</text>
</g>
<!-- Node9&#45;&gt;Node10 -->
<g id="edge12" class="edge">
<title>Node9&#45;&gt;Node10</title>
<path fill="none" stroke="#191970" d="M385.7651,-168.2455C384.3297,-160.9382 382.3175,-150.6944 380.5517,-141.7046"/>
<polygon fill="#191970" stroke="#191970" points="383.9371,-140.7805 378.5752,-131.6427 377.0684,-142.1298 383.9371,-140.7805"/>
</g>
<!-- Node11 -->
<g id="node12" class="node">
<title>Node11</title>
<g id="a_node12"><a xlink:href="parameters_8h.html" target="_top" xlink:title="parameters.h">
<polygon fill="#ffffff" stroke="#000000" points="415.6811,-112.5 415.6811,-131.5 489.6811,-131.5 489.6811,-112.5 415.6811,-112.5"/>
<text text-anchor="middle" x="452.6811" y="-119.5" font-family="Helvetica,sans-Serif" font-size="10.00" fill="#000000">parameters.h</text>
</a>
</g>
</g>
<!-- Node9&#45;&gt;Node11 -->
<g id="edge13" class="edge">
<title>Node9&#45;&gt;Node11</title>
<path fill="none" stroke="#191970" d="M399.0032,-168.2455C408.6034,-159.9746 422.5703,-147.9416 433.8506,-138.2232"/>
<polygon fill="#191970" stroke="#191970" points="436.1971,-140.8214 441.4887,-131.6427 431.6281,-135.5182 436.1971,-140.8214"/>
</g>
<!-- Node11&#45;&gt;Node1 -->
<g id="edge15" class="edge">
<title>Node11&#45;&gt;Node1</title>
<path fill="none" stroke="#191970" d="M435.8651,-112.3484C421.5353,-103.7328 400.7675,-90.2978 384.6811,-76 368.1576,-61.3137 351.9397,-41.9093 341.0542,-27.9467"/>
<polygon fill="#191970" stroke="#191970" points="343.5749,-25.4809 334.7214,-19.6614 338.0134,-29.7318 343.5749,-25.4809"/>
</g>
<!-- Node12 -->
<g id="node13" class="node">
<title>Node12</title>
<polygon fill="#ffffff" stroke="#bfbfbf" points="393.6811,-56.5 393.6811,-75.5 445.6811,-75.5 445.6811,-56.5 393.6811,-56.5"/>
<text text-anchor="middle" x="419.6811" y="-63.5" font-family="Helvetica,sans-Serif" font-size="10.00" fill="#000000">memory</text>
</g>
<!-- Node11&#45;&gt;Node12 -->
<g id="edge14" class="edge">
<title>Node11&#45;&gt;Node12</title>
<path fill="none" stroke="#191970" d="M446.933,-112.2455C442.4376,-104.617 436.0563,-93.7881 430.5987,-84.5267"/>
<polygon fill="#191970" stroke="#191970" points="433.4558,-82.4811 425.3634,-75.6427 427.425,-86.035 433.4558,-82.4811"/>
</g>
<!-- Node13 -->
<g id="node14" class="node">
<title>Node13</title>
<g id="a_node14"><a xlink:href="loss_8h.html" target="_top" xlink:title="loss.h">
<polygon fill="#ffffff" stroke="#000000" points="464.1811,-56.5 464.1811,-75.5 507.1811,-75.5 507.1811,-56.5 464.1811,-56.5"/>
<text text-anchor="middle" x="485.6811" y="-63.5" font-family="Helvetica,sans-Serif" font-size="10.00" fill="#000000">loss.h</text>
</a>
</g>
</g>
<!-- Node11&#45;&gt;Node13 -->
<g id="edge16" class="edge">
<title>Node11&#45;&gt;Node13</title>
<path fill="none" stroke="#191970" d="M458.4293,-112.2455C462.9247,-104.617 469.306,-93.7881 474.7636,-84.5267"/>
<polygon fill="#191970" stroke="#191970" points="477.9372,-86.035 479.9988,-75.6427 471.9065,-82.4811 477.9372,-86.035"/>
</g>
<!-- Node13&#45;&gt;Node1 -->
<g id="edge17" class="edge">
<title>Node13&#45;&gt;Node1</title>
<path fill="none" stroke="#191970" d="M464.0432,-58.3309C436.97,-48.7353 390.3964,-32.2282 359.3206,-21.214"/>
<polygon fill="#191970" stroke="#191970" points="360.4147,-17.8885 349.82,-17.8467 358.0762,-24.4863 360.4147,-17.8885"/>
</g>
</g>
</svg>
