<?xml version="1.0" encoding="UTF-8" standalone="no"?>
<!DOCTYPE svg PUBLIC "-//W3C//DTD SVG 1.1//EN"
 "http://www.w3.org/Graphics/SVG/1.1/DTD/svg11.dtd">
<!-- Generated by graphviz version 2.40.1 (20161225.0304)
 -->
<!-- Title: /home/loretanr/ma/code/hardening/visualisation/base Pages: 1 -->
<svg width="166pt" height="148pt"
 viewBox="0.00 0.00 166.00 148.00" xmlns="http://www.w3.org/2000/svg" xmlns:xlink="http://www.w3.org/1999/xlink">
<g id="graph0" class="graph" transform="scale(1 1) rotate(0) translate(4 144)">
<title>/home/loretanr/ma/code/hardening/visualisation/base</title>
<polygon fill="#ffffff" stroke="transparent" points="-4,4 -4,-144 162,-144 162,4 -4,4"/>
<g id="clust1" class="cluster">
<title>clusterdir_e914ee4d4a44400f1fdb170cb4ead18a</title>
<g id="a_clust1"><a xlink:href="dir_e914ee4d4a44400f1fdb170cb4ead18a.html" target="_top">
<polygon fill="#eeeeff" stroke="#000000" points="8,-8 8,-132 150,-132 150,-8 8,-8"/>
</a>
</g>
</g>
<!-- dir_e914ee4d4a44400f1fdb170cb4ead18a -->
<g id="node1" class="node">
<title>dir_e914ee4d4a44400f1fdb170cb4ead18a</title>
<text text-anchor="middle" x="115" y="-103.5" font-family="Helvetica,sans-Serif" font-size="10.00" fill="#000000">base</text>
</g>
<!-- dir_86751c6d8ae9997ab6788777e7f7ee73 -->
<g id="node2" class="node">
<title>dir_86751c6d8ae9997ab6788777e7f7ee73</title>
<g id="a_node2"><a xlink:href="dir_86751c6d8ae9997ab6788777e7f7ee73.html" target="_top" xlink:title="include">
<polygon fill="#ffffff" stroke="#ff0000" points="70,-52 16,-52 16,-16 70,-16 70,-52"/>
<text text-anchor="middle" x="43" y="-31.5" font-family="Helvetica,sans-Serif" font-size="10.00" fill="#000000">include</text>
</a>
</g>
</g>
<!-- dir_97935065a72327c6c98abf85f17f3505 -->
<g id="node3" class="node">
<title>dir_97935065a72327c6c98abf85f17f3505</title>
<g id="a_node3"><a xlink:href="dir_97935065a72327c6c98abf85f17f3505.html" target="_top" xlink:title="src">
<polygon fill="#ffffff" stroke="#ff0000" points="70,-124 16,-124 16,-88 70,-88 70,-124"/>
<text text-anchor="middle" x="43" y="-103.5" font-family="Helvetica,sans-Serif" font-size="10.00" fill="#000000">src</text>
</a>
</g>
</g>
<!-- dir_97935065a72327c6c98abf85f17f3505&#45;&gt;dir_86751c6d8ae9997ab6788777e7f7ee73 -->
<g id="edge1" class="edge">
<title>dir_97935065a72327c6c98abf85f17f3505&#45;&gt;dir_86751c6d8ae9997ab6788777e7f7ee73</title>
<path fill="none" stroke="#000000" d="M43,-87.8314C43,-80.131 43,-70.9743 43,-62.4166"/>
<polygon fill="#000000" stroke="#000000" points="46.5001,-62.4132 43,-52.4133 39.5001,-62.4133 46.5001,-62.4132"/>
<g id="a_edge1&#45;headlabel"><a xlink:href="dir_000003_000001.html" target="_top" xlink:title="8">
<text text-anchor="middle" x="49.3393" y="-63.5079" font-family="Helvetica,sans-Serif" font-size="10.00" fill="#000000">8</text>
</a>
</g>
</g>
</g>
</svg>
