<?xml version="1.0" encoding="UTF-8" standalone="no"?>
<!DOCTYPE svg PUBLIC "-//W3C//DTD SVG 1.1//EN"
 "http://www.w3.org/Graphics/SVG/1.1/DTD/svg11.dtd">
<!-- Generated by graphviz version 2.40.1 (20161225.0304)
 -->
<!-- Title: /home/loretanr/ma/code/hardening/visualisation/base/include Pages: 1 -->
<svg width="110pt" height="183pt"
 viewBox="0.00 0.00 110.00 183.00" xmlns="http://www.w3.org/2000/svg" xmlns:xlink="http://www.w3.org/1999/xlink">
<g id="graph0" class="graph" transform="scale(1 1) rotate(0) translate(4 179)">
<title>/home/loretanr/ma/code/hardening/visualisation/base/include</title>
<polygon fill="#ffffff" stroke="transparent" points="-4,4 -4,-179 106,-179 106,4 -4,4"/>
<g id="clust1" class="cluster">
<title>clusterdir_e914ee4d4a44400f1fdb170cb4ead18a</title>
<g id="a_clust1"><a xlink:href="dir_e914ee4d4a44400f1fdb170cb4ead18a.html" target="_top" xlink:title="base">
<polygon fill="#ddddee" stroke="#000000" points="8,-8 8,-167 94,-167 94,-8 8,-8"/>
<text text-anchor="middle" x="51" y="-155" font-family="Helvetica,sans-Serif" font-size="10.00" fill="#000000">base</text>
</a>
</g>
</g>
<g id="clust2" class="cluster">
<title>clusterdir_86751c6d8ae9997ab6788777e7f7ee73</title>
<g id="a_clust2"><a xlink:href="dir_86751c6d8ae9997ab6788777e7f7ee73.html" target="_top">
<polygon fill="#eeeeff" stroke="#000000" points="16,-16 16,-140 86,-140 86,-16 16,-16"/>
</a>
</g>
</g>
<!-- dir_86751c6d8ae9997ab6788777e7f7ee73 -->
<g id="node1" class="node">
<title>dir_86751c6d8ae9997ab6788777e7f7ee73</title>
<text text-anchor="middle" x="51" y="-111.5" font-family="Helvetica,sans-Serif" font-size="10.00" fill="#000000">include</text>
</g>
<!-- dir_5415e3b0fe8d4dc97d731d1c01bcb0c1 -->
<g id="node2" class="node">
<title>dir_5415e3b0fe8d4dc97d731d1c01bcb0c1</title>
<g id="a_node2"><a xlink:href="dir_5415e3b0fe8d4dc97d731d1c01bcb0c1.html" target="_top" xlink:title="gbdt">
<polygon fill="#ffffff" stroke="#000000" points="78,-60 24,-60 24,-24 78,-24 78,-60"/>
<text text-anchor="middle" x="51" y="-39.5" font-family="Helvetica,sans-Serif" font-size="10.00" fill="#000000">gbdt</text>
</a>
</g>
</g>
<!-- dir_86751c6d8ae9997ab6788777e7f7ee73&#45;&gt;dir_5415e3b0fe8d4dc97d731d1c01bcb0c1 -->
<g id="edge1" class="edge">
<title>dir_86751c6d8ae9997ab6788777e7f7ee73&#45;&gt;dir_5415e3b0fe8d4dc97d731d1c01bcb0c1</title>
<path fill="none" stroke="#000000" d="M51,-95.8314C51,-88.131 51,-78.9743 51,-70.4166"/>
<polygon fill="#000000" stroke="#000000" points="54.5001,-70.4132 51,-60.4133 47.5001,-70.4133 54.5001,-70.4132"/>
<g id="a_edge1&#45;headlabel"><a xlink:href="dir_000001_000002.html" target="_top" xlink:title="1">
<text text-anchor="middle" x="57.3393" y="-71.5079" font-family="Helvetica,sans-Serif" font-size="10.00" fill="#000000">1</text>
</a>
</g>
</g>
</g>
</svg>
