<?xml version="1.0" encoding="UTF-8" standalone="no"?>
<!DOCTYPE svg PUBLIC "-//W3C//DTD SVG 1.1//EN"
 "http://www.w3.org/Graphics/SVG/1.1/DTD/svg11.dtd">
<!-- Generated by graphviz version 2.40.1 (20161225.0304)
 -->
<!-- Title: src/gbdt/dp_tree.cpp Pages: 1 -->
<!--zoomable 364 -->
<svg id="main" version="1.1" xmlns="http://www.w3.org/2000/svg" xmlns:xlink="http://www.w3.org/1999/xlink" xml:space="preserve" onload="init(evt)">
<style type="text/css"><![CDATA[
.edge:hover path { stroke: red; }
.edge:hover polygon { stroke: red; fill: red; }
]]></style>
<script type="text/javascript"><![CDATA[
var edges = document.getElementsByTagName('g');
if (edges && edges.length) {
  for (var i=0;i<edges.length;i++) {
    if (edges[i].id.substr(0,4)=='edge') {
      edges[i].setAttribute('class','edge');
    }
  }
}
]]></script>
        <defs>
                <circle id="rim" cx="0" cy="0" r="7"/>
                <circle id="rim2" cx="0" cy="0" r="3.5"/>
                <g id="zoomPlus">
                        <use xlink:href="#rim" fill="#404040">
                                <set attributeName="fill" to="#808080" begin="zoomplus.mouseover" end="zoomplus.mouseout"/>
                        </use>
                        <path d="M-4,0h8M0,-4v8" fill="none" stroke="white" stroke-width="1.5" pointer-events="none"/>
                </g>
                <g id="zoomMin">
                        <use xlink:href="#rim" fill="#404040">
                                <set attributeName="fill" to="#808080" begin="zoomminus.mouseover" end="zoomminus.mouseout"/>
                        </use>
                        <path d="M-4,0h8" fill="none" stroke="white" stroke-width="1.5" pointer-events="none"/>
                </g>
                <g id="dirArrow">
                        <path fill="none" stroke="white" stroke-width="1.5" d="M0,-3.0v7 M-2.5,-0.5L0,-3.0L2.5,-0.5"/>
                </g>
               <g id="resetDef">
                       <use xlink:href="#rim2" fill="#404040">
                               <set attributeName="fill" to="#808080" begin="reset.mouseover" end="reset.mouseout"/>
                       </use>
               </g>
        </defs>

<script type="text/javascript">
var viewWidth = 625;
var viewHeight = 364;
var sectionId = 'dynsection-0';
</script>
<script xlink:href="svgpan.js"/>
<svg id="graph" class="graph">
<g id="viewport">
<title>src/gbdt/dp_tree.cpp</title>
<polygon fill="#ffffff" stroke="transparent" points="-4,4 -4,-360 621,-360 621,4 -4,4"/>
<!-- Node0 -->
<g id="node1" class="node">
<title>Node0</title>
<polygon fill="#bfbfbf" stroke="#000000" points="187.5,-336.5 187.5,-355.5 293.5,-355.5 293.5,-336.5 187.5,-336.5"/>
<text text-anchor="middle" x="240.5" y="-343.5" font-family="Helvetica,sans-Serif" font-size="10.00" fill="#000000">src/gbdt/dp_tree.cpp</text>
</g>
<!-- Node1 -->
<g id="node2" class="node">
<title>Node1</title>
<polygon fill="#ffffff" stroke="#bfbfbf" points="0,-280.5 0,-299.5 51,-299.5 51,-280.5 0,-280.5"/>
<text text-anchor="middle" x="25.5" y="-287.5" font-family="Helvetica,sans-Serif" font-size="10.00" fill="#000000">numeric</text>
</g>
<!-- Node0&#45;&gt;Node1 -->
<g id="edge1" class="edge">
<title>Node0&#45;&gt;Node1</title>
<path fill="none" stroke="#191970" d="M201.7939,-336.4424C167.3541,-327.8638 115.3752,-314.7349 60.9228,-300.0607"/>
<polygon fill="#191970" stroke="#191970" points="61.6581,-296.6339 51.0911,-297.4014 59.8304,-303.3911 61.6581,-296.6339"/>
</g>
<!-- Node2 -->
<g id="node3" class="node">
<title>Node2</title>
<polygon fill="#ffffff" stroke="#bfbfbf" points="69.5,-280.5 69.5,-299.5 123.5,-299.5 123.5,-280.5 69.5,-280.5"/>
<text text-anchor="middle" x="96.5" y="-287.5" font-family="Helvetica,sans-Serif" font-size="10.00" fill="#000000">iostream</text>
</g>
<!-- Node0&#45;&gt;Node2 -->
<g id="edge2" class="edge">
<title>Node0&#45;&gt;Node2</title>
<path fill="none" stroke="#191970" d="M215.7455,-336.3733C192.2151,-327.2226 156.6313,-313.3844 130.4574,-303.2057"/>
<polygon fill="#191970" stroke="#191970" points="131.5201,-299.8636 120.9315,-299.5011 128.9829,-306.3877 131.5201,-299.8636"/>
</g>
<!-- Node3 -->
<g id="node4" class="node">
<title>Node3</title>
<polygon fill="#ffffff" stroke="#bfbfbf" points="141.5,-280.5 141.5,-299.5 197.5,-299.5 197.5,-280.5 141.5,-280.5"/>
<text text-anchor="middle" x="169.5" y="-287.5" font-family="Helvetica,sans-Serif" font-size="10.00" fill="#000000">algorithm</text>
</g>
<!-- Node0&#45;&gt;Node3 -->
<g id="edge3" class="edge">
<title>Node0&#45;&gt;Node3</title>
<path fill="none" stroke="#191970" d="M228.1327,-336.2455C217.5446,-327.8943 202.0936,-315.7076 189.7107,-305.9408"/>
<polygon fill="#191970" stroke="#191970" points="191.7447,-303.0875 181.7255,-299.6427 187.4097,-308.5837 191.7447,-303.0875"/>
</g>
<!-- Node4 -->
<g id="node5" class="node">
<title>Node4</title>
<polygon fill="#ffffff" stroke="#bfbfbf" points="215.5,-280.5 215.5,-299.5 265.5,-299.5 265.5,-280.5 215.5,-280.5"/>
<text text-anchor="middle" x="240.5" y="-287.5" font-family="Helvetica,sans-Serif" font-size="10.00" fill="#000000">iomanip</text>
</g>
<!-- Node0&#45;&gt;Node4 -->
<g id="edge4" class="edge">
<title>Node0&#45;&gt;Node4</title>
<path fill="none" stroke="#191970" d="M240.5,-336.2455C240.5,-328.9382 240.5,-318.6944 240.5,-309.7046"/>
<polygon fill="#191970" stroke="#191970" points="244.0001,-309.6426 240.5,-299.6427 237.0001,-309.6427 244.0001,-309.6426"/>
</g>
<!-- Node5 -->
<g id="node6" class="node">
<title>Node5</title>
<polygon fill="#ffffff" stroke="#bfbfbf" points="283.5,-280.5 283.5,-299.5 327.5,-299.5 327.5,-280.5 283.5,-280.5"/>
<text text-anchor="middle" x="305.5" y="-287.5" font-family="Helvetica,sans-Serif" font-size="10.00" fill="#000000">cmath</text>
</g>
<!-- Node0&#45;&gt;Node5 -->
<g id="edge5" class="edge">
<title>Node0&#45;&gt;Node5</title>
<path fill="none" stroke="#191970" d="M251.8221,-336.2455C261.4223,-327.9746 275.3892,-315.9416 286.6695,-306.2232"/>
<polygon fill="#191970" stroke="#191970" points="289.016,-308.8214 294.3076,-299.6427 284.447,-303.5182 289.016,-308.8214"/>
</g>
<!-- Node6 -->
<g id="node7" class="node">
<title>Node6</title>
<g id="a_node7"><a xlink:href="dp__tree_8h.html" target="_top" xlink:title="dp_tree.h">
<polygon fill="#ffffff" stroke="#000000" points="346,-280.5 346,-299.5 403,-299.5 403,-280.5 346,-280.5"/>
<text text-anchor="middle" x="374.5" y="-287.5" font-family="Helvetica,sans-Serif" font-size="10.00" fill="#000000">dp_tree.h</text>
</a>
</g>
</g>
<!-- Node0&#45;&gt;Node6 -->
<g id="edge6" class="edge">
<title>Node0&#45;&gt;Node6</title>
<path fill="none" stroke="#191970" d="M263.5354,-336.3733C285.2388,-327.3032 317.9618,-313.6279 342.255,-303.4755"/>
<polygon fill="#191970" stroke="#191970" points="343.8881,-306.5865 351.7652,-299.5011 341.1889,-300.1278 343.8881,-306.5865"/>
</g>
<!-- Node17 -->
<g id="node18" class="node">
<title>Node17</title>
<g id="a_node18"><a xlink:href="laplace_8h.html" target="_top" xlink:title="laplace.h">
<polygon fill="#ffffff" stroke="#000000" points="506.5,-280.5 506.5,-299.5 562.5,-299.5 562.5,-280.5 506.5,-280.5"/>
<text text-anchor="middle" x="534.5" y="-287.5" font-family="Helvetica,sans-Serif" font-size="10.00" fill="#000000">laplace.h</text>
</a>
</g>
</g>
<!-- Node0&#45;&gt;Node17 -->
<g id="edge25" class="edge">
<title>Node0&#45;&gt;Node17</title>
<path fill="none" stroke="#191970" d="M290.7063,-336.4369C348.9789,-325.3373 443.7822,-307.2796 496.3501,-297.2666"/>
<polygon fill="#191970" stroke="#191970" points="497.1088,-300.6852 506.2772,-295.3758 495.7989,-293.8088 497.1088,-300.6852"/>
</g>
<!-- Node7 -->
<g id="node8" class="node">
<title>Node7</title>
<polygon fill="#ffffff" stroke="#bfbfbf" points="287.5,-.5 287.5,-19.5 331.5,-19.5 331.5,-.5 287.5,-.5"/>
<text text-anchor="middle" x="309.5" y="-7.5" font-family="Helvetica,sans-Serif" font-size="10.00" fill="#000000">vector</text>
</g>
<!-- Node6&#45;&gt;Node7 -->
<g id="edge7" class="edge">
<title>Node6&#45;&gt;Node7</title>
<path fill="none" stroke="#191970" d="M403.2575,-284.3041C440.9286,-276.2935 504.1242,-260.7891 520.5,-244 541.8135,-222.1485 539.5,-208.5246 539.5,-178 539.5,-178 539.5,-178 539.5,-122 539.5,-78.4564 404.5627,-35.9089 341.3993,-18.3779"/>
<polygon fill="#191970" stroke="#191970" points="342.1224,-14.9472 331.5534,-15.6868 340.2767,-21.6995 342.1224,-14.9472"/>
</g>
<!-- Node8 -->
<g id="node9" class="node">
<title>Node8</title>
<polygon fill="#ffffff" stroke="#bfbfbf" points="375.5,-168.5 375.5,-187.5 405.5,-187.5 405.5,-168.5 375.5,-168.5"/>
<text text-anchor="middle" x="390.5" y="-175.5" font-family="Helvetica,sans-Serif" font-size="10.00" fill="#000000">set</text>
</g>
<!-- Node6&#45;&gt;Node8 -->
<g id="edge8" class="edge">
<title>Node6&#45;&gt;Node8</title>
<path fill="none" stroke="#191970" d="M371.2273,-280.4726C367.2578,-267.5265 361.6625,-243.7299 366.5,-224 368.8743,-214.3164 373.6821,-204.4071 378.3753,-196.2776"/>
<polygon fill="#191970" stroke="#191970" points="381.4119,-198.0214 383.6792,-187.672 375.4528,-194.3486 381.4119,-198.0214"/>
</g>
<!-- Node9 -->
<g id="node10" class="node">
<title>Node9</title>
<polygon fill="#ffffff" stroke="#bfbfbf" points="375.5,-224.5 375.5,-243.5 425.5,-243.5 425.5,-224.5 375.5,-224.5"/>
<text text-anchor="middle" x="400.5" y="-231.5" font-family="Helvetica,sans-Serif" font-size="10.00" fill="#000000">fstream</text>
</g>
<!-- Node6&#45;&gt;Node9 -->
<g id="edge9" class="edge">
<title>Node6&#45;&gt;Node9</title>
<path fill="none" stroke="#191970" d="M379.0289,-280.2455C382.5334,-272.6973 387.4927,-262.0158 391.7623,-252.8197"/>
<polygon fill="#191970" stroke="#191970" points="394.9864,-254.1867 396.023,-243.6427 388.6373,-251.2389 394.9864,-254.1867"/>
</g>
<!-- Node10 -->
<g id="node11" class="node">
<title>Node10</title>
<g id="a_node11"><a xlink:href="tree__node_8h.html" target="_top" xlink:title="tree_node.h">
<polygon fill="#ffffff" stroke="#000000" points="443.5,-224.5 443.5,-243.5 511.5,-243.5 511.5,-224.5 443.5,-224.5"/>
<text text-anchor="middle" x="477.5" y="-231.5" font-family="Helvetica,sans-Serif" font-size="10.00" fill="#000000">tree_node.h</text>
</a>
</g>
</g>
<!-- Node6&#45;&gt;Node10 -->
<g id="edge10" class="edge">
<title>Node6&#45;&gt;Node10</title>
<path fill="none" stroke="#191970" d="M392.4412,-280.2455C408.54,-271.4928 432.3879,-258.527 450.7391,-248.5496"/>
<polygon fill="#191970" stroke="#191970" points="452.6507,-251.4942 459.7644,-243.6427 449.3071,-245.3444 452.6507,-251.4942"/>
</g>
<!-- Node11 -->
<g id="node12" class="node">
<title>Node11</title>
<g id="a_node12"><a xlink:href="parameters_8h.html" target="_top" xlink:title="parameters.h">
<polygon fill="#ffffff" stroke="#000000" points="147.5,-112.5 147.5,-131.5 221.5,-131.5 221.5,-112.5 147.5,-112.5"/>
<text text-anchor="middle" x="184.5" y="-119.5" font-family="Helvetica,sans-Serif" font-size="10.00" fill="#000000">parameters.h</text>
</a>
</g>
</g>
<!-- Node6&#45;&gt;Node11 -->
<g id="edge11" class="edge">
<title>Node6&#45;&gt;Node11</title>
<path fill="none" stroke="#191970" d="M345.8658,-281.1083C315.8698,-271.3865 271.2362,-255.6426 257.5,-244 224.0709,-215.666 201.8988,-167.955 191.4479,-141.3708"/>
<polygon fill="#191970" stroke="#191970" points="194.6011,-139.813 187.797,-131.6917 188.0516,-142.2835 194.6011,-139.813"/>
</g>
<!-- Node14 -->
<g id="node15" class="node">
<title>Node14</title>
<g id="a_node15"><a xlink:href="data_8h.html" target="_top" xlink:title="data.h">
<polygon fill="#ffffff" stroke="#000000" points="275.5,-224.5 275.5,-243.5 319.5,-243.5 319.5,-224.5 275.5,-224.5"/>
<text text-anchor="middle" x="297.5" y="-231.5" font-family="Helvetica,sans-Serif" font-size="10.00" fill="#000000">data.h</text>
</a>
</g>
</g>
<!-- Node6&#45;&gt;Node14 -->
<g id="edge16" class="edge">
<title>Node6&#45;&gt;Node14</title>
<path fill="none" stroke="#191970" d="M361.0876,-280.2455C349.4943,-271.814 332.5252,-259.4729 319.0322,-249.6598"/>
<polygon fill="#191970" stroke="#191970" points="320.9047,-246.6938 310.7587,-243.6427 316.7874,-252.355 320.9047,-246.6938"/>
</g>
<!-- Node15 -->
<g id="node16" class="node">
<title>Node15</title>
<g id="a_node16"><a xlink:href="utils_8h.html" target="_top" xlink:title="utils.h">
<polygon fill="#ffffff" stroke="#000000" points="257,-168.5 257,-187.5 300,-187.5 300,-168.5 257,-168.5"/>
<text text-anchor="middle" x="278.5" y="-175.5" font-family="Helvetica,sans-Serif" font-size="10.00" fill="#000000">utils.h</text>
</a>
</g>
</g>
<!-- Node6&#45;&gt;Node15 -->
<g id="edge24" class="edge">
<title>Node6&#45;&gt;Node15</title>
<path fill="none" stroke="#191970" d="M345.9872,-281.7668C317.1925,-272.8074 275.687,-257.8987 266.5,-244 257.3015,-230.084 262.1529,-211.0789 268.2117,-197.036"/>
<polygon fill="#191970" stroke="#191970" points="271.4596,-198.3586 272.6532,-187.8312 265.1552,-195.3165 271.4596,-198.3586"/>
</g>
<!-- Node11&#45;&gt;Node7 -->
<g id="edge13" class="edge">
<title>Node11&#45;&gt;Node7</title>
<path fill="none" stroke="#191970" d="M189.0341,-112.4689C195.9745,-98.6578 210.3567,-72.89 228.5,-56 243.0454,-42.4594 262.2902,-31.3192 278.3714,-23.3948"/>
<polygon fill="#191970" stroke="#191970" points="279.8785,-26.5538 287.4147,-19.1068 276.8795,-20.2287 279.8785,-26.5538"/>
</g>
<!-- Node12 -->
<g id="node13" class="node">
<title>Node12</title>
<polygon fill="#ffffff" stroke="#bfbfbf" points="129.5,-56.5 129.5,-75.5 181.5,-75.5 181.5,-56.5 129.5,-56.5"/>
<text text-anchor="middle" x="155.5" y="-63.5" font-family="Helvetica,sans-Serif" font-size="10.00" fill="#000000">memory</text>
</g>
<!-- Node11&#45;&gt;Node12 -->
<g id="edge12" class="edge">
<title>Node11&#45;&gt;Node12</title>
<path fill="none" stroke="#191970" d="M179.4486,-112.2455C175.4981,-104.617 169.8903,-93.7881 165.0942,-84.5267"/>
<polygon fill="#191970" stroke="#191970" points="168.2001,-82.9131 160.4935,-75.6427 161.9841,-86.1321 168.2001,-82.9131"/>
</g>
<!-- Node13 -->
<g id="node14" class="node">
<title>Node13</title>
<g id="a_node14"><a xlink:href="loss_8h.html" target="_top" xlink:title="loss.h">
<polygon fill="#ffffff" stroke="#000000" points="238,-56.5 238,-75.5 281,-75.5 281,-56.5 238,-56.5"/>
<text text-anchor="middle" x="259.5" y="-63.5" font-family="Helvetica,sans-Serif" font-size="10.00" fill="#000000">loss.h</text>
</a>
</g>
</g>
<!-- Node11&#45;&gt;Node13 -->
<g id="edge14" class="edge">
<title>Node11&#45;&gt;Node13</title>
<path fill="none" stroke="#191970" d="M197.564,-112.2455C208.8562,-103.814 225.3845,-91.4729 238.5271,-81.6598"/>
<polygon fill="#191970" stroke="#191970" points="240.6669,-84.4301 246.5857,-75.6427 236.4789,-78.8211 240.6669,-84.4301"/>
</g>
<!-- Node13&#45;&gt;Node7 -->
<g id="edge15" class="edge">
<title>Node13&#45;&gt;Node7</title>
<path fill="none" stroke="#191970" d="M268.2093,-56.2455C275.3073,-48.2958 285.5084,-36.8706 293.995,-27.3656"/>
<polygon fill="#191970" stroke="#191970" points="296.8411,-29.4331 300.8905,-19.6427 291.6195,-24.771 296.8411,-29.4331"/>
</g>
<!-- Node14&#45;&gt;Node7 -->
<g id="edge17" class="edge">
<title>Node14&#45;&gt;Node7</title>
<path fill="none" stroke="#191970" d="M300.6565,-224.2503C303.4975,-215.0208 307.5206,-200.7222 309.5,-188 318.5287,-129.9709 319.3059,-114.6038 315.5,-56 314.9402,-47.3805 313.7964,-37.9095 312.6561,-29.8133"/>
<polygon fill="#191970" stroke="#191970" points="316.104,-29.2041 311.1586,-19.8343 309.1815,-30.243 316.104,-29.2041"/>
</g>
<!-- Node14&#45;&gt;Node8 -->
<g id="edge18" class="edge">
<title>Node14&#45;&gt;Node8</title>
<path fill="none" stroke="#191970" d="M313.6994,-224.2455C328.3652,-215.4145 350.1537,-202.2945 366.781,-192.2824"/>
<polygon fill="#191970" stroke="#191970" points="368.648,-195.2438 375.4093,-187.0869 365.037,-189.247 368.648,-195.2438"/>
</g>
<!-- Node14&#45;&gt;Node15 -->
<g id="edge19" class="edge">
<title>Node14&#45;&gt;Node15</title>
<path fill="none" stroke="#191970" d="M288.9236,-224.2455C285.0333,-216.9382 281.1535,-206.6944 278.706,-197.7046"/>
<polygon fill="#191970" stroke="#191970" points="282.0642,-196.6751 276.5265,-187.6427 275.2229,-198.157 282.0642,-196.6751"/>
</g>
<!-- Node15&#45;&gt;Node7 -->
<g id="edge20" class="edge">
<title>Node15&#45;&gt;Node7</title>
<path fill="none" stroke="#191970" d="M281.3638,-168.1971C283.9979,-158.9301 287.881,-144.6061 290.5,-132 297.953,-96.1257 303.9238,-53.7681 307.0691,-29.5781"/>
<polygon fill="#191970" stroke="#191970" points="310.5548,-29.9121 308.3455,-19.5501 303.6108,-29.0281 310.5548,-29.9121"/>
</g>
<!-- Node15&#45;&gt;Node11 -->
<g id="edge22" class="edge">
<title>Node15&#45;&gt;Node11</title>
<path fill="none" stroke="#191970" d="M262.1264,-168.2455C247.5692,-159.5731 226.069,-146.7645 209.3848,-136.825"/>
<polygon fill="#191970" stroke="#191970" points="211.0683,-133.7539 200.6859,-131.6427 207.4856,-139.7676 211.0683,-133.7539"/>
</g>
<!-- Node15&#45;&gt;Node14 -->
<g id="edge23" class="edge">
<title>Node15&#45;&gt;Node14</title>
<path fill="none" stroke="#191970" d="M287.0168,-187.6427C290.9499,-194.9998 294.8797,-205.3803 297.337,-214.4538"/>
<polygon fill="#191970" stroke="#191970" points="293.9202,-215.2128 299.4573,-224.2455 300.7616,-213.7313 293.9202,-215.2128"/>
</g>
<!-- Node16 -->
<g id="node17" class="node">
<title>Node16</title>
<polygon fill="#ffffff" stroke="#bfbfbf" points="240,-112.5 240,-131.5 281,-131.5 281,-112.5 240,-112.5"/>
<text text-anchor="middle" x="260.5" y="-119.5" font-family="Helvetica,sans-Serif" font-size="10.00" fill="#000000">string</text>
</g>
<!-- Node15&#45;&gt;Node16 -->
<g id="edge21" class="edge">
<title>Node15&#45;&gt;Node16</title>
<path fill="none" stroke="#191970" d="M275.3646,-168.2455C272.99,-160.8579 269.6507,-150.4689 266.7385,-141.4087"/>
<polygon fill="#191970" stroke="#191970" points="269.9917,-140.0919 263.5994,-131.6427 263.3275,-142.234 269.9917,-140.0919"/>
</g>
<!-- Node18 -->
<g id="node19" class="node">
<title>Node18</title>
<polygon fill="#ffffff" stroke="#bfbfbf" points="568,-224.5 568,-243.5 617,-243.5 617,-224.5 568,-224.5"/>
<text text-anchor="middle" x="592.5" y="-231.5" font-family="Helvetica,sans-Serif" font-size="10.00" fill="#000000">random</text>
</g>
<!-- Node17&#45;&gt;Node18 -->
<g id="edge26" class="edge">
<title>Node17&#45;&gt;Node18</title>
<path fill="none" stroke="#191970" d="M544.6028,-280.2455C553.0028,-272.1352 565.1494,-260.4075 575.1084,-250.7919"/>
<polygon fill="#191970" stroke="#191970" points="577.75,-253.1066 582.5129,-243.6427 572.8878,-248.0707 577.75,-253.1066"/>
</g>
</g>
</svg>
        <g id="navigator" transform="translate(0 0)" fill="#404254">
                <rect fill="#f2f5e9" fill-opacity="0.5" stroke="#606060" stroke-width=".5" x="0" y="0" width="60" height="60"/>
                <use id="zoomplus" xlink:href="#zoomPlus" x="17" y="9" onmousedown="handleZoom(evt,'in')"/>
                <use id="zoomminus" xlink:href="#zoomMin" x="42" y="9" onmousedown="handleZoom(evt,'out')"/>
                <use id="reset" xlink:href="#resetDef" x="30" y="36" onmousedown="handleReset()"/>
                <g id="arrowUp" xlink:href="#dirArrow" transform="translate(30 24)" onmousedown="handlePan(0,-1)">
                  <use xlink:href="#rim" fill="#404040">
                        <set attributeName="fill" to="#808080" begin="arrowUp.mouseover" end="arrowUp.mouseout"/>
                  </use>
                  <path fill="none" stroke="white" stroke-width="1.5" d="M0,-3.0v7 M-2.5,-0.5L0,-3.0L2.5,-0.5"/>
                </g>
                <g id="arrowRight" xlink:href="#dirArrow" transform="rotate(90) translate(36 -43)" onmousedown="handlePan(1,0)">
                  <use xlink:href="#rim" fill="#404040">
                        <set attributeName="fill" to="#808080" begin="arrowRight.mouseover" end="arrowRight.mouseout"/>
                  </use>
                  <path fill="none" stroke="white" stroke-width="1.5" d="M0,-3.0v7 M-2.5,-0.5L0,-3.0L2.5,-0.5"/>
                </g>
                <g id="arrowDown" xlink:href="#dirArrow" transform="rotate(180) translate(-30 -48)" onmousedown="handlePan(0,1)">
                  <use xlink:href="#rim" fill="#404040">
                        <set attributeName="fill" to="#808080" begin="arrowDown.mouseover" end="arrowDown.mouseout"/>
                  </use>
                  <path fill="none" stroke="white" stroke-width="1.5" d="M0,-3.0v7 M-2.5,-0.5L0,-3.0L2.5,-0.5"/>
                </g>
                <g id="arrowLeft" xlink:href="#dirArrow" transform="rotate(270) translate(-36 17)" onmousedown="handlePan(-1,0)">
                  <use xlink:href="#rim" fill="#404040">
                        <set attributeName="fill" to="#808080" begin="arrowLeft.mouseover" end="arrowLeft.mouseout"/>
                  </use>
                  <path fill="none" stroke="white" stroke-width="1.5" d="M0,-3.0v7 M-2.5,-0.5L0,-3.0L2.5,-0.5"/>
                </g>
        </g>
        <svg viewBox="0 0 15 15" width="100%" height="30px" preserveAspectRatio="xMaxYMin meet">
         <g id="arrow_out" transform="scale(0.3 0.3)">
          <a xlink:href="dp__tree_8cpp__incl_org.svg" target="_base">
           <rect id="button" ry="5" rx="5" y="6" x="6" height="38" width="38"
                fill="#f2f5e9" fill-opacity="0.5" stroke="#606060" stroke-width="1.0"/>
           <path id="arrow"
             d="M 11.500037,31.436501 C 11.940474,20.09759 22.043105,11.32322 32.158766,21.979434 L 37.068811,17.246167 C 37.068811,17.246167 37.088388,32 37.088388,32 L 22.160133,31.978069 C 22.160133,31.978069 26.997745,27.140456 26.997745,27.140456 C 18.528582,18.264221 13.291696,25.230495 11.500037,31.436501 z"
             style="fill:#404040;"/>
          </a>
         </g>
        </svg>
</svg>
