<?xml version="1.0" encoding="UTF-8" standalone="no"?>
<!DOCTYPE svg PUBLIC "-//W3C//DTD SVG 1.1//EN"
 "http://www.w3.org/Graphics/SVG/1.1/DTD/svg11.dtd">
<!-- Generated by graphviz version 2.40.1 (20161225.0304)
 -->
<!-- Title: include/gbdt/dp_ensemble.h Pages: 1 -->
<svg width="433pt" height="364pt"
 viewBox="0.00 0.00 432.74 364.00" xmlns="http://www.w3.org/2000/svg" xmlns:xlink="http://www.w3.org/1999/xlink">
<g id="graph0" class="graph" transform="scale(1 1) rotate(0) translate(4 360)">
<title>include/gbdt/dp_ensemble.h</title>
<polygon fill="#ffffff" stroke="transparent" points="-4,4 -4,-360 428.7387,-360 428.7387,4 -4,4"/>
<!-- Node0 -->
<g id="node1" class="node">
<title>Node0</title>
<polygon fill="#bfbfbf" stroke="#000000" points="149.7387,-336.5 149.7387,-355.5 287.7387,-355.5 287.7387,-336.5 149.7387,-336.5"/>
<text text-anchor="middle" x="218.7387" y="-343.5" font-family="Helvetica,sans-Serif" font-size="10.00" fill="#000000">include/gbdt/dp_ensemble.h</text>
</g>
<!-- Node1 -->
<g id="node2" class="node">
<title>Node1</title>
<polygon fill="#ffffff" stroke="#bfbfbf" points="180.7387,-.5 180.7387,-19.5 224.7387,-19.5 224.7387,-.5 180.7387,-.5"/>
<text text-anchor="middle" x="202.7387" y="-7.5" font-family="Helvetica,sans-Serif" font-size="10.00" fill="#000000">vector</text>
</g>
<!-- Node0&#45;&gt;Node1 -->
<g id="edge1" class="edge">
<title>Node0&#45;&gt;Node1</title>
<path fill="none" stroke="#191970" d="M287.9068,-337.2664C347.752,-325.3799 424.7387,-297.708 424.7387,-234 424.7387,-234 424.7387,-234 424.7387,-122 424.7387,-38.1092 296.8119,-17.0433 235.1791,-11.7622"/>
<polygon fill="#191970" stroke="#191970" points="235.0743,-8.2441 224.8366,-10.9715 234.5406,-15.2237 235.0743,-8.2441"/>
</g>
<!-- Node2 -->
<g id="node3" class="node">
<title>Node2</title>
<polygon fill="#ffffff" stroke="#bfbfbf" points="346.7387,-224.5 346.7387,-243.5 396.7387,-243.5 396.7387,-224.5 346.7387,-224.5"/>
<text text-anchor="middle" x="371.7387" y="-231.5" font-family="Helvetica,sans-Serif" font-size="10.00" fill="#000000">fstream</text>
</g>
<!-- Node0&#45;&gt;Node2 -->
<g id="edge2" class="edge">
<title>Node0&#45;&gt;Node2</title>
<path fill="none" stroke="#191970" d="M231.7834,-336.4509C258.2053,-317.1094 318.2618,-273.1465 350.4412,-249.5904"/>
<polygon fill="#191970" stroke="#191970" points="352.7254,-252.2559 358.7271,-243.5249 348.5906,-246.6075 352.7254,-252.2559"/>
</g>
<!-- Node3 -->
<g id="node4" class="node">
<title>Node3</title>
<g id="a_node4"><a xlink:href="dp__tree_8h.html" target="_top" xlink:title="dp_tree.h">
<polygon fill="#ffffff" stroke="#000000" points="190.2387,-280.5 190.2387,-299.5 247.2387,-299.5 247.2387,-280.5 190.2387,-280.5"/>
<text text-anchor="middle" x="218.7387" y="-287.5" font-family="Helvetica,sans-Serif" font-size="10.00" fill="#000000">dp_tree.h</text>
</a>
</g>
</g>
<!-- Node0&#45;&gt;Node3 -->
<g id="edge3" class="edge">
<title>Node0&#45;&gt;Node3</title>
<path fill="none" stroke="#191970" d="M218.7387,-336.2455C218.7387,-328.9382 218.7387,-318.6944 218.7387,-309.7046"/>
<polygon fill="#191970" stroke="#191970" points="222.2388,-309.6426 218.7387,-299.6427 215.2388,-309.6427 222.2388,-309.6426"/>
</g>
<!-- Node6 -->
<g id="node7" class="node">
<title>Node6</title>
<g id="a_node7"><a xlink:href="parameters_8h.html" target="_top" xlink:title="parameters.h">
<polygon fill="#ffffff" stroke="#000000" points=".7387,-112.5 .7387,-131.5 74.7387,-131.5 74.7387,-112.5 .7387,-112.5"/>
<text text-anchor="middle" x="37.7387" y="-119.5" font-family="Helvetica,sans-Serif" font-size="10.00" fill="#000000">parameters.h</text>
</a>
</g>
</g>
<!-- Node0&#45;&gt;Node6 -->
<g id="edge22" class="edge">
<title>Node0&#45;&gt;Node6</title>
<path fill="none" stroke="#191970" d="M202.0721,-336.4937C174.7393,-320.2806 119.8255,-285.0248 83.7387,-244 64.8058,-222.4763 61.9465,-214.7868 51.7387,-188 46.0036,-172.95 42.3904,-155.0269 40.2743,-141.6587"/>
<polygon fill="#191970" stroke="#191970" points="43.7247,-141.0629 38.8351,-131.6639 36.7962,-142.0606 43.7247,-141.0629"/>
</g>
<!-- Node9 -->
<g id="node10" class="node">
<title>Node9</title>
<g id="a_node10"><a xlink:href="data_8h.html" target="_top" xlink:title="data.h">
<polygon fill="#ffffff" stroke="#000000" points="122.7387,-224.5 122.7387,-243.5 166.7387,-243.5 166.7387,-224.5 122.7387,-224.5"/>
<text text-anchor="middle" x="144.7387" y="-231.5" font-family="Helvetica,sans-Serif" font-size="10.00" fill="#000000">data.h</text>
</a>
</g>
</g>
<!-- Node0&#45;&gt;Node9 -->
<g id="edge23" class="edge">
<title>Node0&#45;&gt;Node9</title>
<path fill="none" stroke="#191970" d="M209.706,-336.2036C201.6142,-327.1745 189.6788,-313.2118 180.7387,-300 170.4799,-284.8393 160.6566,-266.4809 153.8708,-252.9789"/>
<polygon fill="#191970" stroke="#191970" points="156.8754,-251.1579 149.3167,-243.7338 150.5959,-254.2512 156.8754,-251.1579"/>
</g>
<!-- Node3&#45;&gt;Node1 -->
<g id="edge4" class="edge">
<title>Node3&#45;&gt;Node1</title>
<path fill="none" stroke="#191970" d="M237.0803,-280.3328C265.9494,-263.6392 318.7387,-226.4848 318.7387,-178 318.7387,-178 318.7387,-178 318.7387,-122 318.7387,-74.7897 268.3977,-41.1755 234.0417,-23.7321"/>
<polygon fill="#191970" stroke="#191970" points="235.3532,-20.4778 224.8305,-19.2431 232.2865,-26.7703 235.3532,-20.4778"/>
</g>
<!-- Node3&#45;&gt;Node2 -->
<g id="edge6" class="edge">
<title>Node3&#45;&gt;Node2</title>
<path fill="none" stroke="#191970" d="M245.0404,-280.3733C270.491,-271.058 309.213,-256.8852 337.1494,-246.6602"/>
<polygon fill="#191970" stroke="#191970" points="338.3538,-249.9465 346.5416,-243.2225 335.9478,-243.3729 338.3538,-249.9465"/>
</g>
<!-- Node4 -->
<g id="node5" class="node">
<title>Node4</title>
<polygon fill="#ffffff" stroke="#bfbfbf" points="260.7387,-168.5 260.7387,-187.5 290.7387,-187.5 290.7387,-168.5 260.7387,-168.5"/>
<text text-anchor="middle" x="275.7387" y="-175.5" font-family="Helvetica,sans-Serif" font-size="10.00" fill="#000000">set</text>
</g>
<!-- Node3&#45;&gt;Node4 -->
<g id="edge5" class="edge">
<title>Node3&#45;&gt;Node4</title>
<path fill="none" stroke="#191970" d="M230.8529,-280.351C240.7007,-271.8356 254.1612,-258.5422 261.7387,-244 269.1812,-229.717 272.6677,-211.7369 274.3007,-198.1517"/>
<polygon fill="#191970" stroke="#191970" points="277.8082,-198.2409 275.2826,-187.9515 270.8404,-197.5701 277.8082,-198.2409"/>
</g>
<!-- Node5 -->
<g id="node6" class="node">
<title>Node5</title>
<g id="a_node6"><a xlink:href="tree__node_8h.html" target="_top" xlink:title="tree_node.h">
<polygon fill="#ffffff" stroke="#000000" points="184.7387,-224.5 184.7387,-243.5 252.7387,-243.5 252.7387,-224.5 184.7387,-224.5"/>
<text text-anchor="middle" x="218.7387" y="-231.5" font-family="Helvetica,sans-Serif" font-size="10.00" fill="#000000">tree_node.h</text>
</a>
</g>
</g>
<!-- Node3&#45;&gt;Node5 -->
<g id="edge7" class="edge">
<title>Node3&#45;&gt;Node5</title>
<path fill="none" stroke="#191970" d="M218.7387,-280.2455C218.7387,-272.9382 218.7387,-262.6944 218.7387,-253.7046"/>
<polygon fill="#191970" stroke="#191970" points="222.2388,-253.6426 218.7387,-243.6427 215.2388,-253.6427 222.2388,-253.6426"/>
</g>
<!-- Node3&#45;&gt;Node6 -->
<g id="edge8" class="edge">
<title>Node3&#45;&gt;Node6</title>
<path fill="none" stroke="#191970" d="M189.8805,-283.9571C165.1651,-277.5529 129.8488,-265.3368 105.7387,-244 73.4998,-215.4694 53.2719,-167.8345 43.901,-141.3154"/>
<polygon fill="#191970" stroke="#191970" points="47.157,-140.0176 40.6429,-131.6619 40.5245,-142.256 47.157,-140.0176"/>
</g>
<!-- Node3&#45;&gt;Node9 -->
<g id="edge13" class="edge">
<title>Node3&#45;&gt;Node9</title>
<path fill="none" stroke="#191970" d="M205.8489,-280.2455C194.8134,-271.8943 178.7095,-259.7076 165.8034,-249.9408"/>
<polygon fill="#191970" stroke="#191970" points="167.567,-246.8862 157.4809,-243.6427 163.3429,-252.4681 167.567,-246.8862"/>
</g>
<!-- Node10 -->
<g id="node11" class="node">
<title>Node10</title>
<g id="a_node11"><a xlink:href="utils_8h.html" target="_top" xlink:title="utils.h">
<polygon fill="#ffffff" stroke="#000000" points="118.2387,-168.5 118.2387,-187.5 161.2387,-187.5 161.2387,-168.5 118.2387,-168.5"/>
<text text-anchor="middle" x="139.7387" y="-175.5" font-family="Helvetica,sans-Serif" font-size="10.00" fill="#000000">utils.h</text>
</a>
</g>
</g>
<!-- Node3&#45;&gt;Node10 -->
<g id="edge21" class="edge">
<title>Node3&#45;&gt;Node10</title>
<path fill="none" stroke="#191970" d="M190.0013,-286.1295C165.0988,-281.0896 130.5079,-269.6543 113.7387,-244 103.8062,-228.8047 113.9324,-209.226 124.3107,-195.35"/>
<polygon fill="#191970" stroke="#191970" points="127.062,-197.5139 130.6281,-187.5373 121.6188,-193.1125 127.062,-197.5139"/>
</g>
<!-- Node6&#45;&gt;Node1 -->
<g id="edge10" class="edge">
<title>Node6&#45;&gt;Node1</title>
<path fill="none" stroke="#191970" d="M26.465,-112.3254C12.0501,-98.7892 -9.4443,-73.8558 4.7387,-56 25.0772,-30.3948 119.7278,-17.7554 170.4434,-12.7278"/>
<polygon fill="#191970" stroke="#191970" points="170.9314,-16.1973 180.5562,-11.7686 170.2704,-9.2286 170.9314,-16.1973"/>
</g>
<!-- Node7 -->
<g id="node8" class="node">
<title>Node7</title>
<polygon fill="#ffffff" stroke="#bfbfbf" points="75.7387,-56.5 75.7387,-75.5 127.7387,-75.5 127.7387,-56.5 75.7387,-56.5"/>
<text text-anchor="middle" x="101.7387" y="-63.5" font-family="Helvetica,sans-Serif" font-size="10.00" fill="#000000">memory</text>
</g>
<!-- Node6&#45;&gt;Node7 -->
<g id="edge9" class="edge">
<title>Node6&#45;&gt;Node7</title>
<path fill="none" stroke="#191970" d="M48.8867,-112.2455C58.2474,-104.0549 71.8246,-92.1749 82.8737,-82.5069"/>
<polygon fill="#191970" stroke="#191970" points="85.4975,-84.8618 90.7186,-75.6427 80.888,-79.5937 85.4975,-84.8618"/>
</g>
<!-- Node8 -->
<g id="node9" class="node">
<title>Node8</title>
<g id="a_node9"><a xlink:href="loss_8h.html" target="_top" xlink:title="loss.h">
<polygon fill="#ffffff" stroke="#000000" points="14.2387,-56.5 14.2387,-75.5 57.2387,-75.5 57.2387,-56.5 14.2387,-56.5"/>
<text text-anchor="middle" x="35.7387" y="-63.5" font-family="Helvetica,sans-Serif" font-size="10.00" fill="#000000">loss.h</text>
</a>
</g>
</g>
<!-- Node6&#45;&gt;Node8 -->
<g id="edge11" class="edge">
<title>Node6&#45;&gt;Node8</title>
<path fill="none" stroke="#191970" d="M37.3904,-112.2455C37.1294,-104.9382 36.7635,-94.6944 36.4425,-85.7046"/>
<polygon fill="#191970" stroke="#191970" points="39.9379,-85.5113 36.0831,-75.6427 32.9424,-85.7613 39.9379,-85.5113"/>
</g>
<!-- Node8&#45;&gt;Node1 -->
<g id="edge12" class="edge">
<title>Node8&#45;&gt;Node1</title>
<path fill="none" stroke="#191970" d="M57.5711,-58.679C86.4959,-48.9796 137.7269,-31.8004 170.948,-20.6604"/>
<polygon fill="#191970" stroke="#191970" points="172.2668,-23.9098 180.6352,-17.412 170.0412,-17.2729 172.2668,-23.9098"/>
</g>
<!-- Node9&#45;&gt;Node1 -->
<g id="edge14" class="edge">
<title>Node9&#45;&gt;Node1</title>
<path fill="none" stroke="#191970" d="M154.2647,-224.3673C170.2699,-207.4249 201.9614,-170.4294 213.7387,-132 224.4383,-97.0875 215.8367,-54.1249 209.0118,-29.6166"/>
<polygon fill="#191970" stroke="#191970" points="212.2828,-28.3368 206.0768,-19.7498 205.5733,-30.3326 212.2828,-28.3368"/>
</g>
<!-- Node9&#45;&gt;Node4 -->
<g id="edge15" class="edge">
<title>Node9&#45;&gt;Node4</title>
<path fill="none" stroke="#191970" d="M166.9611,-224.5004C190.3147,-214.5171 226.954,-198.8546 251.1578,-188.5079"/>
<polygon fill="#191970" stroke="#191970" points="252.5673,-191.7118 260.3866,-184.5627 249.8158,-185.2752 252.5673,-191.7118"/>
</g>
<!-- Node9&#45;&gt;Node10 -->
<g id="edge16" class="edge">
<title>Node9&#45;&gt;Node10</title>
<path fill="none" stroke="#191970" d="M138.601,-224.2455C136.5375,-216.9382 135.2186,-206.6944 135.0186,-197.7046"/>
<polygon fill="#191970" stroke="#191970" points="138.5188,-197.7539 135.3546,-187.6427 131.5227,-197.5203 138.5188,-197.7539"/>
</g>
<!-- Node10&#45;&gt;Node1 -->
<g id="edge17" class="edge">
<title>Node10&#45;&gt;Node1</title>
<path fill="none" stroke="#191970" d="M141.0377,-168.4092C142.9655,-155.3912 147.0891,-131.5135 153.7387,-112 164.0929,-81.6158 181.1912,-48.4653 192.2065,-28.4575"/>
<polygon fill="#191970" stroke="#191970" points="195.3793,-29.9548 197.2069,-19.5188 189.2702,-26.5373 195.3793,-29.9548"/>
</g>
<!-- Node10&#45;&gt;Node6 -->
<g id="edge19" class="edge">
<title>Node10&#45;&gt;Node6</title>
<path fill="none" stroke="#191970" d="M121.9717,-168.2455C106.0292,-159.4928 82.4129,-146.527 64.2398,-136.5496"/>
<polygon fill="#191970" stroke="#191970" points="65.7524,-133.3873 55.3022,-131.6427 62.3836,-139.5233 65.7524,-133.3873"/>
</g>
<!-- Node10&#45;&gt;Node9 -->
<g id="edge20" class="edge">
<title>Node10&#45;&gt;Node9</title>
<path fill="none" stroke="#191970" d="M145.8448,-187.6427C147.9159,-194.9199 149.2443,-205.155 149.4558,-214.1575"/>
<polygon fill="#191970" stroke="#191970" points="145.9547,-214.1392 149.1347,-224.2455 152.9511,-214.362 145.9547,-214.1392"/>
</g>
<!-- Node11 -->
<g id="node12" class="node">
<title>Node11</title>
<polygon fill="#ffffff" stroke="#bfbfbf" points="163.2387,-112.5 163.2387,-131.5 204.2387,-131.5 204.2387,-112.5 163.2387,-112.5"/>
<text text-anchor="middle" x="183.7387" y="-119.5" font-family="Helvetica,sans-Serif" font-size="10.00" fill="#000000">string</text>
</g>
<!-- Node10&#45;&gt;Node11 -->
<g id="edge18" class="edge">
<title>Node10&#45;&gt;Node11</title>
<path fill="none" stroke="#191970" d="M147.403,-168.2455C153.5861,-160.3761 162.4451,-149.101 169.8676,-139.6542"/>
<polygon fill="#191970" stroke="#191970" points="172.7362,-141.6683 176.1624,-131.6427 167.232,-137.3435 172.7362,-141.6683"/>
</g>
</g>
</svg>
