<?xml version="1.0" encoding="UTF-8" standalone="no"?>
<!DOCTYPE svg PUBLIC "-//W3C//DTD SVG 1.1//EN"
 "http://www.w3.org/Graphics/SVG/1.1/DTD/svg11.dtd">
<!-- Generated by graphviz version 2.40.1 (20161225.0304)
 -->
<!-- Title: src/gbdt/dp_ensemble.cpp Pages: 1 -->
<svg width="596pt" height="420pt"
 viewBox="0.00 0.00 595.50 420.00" xmlns="http://www.w3.org/2000/svg" xmlns:xlink="http://www.w3.org/1999/xlink">
<g id="graph0" class="graph" transform="scale(1 1) rotate(0) translate(4 416)">
<title>src/gbdt/dp_ensemble.cpp</title>
<polygon fill="#ffffff" stroke="transparent" points="-4,4 -4,-416 591.5,-416 591.5,4 -4,4"/>
<!-- Node0 -->
<g id="node1" class="node">
<title>Node0</title>
<polygon fill="#bfbfbf" stroke="#000000" points="133,-392.5 133,-411.5 264,-411.5 264,-392.5 133,-392.5"/>
<text text-anchor="middle" x="198.5" y="-399.5" font-family="Helvetica,sans-Serif" font-size="10.00" fill="#000000">src/gbdt/dp_ensemble.cpp</text>
</g>
<!-- Node1 -->
<g id="node2" class="node">
<title>Node1</title>
<polygon fill="#ffffff" stroke="#bfbfbf" points="0,-336.5 0,-355.5 51,-355.5 51,-336.5 0,-336.5"/>
<text text-anchor="middle" x="25.5" y="-343.5" font-family="Helvetica,sans-Serif" font-size="10.00" fill="#000000">numeric</text>
</g>
<!-- Node0&#45;&gt;Node1 -->
<g id="edge1" class="edge">
<title>Node0&#45;&gt;Node1</title>
<path fill="none" stroke="#191970" d="M168.7602,-392.3733C138.8597,-382.6945 92.7588,-367.7716 60.9699,-357.4816"/>
<polygon fill="#191970" stroke="#191970" points="61.7823,-354.0658 51.1905,-354.316 59.6265,-360.7256 61.7823,-354.0658"/>
</g>
<!-- Node2 -->
<g id="node3" class="node">
<title>Node2</title>
<polygon fill="#ffffff" stroke="#bfbfbf" points="69.5,-336.5 69.5,-355.5 125.5,-355.5 125.5,-336.5 69.5,-336.5"/>
<text text-anchor="middle" x="97.5" y="-343.5" font-family="Helvetica,sans-Serif" font-size="10.00" fill="#000000">algorithm</text>
</g>
<!-- Node0&#45;&gt;Node2 -->
<g id="edge2" class="edge">
<title>Node0&#45;&gt;Node2</title>
<path fill="none" stroke="#191970" d="M180.9071,-392.2455C165.121,-383.4928 141.7361,-370.527 123.7413,-360.5496"/>
<polygon fill="#191970" stroke="#191970" points="125.3341,-357.4308 114.8913,-355.6427 121.9397,-363.5528 125.3341,-357.4308"/>
</g>
<!-- Node3 -->
<g id="node4" class="node">
<title>Node3</title>
<polygon fill="#ffffff" stroke="#bfbfbf" points="143.5,-336.5 143.5,-355.5 187.5,-355.5 187.5,-336.5 143.5,-336.5"/>
<text text-anchor="middle" x="165.5" y="-343.5" font-family="Helvetica,sans-Serif" font-size="10.00" fill="#000000">mutex</text>
</g>
<!-- Node0&#45;&gt;Node3 -->
<g id="edge3" class="edge">
<title>Node0&#45;&gt;Node3</title>
<path fill="none" stroke="#191970" d="M192.7518,-392.2455C188.2565,-384.617 181.8752,-373.7881 176.4175,-364.5267"/>
<polygon fill="#191970" stroke="#191970" points="179.2747,-362.4811 171.1823,-355.6427 173.2439,-366.035 179.2747,-362.4811"/>
</g>
<!-- Node4 -->
<g id="node5" class="node">
<title>Node4</title>
<polygon fill="#ffffff" stroke="#bfbfbf" points="205.5,-336.5 205.5,-355.5 259.5,-355.5 259.5,-336.5 205.5,-336.5"/>
<text text-anchor="middle" x="232.5" y="-343.5" font-family="Helvetica,sans-Serif" font-size="10.00" fill="#000000">iostream</text>
</g>
<!-- Node0&#45;&gt;Node4 -->
<g id="edge4" class="edge">
<title>Node0&#45;&gt;Node4</title>
<path fill="none" stroke="#191970" d="M204.4223,-392.2455C209.1027,-384.5367 215.7673,-373.5598 221.4289,-364.2348"/>
<polygon fill="#191970" stroke="#191970" points="224.4475,-366.007 226.6455,-355.6427 218.4639,-362.3741 224.4475,-366.007"/>
</g>
<!-- Node5 -->
<g id="node6" class="node">
<title>Node5</title>
<polygon fill="#ffffff" stroke="#bfbfbf" points="277.5,-336.5 277.5,-355.5 321.5,-355.5 321.5,-336.5 277.5,-336.5"/>
<text text-anchor="middle" x="299.5" y="-343.5" font-family="Helvetica,sans-Serif" font-size="10.00" fill="#000000">cmath</text>
</g>
<!-- Node0&#45;&gt;Node5 -->
<g id="edge5" class="edge">
<title>Node0&#45;&gt;Node5</title>
<path fill="none" stroke="#191970" d="M216.0929,-392.2455C231.879,-383.4928 255.2639,-370.527 273.2587,-360.5496"/>
<polygon fill="#191970" stroke="#191970" points="275.0603,-363.5528 282.1087,-355.6427 271.6659,-357.4308 275.0603,-363.5528"/>
</g>
<!-- Node6 -->
<g id="node7" class="node">
<title>Node6</title>
<g id="a_node7"><a xlink:href="dp__ensemble_8h.html" target="_top" xlink:title="dp_ensemble.h">
<polygon fill="#ffffff" stroke="#000000" points="340,-336.5 340,-355.5 423,-355.5 423,-336.5 340,-336.5"/>
<text text-anchor="middle" x="381.5" y="-343.5" font-family="Helvetica,sans-Serif" font-size="10.00" fill="#000000">dp_ensemble.h</text>
</a>
</g>
</g>
<!-- Node0&#45;&gt;Node6 -->
<g id="edge6" class="edge">
<title>Node0&#45;&gt;Node6</title>
<path fill="none" stroke="#191970" d="M229.9588,-392.3733C260.5207,-383.021 307.0826,-368.7725 340.5261,-358.5385"/>
<polygon fill="#191970" stroke="#191970" points="341.9136,-361.7742 350.4517,-355.5011 339.8652,-355.0806 341.9136,-361.7742"/>
</g>
<!-- Node7 -->
<g id="node8" class="node">
<title>Node7</title>
<polygon fill="#ffffff" stroke="#bfbfbf" points="343.5,-.5 343.5,-19.5 387.5,-19.5 387.5,-.5 343.5,-.5"/>
<text text-anchor="middle" x="365.5" y="-7.5" font-family="Helvetica,sans-Serif" font-size="10.00" fill="#000000">vector</text>
</g>
<!-- Node6&#45;&gt;Node7 -->
<g id="edge7" class="edge">
<title>Node6&#45;&gt;Node7</title>
<path fill="none" stroke="#191970" d="M423.1872,-341.907C483.381,-333.4409 587.5,-308.0886 587.5,-234 587.5,-234 587.5,-234 587.5,-122 587.5,-38.1092 459.5731,-17.0433 397.9404,-11.7622"/>
<polygon fill="#191970" stroke="#191970" points="397.8356,-8.2441 387.5978,-10.9715 397.3019,-15.2237 397.8356,-8.2441"/>
</g>
<!-- Node8 -->
<g id="node9" class="node">
<title>Node8</title>
<polygon fill="#ffffff" stroke="#bfbfbf" points="509.5,-224.5 509.5,-243.5 559.5,-243.5 559.5,-224.5 509.5,-224.5"/>
<text text-anchor="middle" x="534.5" y="-231.5" font-family="Helvetica,sans-Serif" font-size="10.00" fill="#000000">fstream</text>
</g>
<!-- Node6&#45;&gt;Node8 -->
<g id="edge8" class="edge">
<title>Node6&#45;&gt;Node8</title>
<path fill="none" stroke="#191970" d="M394.5447,-336.4509C420.9666,-317.1094 481.023,-273.1465 513.2024,-249.5904"/>
<polygon fill="#191970" stroke="#191970" points="515.4866,-252.2559 521.4883,-243.5249 511.3518,-246.6075 515.4866,-252.2559"/>
</g>
<!-- Node9 -->
<g id="node10" class="node">
<title>Node9</title>
<g id="a_node10"><a xlink:href="dp__tree_8h.html" target="_top" xlink:title="dp_tree.h">
<polygon fill="#ffffff" stroke="#000000" points="353,-280.5 353,-299.5 410,-299.5 410,-280.5 353,-280.5"/>
<text text-anchor="middle" x="381.5" y="-287.5" font-family="Helvetica,sans-Serif" font-size="10.00" fill="#000000">dp_tree.h</text>
</a>
</g>
</g>
<!-- Node6&#45;&gt;Node9 -->
<g id="edge9" class="edge">
<title>Node6&#45;&gt;Node9</title>
<path fill="none" stroke="#191970" d="M381.5,-336.2455C381.5,-328.9382 381.5,-318.6944 381.5,-309.7046"/>
<polygon fill="#191970" stroke="#191970" points="385.0001,-309.6426 381.5,-299.6427 378.0001,-309.6427 385.0001,-309.6426"/>
</g>
<!-- Node12 -->
<g id="node13" class="node">
<title>Node12</title>
<g id="a_node13"><a xlink:href="parameters_8h.html" target="_top" xlink:title="parameters.h">
<polygon fill="#ffffff" stroke="#000000" points="163.5,-112.5 163.5,-131.5 237.5,-131.5 237.5,-112.5 163.5,-112.5"/>
<text text-anchor="middle" x="200.5" y="-119.5" font-family="Helvetica,sans-Serif" font-size="10.00" fill="#000000">parameters.h</text>
</a>
</g>
</g>
<!-- Node6&#45;&gt;Node12 -->
<g id="edge28" class="edge">
<title>Node6&#45;&gt;Node12</title>
<path fill="none" stroke="#191970" d="M364.8333,-336.4937C337.5005,-320.2806 282.5868,-285.0248 246.5,-244 227.567,-222.4763 224.7077,-214.7868 214.5,-188 208.7648,-172.95 205.1517,-155.0269 203.0356,-141.6587"/>
<polygon fill="#191970" stroke="#191970" points="206.4859,-141.0629 201.5964,-131.6639 199.5574,-142.0606 206.4859,-141.0629"/>
</g>
<!-- Node15 -->
<g id="node16" class="node">
<title>Node15</title>
<g id="a_node16"><a xlink:href="data_8h.html" target="_top" xlink:title="data.h">
<polygon fill="#ffffff" stroke="#000000" points="285.5,-224.5 285.5,-243.5 329.5,-243.5 329.5,-224.5 285.5,-224.5"/>
<text text-anchor="middle" x="307.5" y="-231.5" font-family="Helvetica,sans-Serif" font-size="10.00" fill="#000000">data.h</text>
</a>
</g>
</g>
<!-- Node6&#45;&gt;Node15 -->
<g id="edge29" class="edge">
<title>Node6&#45;&gt;Node15</title>
<path fill="none" stroke="#191970" d="M372.4672,-336.2036C364.3754,-327.1745 352.44,-313.2118 343.5,-300 333.2412,-284.8393 323.4179,-266.4809 316.632,-252.9789"/>
<polygon fill="#191970" stroke="#191970" points="319.6367,-251.1579 312.078,-243.7338 313.3572,-254.2512 319.6367,-251.1579"/>
</g>
<!-- Node9&#45;&gt;Node7 -->
<g id="edge10" class="edge">
<title>Node9&#45;&gt;Node7</title>
<path fill="none" stroke="#191970" d="M399.8415,-280.3328C428.7107,-263.6392 481.5,-226.4848 481.5,-178 481.5,-178 481.5,-178 481.5,-122 481.5,-74.7897 431.1589,-41.1755 396.8029,-23.7321"/>
<polygon fill="#191970" stroke="#191970" points="398.1144,-20.4778 387.5918,-19.2431 395.0478,-26.7703 398.1144,-20.4778"/>
</g>
<!-- Node9&#45;&gt;Node8 -->
<g id="edge12" class="edge">
<title>Node9&#45;&gt;Node8</title>
<path fill="none" stroke="#191970" d="M407.8016,-280.3733C433.2522,-271.058 471.9743,-256.8852 499.9106,-246.6602"/>
<polygon fill="#191970" stroke="#191970" points="501.1151,-249.9465 509.3028,-243.2225 498.709,-243.3729 501.1151,-249.9465"/>
</g>
<!-- Node10 -->
<g id="node11" class="node">
<title>Node10</title>
<polygon fill="#ffffff" stroke="#bfbfbf" points="423.5,-168.5 423.5,-187.5 453.5,-187.5 453.5,-168.5 423.5,-168.5"/>
<text text-anchor="middle" x="438.5" y="-175.5" font-family="Helvetica,sans-Serif" font-size="10.00" fill="#000000">set</text>
</g>
<!-- Node9&#45;&gt;Node10 -->
<g id="edge11" class="edge">
<title>Node9&#45;&gt;Node10</title>
<path fill="none" stroke="#191970" d="M393.6142,-280.351C403.462,-271.8356 416.9225,-258.5422 424.5,-244 431.9425,-229.717 435.4289,-211.7369 437.0619,-198.1517"/>
<polygon fill="#191970" stroke="#191970" points="440.5694,-198.2409 438.0439,-187.9515 433.6016,-197.5701 440.5694,-198.2409"/>
</g>
<!-- Node11 -->
<g id="node12" class="node">
<title>Node11</title>
<g id="a_node12"><a xlink:href="tree__node_8h.html" target="_top" xlink:title="tree_node.h">
<polygon fill="#ffffff" stroke="#000000" points="347.5,-224.5 347.5,-243.5 415.5,-243.5 415.5,-224.5 347.5,-224.5"/>
<text text-anchor="middle" x="381.5" y="-231.5" font-family="Helvetica,sans-Serif" font-size="10.00" fill="#000000">tree_node.h</text>
</a>
</g>
</g>
<!-- Node9&#45;&gt;Node11 -->
<g id="edge13" class="edge">
<title>Node9&#45;&gt;Node11</title>
<path fill="none" stroke="#191970" d="M381.5,-280.2455C381.5,-272.9382 381.5,-262.6944 381.5,-253.7046"/>
<polygon fill="#191970" stroke="#191970" points="385.0001,-253.6426 381.5,-243.6427 378.0001,-253.6427 385.0001,-253.6426"/>
</g>
<!-- Node9&#45;&gt;Node12 -->
<g id="edge14" class="edge">
<title>Node9&#45;&gt;Node12</title>
<path fill="none" stroke="#191970" d="M352.6417,-283.9571C327.9263,-277.5529 292.6101,-265.3368 268.5,-244 236.2611,-215.4694 216.0331,-167.8345 206.6622,-141.3154"/>
<polygon fill="#191970" stroke="#191970" points="209.9182,-140.0176 203.4042,-131.6619 203.2858,-142.256 209.9182,-140.0176"/>
</g>
<!-- Node9&#45;&gt;Node15 -->
<g id="edge19" class="edge">
<title>Node9&#45;&gt;Node15</title>
<path fill="none" stroke="#191970" d="M368.6102,-280.2455C357.5746,-271.8943 341.4708,-259.7076 328.5647,-249.9408"/>
<polygon fill="#191970" stroke="#191970" points="330.3283,-246.8862 320.2421,-243.6427 326.1041,-252.4681 330.3283,-246.8862"/>
</g>
<!-- Node16 -->
<g id="node17" class="node">
<title>Node16</title>
<g id="a_node17"><a xlink:href="utils_8h.html" target="_top" xlink:title="utils.h">
<polygon fill="#ffffff" stroke="#000000" points="281,-168.5 281,-187.5 324,-187.5 324,-168.5 281,-168.5"/>
<text text-anchor="middle" x="302.5" y="-175.5" font-family="Helvetica,sans-Serif" font-size="10.00" fill="#000000">utils.h</text>
</a>
</g>
</g>
<!-- Node9&#45;&gt;Node16 -->
<g id="edge27" class="edge">
<title>Node9&#45;&gt;Node16</title>
<path fill="none" stroke="#191970" d="M352.7625,-286.1295C327.86,-281.0896 293.2691,-269.6543 276.5,-244 266.5674,-228.8047 276.6937,-209.226 287.0719,-195.35"/>
<polygon fill="#191970" stroke="#191970" points="289.8232,-197.5139 293.3894,-187.5373 284.3801,-193.1125 289.8232,-197.5139"/>
</g>
<!-- Node12&#45;&gt;Node7 -->
<g id="edge16" class="edge">
<title>Node12&#45;&gt;Node7</title>
<path fill="none" stroke="#191970" d="M189.2262,-112.3254C174.8114,-98.7892 153.317,-73.8558 167.5,-56 187.8385,-30.3948 282.489,-17.7554 333.2047,-12.7278"/>
<polygon fill="#191970" stroke="#191970" points="333.6927,-16.1973 343.3174,-11.7686 333.0316,-9.2286 333.6927,-16.1973"/>
</g>
<!-- Node13 -->
<g id="node14" class="node">
<title>Node13</title>
<polygon fill="#ffffff" stroke="#bfbfbf" points="238.5,-56.5 238.5,-75.5 290.5,-75.5 290.5,-56.5 238.5,-56.5"/>
<text text-anchor="middle" x="264.5" y="-63.5" font-family="Helvetica,sans-Serif" font-size="10.00" fill="#000000">memory</text>
</g>
<!-- Node12&#45;&gt;Node13 -->
<g id="edge15" class="edge">
<title>Node12&#45;&gt;Node13</title>
<path fill="none" stroke="#191970" d="M211.6479,-112.2455C221.0087,-104.0549 234.5858,-92.1749 245.6349,-82.5069"/>
<polygon fill="#191970" stroke="#191970" points="248.2588,-84.8618 253.4798,-75.6427 243.6492,-79.5937 248.2588,-84.8618"/>
</g>
<!-- Node14 -->
<g id="node15" class="node">
<title>Node14</title>
<g id="a_node15"><a xlink:href="loss_8h.html" target="_top" xlink:title="loss.h">
<polygon fill="#ffffff" stroke="#000000" points="177,-56.5 177,-75.5 220,-75.5 220,-56.5 177,-56.5"/>
<text text-anchor="middle" x="198.5" y="-63.5" font-family="Helvetica,sans-Serif" font-size="10.00" fill="#000000">loss.h</text>
</a>
</g>
</g>
<!-- Node12&#45;&gt;Node14 -->
<g id="edge17" class="edge">
<title>Node12&#45;&gt;Node14</title>
<path fill="none" stroke="#191970" d="M200.1516,-112.2455C199.8907,-104.9382 199.5248,-94.6944 199.2037,-85.7046"/>
<polygon fill="#191970" stroke="#191970" points="202.6992,-85.5113 198.8444,-75.6427 195.7036,-85.7613 202.6992,-85.5113"/>
</g>
<!-- Node14&#45;&gt;Node7 -->
<g id="edge18" class="edge">
<title>Node14&#45;&gt;Node7</title>
<path fill="none" stroke="#191970" d="M220.3323,-58.679C249.2571,-48.9796 300.4881,-31.8004 333.7092,-20.6604"/>
<polygon fill="#191970" stroke="#191970" points="335.0281,-23.9098 343.3964,-17.412 332.8025,-17.2729 335.0281,-23.9098"/>
</g>
<!-- Node15&#45;&gt;Node7 -->
<g id="edge20" class="edge">
<title>Node15&#45;&gt;Node7</title>
<path fill="none" stroke="#191970" d="M317.026,-224.3673C333.0311,-207.4249 364.7226,-170.4294 376.5,-132 387.1995,-97.0875 378.5979,-54.1249 371.7731,-29.6166"/>
<polygon fill="#191970" stroke="#191970" points="375.044,-28.3368 368.838,-19.7498 368.3345,-30.3326 375.044,-28.3368"/>
</g>
<!-- Node15&#45;&gt;Node10 -->
<g id="edge21" class="edge">
<title>Node15&#45;&gt;Node10</title>
<path fill="none" stroke="#191970" d="M329.7224,-224.5004C353.076,-214.5171 389.7152,-198.8546 413.9191,-188.5079"/>
<polygon fill="#191970" stroke="#191970" points="415.3286,-191.7118 423.1479,-184.5627 412.577,-185.2752 415.3286,-191.7118"/>
</g>
<!-- Node15&#45;&gt;Node16 -->
<g id="edge22" class="edge">
<title>Node15&#45;&gt;Node16</title>
<path fill="none" stroke="#191970" d="M301.3622,-224.2455C299.2987,-216.9382 297.9799,-206.6944 297.7798,-197.7046"/>
<polygon fill="#191970" stroke="#191970" points="301.28,-197.7539 298.1158,-187.6427 294.2839,-197.5203 301.28,-197.7539"/>
</g>
<!-- Node16&#45;&gt;Node7 -->
<g id="edge23" class="edge">
<title>Node16&#45;&gt;Node7</title>
<path fill="none" stroke="#191970" d="M303.7989,-168.4092C305.7268,-155.3912 309.8503,-131.5135 316.5,-112 326.8541,-81.6158 343.9524,-48.4653 354.9678,-28.4575"/>
<polygon fill="#191970" stroke="#191970" points="358.1406,-29.9548 359.9682,-19.5188 352.0315,-26.5373 358.1406,-29.9548"/>
</g>
<!-- Node16&#45;&gt;Node12 -->
<g id="edge25" class="edge">
<title>Node16&#45;&gt;Node12</title>
<path fill="none" stroke="#191970" d="M284.733,-168.2455C268.7905,-159.4928 245.1741,-146.527 227.0011,-136.5496"/>
<polygon fill="#191970" stroke="#191970" points="228.5137,-133.3873 218.0634,-131.6427 225.1448,-139.5233 228.5137,-133.3873"/>
</g>
<!-- Node16&#45;&gt;Node15 -->
<g id="edge26" class="edge">
<title>Node16&#45;&gt;Node15</title>
<path fill="none" stroke="#191970" d="M308.6061,-187.6427C310.6772,-194.9199 312.0055,-205.155 312.217,-214.1575"/>
<polygon fill="#191970" stroke="#191970" points="308.7159,-214.1392 311.8959,-224.2455 315.7124,-214.362 308.7159,-214.1392"/>
</g>
<!-- Node17 -->
<g id="node18" class="node">
<title>Node17</title>
<polygon fill="#ffffff" stroke="#bfbfbf" points="326,-112.5 326,-131.5 367,-131.5 367,-112.5 326,-112.5"/>
<text text-anchor="middle" x="346.5" y="-119.5" font-family="Helvetica,sans-Serif" font-size="10.00" fill="#000000">string</text>
</g>
<!-- Node16&#45;&gt;Node17 -->
<g id="edge24" class="edge">
<title>Node16&#45;&gt;Node17</title>
<path fill="none" stroke="#191970" d="M310.1642,-168.2455C316.3473,-160.3761 325.2063,-149.101 332.6289,-139.6542"/>
<polygon fill="#191970" stroke="#191970" points="335.4975,-141.6683 338.9236,-131.6427 329.9932,-137.3435 335.4975,-141.6683"/>
</g>
</g>
</svg>
