<?xml version="1.0" encoding="UTF-8" standalone="no"?>
<!DOCTYPE svg PUBLIC "-//W3C//DTD SVG 1.1//EN"
 "http://www.w3.org/Graphics/SVG/1.1/DTD/svg11.dtd">
<!-- Generated by graphviz version 2.40.1 (20161225.0304)
 -->
<!-- Title: include/gbdt/dp_tree.h Pages: 1 -->
<svg width="345pt" height="308pt"
 viewBox="0.00 0.00 345.00 308.00" xmlns="http://www.w3.org/2000/svg" xmlns:xlink="http://www.w3.org/1999/xlink">
<g id="graph0" class="graph" transform="scale(1 1) rotate(0) translate(4 304)">
<title>include/gbdt/dp_tree.h</title>
<polygon fill="#ffffff" stroke="transparent" points="-4,4 -4,-304 341,-304 341,4 -4,4"/>
<!-- Node0 -->
<g id="node1" class="node">
<title>Node0</title>
<polygon fill="#bfbfbf" stroke="#000000" points="142.5,-280.5 142.5,-299.5 255.5,-299.5 255.5,-280.5 142.5,-280.5"/>
<text text-anchor="middle" x="199" y="-287.5" font-family="Helvetica,sans-Serif" font-size="10.00" fill="#000000">include/gbdt/dp_tree.h</text>
</g>
<!-- Node1 -->
<g id="node2" class="node">
<title>Node1</title>
<polygon fill="#ffffff" stroke="#bfbfbf" points="140,-.5 140,-19.5 184,-19.5 184,-.5 140,-.5"/>
<text text-anchor="middle" x="162" y="-7.5" font-family="Helvetica,sans-Serif" font-size="10.00" fill="#000000">vector</text>
</g>
<!-- Node0&#45;&gt;Node1 -->
<g id="edge1" class="edge">
<title>Node0&#45;&gt;Node1</title>
<path fill="none" stroke="#191970" d="M229.6267,-280.44C270.2826,-265.6165 337,-232.9235 337,-178 337,-178 337,-178 337,-122 337,-90.7875 335.6484,-77.4773 313,-56 295.7955,-39.6851 232.8606,-24.4092 193.8764,-16.2217"/>
<polygon fill="#191970" stroke="#191970" points="194.5489,-12.7868 184.0488,-14.2008 193.1389,-19.6433 194.5489,-12.7868"/>
</g>
<!-- Node2 -->
<g id="node3" class="node">
<title>Node2</title>
<polygon fill="#ffffff" stroke="#bfbfbf" points="0,-168.5 0,-187.5 30,-187.5 30,-168.5 0,-168.5"/>
<text text-anchor="middle" x="15" y="-175.5" font-family="Helvetica,sans-Serif" font-size="10.00" fill="#000000">set</text>
</g>
<!-- Node0&#45;&gt;Node2 -->
<g id="edge2" class="edge">
<title>Node0&#45;&gt;Node2</title>
<path fill="none" stroke="#191970" d="M142.2045,-281.6636C98.0047,-273.9872 41.6306,-261.1862 26,-244 14.7891,-231.6734 12.6879,-212.44 13.0075,-197.9095"/>
<polygon fill="#191970" stroke="#191970" points="16.5023,-198.1002 13.613,-187.9069 9.5151,-197.6771 16.5023,-198.1002"/>
</g>
<!-- Node3 -->
<g id="node4" class="node">
<title>Node3</title>
<polygon fill="#ffffff" stroke="#bfbfbf" points="97,-224.5 97,-243.5 147,-243.5 147,-224.5 97,-224.5"/>
<text text-anchor="middle" x="122" y="-231.5" font-family="Helvetica,sans-Serif" font-size="10.00" fill="#000000">fstream</text>
</g>
<!-- Node0&#45;&gt;Node3 -->
<g id="edge3" class="edge">
<title>Node0&#45;&gt;Node3</title>
<path fill="none" stroke="#191970" d="M185.5876,-280.2455C173.9943,-271.814 157.0252,-259.4729 143.5322,-249.6598"/>
<polygon fill="#191970" stroke="#191970" points="145.4047,-246.6938 135.2587,-243.6427 141.2874,-252.355 145.4047,-246.6938"/>
</g>
<!-- Node4 -->
<g id="node5" class="node">
<title>Node4</title>
<g id="a_node5"><a xlink:href="tree__node_8h.html" target="_top" xlink:title="tree_node.h">
<polygon fill="#ffffff" stroke="#000000" points="165,-224.5 165,-243.5 233,-243.5 233,-224.5 165,-224.5"/>
<text text-anchor="middle" x="199" y="-231.5" font-family="Helvetica,sans-Serif" font-size="10.00" fill="#000000">tree_node.h</text>
</a>
</g>
</g>
<!-- Node0&#45;&gt;Node4 -->
<g id="edge4" class="edge">
<title>Node0&#45;&gt;Node4</title>
<path fill="none" stroke="#191970" d="M199,-280.2455C199,-272.9382 199,-262.6944 199,-253.7046"/>
<polygon fill="#191970" stroke="#191970" points="202.5001,-253.6426 199,-243.6427 195.5001,-253.6427 202.5001,-253.6426"/>
</g>
<!-- Node5 -->
<g id="node6" class="node">
<title>Node5</title>
<g id="a_node6"><a xlink:href="parameters_8h.html" target="_top" xlink:title="parameters.h">
<polygon fill="#ffffff" stroke="#000000" points="204,-112.5 204,-131.5 278,-131.5 278,-112.5 204,-112.5"/>
<text text-anchor="middle" x="241" y="-119.5" font-family="Helvetica,sans-Serif" font-size="10.00" fill="#000000">parameters.h</text>
</a>
</g>
</g>
<!-- Node0&#45;&gt;Node5 -->
<g id="edge5" class="edge">
<title>Node0&#45;&gt;Node5</title>
<path fill="none" stroke="#191970" d="M218.8241,-280.3695C232.3215,-272.6136 249.1157,-260.3161 257,-244 273.1838,-210.5088 259.9497,-166.1354 249.8291,-141.1778"/>
<polygon fill="#191970" stroke="#191970" points="252.9441,-139.5617 245.7772,-131.7587 246.5138,-142.3279 252.9441,-139.5617"/>
</g>
<!-- Node8 -->
<g id="node9" class="node">
<title>Node8</title>
<g id="a_node9"><a xlink:href="data_8h.html" target="_top" xlink:title="data.h">
<polygon fill="#ffffff" stroke="#000000" points="35,-224.5 35,-243.5 79,-243.5 79,-224.5 35,-224.5"/>
<text text-anchor="middle" x="57" y="-231.5" font-family="Helvetica,sans-Serif" font-size="10.00" fill="#000000">data.h</text>
</a>
</g>
</g>
<!-- Node0&#45;&gt;Node8 -->
<g id="edge10" class="edge">
<title>Node0&#45;&gt;Node8</title>
<path fill="none" stroke="#191970" d="M174.5893,-280.3733C150.8232,-271.0007 114.5879,-256.7107 88.6253,-246.472"/>
<polygon fill="#191970" stroke="#191970" points="89.8121,-243.1777 79.2253,-242.7649 87.244,-249.6896 89.8121,-243.1777"/>
</g>
<!-- Node9 -->
<g id="node10" class="node">
<title>Node9</title>
<g id="a_node10"><a xlink:href="utils_8h.html" target="_top" xlink:title="utils.h">
<polygon fill="#ffffff" stroke="#000000" points="119.5,-168.5 119.5,-187.5 162.5,-187.5 162.5,-168.5 119.5,-168.5"/>
<text text-anchor="middle" x="141" y="-175.5" font-family="Helvetica,sans-Serif" font-size="10.00" fill="#000000">utils.h</text>
</a>
</g>
</g>
<!-- Node0&#45;&gt;Node9 -->
<g id="edge18" class="edge">
<title>Node0&#45;&gt;Node9</title>
<path fill="none" stroke="#191970" d="M213.0795,-280.4037C230.1005,-267.5782 254.9492,-244.1266 242,-224 226.8342,-200.4281 196.2904,-188.7919 172.743,-183.138"/>
<polygon fill="#191970" stroke="#191970" points="173.334,-179.6851 162.8213,-181.0017 171.8605,-186.5283 173.334,-179.6851"/>
</g>
<!-- Node5&#45;&gt;Node1 -->
<g id="edge7" class="edge">
<title>Node5&#45;&gt;Node1</title>
<path fill="none" stroke="#191970" d="M223.6246,-112.4802C210.4107,-104.3988 192.7294,-91.6358 182,-76 172.4853,-62.1343 167.3907,-43.6166 164.7302,-29.7251"/>
<polygon fill="#191970" stroke="#191970" points="168.1659,-29.0481 163.0804,-19.7536 161.2597,-30.1908 168.1659,-29.0481"/>
</g>
<!-- Node6 -->
<g id="node7" class="node">
<title>Node6</title>
<polygon fill="#ffffff" stroke="#bfbfbf" points="252,-56.5 252,-75.5 304,-75.5 304,-56.5 252,-56.5"/>
<text text-anchor="middle" x="278" y="-63.5" font-family="Helvetica,sans-Serif" font-size="10.00" fill="#000000">memory</text>
</g>
<!-- Node5&#45;&gt;Node6 -->
<g id="edge6" class="edge">
<title>Node5&#45;&gt;Node6</title>
<path fill="none" stroke="#191970" d="M247.4449,-112.2455C252.5382,-104.5367 259.7908,-93.5598 265.952,-84.2348"/>
<polygon fill="#191970" stroke="#191970" points="269.0365,-85.9155 271.6289,-75.6427 263.1962,-82.0566 269.0365,-85.9155"/>
</g>
<!-- Node7 -->
<g id="node8" class="node">
<title>Node7</title>
<g id="a_node8"><a xlink:href="loss_8h.html" target="_top" xlink:title="loss.h">
<polygon fill="#ffffff" stroke="#000000" points="190.5,-56.5 190.5,-75.5 233.5,-75.5 233.5,-56.5 190.5,-56.5"/>
<text text-anchor="middle" x="212" y="-63.5" font-family="Helvetica,sans-Serif" font-size="10.00" fill="#000000">loss.h</text>
</a>
</g>
</g>
<!-- Node5&#45;&gt;Node7 -->
<g id="edge8" class="edge">
<title>Node5&#45;&gt;Node7</title>
<path fill="none" stroke="#191970" d="M235.9486,-112.2455C231.9981,-104.617 226.3903,-93.7881 221.5942,-84.5267"/>
<polygon fill="#191970" stroke="#191970" points="224.7001,-82.9131 216.9935,-75.6427 218.4841,-86.1321 224.7001,-82.9131"/>
</g>
<!-- Node7&#45;&gt;Node1 -->
<g id="edge9" class="edge">
<title>Node7&#45;&gt;Node1</title>
<path fill="none" stroke="#191970" d="M203.2907,-56.2455C196.1927,-48.2958 185.9916,-36.8706 177.505,-27.3656"/>
<polygon fill="#191970" stroke="#191970" points="179.8805,-24.771 170.6095,-19.6427 174.6589,-29.4331 179.8805,-24.771"/>
</g>
<!-- Node8&#45;&gt;Node1 -->
<g id="edge11" class="edge">
<title>Node8&#45;&gt;Node1</title>
<path fill="none" stroke="#191970" d="M61.2088,-224.2671C72.9138,-197.308 107.0306,-119.4672 138,-56 142.4292,-46.9231 147.5825,-36.973 151.976,-28.6558"/>
<polygon fill="#191970" stroke="#191970" points="155.0848,-30.2642 156.6956,-19.7925 148.9061,-26.9741 155.0848,-30.2642"/>
</g>
<!-- Node8&#45;&gt;Node2 -->
<g id="edge12" class="edge">
<title>Node8&#45;&gt;Node2</title>
<path fill="none" stroke="#191970" d="M49.6842,-224.2455C43.7821,-216.3761 35.3258,-205.101 28.2406,-195.6542"/>
<polygon fill="#191970" stroke="#191970" points="31.0321,-193.5427 22.232,-187.6427 25.432,-197.7427 31.0321,-193.5427"/>
</g>
<!-- Node8&#45;&gt;Node9 -->
<g id="edge13" class="edge">
<title>Node8&#45;&gt;Node9</title>
<path fill="none" stroke="#191970" d="M66.3648,-224.2455C77.6988,-215.5731 96.6552,-202.7645 112.7262,-192.825"/>
<polygon fill="#191970" stroke="#191970" points="114.5471,-195.8141 121.2909,-187.6427 110.9232,-189.8251 114.5471,-195.8141"/>
</g>
<!-- Node9&#45;&gt;Node1 -->
<g id="edge14" class="edge">
<title>Node9&#45;&gt;Node1</title>
<path fill="none" stroke="#191970" d="M139.6176,-168.1547C138.3864,-158.8576 136.6781,-144.5134 136,-132 135.519,-123.1241 134.8936,-120.8198 136,-112 139.6827,-82.6431 149.1065,-49.6218 155.5367,-29.3129"/>
<polygon fill="#191970" stroke="#191970" points="158.9019,-30.282 158.6629,-19.6899 152.2444,-28.1192 158.9019,-30.282"/>
</g>
<!-- Node9&#45;&gt;Node5 -->
<g id="edge16" class="edge">
<title>Node9&#45;&gt;Node5</title>
<path fill="none" stroke="#191970" d="M158.4187,-168.2455C174.0485,-159.4928 197.2019,-146.527 215.0185,-136.5496"/>
<polygon fill="#191970" stroke="#191970" points="216.766,-139.5825 223.7809,-131.6427 213.3457,-133.475 216.766,-139.5825"/>
</g>
<!-- Node9&#45;&gt;Node8 -->
<g id="edge17" class="edge">
<title>Node9&#45;&gt;Node8</title>
<path fill="none" stroke="#191970" d="M131.7811,-187.6427C120.513,-196.2794 101.5771,-209.0824 85.4816,-219.0465"/>
<polygon fill="#191970" stroke="#191970" points="83.6384,-216.0709 76.8985,-224.2455 87.2651,-222.0581 83.6384,-216.0709"/>
</g>
<!-- Node10 -->
<g id="node11" class="node">
<title>Node10</title>
<polygon fill="#ffffff" stroke="#bfbfbf" points="144.5,-112.5 144.5,-131.5 185.5,-131.5 185.5,-112.5 144.5,-112.5"/>
<text text-anchor="middle" x="165" y="-119.5" font-family="Helvetica,sans-Serif" font-size="10.00" fill="#000000">string</text>
</g>
<!-- Node9&#45;&gt;Node10 -->
<g id="edge15" class="edge">
<title>Node9&#45;&gt;Node10</title>
<path fill="none" stroke="#191970" d="M145.1805,-168.2455C148.381,-160.7776 152.896,-150.2427 156.8084,-141.1137"/>
<polygon fill="#191970" stroke="#191970" points="160.1452,-142.2129 160.8674,-131.6427 153.7112,-139.4554 160.1452,-142.2129"/>
</g>
</g>
</svg>
