<?xml version="1.0" encoding="UTF-8" standalone="no"?>
<!DOCTYPE svg PUBLIC "-//W3C//DTD SVG 1.1//EN"
 "http://www.w3.org/Graphics/SVG/1.1/DTD/svg11.dtd">
<!-- Generated by graphviz version 2.40.1 (20161225.0304)
 -->
<!-- Title: include/gbdt/dp_tree.h Pages: 1 -->
<svg width="327pt" height="140pt"
 viewBox="0.00 0.00 326.50 140.00" xmlns="http://www.w3.org/2000/svg" xmlns:xlink="http://www.w3.org/1999/xlink">
<g id="graph0" class="graph" transform="scale(1 1) rotate(0) translate(4 136)">
<title>include/gbdt/dp_tree.h</title>
<polygon fill="#ffffff" stroke="transparent" points="-4,4 -4,-136 322.5,-136 322.5,4 -4,4"/>
<!-- Node11 -->
<g id="node1" class="node">
<title>Node11</title>
<polygon fill="#bfbfbf" stroke="#000000" points="139,-112.5 139,-131.5 252,-131.5 252,-112.5 139,-112.5"/>
<text text-anchor="middle" x="195.5" y="-119.5" font-family="Helvetica,sans-Serif" font-size="10.00" fill="#000000">include/gbdt/dp_tree.h</text>
</g>
<!-- Node12 -->
<g id="node2" class="node">
<title>Node12</title>
<g id="a_node2"><a xlink:href="dp__ensemble_8h.html" target="_top" xlink:title="include/gbdt/dp_ensemble.h">
<polygon fill="#ffffff" stroke="#000000" points="56.5,-56.5 56.5,-75.5 194.5,-75.5 194.5,-56.5 56.5,-56.5"/>
<text text-anchor="middle" x="125.5" y="-63.5" font-family="Helvetica,sans-Serif" font-size="10.00" fill="#000000">include/gbdt/dp_ensemble.h</text>
</a>
</g>
</g>
<!-- Node11&#45;&gt;Node12 -->
<g id="edge1" class="edge">
<title>Node11&#45;&gt;Node12</title>
<path fill="none" stroke="#191970" d="M175.41,-105.928C163.1747,-96.1397 147.9493,-83.9595 137.5533,-75.6427"/>
<polygon fill="#191970" stroke="#191970" points="173.3118,-108.7316 183.3069,-112.2455 177.6847,-103.2655 173.3118,-108.7316"/>
</g>
<!-- Node15 -->
<g id="node5" class="node">
<title>Node15</title>
<g id="a_node5"><a xlink:href="dp__tree_8cpp.html" target="_top" xlink:title="src/gbdt/dp_tree.cpp">
<polygon fill="#ffffff" stroke="#000000" points="212.5,-56.5 212.5,-75.5 318.5,-75.5 318.5,-56.5 212.5,-56.5"/>
<text text-anchor="middle" x="265.5" y="-63.5" font-family="Helvetica,sans-Serif" font-size="10.00" fill="#000000">src/gbdt/dp_tree.cpp</text>
</a>
</g>
</g>
<!-- Node11&#45;&gt;Node15 -->
<g id="edge4" class="edge">
<title>Node11&#45;&gt;Node15</title>
<path fill="none" stroke="#191970" d="M215.59,-105.928C227.8253,-96.1397 243.0507,-83.9595 253.4467,-75.6427"/>
<polygon fill="#191970" stroke="#191970" points="213.3153,-103.2655 207.6931,-112.2455 217.6882,-108.7316 213.3153,-103.2655"/>
</g>
<!-- Node13 -->
<g id="node3" class="node">
<title>Node13</title>
<g id="a_node3"><a xlink:href="dp__ensemble_8cpp.html" target="_top" xlink:title="src/gbdt/dp_ensemble.cpp">
<polygon fill="#ffffff" stroke="#000000" points="0,-.5 0,-19.5 131,-19.5 131,-.5 0,-.5"/>
<text text-anchor="middle" x="65.5" y="-7.5" font-family="Helvetica,sans-Serif" font-size="10.00" fill="#000000">src/gbdt/dp_ensemble.cpp</text>
</a>
</g>
</g>
<!-- Node12&#45;&gt;Node13 -->
<g id="edge2" class="edge">
<title>Node12&#45;&gt;Node13</title>
<path fill="none" stroke="#191970" d="M107.6722,-49.3607C97.2922,-39.6727 84.5709,-27.7995 75.8314,-19.6427"/>
<polygon fill="#191970" stroke="#191970" points="105.3501,-51.981 115.0488,-56.2455 110.1263,-46.8636 105.3501,-51.981"/>
</g>
<!-- Node14 -->
<g id="node4" class="node">
<title>Node14</title>
<g id="a_node4"><a xlink:href="main_8cpp.html" target="_top" xlink:title="src/main.cpp">
<polygon fill="#ffffff" stroke="#000000" points="149,-.5 149,-19.5 222,-19.5 222,-.5 149,-.5"/>
<text text-anchor="middle" x="185.5" y="-7.5" font-family="Helvetica,sans-Serif" font-size="10.00" fill="#000000">src/main.cpp</text>
</a>
</g>
</g>
<!-- Node12&#45;&gt;Node14 -->
<g id="edge3" class="edge">
<title>Node12&#45;&gt;Node14</title>
<path fill="none" stroke="#191970" d="M143.3278,-49.3607C153.7078,-39.6727 166.4291,-27.7995 175.1686,-19.6427"/>
<polygon fill="#191970" stroke="#191970" points="140.8737,-46.8636 135.9512,-56.2455 145.6499,-51.981 140.8737,-46.8636"/>
</g>
</g>
</svg>
