<?xml version="1.0" encoding="UTF-8" standalone="no"?>
<!DOCTYPE svg PUBLIC "-//W3C//DTD SVG 1.1//EN"
 "http://www.w3.org/Graphics/SVG/1.1/DTD/svg11.dtd">
<!-- Generated by graphviz version 2.40.1 (20161225.0304)
 -->
<!-- Title: include/gbdt/loss.h Pages: 1 -->
<svg width="387pt" height="364pt"
 viewBox="0.00 0.00 387.00 364.00" xmlns="http://www.w3.org/2000/svg" xmlns:xlink="http://www.w3.org/1999/xlink">
<g id="graph0" class="graph" transform="scale(1 1) rotate(0) translate(4 360)">
<title>include/gbdt/loss.h</title>
<polygon fill="#ffffff" stroke="transparent" points="-4,4 -4,-360 383,-360 383,4 -4,4"/>
<!-- Node2 -->
<g id="node1" class="node">
<title>Node2</title>
<polygon fill="#bfbfbf" stroke="#000000" points="154,-336.5 154,-355.5 252,-355.5 252,-336.5 154,-336.5"/>
<text text-anchor="middle" x="203" y="-343.5" font-family="Helvetica,sans-Serif" font-size="10.00" fill="#000000">include/gbdt/loss.h</text>
</g>
<!-- Node3 -->
<g id="node2" class="node">
<title>Node3</title>
<g id="a_node2"><a xlink:href="parameters_8h.html" target="_top" xlink:title="include/parameters.h">
<polygon fill="#ffffff" stroke="#000000" points="90.5,-280.5 90.5,-299.5 197.5,-299.5 197.5,-280.5 90.5,-280.5"/>
<text text-anchor="middle" x="144" y="-287.5" font-family="Helvetica,sans-Serif" font-size="10.00" fill="#000000">include/parameters.h</text>
</a>
</g>
</g>
<!-- Node2&#45;&gt;Node3 -->
<g id="edge1" class="edge">
<title>Node2&#45;&gt;Node3</title>
<path fill="none" stroke="#191970" d="M185.4693,-329.3607C175.2623,-319.6727 162.7531,-307.7995 154.1592,-299.6427"/>
<polygon fill="#191970" stroke="#191970" points="183.0604,-331.8998 192.723,-336.2455 187.8794,-326.8227 183.0604,-331.8998"/>
</g>
<!-- Node13 -->
<g id="node12" class="node">
<title>Node13</title>
<g id="a_node12"><a xlink:href="loss_8cpp.html" target="_top" xlink:title="src/gbdt/loss.cpp">
<polygon fill="#ffffff" stroke="#000000" points="216,-280.5 216,-299.5 308,-299.5 308,-280.5 216,-280.5"/>
<text text-anchor="middle" x="262" y="-287.5" font-family="Helvetica,sans-Serif" font-size="10.00" fill="#000000">src/gbdt/loss.cpp</text>
</a>
</g>
</g>
<!-- Node2&#45;&gt;Node13 -->
<g id="edge18" class="edge">
<title>Node2&#45;&gt;Node13</title>
<path fill="none" stroke="#191970" d="M220.5307,-329.3607C230.7377,-319.6727 243.2469,-307.7995 251.8408,-299.6427"/>
<polygon fill="#191970" stroke="#191970" points="218.1206,-326.8227 213.277,-336.2455 222.9396,-331.8998 218.1206,-326.8227"/>
</g>
<!-- Node4 -->
<g id="node3" class="node">
<title>Node4</title>
<g id="a_node3"><a xlink:href="dp__tree_8h.html" target="_top" xlink:title="include/gbdt/dp_tree.h">
<polygon fill="#ffffff" stroke="#000000" points="51.5,-112.5 51.5,-131.5 164.5,-131.5 164.5,-112.5 51.5,-112.5"/>
<text text-anchor="middle" x="108" y="-119.5" font-family="Helvetica,sans-Serif" font-size="10.00" fill="#000000">include/gbdt/dp_tree.h</text>
</a>
</g>
</g>
<!-- Node3&#45;&gt;Node4 -->
<g id="edge2" class="edge">
<title>Node3&#45;&gt;Node4</title>
<path fill="none" stroke="#191970" d="M139.77,-270.2601C132.0358,-234.1669 115.8783,-158.7656 110.106,-131.8279"/>
<polygon fill="#191970" stroke="#191970" points="136.4437,-271.4416 141.9613,-280.4862 143.2883,-269.9748 136.4437,-271.4416"/>
</g>
<!-- Node5 -->
<g id="node4" class="node">
<title>Node5</title>
<g id="a_node4"><a xlink:href="dp__ensemble_8h.html" target="_top" xlink:title="include/gbdt/dp_ensemble.h">
<polygon fill="#ffffff" stroke="#000000" points="124,-56.5 124,-75.5 262,-75.5 262,-56.5 124,-56.5"/>
<text text-anchor="middle" x="193" y="-63.5" font-family="Helvetica,sans-Serif" font-size="10.00" fill="#000000">include/gbdt/dp_ensemble.h</text>
</a>
</g>
</g>
<!-- Node3&#45;&gt;Node5 -->
<g id="edge16" class="edge">
<title>Node3&#45;&gt;Node5</title>
<path fill="none" stroke="#191970" d="M122.7127,-274.2926C81.9692,-242.3219 .5352,-167.9779 42,-112 53.7854,-96.0896 100.3759,-83.4846 138.7249,-75.5227"/>
<polygon fill="#191970" stroke="#191970" points="120.6675,-277.135 130.7305,-280.4498 124.9311,-271.5832 120.6675,-277.135"/>
</g>
<!-- Node7 -->
<g id="node6" class="node">
<title>Node7</title>
<g id="a_node6"><a xlink:href="main_8cpp.html" target="_top" xlink:title="src/main.cpp">
<polygon fill="#ffffff" stroke="#000000" points="304.5,-.5 304.5,-19.5 377.5,-19.5 377.5,-.5 304.5,-.5"/>
<text text-anchor="middle" x="341" y="-7.5" font-family="Helvetica,sans-Serif" font-size="10.00" fill="#000000">src/main.cpp</text>
</a>
</g>
</g>
<!-- Node3&#45;&gt;Node7 -->
<g id="edge17" class="edge">
<title>Node3&#45;&gt;Node7</title>
<path fill="none" stroke="#191970" d="M190.9645,-277.8103C259.5393,-258.6111 379,-219.246 379,-178 379,-178 379,-178 379,-122 379,-82.1657 357.1774,-38.3859 346.607,-19.5166"/>
<polygon fill="#191970" stroke="#191970" points="189.9453,-274.4607 181.2364,-280.4945 191.8072,-281.2086 189.9453,-274.4607"/>
</g>
<!-- Node9 -->
<g id="node8" class="node">
<title>Node9</title>
<g id="a_node8"><a xlink:href="utils_8h.html" target="_top" xlink:title="include/gbdt/utils.h">
<polygon fill="#ffffff" stroke="#000000" points="148,-224.5 148,-243.5 246,-243.5 246,-224.5 148,-224.5"/>
<text text-anchor="middle" x="197" y="-231.5" font-family="Helvetica,sans-Serif" font-size="10.00" fill="#000000">include/gbdt/utils.h</text>
</a>
</g>
</g>
<!-- Node3&#45;&gt;Node9 -->
<g id="edge7" class="edge">
<title>Node3&#45;&gt;Node9</title>
<path fill="none" stroke="#191970" d="M160.2896,-272.7884C169.3562,-263.2085 180.3054,-251.6396 187.8739,-243.6427"/>
<polygon fill="#191970" stroke="#191970" points="157.5637,-270.5767 153.2319,-280.2455 162.6478,-275.3884 157.5637,-270.5767"/>
</g>
<!-- Node4&#45;&gt;Node5 -->
<g id="edge3" class="edge">
<title>Node4&#45;&gt;Node5</title>
<path fill="none" stroke="#191970" d="M131.5419,-106.49C146.539,-96.6096 165.4973,-84.1194 178.3638,-75.6427"/>
<polygon fill="#191970" stroke="#191970" points="129.2309,-103.8212 122.8059,-112.2455 133.0821,-109.6666 129.2309,-103.8212"/>
</g>
<!-- Node8 -->
<g id="node7" class="node">
<title>Node8</title>
<g id="a_node7"><a xlink:href="dp__tree_8cpp.html" target="_top" xlink:title="src/gbdt/dp_tree.cpp">
<polygon fill="#ffffff" stroke="#000000" points="0,-56.5 0,-75.5 106,-75.5 106,-56.5 0,-56.5"/>
<text text-anchor="middle" x="53" y="-63.5" font-family="Helvetica,sans-Serif" font-size="10.00" fill="#000000">src/gbdt/dp_tree.cpp</text>
</a>
</g>
</g>
<!-- Node4&#45;&gt;Node8 -->
<g id="edge6" class="edge">
<title>Node4&#45;&gt;Node8</title>
<path fill="none" stroke="#191970" d="M91.3774,-105.0751C81.9145,-95.4402 70.4031,-83.7196 62.4705,-75.6427"/>
<polygon fill="#191970" stroke="#191970" points="88.9155,-107.5635 98.4197,-112.2455 93.9097,-102.6585 88.9155,-107.5635"/>
</g>
<!-- Node6 -->
<g id="node5" class="node">
<title>Node6</title>
<g id="a_node5"><a xlink:href="dp__ensemble_8cpp.html" target="_top" xlink:title="src/gbdt/dp_ensemble.cpp">
<polygon fill="#ffffff" stroke="#000000" points="127.5,-.5 127.5,-19.5 258.5,-19.5 258.5,-.5 127.5,-.5"/>
<text text-anchor="middle" x="193" y="-7.5" font-family="Helvetica,sans-Serif" font-size="10.00" fill="#000000">src/gbdt/dp_ensemble.cpp</text>
</a>
</g>
</g>
<!-- Node5&#45;&gt;Node6 -->
<g id="edge4" class="edge">
<title>Node5&#45;&gt;Node6</title>
<path fill="none" stroke="#191970" d="M193,-46.1575C193,-37.155 193,-26.9199 193,-19.6427"/>
<polygon fill="#191970" stroke="#191970" points="189.5001,-46.2455 193,-56.2455 196.5001,-46.2456 189.5001,-46.2455"/>
</g>
<!-- Node5&#45;&gt;Node7 -->
<g id="edge5" class="edge">
<title>Node5&#45;&gt;Node7</title>
<path fill="none" stroke="#191970" d="M227.9153,-52.7888C254.9383,-42.5639 291.714,-28.6488 315.8899,-19.5011"/>
<polygon fill="#191970" stroke="#191970" points="226.5563,-49.5608 218.4421,-56.3733 229.0336,-56.1078 226.5563,-49.5608"/>
</g>
<!-- Node9&#45;&gt;Node4 -->
<g id="edge14" class="edge">
<title>Node9&#45;&gt;Node4</title>
<path fill="none" stroke="#191970" d="M178.4038,-217.6678C169.3358,-209.2537 158.5664,-198.5621 150,-188 134.9427,-169.4348 120.7377,-145.2014 113.3299,-131.8686"/>
<polygon fill="#191970" stroke="#191970" points="176.0798,-220.2852 185.8366,-224.4152 180.7849,-215.1023 176.0798,-220.2852"/>
</g>
<!-- Node10 -->
<g id="node9" class="node">
<title>Node10</title>
<g id="a_node9"><a xlink:href="data_8h.html" target="_top" xlink:title="include/data.h">
<polygon fill="#ffffff" stroke="#000000" points="158.5,-168.5 158.5,-187.5 235.5,-187.5 235.5,-168.5 158.5,-168.5"/>
<text text-anchor="middle" x="197" y="-175.5" font-family="Helvetica,sans-Serif" font-size="10.00" fill="#000000">include/data.h</text>
</a>
</g>
</g>
<!-- Node9&#45;&gt;Node10 -->
<g id="edge8" class="edge">
<title>Node9&#45;&gt;Node10</title>
<path fill="none" stroke="#191970" d="M190.5113,-214.1575C189.919,-205.155 190.3335,-194.9199 191.7549,-187.6427"/>
<polygon fill="#191970" stroke="#191970" points="187.0561,-214.739 191.7332,-224.2455 194.0053,-213.8972 187.0561,-214.739"/>
</g>
<!-- Node12 -->
<g id="node11" class="node">
<title>Node12</title>
<g id="a_node11"><a xlink:href="utils_8cpp.html" target="_top" xlink:title="src/gbdt/utils.cpp">
<polygon fill="#ffffff" stroke="#000000" points="254,-168.5 254,-187.5 346,-187.5 346,-168.5 254,-168.5"/>
<text text-anchor="middle" x="300" y="-175.5" font-family="Helvetica,sans-Serif" font-size="10.00" fill="#000000">src/gbdt/utils.cpp</text>
</a>
</g>
</g>
<!-- Node9&#45;&gt;Node12 -->
<g id="edge15" class="edge">
<title>Node9&#45;&gt;Node12</title>
<path fill="none" stroke="#191970" d="M223.7432,-219.46C242.175,-209.4388 266.1584,-196.3993 282.2644,-187.6427"/>
<polygon fill="#191970" stroke="#191970" points="222.0549,-216.394 214.9412,-224.2455 225.3985,-222.5438 222.0549,-216.394"/>
</g>
<!-- Node10&#45;&gt;Node4 -->
<g id="edge9" class="edge">
<title>Node10&#45;&gt;Node4</title>
<path fill="none" stroke="#191970" d="M172.7936,-162.769C157.0225,-152.8456 136.924,-140.1994 123.325,-131.6427"/>
<polygon fill="#191970" stroke="#191970" points="171.1695,-165.8823 181.4974,-168.2455 174.8974,-159.9575 171.1695,-165.8823"/>
</g>
<!-- Node10&#45;&gt;Node5 -->
<g id="edge11" class="edge">
<title>Node10&#45;&gt;Node5</title>
<path fill="none" stroke="#191970" d="M196.2954,-158.2702C195.4285,-133.9985 193.9919,-93.7725 193.3402,-75.5249"/>
<polygon fill="#191970" stroke="#191970" points="192.8042,-158.5823 196.659,-168.4509 199.7997,-158.3324 192.8042,-158.5823"/>
</g>
<!-- Node10&#45;&gt;Node7 -->
<g id="edge13" class="edge">
<title>Node10&#45;&gt;Node7</title>
<path fill="none" stroke="#191970" d="M245.1072,-165.7406C275.8591,-156.9184 311.8183,-144.4288 322,-132 349.4398,-98.5039 345.406,-41.9093 342.4832,-19.5238"/>
<polygon fill="#191970" stroke="#191970" points="244.0325,-162.4068 235.3451,-168.4714 245.9183,-169.148 244.0325,-162.4068"/>
</g>
<!-- Node10&#45;&gt;Node9 -->
<g id="edge10" class="edge">
<title>Node10&#45;&gt;Node9</title>
<path fill="none" stroke="#191970" d="M203.4795,-197.7046C204.0821,-206.6944 203.6779,-216.9382 202.2668,-224.2455"/>
<polygon fill="#191970" stroke="#191970" points="206.9368,-197.1421 202.2451,-187.6427 199.9889,-197.9945 206.9368,-197.1421"/>
</g>
<!-- Node11 -->
<g id="node10" class="node">
<title>Node11</title>
<g id="a_node10"><a xlink:href="data_8cpp.html" target="_top" xlink:title="src/gbdt/data.cpp">
<polygon fill="#ffffff" stroke="#000000" points="221,-112.5 221,-131.5 313,-131.5 313,-112.5 221,-112.5"/>
<text text-anchor="middle" x="267" y="-119.5" font-family="Helvetica,sans-Serif" font-size="10.00" fill="#000000">src/gbdt/data.cpp</text>
</a>
</g>
</g>
<!-- Node10&#45;&gt;Node11 -->
<g id="edge12" class="edge">
<title>Node10&#45;&gt;Node11</title>
<path fill="none" stroke="#191970" d="M217.09,-161.928C229.3253,-152.1397 244.5507,-139.9595 254.9467,-131.6427"/>
<polygon fill="#191970" stroke="#191970" points="214.8153,-159.2655 209.1931,-168.2455 219.1882,-164.7316 214.8153,-159.2655"/>
</g>
</g>
</svg>
