<?xml version="1.0" encoding="UTF-8" standalone="no"?>
<!DOCTYPE svg PUBLIC "-//W3C//DTD SVG 1.1//EN"
 "http://www.w3.org/Graphics/SVG/1.1/DTD/svg11.dtd">
<!-- Generated by graphviz version 2.40.1 (20161225.0304)
 -->
<!-- Title: src/gbdt/loss.cpp Pages: 1 -->
<svg width="432pt" height="140pt"
 viewBox="0.00 0.00 432.00 140.00" xmlns="http://www.w3.org/2000/svg" xmlns:xlink="http://www.w3.org/1999/xlink">
<g id="graph0" class="graph" transform="scale(1 1) rotate(0) translate(4 136)">
<title>src/gbdt/loss.cpp</title>
<polygon fill="#ffffff" stroke="transparent" points="-4,4 -4,-136 428,-136 428,4 -4,4"/>
<!-- Node0 -->
<g id="node1" class="node">
<title>Node0</title>
<polygon fill="#bfbfbf" stroke="#000000" points="140,-112.5 140,-131.5 232,-131.5 232,-112.5 140,-112.5"/>
<text text-anchor="middle" x="186" y="-119.5" font-family="Helvetica,sans-Serif" font-size="10.00" fill="#000000">src/gbdt/loss.cpp</text>
</g>
<!-- Node1 -->
<g id="node2" class="node">
<title>Node1</title>
<g id="a_node2"><a xlink:href="loss_8h.html" target="_top" xlink:title="loss.h">
<polygon fill="#ffffff" stroke="#000000" points=".5,-56.5 .5,-75.5 43.5,-75.5 43.5,-56.5 .5,-56.5"/>
<text text-anchor="middle" x="22" y="-63.5" font-family="Helvetica,sans-Serif" font-size="10.00" fill="#000000">loss.h</text>
</a>
</g>
</g>
<!-- Node0&#45;&gt;Node1 -->
<g id="edge1" class="edge">
<title>Node0&#45;&gt;Node1</title>
<path fill="none" stroke="#191970" d="M157.8074,-112.3733C128.68,-102.4273 83.3355,-86.9438 53.1609,-76.6403"/>
<polygon fill="#191970" stroke="#191970" points="54.1492,-73.2794 43.5547,-73.3601 51.8872,-79.9039 54.1492,-73.2794"/>
</g>
<!-- Node3 -->
<g id="node4" class="node">
<title>Node3</title>
<polygon fill="#ffffff" stroke="#bfbfbf" points="62,-56.5 62,-75.5 92,-75.5 92,-56.5 62,-56.5"/>
<text text-anchor="middle" x="77" y="-63.5" font-family="Helvetica,sans-Serif" font-size="10.00" fill="#000000">set</text>
</g>
<!-- Node0&#45;&gt;Node3 -->
<g id="edge3" class="edge">
<title>Node0&#45;&gt;Node3</title>
<path fill="none" stroke="#191970" d="M167.0136,-112.2455C148.7725,-102.8739 121.13,-88.6723 101.2924,-78.4805"/>
<polygon fill="#191970" stroke="#191970" points="102.7506,-75.2948 92.2564,-73.8381 99.5517,-81.5212 102.7506,-75.2948"/>
</g>
<!-- Node4 -->
<g id="node5" class="node">
<title>Node4</title>
<polygon fill="#ffffff" stroke="#bfbfbf" points="110.5,-56.5 110.5,-75.5 145.5,-75.5 145.5,-56.5 110.5,-56.5"/>
<text text-anchor="middle" x="128" y="-63.5" font-family="Helvetica,sans-Serif" font-size="10.00" fill="#000000">map</text>
</g>
<!-- Node0&#45;&gt;Node4 -->
<g id="edge4" class="edge">
<title>Node0&#45;&gt;Node4</title>
<path fill="none" stroke="#191970" d="M175.8972,-112.2455C167.4972,-104.1352 155.3506,-92.4075 145.3916,-82.7919"/>
<polygon fill="#191970" stroke="#191970" points="147.6122,-80.0707 137.9871,-75.6427 142.75,-85.1066 147.6122,-80.0707"/>
</g>
<!-- Node5 -->
<g id="node6" class="node">
<title>Node5</title>
<polygon fill="#ffffff" stroke="#bfbfbf" points="164,-56.5 164,-75.5 208,-75.5 208,-56.5 164,-56.5"/>
<text text-anchor="middle" x="186" y="-63.5" font-family="Helvetica,sans-Serif" font-size="10.00" fill="#000000">cmath</text>
</g>
<!-- Node0&#45;&gt;Node5 -->
<g id="edge5" class="edge">
<title>Node0&#45;&gt;Node5</title>
<path fill="none" stroke="#191970" d="M186,-112.2455C186,-104.9382 186,-94.6944 186,-85.7046"/>
<polygon fill="#191970" stroke="#191970" points="189.5001,-85.6426 186,-75.6427 182.5001,-85.6427 189.5001,-85.6426"/>
</g>
<!-- Node6 -->
<g id="node7" class="node">
<title>Node6</title>
<polygon fill="#ffffff" stroke="#bfbfbf" points="226.5,-56.5 226.5,-75.5 277.5,-75.5 277.5,-56.5 226.5,-56.5"/>
<text text-anchor="middle" x="252" y="-63.5" font-family="Helvetica,sans-Serif" font-size="10.00" fill="#000000">numeric</text>
</g>
<!-- Node0&#45;&gt;Node6 -->
<g id="edge6" class="edge">
<title>Node0&#45;&gt;Node6</title>
<path fill="none" stroke="#191970" d="M197.4963,-112.2455C207.2442,-103.9746 221.4259,-91.9416 232.8798,-82.2232"/>
<polygon fill="#191970" stroke="#191970" points="235.2747,-84.7813 240.6354,-75.6427 230.7459,-79.4437 235.2747,-84.7813"/>
</g>
<!-- Node7 -->
<g id="node8" class="node">
<title>Node7</title>
<polygon fill="#ffffff" stroke="#bfbfbf" points="296,-56.5 296,-75.5 352,-75.5 352,-56.5 296,-56.5"/>
<text text-anchor="middle" x="324" y="-63.5" font-family="Helvetica,sans-Serif" font-size="10.00" fill="#000000">algorithm</text>
</g>
<!-- Node0&#45;&gt;Node7 -->
<g id="edge7" class="edge">
<title>Node0&#45;&gt;Node7</title>
<path fill="none" stroke="#191970" d="M209.723,-112.3733C232.1737,-103.2629 266.0739,-89.5062 291.1255,-79.3404"/>
<polygon fill="#191970" stroke="#191970" points="292.6365,-82.5045 300.5865,-75.5011 290.0043,-76.0182 292.6365,-82.5045"/>
</g>
<!-- Node8 -->
<g id="node9" class="node">
<title>Node8</title>
<polygon fill="#ffffff" stroke="#bfbfbf" points="370,-56.5 370,-75.5 424,-75.5 424,-56.5 370,-56.5"/>
<text text-anchor="middle" x="397" y="-63.5" font-family="Helvetica,sans-Serif" font-size="10.00" fill="#000000">iostream</text>
</g>
<!-- Node0&#45;&gt;Node8 -->
<g id="edge8" class="edge">
<title>Node0&#45;&gt;Node8</title>
<path fill="none" stroke="#191970" d="M222.9114,-112.4566C256.2789,-103.7942 307.0067,-90.5375 359.9721,-76.2538"/>
<polygon fill="#191970" stroke="#191970" points="361.1434,-79.5629 369.8843,-73.5756 359.3175,-72.8052 361.1434,-79.5629"/>
</g>
<!-- Node2 -->
<g id="node3" class="node">
<title>Node2</title>
<polygon fill="#ffffff" stroke="#bfbfbf" points="0,-.5 0,-19.5 44,-19.5 44,-.5 0,-.5"/>
<text text-anchor="middle" x="22" y="-7.5" font-family="Helvetica,sans-Serif" font-size="10.00" fill="#000000">vector</text>
</g>
<!-- Node1&#45;&gt;Node2 -->
<g id="edge2" class="edge">
<title>Node1&#45;&gt;Node2</title>
<path fill="none" stroke="#191970" d="M22,-56.2455C22,-48.9382 22,-38.6944 22,-29.7046"/>
<polygon fill="#191970" stroke="#191970" points="25.5001,-29.6426 22,-19.6427 18.5001,-29.6427 25.5001,-29.6426"/>
</g>
</g>
</svg>
