<?xml version="1.0" encoding="UTF-8" standalone="no"?>
<!DOCTYPE svg PUBLIC "-//W3C//DTD SVG 1.1//EN"
 "http://www.w3.org/Graphics/SVG/1.1/DTD/svg11.dtd">
<!-- Generated by graphviz version 2.40.1 (20161225.0304)
 -->
<!-- Title: main Pages: 1 -->
<svg width="508pt" height="195pt"
 viewBox="0.00 0.00 508.00 195.00" xmlns="http://www.w3.org/2000/svg" xmlns:xlink="http://www.w3.org/1999/xlink">
<g id="graph0" class="graph" transform="scale(1 1) rotate(0) translate(4 191)">
<title>main</title>
<polygon fill="#ffffff" stroke="transparent" points="-4,4 -4,-191 504,-191 504,4 -4,4"/>
<!-- Node0 -->
<g id="node1" class="node">
<title>Node0</title>
<polygon fill="#bfbfbf" stroke="#000000" points="0,-79.5 0,-98.5 38,-98.5 38,-79.5 0,-79.5"/>
<text text-anchor="middle" x="19" y="-86.5" font-family="Helvetica,sans-Serif" font-size="10.00" fill="#000000">main</text>
</g>
<!-- Node1 -->
<g id="node2" class="node">
<title>Node1</title>
<g id="a_node2"><a xlink:href="utils_8h.html#a419f1790b861ecbd3e190092eadec7ff" target="_top" xlink:title="create_default_params">
<polygon fill="#ffffff" stroke="#000000" points="75.5,-167.5 75.5,-186.5 191.5,-186.5 191.5,-167.5 75.5,-167.5"/>
<text text-anchor="middle" x="133.5" y="-174.5" font-family="Helvetica,sans-Serif" font-size="10.00" fill="#000000">create_default_params</text>
</a>
</g>
</g>
<!-- Node0&#45;&gt;Node1 -->
<g id="edge1" class="edge">
<title>Node0&#45;&gt;Node1</title>
<path fill="none" stroke="#191970" d="M24.097,-98.5079C32.532,-113.3567 50.7913,-142.0039 74,-158 76.9004,-159.999 80.0227,-161.7966 83.264,-163.4118"/>
<polygon fill="#191970" stroke="#191970" points="82.0627,-166.7062 92.628,-167.4962 84.8614,-160.29 82.0627,-166.7062"/>
</g>
<!-- Node2 -->
<g id="node3" class="node">
<title>Node2</title>
<g id="a_node3"><a xlink:href="data_8h.html#ac589716071ac7ced3174606af5f79d78" target="_top" xlink:title="create_cross_validation\l_inputs">
<polygon fill="#ffffff" stroke="#000000" points="74,-118 74,-148 193,-148 193,-118 74,-118"/>
<text text-anchor="start" x="82" y="-136" font-family="Helvetica,sans-Serif" font-size="10.00" fill="#000000">create_cross_validation</text>
<text text-anchor="middle" x="133.5" y="-125" font-family="Helvetica,sans-Serif" font-size="10.00" fill="#000000">_inputs</text>
</a>
</g>
</g>
<!-- Node0&#45;&gt;Node2 -->
<g id="edge2" class="edge">
<title>Node0&#45;&gt;Node2</title>
<path fill="none" stroke="#191970" d="M38.1647,-96.3646C50.9371,-101.2728 68.3379,-107.9595 84.7788,-114.2775"/>
<polygon fill="#191970" stroke="#191970" points="83.7158,-117.6184 94.3058,-117.9385 86.2268,-111.0843 83.7158,-117.6184"/>
</g>
<!-- Node4 -->
<g id="node5" class="node">
<title>Node4</title>
<g id="a_node5"><a xlink:href="class_d_p_ensemble.html#a1652b5fde834bfb18416ebf438d3e10a" target="_top" xlink:title="DPEnsemble::train">
<polygon fill="#ffffff" stroke="#000000" points="84,-79.5 84,-98.5 183,-98.5 183,-79.5 84,-79.5"/>
<text text-anchor="middle" x="133.5" y="-86.5" font-family="Helvetica,sans-Serif" font-size="10.00" fill="#000000">DPEnsemble::train</text>
</a>
</g>
</g>
<!-- Node0&#45;&gt;Node4 -->
<g id="edge4" class="edge">
<title>Node0&#45;&gt;Node4</title>
<path fill="none" stroke="#191970" d="M38.1647,-89C48.0106,-89 60.6069,-89 73.3937,-89"/>
<polygon fill="#191970" stroke="#191970" points="73.6404,-92.5001 83.6403,-89 73.6403,-85.5001 73.6404,-92.5001"/>
</g>
<!-- Node6 -->
<g id="node7" class="node">
<title>Node6</title>
<g id="a_node7"><a xlink:href="class_d_p_ensemble.html#a2971bb16cab5ab57322993048ea3a729" target="_top" xlink:title="DPEnsemble::predict">
<polygon fill="#ffffff" stroke="#000000" points="390,-60.5 390,-79.5 500,-79.5 500,-60.5 390,-60.5"/>
<text text-anchor="middle" x="445" y="-67.5" font-family="Helvetica,sans-Serif" font-size="10.00" fill="#000000">DPEnsemble::predict</text>
</a>
</g>
</g>
<!-- Node0&#45;&gt;Node6 -->
<g id="edge7" class="edge">
<title>Node0&#45;&gt;Node6</title>
<path fill="none" stroke="#191970" d="M38.2042,-80.7052C48.5914,-76.6466 61.7661,-72.1755 74,-70 196.5294,-48.2111 229.5653,-64.9494 354,-67 362.2927,-67.1367 371.0088,-67.3433 379.6263,-67.5855"/>
<polygon fill="#191970" stroke="#191970" points="379.5663,-71.0852 389.666,-67.8842 379.7745,-64.0883 379.5663,-71.0852"/>
</g>
<!-- Node7 -->
<g id="node8" class="node">
<title>Node7</title>
<g id="a_node8"><a xlink:href="data_8h.html#a9ec50d1b8d56e00da65c2e8aa6b3ea5a" target="_top" xlink:title="inverse_scale">
<polygon fill="#ffffff" stroke="#000000" points="95,-.5 95,-19.5 172,-19.5 172,-.5 95,-.5"/>
<text text-anchor="middle" x="133.5" y="-7.5" font-family="Helvetica,sans-Serif" font-size="10.00" fill="#000000">inverse_scale</text>
</a>
</g>
</g>
<!-- Node0&#45;&gt;Node7 -->
<g id="edge8" class="edge">
<title>Node0&#45;&gt;Node7</title>
<path fill="none" stroke="#191970" d="M26.6217,-79.2601C36.4593,-67.2371 54.6281,-46.814 74,-34 79.9297,-30.0777 86.6012,-26.6193 93.2762,-23.6374"/>
<polygon fill="#191970" stroke="#191970" points="95.0792,-26.6785 102.9721,-19.6108 92.3944,-20.2138 95.0792,-26.6785"/>
</g>
<!-- Node3 -->
<g id="node4" class="node">
<title>Node3</title>
<g id="a_node4"><a xlink:href="struct_data_set.html#aebb5495574ec71c44491713db5e0bdfd" target="_top" xlink:title="DataSet::shuffle_dataset">
<polygon fill="#ffffff" stroke="#000000" points="229,-126.5 229,-145.5 354,-145.5 354,-126.5 229,-126.5"/>
<text text-anchor="middle" x="291.5" y="-133.5" font-family="Helvetica,sans-Serif" font-size="10.00" fill="#000000">DataSet::shuffle_dataset</text>
</a>
</g>
</g>
<!-- Node2&#45;&gt;Node3 -->
<g id="edge3" class="edge">
<title>Node2&#45;&gt;Node3</title>
<path fill="none" stroke="#191970" d="M193.233,-134.1342C201.496,-134.2911 210.0585,-134.4536 218.528,-134.6145"/>
<polygon fill="#191970" stroke="#191970" points="218.7218,-138.1187 228.7865,-134.8092 218.8548,-131.1199 218.7218,-138.1187"/>
</g>
<!-- Node5 -->
<g id="node6" class="node">
<title>Node5</title>
<g id="a_node6"><a xlink:href="class_d_p_ensemble.html#a2b446f94f9da238cae22580813c91196" target="_top" xlink:title="DPEnsemble::update\l_gradients">
<polygon fill="#ffffff" stroke="#000000" points="236.5,-77 236.5,-107 346.5,-107 346.5,-77 236.5,-77"/>
<text text-anchor="start" x="244.5" y="-95" font-family="Helvetica,sans-Serif" font-size="10.00" fill="#000000">DPEnsemble::update</text>
<text text-anchor="middle" x="291.5" y="-84" font-family="Helvetica,sans-Serif" font-size="10.00" fill="#000000">_gradients</text>
</a>
</g>
</g>
<!-- Node4&#45;&gt;Node5 -->
<g id="edge5" class="edge">
<title>Node4&#45;&gt;Node5</title>
<path fill="none" stroke="#191970" d="M183.0587,-89.941C196.6769,-90.1996 211.6571,-90.484 226.0225,-90.7568"/>
<polygon fill="#191970" stroke="#191970" points="226.2812,-94.2622 236.3459,-90.9528 226.4141,-87.2635 226.2812,-94.2622"/>
</g>
<!-- Node5&#45;&gt;Node6 -->
<g id="edge6" class="edge">
<title>Node5&#45;&gt;Node6</title>
<path fill="none" stroke="#191970" d="M346.917,-84.0575C357.634,-82.5215 368.9538,-80.8991 379.9459,-79.3237"/>
<polygon fill="#191970" stroke="#191970" points="380.5195,-82.7774 389.9218,-77.894 379.5263,-75.8482 380.5195,-82.7774"/>
</g>
</g>
</svg>
