<?xml version="1.0" encoding="UTF-8" standalone="no"?>
<!DOCTYPE svg PUBLIC "-//W3C//DTD SVG 1.1//EN"
 "http://www.w3.org/Graphics/SVG/1.1/DTD/svg11.dtd">
<!-- Generated by graphviz version 2.40.1 (20161225.0304)
 -->
<!-- Title: main Pages: 1 -->
<svg width="992pt" height="286pt"
 viewBox="0.00 0.00 992.00 285.50" xmlns="http://www.w3.org/2000/svg" xmlns:xlink="http://www.w3.org/1999/xlink">
<g id="graph0" class="graph" transform="scale(1 1) rotate(0) translate(4 281.5)">
<title>main</title>
<polygon fill="#ffffff" stroke="transparent" points="-4,4 -4,-281.5 988,-281.5 988,4 -4,4"/>
<!-- Node0 -->
<g id="node1" class="node">
<title>Node0</title>
<polygon fill="#bfbfbf" stroke="#000000" points="0,-79.5 0,-98.5 38,-98.5 38,-79.5 0,-79.5"/>
<text text-anchor="middle" x="19" y="-86.5" font-family="Helvetica,sans-Serif" font-size="10.00" fill="#000000">main</text>
</g>
<!-- Node1 -->
<g id="node2" class="node">
<title>Node1</title>
<g id="a_node2"><a xlink:href="data_8h.html#ac589716071ac7ced3174606af5f79d78" target="_top" xlink:title="create_cross_validation\l_inputs">
<polygon fill="#ffffff" stroke="#000000" points="74,-197 74,-227 193,-227 193,-197 74,-197"/>
<text text-anchor="start" x="82" y="-215" font-family="Helvetica,sans-Serif" font-size="10.00" fill="#000000">create_cross_validation</text>
<text text-anchor="middle" x="133.5" y="-204" font-family="Helvetica,sans-Serif" font-size="10.00" fill="#000000">_inputs</text>
</a>
</g>
</g>
<!-- Node0&#45;&gt;Node1 -->
<g id="edge1" class="edge">
<title>Node0&#45;&gt;Node1</title>
<path fill="none" stroke="#191970" d="M27.9104,-98.81C38.7516,-110.725 57.636,-131.413 74,-149 86.526,-162.4621 100.6543,-177.4306 111.9996,-189.3982"/>
<polygon fill="#191970" stroke="#191970" points="109.5858,-191.9392 119.0084,-196.7833 114.6632,-187.1204 109.5858,-191.9392"/>
</g>
<!-- Node3 -->
<g id="node4" class="node">
<title>Node3</title>
<g id="a_node4"><a xlink:href="class_d_p_ensemble.html#a1652b5fde834bfb18416ebf438d3e10a" target="_top" xlink:title="DPEnsemble::train">
<polygon fill="#ffffff" stroke="#000000" points="84,-120.5 84,-139.5 183,-139.5 183,-120.5 84,-120.5"/>
<text text-anchor="middle" x="133.5" y="-127.5" font-family="Helvetica,sans-Serif" font-size="10.00" fill="#000000">DPEnsemble::train</text>
</a>
</g>
</g>
<!-- Node0&#45;&gt;Node3 -->
<g id="edge3" class="edge">
<title>Node0&#45;&gt;Node3</title>
<path fill="none" stroke="#191970" d="M38.1647,-95.8625C54.1764,-101.5959 77.4621,-109.934 97.0117,-116.9343"/>
<polygon fill="#191970" stroke="#191970" points="95.9529,-120.2727 106.5474,-120.3489 98.3127,-113.6825 95.9529,-120.2727"/>
</g>
<!-- Node5 -->
<g id="node6" class="node">
<title>Node5</title>
<g id="a_node6"><a xlink:href="class_d_p_ensemble.html#a2971bb16cab5ab57322993048ea3a729" target="_top" xlink:title="DPEnsemble::predict">
<polygon fill="#ffffff" stroke="#000000" points="399,-79.5 399,-98.5 509,-98.5 509,-79.5 399,-79.5"/>
<text text-anchor="middle" x="454" y="-86.5" font-family="Helvetica,sans-Serif" font-size="10.00" fill="#000000">DPEnsemble::predict</text>
</a>
</g>
</g>
<!-- Node0&#45;&gt;Node5 -->
<g id="edge19" class="edge">
<title>Node0&#45;&gt;Node5</title>
<path fill="none" stroke="#191970" d="M38.3104,-85.3916C89.7535,-76.2849 234.3463,-53.9936 354,-67 372.4661,-69.0073 392.5179,-73.0412 409.7845,-77.113"/>
<polygon fill="#191970" stroke="#191970" points="409.0519,-80.5368 419.5959,-79.4997 410.7066,-73.7351 409.0519,-80.5368"/>
</g>
<!-- Node18 -->
<g id="node19" class="node">
<title>Node18</title>
<g id="a_node19"><a xlink:href="data_8h.html#a9ec50d1b8d56e00da65c2e8aa6b3ea5a" target="_top" xlink:title="inverse_scale">
<polygon fill="#ffffff" stroke="#000000" points="95,-.5 95,-19.5 172,-19.5 172,-.5 95,-.5"/>
<text text-anchor="middle" x="133.5" y="-7.5" font-family="Helvetica,sans-Serif" font-size="10.00" fill="#000000">inverse_scale</text>
</a>
</g>
</g>
<!-- Node0&#45;&gt;Node18 -->
<g id="edge20" class="edge">
<title>Node0&#45;&gt;Node18</title>
<path fill="none" stroke="#191970" d="M26.6217,-79.2601C36.4593,-67.2371 54.6281,-46.814 74,-34 79.9297,-30.0777 86.6012,-26.6193 93.2762,-23.6374"/>
<polygon fill="#191970" stroke="#191970" points="95.0792,-26.6785 102.9721,-19.6108 92.3944,-20.2138 95.0792,-26.6785"/>
</g>
<!-- Node2 -->
<g id="node3" class="node">
<title>Node2</title>
<g id="a_node3"><a xlink:href="struct_data_set.html#aebb5495574ec71c44491713db5e0bdfd" target="_top" xlink:title="DataSet::shuffle_dataset">
<polygon fill="#ffffff" stroke="#000000" points="229,-240.5 229,-259.5 354,-259.5 354,-240.5 229,-240.5"/>
<text text-anchor="middle" x="291.5" y="-247.5" font-family="Helvetica,sans-Serif" font-size="10.00" fill="#000000">DataSet::shuffle_dataset</text>
</a>
</g>
</g>
<!-- Node1&#45;&gt;Node2 -->
<g id="edge2" class="edge">
<title>Node1&#45;&gt;Node2</title>
<path fill="none" stroke="#191970" d="M193.233,-226.3662C209.2906,-230.2281 226.4793,-234.3621 241.9189,-238.0754"/>
<polygon fill="#191970" stroke="#191970" points="241.2417,-241.5123 251.7829,-240.4478 242.8786,-234.7064 241.2417,-241.5123"/>
</g>
<!-- Node4 -->
<g id="node5" class="node">
<title>Node4</title>
<g id="a_node5"><a xlink:href="class_d_p_ensemble.html#a2b446f94f9da238cae22580813c91196" target="_top" xlink:title="DPEnsemble::update\l_gradients">
<polygon fill="#ffffff" stroke="#000000" points="236.5,-115 236.5,-145 346.5,-145 346.5,-115 236.5,-115"/>
<text text-anchor="start" x="244.5" y="-133" font-family="Helvetica,sans-Serif" font-size="10.00" fill="#000000">DPEnsemble::update</text>
<text text-anchor="middle" x="291.5" y="-122" font-family="Helvetica,sans-Serif" font-size="10.00" fill="#000000">_gradients</text>
</a>
</g>
</g>
<!-- Node3&#45;&gt;Node4 -->
<g id="edge4" class="edge">
<title>Node3&#45;&gt;Node4</title>
<path fill="none" stroke="#191970" d="M183.0587,-130C196.6769,-130 211.6571,-130 226.0225,-130"/>
<polygon fill="#191970" stroke="#191970" points="226.3459,-133.5001 236.3459,-130 226.3458,-126.5001 226.3459,-133.5001"/>
</g>
<!-- Node6 -->
<g id="node7" class="node">
<title>Node6</title>
<g id="a_node7"><a xlink:href="struct_data_set.html#afa2b0dcbd62ba4bf49ea37a1dcefeb83" target="_top" xlink:title="DataSet::get_subset">
<polygon fill="#ffffff" stroke="#000000" points="238,-76.5 238,-95.5 345,-95.5 345,-76.5 238,-76.5"/>
<text text-anchor="middle" x="291.5" y="-83.5" font-family="Helvetica,sans-Serif" font-size="10.00" fill="#000000">DataSet::get_subset</text>
</a>
</g>
</g>
<!-- Node3&#45;&gt;Node6 -->
<g id="edge6" class="edge">
<title>Node3&#45;&gt;Node6</title>
<path fill="none" stroke="#191970" d="M167.7836,-120.4527C191.1798,-113.9373 222.3781,-105.2492 247.5912,-98.2278"/>
<polygon fill="#191970" stroke="#191970" points="248.5888,-101.5832 257.2833,-95.5287 246.7108,-94.8398 248.5888,-101.5832"/>
</g>
<!-- Node7 -->
<g id="node8" class="node">
<title>Node7</title>
<g id="a_node8"><a xlink:href="class_d_p_tree.html#a82b9507f4f5d056b98f40871b304f943" target="_top" xlink:title="DPTree::fit">
<polygon fill="#ffffff" stroke="#000000" points="259,-202.5 259,-221.5 324,-221.5 324,-202.5 259,-202.5"/>
<text text-anchor="middle" x="291.5" y="-209.5" font-family="Helvetica,sans-Serif" font-size="10.00" fill="#000000">DPTree::fit</text>
</a>
</g>
</g>
<!-- Node3&#45;&gt;Node7 -->
<g id="edge7" class="edge">
<title>Node3&#45;&gt;Node7</title>
<path fill="none" stroke="#191970" d="M145.488,-139.5674C162.9508,-153.1056 196.8195,-177.8839 229,-193 235.2761,-195.948 242.1193,-198.5717 248.9008,-200.8577"/>
<polygon fill="#191970" stroke="#191970" points="248.1291,-204.2845 258.7191,-203.9639 250.2406,-197.6105 248.1291,-204.2845"/>
</g>
<!-- Node17 -->
<g id="node18" class="node">
<title>Node17</title>
<g id="a_node18"><a xlink:href="struct_data_set.html#a30a01ecb39d3bfc9eb5e5923ed6f5d43" target="_top" xlink:title="DataSet::remove_rows">
<polygon fill="#ffffff" stroke="#000000" points="233,-164.5 233,-183.5 350,-183.5 350,-164.5 233,-164.5"/>
<text text-anchor="middle" x="291.5" y="-171.5" font-family="Helvetica,sans-Serif" font-size="10.00" fill="#000000">DataSet::remove_rows</text>
</a>
</g>
</g>
<!-- Node3&#45;&gt;Node17 -->
<g id="edge18" class="edge">
<title>Node3&#45;&gt;Node17</title>
<path fill="none" stroke="#191970" d="M167.7836,-139.5473C191.1798,-146.0627 222.3781,-154.7508 247.5912,-161.7722"/>
<polygon fill="#191970" stroke="#191970" points="246.7108,-165.1602 257.2833,-164.4713 248.5888,-158.4168 246.7108,-165.1602"/>
</g>
<!-- Node4&#45;&gt;Node5 -->
<g id="edge5" class="edge">
<title>Node4&#45;&gt;Node5</title>
<path fill="none" stroke="#191970" d="M346.5151,-116.1193C365.871,-111.2356 387.4522,-105.7905 406.1683,-101.0683"/>
<polygon fill="#191970" stroke="#191970" points="407.1124,-104.4399 415.9523,-98.5997 405.3999,-97.6526 407.1124,-104.4399"/>
</g>
<!-- Node8 -->
<g id="node9" class="node">
<title>Node8</title>
<g id="a_node9"><a xlink:href="class_d_p_tree.html#a07314c44bb7b7ca37c735b70de3ccb9e" target="_top" xlink:title="DPTree::make_tree_DFS">
<polygon fill="#ffffff" stroke="#000000" points="390,-170.5 390,-189.5 518,-189.5 518,-170.5 390,-170.5"/>
<text text-anchor="middle" x="454" y="-177.5" font-family="Helvetica,sans-Serif" font-size="10.00" fill="#000000">DPTree::make_tree_DFS</text>
</a>
</g>
</g>
<!-- Node7&#45;&gt;Node8 -->
<g id="edge8" class="edge">
<title>Node7&#45;&gt;Node8</title>
<path fill="none" stroke="#191970" d="M324.3843,-205.5243C344.8335,-201.4974 371.7093,-196.2049 395.6835,-191.4839"/>
<polygon fill="#191970" stroke="#191970" points="396.618,-194.8671 405.7533,-189.5009 395.2654,-187.999 396.618,-194.8671"/>
</g>
<!-- Node15 -->
<g id="node16" class="node">
<title>Node15</title>
<g id="a_node16"><a xlink:href="class_d_p_tree.html#a468d249a3e55f1527e50daf13e550c79" target="_top" xlink:title="DPTree::add_laplacian\l_noise">
<polygon fill="#ffffff" stroke="#000000" points="396,-228 396,-258 512,-258 512,-228 396,-228"/>
<text text-anchor="start" x="404" y="-246" font-family="Helvetica,sans-Serif" font-size="10.00" fill="#000000">DPTree::add_laplacian</text>
<text text-anchor="middle" x="454" y="-235" font-family="Helvetica,sans-Serif" font-size="10.00" fill="#000000">_noise</text>
</a>
</g>
</g>
<!-- Node7&#45;&gt;Node15 -->
<g id="edge16" class="edge">
<title>Node7&#45;&gt;Node15</title>
<path fill="none" stroke="#191970" d="M324.3843,-218.2733C342.0778,-221.6487 364.5824,-225.9419 385.8558,-230.0002"/>
<polygon fill="#191970" stroke="#191970" points="385.3677,-233.4701 395.8465,-231.9061 386.6795,-226.5941 385.3677,-233.4701"/>
</g>
<!-- Node9 -->
<g id="node10" class="node">
<title>Node9</title>
<g id="a_node10"><a xlink:href="class_d_p_tree.html#a3a716a075edfae470e0fe7511634e922" target="_top" xlink:title="DPTree::make_leaf_node">
<polygon fill="#ffffff" stroke="#000000" points="554.5,-208.5 554.5,-227.5 682.5,-227.5 682.5,-208.5 554.5,-208.5"/>
<text text-anchor="middle" x="618.5" y="-215.5" font-family="Helvetica,sans-Serif" font-size="10.00" fill="#000000">DPTree::make_leaf_node</text>
</a>
</g>
</g>
<!-- Node8&#45;&gt;Node9 -->
<g id="edge9" class="edge">
<title>Node8&#45;&gt;Node9</title>
<path fill="none" stroke="#191970" d="M495.5103,-189.589C517.3156,-194.6261 544.2318,-200.8438 567.3191,-206.1771"/>
<polygon fill="#191970" stroke="#191970" points="566.757,-209.6393 577.2882,-208.4799 568.3326,-202.8189 566.757,-209.6393"/>
</g>
<!-- Node10 -->
<g id="node11" class="node">
<title>Node10</title>
<g id="a_node11"><a xlink:href="class_d_p_tree.html#ad7f8755be37ad10cf104fba2076dce5e" target="_top" xlink:title="DPTree::find_best_split">
<polygon fill="#ffffff" stroke="#000000" points="559,-170.5 559,-189.5 678,-189.5 678,-170.5 559,-170.5"/>
<text text-anchor="middle" x="618.5" y="-177.5" font-family="Helvetica,sans-Serif" font-size="10.00" fill="#000000">DPTree::find_best_split</text>
</a>
</g>
</g>
<!-- Node8&#45;&gt;Node10 -->
<g id="edge10" class="edge">
<title>Node8&#45;&gt;Node10</title>
<path fill="none" stroke="#191970" d="M518.071,-180C528.1523,-180 538.6171,-180 548.8178,-180"/>
<polygon fill="#191970" stroke="#191970" points="548.9064,-183.5001 558.9064,-180 548.9064,-176.5001 548.9064,-183.5001"/>
</g>
<!-- Node12 -->
<g id="node13" class="node">
<title>Node12</title>
<g id="a_node13"><a xlink:href="class_d_p_tree.html#af16f3e0373e606fe42b2104890b2d036" target="_top" xlink:title="DPTree::samples_left\l_right_partition">
<polygon fill="#ffffff" stroke="#000000" points="872,-146 872,-176 984,-176 984,-146 872,-146"/>
<text text-anchor="start" x="880" y="-164" font-family="Helvetica,sans-Serif" font-size="10.00" fill="#000000">DPTree::samples_left</text>
<text text-anchor="middle" x="928" y="-153" font-family="Helvetica,sans-Serif" font-size="10.00" fill="#000000">_right_partition</text>
</a>
</g>
</g>
<!-- Node8&#45;&gt;Node12 -->
<g id="edge15" class="edge">
<title>Node8&#45;&gt;Node12</title>
<path fill="none" stroke="#191970" d="M494.6217,-170.4892C512.6911,-166.724 534.2949,-162.8554 554,-161 661.2744,-150.8993 786.6253,-153.8936 861.5417,-157.2502"/>
<polygon fill="#191970" stroke="#191970" points="861.6193,-160.7575 871.7708,-157.7249 861.9439,-153.765 861.6193,-160.7575"/>
</g>
<!-- Node14 -->
<g id="node15" class="node">
<title>Node14</title>
<g id="a_node15"><a xlink:href="class_tree_node.html#ae671fa006ebb36f632b46b5aa1ec2899" target="_top" xlink:title="TreeNode::is_leaf">
<polygon fill="#ffffff" stroke="#000000" points="571.5,-94.5 571.5,-113.5 665.5,-113.5 665.5,-94.5 571.5,-94.5"/>
<text text-anchor="middle" x="618.5" y="-101.5" font-family="Helvetica,sans-Serif" font-size="10.00" fill="#000000">TreeNode::is_leaf</text>
</a>
</g>
</g>
<!-- Node8&#45;&gt;Node14 -->
<g id="edge14" class="edge">
<title>Node8&#45;&gt;Node14</title>
<path fill="none" stroke="#191970" d="M471.026,-170.3236C490.678,-159.3496 524.1332,-141.2615 554,-128 562.6609,-124.1544 572.1462,-120.388 581.1139,-117.0209"/>
<polygon fill="#191970" stroke="#191970" points="582.4016,-120.2766 590.5781,-113.539 579.9846,-113.707 582.4016,-120.2766"/>
</g>
<!-- Node11 -->
<g id="node12" class="node">
<title>Node11</title>
<g id="a_node12"><a xlink:href="class_d_p_tree.html#ab9426a6ac2e5122e29ecbb6e9c4cd050" target="_top" xlink:title="DPTree::compute_gain">
<polygon fill="#ffffff" stroke="#000000" points="719,-170.5 719,-189.5 836,-189.5 836,-170.5 719,-170.5"/>
<text text-anchor="middle" x="777.5" y="-177.5" font-family="Helvetica,sans-Serif" font-size="10.00" fill="#000000">DPTree::compute_gain</text>
</a>
</g>
</g>
<!-- Node10&#45;&gt;Node11 -->
<g id="edge11" class="edge">
<title>Node10&#45;&gt;Node11</title>
<path fill="none" stroke="#191970" d="M678.1581,-180C688.1376,-180 698.5627,-180 708.748,-180"/>
<polygon fill="#191970" stroke="#191970" points="708.828,-183.5001 718.828,-180 708.828,-176.5001 708.828,-183.5001"/>
</g>
<!-- Node13 -->
<g id="node14" class="node">
<title>Node13</title>
<g id="a_node14"><a xlink:href="class_d_p_tree.html#a7ce368c3888736d660dcf09587df4512" target="_top" xlink:title="DPTree::exponential\l_mechanism">
<polygon fill="#ffffff" stroke="#000000" points="724.5,-209 724.5,-239 830.5,-239 830.5,-209 724.5,-209"/>
<text text-anchor="start" x="732.5" y="-227" font-family="Helvetica,sans-Serif" font-size="10.00" fill="#000000">DPTree::exponential</text>
<text text-anchor="middle" x="777.5" y="-216" font-family="Helvetica,sans-Serif" font-size="10.00" fill="#000000">_mechanism</text>
</a>
</g>
</g>
<!-- Node10&#45;&gt;Node13 -->
<g id="edge13" class="edge">
<title>Node10&#45;&gt;Node13</title>
<path fill="none" stroke="#191970" d="M653.0006,-189.5473C670.9778,-194.5222 693.5324,-200.7637 714.4881,-206.5628"/>
<polygon fill="#191970" stroke="#191970" points="713.7284,-209.984 724.2997,-209.2779 715.5954,-203.2375 713.7284,-209.984"/>
</g>
<!-- Node11&#45;&gt;Node12 -->
<g id="edge12" class="edge">
<title>Node11&#45;&gt;Node12</title>
<path fill="none" stroke="#191970" d="M836.1182,-172.5997C844.5419,-171.5362 853.2583,-170.4358 861.816,-169.3555"/>
<polygon fill="#191970" stroke="#191970" points="862.2792,-172.8248 871.7621,-168.0998 861.4024,-165.88 862.2792,-172.8248"/>
</g>
<!-- Node16 -->
<g id="node17" class="node">
<title>Node16</title>
<g id="a_node17"><a xlink:href="class_laplace.html#a357965a9024cbdb3866973b5ef22500c" target="_top" xlink:title="Laplace::return_a_random\l_variable">
<polygon fill="#ffffff" stroke="#000000" points="554,-247 554,-277 683,-277 683,-247 554,-247"/>
<text text-anchor="start" x="562" y="-265" font-family="Helvetica,sans-Serif" font-size="10.00" fill="#000000">Laplace::return_a_random</text>
<text text-anchor="middle" x="618.5" y="-254" font-family="Helvetica,sans-Serif" font-size="10.00" fill="#000000">_variable</text>
</a>
</g>
</g>
<!-- Node15&#45;&gt;Node16 -->
<g id="edge17" class="edge">
<title>Node15&#45;&gt;Node16</title>
<path fill="none" stroke="#191970" d="M512.4597,-249.7522C522.6072,-250.9242 533.2832,-252.1573 543.7935,-253.3713"/>
<polygon fill="#191970" stroke="#191970" points="543.4614,-256.8561 553.797,-254.5267 544.2646,-249.9023 543.4614,-256.8561"/>
</g>
</g>
</svg>
