<?xml version="1.0" encoding="UTF-8" standalone="no"?>
<!DOCTYPE svg PUBLIC "-//W3C//DTD SVG 1.1//EN"
 "http://www.w3.org/Graphics/SVG/1.1/DTD/svg11.dtd">
<!-- Generated by graphviz version 2.40.1 (20161225.0304)
 -->
<!-- Title: main Pages: 1 -->
<svg width="984pt" height="268pt"
 viewBox="0.00 0.00 984.00 268.00" xmlns="http://www.w3.org/2000/svg" xmlns:xlink="http://www.w3.org/1999/xlink">
<g id="graph0" class="graph" transform="scale(1 1) rotate(0) translate(4 264)">
<title>main</title>
<polygon fill="#ffffff" stroke="transparent" points="-4,4 -4,-264 980,-264 980,4 -4,4"/>
<!-- Node0 -->
<g id="node1" class="node">
<title>Node0</title>
<polygon fill="#bfbfbf" stroke="#000000" points="0,-79.5 0,-98.5 38,-98.5 38,-79.5 0,-79.5"/>
<text text-anchor="middle" x="19" y="-86.5" font-family="Helvetica,sans-Serif" font-size="10.00" fill="#000000">main</text>
</g>
<!-- Node1 -->
<g id="node2" class="node">
<title>Node1</title>
<g id="a_node2"><a xlink:href="data_8h.html#ac589716071ac7ced3174606af5f79d78" target="_top" xlink:title="create_cross_validation\l_inputs">
<polygon fill="#ffffff" stroke="#000000" points="74,-197 74,-227 193,-227 193,-197 74,-197"/>
<text text-anchor="start" x="82" y="-215" font-family="Helvetica,sans-Serif" font-size="10.00" fill="#000000">create_cross_validation</text>
<text text-anchor="middle" x="133.5" y="-204" font-family="Helvetica,sans-Serif" font-size="10.00" fill="#000000">_inputs</text>
</a>
</g>
</g>
<!-- Node0&#45;&gt;Node1 -->
<g id="edge1" class="edge">
<title>Node0&#45;&gt;Node1</title>
<path fill="none" stroke="#191970" d="M27.9104,-98.81C38.7516,-110.725 57.636,-131.413 74,-149 86.526,-162.4621 100.6543,-177.4306 111.9996,-189.3982"/>
<polygon fill="#191970" stroke="#191970" points="109.5858,-191.9392 119.0084,-196.7833 114.6632,-187.1204 109.5858,-191.9392"/>
</g>
<!-- Node3 -->
<g id="node4" class="node">
<title>Node3</title>
<g id="a_node4"><a xlink:href="class_d_p_ensemble.html#a1652b5fde834bfb18416ebf438d3e10a" target="_top" xlink:title="DPEnsemble::train">
<polygon fill="#ffffff" stroke="#000000" points="84,-120.5 84,-139.5 183,-139.5 183,-120.5 84,-120.5"/>
<text text-anchor="middle" x="133.5" y="-127.5" font-family="Helvetica,sans-Serif" font-size="10.00" fill="#000000">DPEnsemble::train</text>
</a>
</g>
</g>
<!-- Node0&#45;&gt;Node3 -->
<g id="edge3" class="edge">
<title>Node0&#45;&gt;Node3</title>
<path fill="none" stroke="#191970" d="M38.1647,-95.8625C54.1764,-101.5959 77.4621,-109.934 97.0117,-116.9343"/>
<polygon fill="#191970" stroke="#191970" points="95.9529,-120.2727 106.5474,-120.3489 98.3127,-113.6825 95.9529,-120.2727"/>
</g>
<!-- Node5 -->
<g id="node6" class="node">
<title>Node5</title>
<g id="a_node6"><a xlink:href="class_d_p_ensemble.html#a4c4302580bdbeaa4ca2c2091cad018c5" target="_top" xlink:title="DPEnsemble::predict\l_ensemble">
<polygon fill="#ffffff" stroke="#000000" points="395.5,-71 395.5,-101 505.5,-101 505.5,-71 395.5,-71"/>
<text text-anchor="start" x="403.5" y="-89" font-family="Helvetica,sans-Serif" font-size="10.00" fill="#000000">DPEnsemble::predict</text>
<text text-anchor="middle" x="450.5" y="-78" font-family="Helvetica,sans-Serif" font-size="10.00" fill="#000000">_ensemble</text>
</a>
</g>
</g>
<!-- Node0&#45;&gt;Node5 -->
<g id="edge19" class="edge">
<title>Node0&#45;&gt;Node5</title>
<path fill="none" stroke="#191970" d="M38.295,-85.5403C89.7007,-76.7976 234.2096,-55.3193 354,-67 364.2385,-67.9984 375.0025,-69.5791 385.4777,-71.4128"/>
<polygon fill="#191970" stroke="#191970" points="384.9377,-74.8721 395.4057,-73.2377 386.2032,-67.9875 384.9377,-74.8721"/>
</g>
<!-- Node18 -->
<g id="node19" class="node">
<title>Node18</title>
<g id="a_node19"><a xlink:href="data_8h.html#a9ec50d1b8d56e00da65c2e8aa6b3ea5a" target="_top" xlink:title="inverse_scale">
<polygon fill="#ffffff" stroke="#000000" points="95,-.5 95,-19.5 172,-19.5 172,-.5 95,-.5"/>
<text text-anchor="middle" x="133.5" y="-7.5" font-family="Helvetica,sans-Serif" font-size="10.00" fill="#000000">inverse_scale</text>
</a>
</g>
</g>
<!-- Node0&#45;&gt;Node18 -->
<g id="edge20" class="edge">
<title>Node0&#45;&gt;Node18</title>
<path fill="none" stroke="#191970" d="M26.6217,-79.2601C36.4593,-67.2371 54.6281,-46.814 74,-34 79.9297,-30.0777 86.6012,-26.6193 93.2762,-23.6374"/>
<polygon fill="#191970" stroke="#191970" points="95.0792,-26.6785 102.9721,-19.6108 92.3944,-20.2138 95.0792,-26.6785"/>
</g>
<!-- Node2 -->
<g id="node3" class="node">
<title>Node2</title>
<g id="a_node3"><a xlink:href="struct_data_set.html#aebb5495574ec71c44491713db5e0bdfd" target="_top" xlink:title="DataSet::shuffle_dataset">
<polygon fill="#ffffff" stroke="#000000" points="229,-240.5 229,-259.5 354,-259.5 354,-240.5 229,-240.5"/>
<text text-anchor="middle" x="291.5" y="-247.5" font-family="Helvetica,sans-Serif" font-size="10.00" fill="#000000">DataSet::shuffle_dataset</text>
</a>
</g>
</g>
<!-- Node1&#45;&gt;Node2 -->
<g id="edge2" class="edge">
<title>Node1&#45;&gt;Node2</title>
<path fill="none" stroke="#191970" d="M193.233,-226.3662C209.2906,-230.2281 226.4793,-234.3621 241.9189,-238.0754"/>
<polygon fill="#191970" stroke="#191970" points="241.2417,-241.5123 251.7829,-240.4478 242.8786,-234.7064 241.2417,-241.5123"/>
</g>
<!-- Node4 -->
<g id="node5" class="node">
<title>Node4</title>
<g id="a_node5"><a xlink:href="class_d_p_ensemble.html#a2b446f94f9da238cae22580813c91196" target="_top" xlink:title="DPEnsemble::update\l_gradients">
<polygon fill="#ffffff" stroke="#000000" points="236.5,-115 236.5,-145 346.5,-145 346.5,-115 236.5,-115"/>
<text text-anchor="start" x="244.5" y="-133" font-family="Helvetica,sans-Serif" font-size="10.00" fill="#000000">DPEnsemble::update</text>
<text text-anchor="middle" x="291.5" y="-122" font-family="Helvetica,sans-Serif" font-size="10.00" fill="#000000">_gradients</text>
</a>
</g>
</g>
<!-- Node3&#45;&gt;Node4 -->
<g id="edge4" class="edge">
<title>Node3&#45;&gt;Node4</title>
<path fill="none" stroke="#191970" d="M183.0587,-130C196.6769,-130 211.6571,-130 226.0225,-130"/>
<polygon fill="#191970" stroke="#191970" points="226.3459,-133.5001 236.3459,-130 226.3458,-126.5001 226.3459,-133.5001"/>
</g>
<!-- Node8 -->
<g id="node9" class="node">
<title>Node8</title>
<g id="a_node9"><a xlink:href="struct_data_set.html#afa2b0dcbd62ba4bf49ea37a1dcefeb83" target="_top" xlink:title="DataSet::get_subset">
<polygon fill="#ffffff" stroke="#000000" points="238,-76.5 238,-95.5 345,-95.5 345,-76.5 238,-76.5"/>
<text text-anchor="middle" x="291.5" y="-83.5" font-family="Helvetica,sans-Serif" font-size="10.00" fill="#000000">DataSet::get_subset</text>
</a>
</g>
</g>
<!-- Node3&#45;&gt;Node8 -->
<g id="edge8" class="edge">
<title>Node3&#45;&gt;Node8</title>
<path fill="none" stroke="#191970" d="M167.7836,-120.4527C191.1798,-113.9373 222.3781,-105.2492 247.5912,-98.2278"/>
<polygon fill="#191970" stroke="#191970" points="248.5888,-101.5832 257.2833,-95.5287 246.7108,-94.8398 248.5888,-101.5832"/>
</g>
<!-- Node9 -->
<g id="node10" class="node">
<title>Node9</title>
<g id="a_node10"><a xlink:href="class_d_p_tree.html#a82b9507f4f5d056b98f40871b304f943" target="_top" xlink:title="DPTree::fit">
<polygon fill="#ffffff" stroke="#000000" points="259,-202.5 259,-221.5 324,-221.5 324,-202.5 259,-202.5"/>
<text text-anchor="middle" x="291.5" y="-209.5" font-family="Helvetica,sans-Serif" font-size="10.00" fill="#000000">DPTree::fit</text>
</a>
</g>
</g>
<!-- Node3&#45;&gt;Node9 -->
<g id="edge9" class="edge">
<title>Node3&#45;&gt;Node9</title>
<path fill="none" stroke="#191970" d="M145.488,-139.5674C162.9508,-153.1056 196.8195,-177.8839 229,-193 235.2761,-195.948 242.1193,-198.5717 248.9008,-200.8577"/>
<polygon fill="#191970" stroke="#191970" points="248.1291,-204.2845 258.7191,-203.9639 250.2406,-197.6105 248.1291,-204.2845"/>
</g>
<!-- Node17 -->
<g id="node18" class="node">
<title>Node17</title>
<g id="a_node18"><a xlink:href="struct_data_set.html#a30a01ecb39d3bfc9eb5e5923ed6f5d43" target="_top" xlink:title="DataSet::remove_rows">
<polygon fill="#ffffff" stroke="#000000" points="233,-164.5 233,-183.5 350,-183.5 350,-164.5 233,-164.5"/>
<text text-anchor="middle" x="291.5" y="-171.5" font-family="Helvetica,sans-Serif" font-size="10.00" fill="#000000">DataSet::remove_rows</text>
</a>
</g>
</g>
<!-- Node3&#45;&gt;Node17 -->
<g id="edge18" class="edge">
<title>Node3&#45;&gt;Node17</title>
<path fill="none" stroke="#191970" d="M167.7836,-139.5473C191.1798,-146.0627 222.3781,-154.7508 247.5912,-161.7722"/>
<polygon fill="#191970" stroke="#191970" points="246.7108,-165.1602 257.2833,-164.4713 248.5888,-158.4168 246.7108,-165.1602"/>
</g>
<!-- Node4&#45;&gt;Node5 -->
<g id="edge5" class="edge">
<title>Node4&#45;&gt;Node5</title>
<path fill="none" stroke="#191970" d="M345.7741,-114.9808C358.877,-111.3548 373,-107.4466 386.5022,-103.7101"/>
<polygon fill="#191970" stroke="#191970" points="387.4965,-107.0666 396.2008,-101.0262 385.6295,-100.3201 387.4965,-107.0666"/>
</g>
<!-- Node6 -->
<g id="node7" class="node">
<title>Node6</title>
<g id="a_node7"><a xlink:href="class_d_p_tree.html#a1e28d69924f6d57ea7e57ad8ee138f42" target="_top" xlink:title="DPTree::predict_tree">
<polygon fill="#ffffff" stroke="#000000" points="557.5,-76.5 557.5,-95.5 664.5,-95.5 664.5,-76.5 557.5,-76.5"/>
<text text-anchor="middle" x="611" y="-83.5" font-family="Helvetica,sans-Serif" font-size="10.00" fill="#000000">DPTree::predict_tree</text>
</a>
</g>
</g>
<!-- Node5&#45;&gt;Node6 -->
<g id="edge6" class="edge">
<title>Node5&#45;&gt;Node6</title>
<path fill="none" stroke="#191970" d="M505.735,-86C519.0306,-86 533.3441,-86 547.002,-86"/>
<polygon fill="#191970" stroke="#191970" points="547.2909,-89.5001 557.2908,-86 547.2908,-82.5001 547.2909,-89.5001"/>
</g>
<!-- Node7 -->
<g id="node8" class="node">
<title>Node7</title>
<g id="a_node8"><a xlink:href="class_d_p_tree.html#ad8ad2f100c65b9961bd6b2c4af46636c" target="_top" xlink:title="DPTree::_predict">
<polygon fill="#ffffff" stroke="#000000" points="724,-76.5 724,-95.5 815,-95.5 815,-76.5 724,-76.5"/>
<text text-anchor="middle" x="769.5" y="-83.5" font-family="Helvetica,sans-Serif" font-size="10.00" fill="#000000">DPTree::_predict</text>
</a>
</g>
</g>
<!-- Node6&#45;&gt;Node7 -->
<g id="edge7" class="edge">
<title>Node6&#45;&gt;Node7</title>
<path fill="none" stroke="#191970" d="M664.6609,-86C680.4265,-86 697.7057,-86 713.6072,-86"/>
<polygon fill="#191970" stroke="#191970" points="713.8281,-89.5001 723.828,-86 713.828,-82.5001 713.8281,-89.5001"/>
</g>
<!-- Node10 -->
<g id="node11" class="node">
<title>Node10</title>
<g id="a_node11"><a xlink:href="class_d_p_tree.html#a54cea43a3929249de4be25f607a16339" target="_top" xlink:title="DPTree::make_tree_dfs">
<polygon fill="#ffffff" stroke="#000000" points="390,-180.5 390,-199.5 511,-199.5 511,-180.5 390,-180.5"/>
<text text-anchor="middle" x="450.5" y="-187.5" font-family="Helvetica,sans-Serif" font-size="10.00" fill="#000000">DPTree::make_tree_dfs</text>
</a>
</g>
</g>
<!-- Node9&#45;&gt;Node10 -->
<g id="edge10" class="edge">
<title>Node9&#45;&gt;Node10</title>
<path fill="none" stroke="#191970" d="M324.0597,-207.4949C340.1523,-205.2682 360.2429,-202.4884 379.6392,-199.8046"/>
<polygon fill="#191970" stroke="#191970" points="380.2682,-203.251 389.6941,-198.4134 379.3088,-196.3171 380.2682,-203.251"/>
</g>
<!-- Node16 -->
<g id="node17" class="node">
<title>Node16</title>
<g id="a_node17"><a xlink:href="class_d_p_tree.html#a468d249a3e55f1527e50daf13e550c79" target="_top" xlink:title="DPTree::add_laplacian\l_noise">
<polygon fill="#ffffff" stroke="#000000" points="392.5,-219 392.5,-249 508.5,-249 508.5,-219 392.5,-219"/>
<text text-anchor="start" x="400.5" y="-237" font-family="Helvetica,sans-Serif" font-size="10.00" fill="#000000">DPTree::add_laplacian</text>
<text text-anchor="middle" x="450.5" y="-226" font-family="Helvetica,sans-Serif" font-size="10.00" fill="#000000">_noise</text>
</a>
</g>
</g>
<!-- Node9&#45;&gt;Node16 -->
<g id="edge17" class="edge">
<title>Node9&#45;&gt;Node16</title>
<path fill="none" stroke="#191970" d="M324.0597,-216.5051C340.8479,-218.828 361.9872,-221.7529 382.1502,-224.5428"/>
<polygon fill="#191970" stroke="#191970" points="381.8751,-228.038 392.2605,-225.9417 382.8346,-221.1041 381.8751,-228.038"/>
</g>
<!-- Node11 -->
<g id="node12" class="node">
<title>Node11</title>
<g id="a_node12"><a xlink:href="class_d_p_tree.html#a3a716a075edfae470e0fe7511634e922" target="_top" xlink:title="DPTree::make_leaf_node">
<polygon fill="#ffffff" stroke="#000000" points="547,-180.5 547,-199.5 675,-199.5 675,-180.5 547,-180.5"/>
<text text-anchor="middle" x="611" y="-187.5" font-family="Helvetica,sans-Serif" font-size="10.00" fill="#000000">DPTree::make_leaf_node</text>
</a>
</g>
</g>
<!-- Node10&#45;&gt;Node11 -->
<g id="edge11" class="edge">
<title>Node10&#45;&gt;Node11</title>
<path fill="none" stroke="#191970" d="M511.1782,-190C519.4457,-190 528.0083,-190 536.4852,-190"/>
<polygon fill="#191970" stroke="#191970" points="536.757,-193.5001 546.757,-190 536.7569,-186.5001 536.757,-193.5001"/>
</g>
<!-- Node12 -->
<g id="node13" class="node">
<title>Node12</title>
<g id="a_node13"><a xlink:href="class_d_p_tree.html#ad7f8755be37ad10cf104fba2076dce5e" target="_top" xlink:title="DPTree::find_best_split">
<polygon fill="#ffffff" stroke="#000000" points="551.5,-142.5 551.5,-161.5 670.5,-161.5 670.5,-142.5 551.5,-142.5"/>
<text text-anchor="middle" x="611" y="-149.5" font-family="Helvetica,sans-Serif" font-size="10.00" fill="#000000">DPTree::find_best_split</text>
</a>
</g>
</g>
<!-- Node10&#45;&gt;Node12 -->
<g id="edge12" class="edge">
<title>Node10&#45;&gt;Node12</title>
<path fill="none" stroke="#191970" d="M491.0009,-180.411C512.1806,-175.3965 538.3022,-169.2119 560.7604,-163.8947"/>
<polygon fill="#191970" stroke="#191970" points="561.8657,-167.2299 570.7903,-161.5201 560.2529,-160.4182 561.8657,-167.2299"/>
</g>
<!-- Node14 -->
<g id="node15" class="node">
<title>Node14</title>
<g id="a_node15"><a xlink:href="class_d_p_tree.html#af16f3e0373e606fe42b2104890b2d036" target="_top" xlink:title="DPTree::samples_left\l_right_partition">
<polygon fill="#ffffff" stroke="#000000" points="864,-169 864,-199 976,-199 976,-169 864,-169"/>
<text text-anchor="start" x="872" y="-187" font-family="Helvetica,sans-Serif" font-size="10.00" fill="#000000">DPTree::samples_left</text>
<text text-anchor="middle" x="920" y="-176" font-family="Helvetica,sans-Serif" font-size="10.00" fill="#000000">_right_partition</text>
</a>
</g>
</g>
<!-- Node10&#45;&gt;Node14 -->
<g id="edge16" class="edge">
<title>Node10&#45;&gt;Node14</title>
<path fill="none" stroke="#191970" d="M489.6825,-199.5102C507.1162,-203.2753 527.9661,-207.144 547,-209 671.2994,-221.1204 704.2085,-225.52 828,-209 839.92,-207.4093 852.4845,-204.7077 864.3675,-201.6541"/>
<polygon fill="#191970" stroke="#191970" points="865.4106,-204.998 874.1598,-199.0228 863.5941,-198.2378 865.4106,-204.998"/>
</g>
<!-- Node13 -->
<g id="node14" class="node">
<title>Node13</title>
<g id="a_node14"><a xlink:href="class_d_p_tree.html#ab9426a6ac2e5122e29ecbb6e9c4cd050" target="_top" xlink:title="DPTree::compute_gain">
<polygon fill="#ffffff" stroke="#000000" points="711,-130.5 711,-149.5 828,-149.5 828,-130.5 711,-130.5"/>
<text text-anchor="middle" x="769.5" y="-137.5" font-family="Helvetica,sans-Serif" font-size="10.00" fill="#000000">DPTree::compute_gain</text>
</a>
</g>
</g>
<!-- Node12&#45;&gt;Node13 -->
<g id="edge13" class="edge">
<title>Node12&#45;&gt;Node13</title>
<path fill="none" stroke="#191970" d="M670.9221,-147.4633C680.6166,-146.7293 690.722,-145.9643 700.6086,-145.2157"/>
<polygon fill="#191970" stroke="#191970" points="701.0987,-148.6888 710.8059,-144.4437 700.5702,-141.7087 701.0987,-148.6888"/>
</g>
<!-- Node15 -->
<g id="node16" class="node">
<title>Node15</title>
<g id="a_node16"><a xlink:href="class_d_p_tree.html#a7ce368c3888736d660dcf09587df4512" target="_top" xlink:title="DPTree::exponential\l_mechanism">
<polygon fill="#ffffff" stroke="#000000" points="716.5,-169 716.5,-199 822.5,-199 822.5,-169 716.5,-169"/>
<text text-anchor="start" x="724.5" y="-187" font-family="Helvetica,sans-Serif" font-size="10.00" fill="#000000">DPTree::exponential</text>
<text text-anchor="middle" x="769.5" y="-176" font-family="Helvetica,sans-Serif" font-size="10.00" fill="#000000">_mechanism</text>
</a>
</g>
</g>
<!-- Node12&#45;&gt;Node15 -->
<g id="edge15" class="edge">
<title>Node12&#45;&gt;Node15</title>
<path fill="none" stroke="#191970" d="M658.1261,-161.5144C673.3154,-164.581 690.3999,-168.0303 706.5419,-171.2892"/>
<polygon fill="#191970" stroke="#191970" points="705.9505,-174.7404 716.4454,-173.2887 707.3359,-167.8788 705.9505,-174.7404"/>
</g>
<!-- Node13&#45;&gt;Node14 -->
<g id="edge14" class="edge">
<title>Node13&#45;&gt;Node14</title>
<path fill="none" stroke="#191970" d="M802.1563,-149.5473C818.7226,-154.3906 839.3955,-160.4346 858.7806,-166.102"/>
<polygon fill="#191970" stroke="#191970" points="857.8892,-169.4878 868.4696,-168.9346 859.8536,-162.7691 857.8892,-169.4878"/>
</g>
</g>
</svg>
