<?xml version="1.0" encoding="UTF-8" standalone="no"?>
<!DOCTYPE svg PUBLIC "-//W3C//DTD SVG 1.1//EN"
 "http://www.w3.org/Graphics/SVG/1.1/DTD/svg11.dtd">
<!-- Generated by graphviz version 2.40.1 (20161225.0304)
 -->
<!-- Title: src/main.cpp Pages: 1 -->
<svg width="703pt" height="420pt"
 viewBox="0.00 0.00 702.73 420.00" xmlns="http://www.w3.org/2000/svg" xmlns:xlink="http://www.w3.org/1999/xlink">
<g id="graph0" class="graph" transform="scale(1 1) rotate(0) translate(4 416)">
<title>src/main.cpp</title>
<polygon fill="#ffffff" stroke="transparent" points="-4,4 -4,-416 698.7302,-416 698.7302,4 -4,4"/>
<!-- Node0 -->
<g id="node1" class="node">
<title>Node0</title>
<polygon fill="#bfbfbf" stroke="#000000" points="427.2302,-392.5 427.2302,-411.5 500.2302,-411.5 500.2302,-392.5 427.2302,-392.5"/>
<text text-anchor="middle" x="463.7302" y="-399.5" font-family="Helvetica,sans-Serif" font-size="10.00" fill="#000000">src/main.cpp</text>
</g>
<!-- Node1 -->
<g id="node2" class="node">
<title>Node1</title>
<polygon fill="#ffffff" stroke="#bfbfbf" points="26.2302,-336.5 26.2302,-355.5 77.2302,-355.5 77.2302,-336.5 26.2302,-336.5"/>
<text text-anchor="middle" x="51.7302" y="-343.5" font-family="Helvetica,sans-Serif" font-size="10.00" fill="#000000">numeric</text>
</g>
<!-- Node0&#45;&gt;Node1 -->
<g id="edge1" class="edge">
<title>Node0&#45;&gt;Node1</title>
<path fill="none" stroke="#191970" d="M427.0694,-398.9615C360.0894,-393.0792 213.6057,-378.6823 91.7302,-356 90.2787,-355.7299 88.8015,-355.4384 87.3121,-355.1307"/>
<polygon fill="#191970" stroke="#191970" points="87.973,-351.692 77.4496,-352.9202 86.442,-358.5226 87.973,-351.692"/>
</g>
<!-- Node2 -->
<g id="node3" class="node">
<title>Node2</title>
<polygon fill="#ffffff" stroke="#bfbfbf" points="153.7302,-.5 153.7302,-19.5 197.7302,-19.5 197.7302,-.5 153.7302,-.5"/>
<text text-anchor="middle" x="175.7302" y="-7.5" font-family="Helvetica,sans-Serif" font-size="10.00" fill="#000000">vector</text>
</g>
<!-- Node0&#45;&gt;Node2 -->
<g id="edge2" class="edge">
<title>Node0&#45;&gt;Node2</title>
<path fill="none" stroke="#191970" d="M466.5337,-392.2066C471.8188,-372.8521 482.7302,-328.2612 482.7302,-290 482.7302,-290 482.7302,-290 482.7302,-122 482.7302,-64.0209 287.0423,-27.2302 208.1354,-14.7518"/>
<polygon fill="#191970" stroke="#191970" points="208.2267,-11.2243 197.8088,-13.1528 207.1554,-18.1419 208.2267,-11.2243"/>
</g>
<!-- Node3 -->
<g id="node4" class="node">
<title>Node3</title>
<polygon fill="#ffffff" stroke="#bfbfbf" points="510.7302,-336.5 510.7302,-355.5 564.7302,-355.5 564.7302,-336.5 510.7302,-336.5"/>
<text text-anchor="middle" x="537.7302" y="-343.5" font-family="Helvetica,sans-Serif" font-size="10.00" fill="#000000">iostream</text>
</g>
<!-- Node0&#45;&gt;Node3 -->
<g id="edge3" class="edge">
<title>Node0&#45;&gt;Node3</title>
<path fill="none" stroke="#191970" d="M476.62,-392.2455C487.6555,-383.8943 503.7594,-371.7076 516.6655,-361.9408"/>
<polygon fill="#191970" stroke="#191970" points="519.126,-364.4681 524.9881,-355.6427 514.9019,-358.8862 519.126,-364.4681"/>
</g>
<!-- Node4 -->
<g id="node5" class="node">
<title>Node4</title>
<polygon fill="#ffffff" stroke="#bfbfbf" points="582.7302,-336.5 582.7302,-355.5 632.7302,-355.5 632.7302,-336.5 582.7302,-336.5"/>
<text text-anchor="middle" x="607.7302" y="-343.5" font-family="Helvetica,sans-Serif" font-size="10.00" fill="#000000">iomanip</text>
</g>
<!-- Node0&#45;&gt;Node4 -->
<g id="edge4" class="edge">
<title>Node0&#45;&gt;Node4</title>
<path fill="none" stroke="#191970" d="M488.4846,-392.3733C512.015,-383.2226 547.5988,-369.3844 573.7728,-359.2057"/>
<polygon fill="#191970" stroke="#191970" points="575.2472,-362.3877 583.2987,-355.5011 572.7101,-355.8636 575.2472,-362.3877"/>
</g>
<!-- Node5 -->
<g id="node6" class="node">
<title>Node5</title>
<polygon fill="#ffffff" stroke="#bfbfbf" points="650.7302,-336.5 650.7302,-355.5 694.7302,-355.5 694.7302,-336.5 650.7302,-336.5"/>
<text text-anchor="middle" x="672.7302" y="-343.5" font-family="Helvetica,sans-Serif" font-size="10.00" fill="#000000">cmath</text>
</g>
<!-- Node0&#45;&gt;Node5 -->
<g id="edge5" class="edge">
<title>Node0&#45;&gt;Node5</title>
<path fill="none" stroke="#191970" d="M500.3792,-393.2012C534.443,-384.8742 586.7927,-371.7002 640.7037,-356.1874"/>
<polygon fill="#191970" stroke="#191970" points="641.7977,-359.5144 650.4277,-353.3684 639.8486,-352.7913 641.7977,-359.5144"/>
</g>
<!-- Node6 -->
<g id="node7" class="node">
<title>Node6</title>
<g id="a_node7"><a xlink:href="parameters_8h.html" target="_top" xlink:title="parameters.h">
<polygon fill="#ffffff" stroke="#000000" points="225.7302,-112.5 225.7302,-131.5 299.7302,-131.5 299.7302,-112.5 225.7302,-112.5"/>
<text text-anchor="middle" x="262.7302" y="-119.5" font-family="Helvetica,sans-Serif" font-size="10.00" fill="#000000">parameters.h</text>
</a>
</g>
</g>
<!-- Node0&#45;&gt;Node6 -->
<g id="edge6" class="edge">
<title>Node0&#45;&gt;Node6</title>
<path fill="none" stroke="#191970" d="M460.9266,-392.2066C455.6415,-372.8521 444.7302,-328.2612 444.7302,-290 444.7302,-290 444.7302,-290 444.7302,-234 444.7302,-170.7391 363.989,-142.0622 310.0632,-129.9639"/>
<polygon fill="#191970" stroke="#191970" points="310.5087,-126.4806 299.9998,-127.8266 309.0544,-133.3278 310.5087,-126.4806"/>
</g>
<!-- Node9 -->
<g id="node10" class="node">
<title>Node9</title>
<g id="a_node10"><a xlink:href="dp__ensemble_8h.html" target="_top" xlink:title="gbdt/dp_ensemble.h">
<polygon fill="#ffffff" stroke="#000000" points="291.7302,-336.5 291.7302,-355.5 395.7302,-355.5 395.7302,-336.5 291.7302,-336.5"/>
<text text-anchor="middle" x="343.7302" y="-343.5" font-family="Helvetica,sans-Serif" font-size="10.00" fill="#000000">gbdt/dp_ensemble.h</text>
</a>
</g>
</g>
<!-- Node0&#45;&gt;Node9 -->
<g id="edge11" class="edge">
<title>Node0&#45;&gt;Node9</title>
<path fill="none" stroke="#191970" d="M443.1014,-392.3733C423.8383,-383.3838 394.8815,-369.8706 373.1882,-359.7471"/>
<polygon fill="#191970" stroke="#191970" points="374.6317,-356.5584 364.0897,-355.5011 371.6714,-362.9017 374.6317,-356.5584"/>
</g>
<!-- Node14 -->
<g id="node15" class="node">
<title>Node14</title>
<g id="a_node15"><a xlink:href="data_8h.html" target="_top" xlink:title="data.h">
<polygon fill="#ffffff" stroke="#000000" points="28.7302,-224.5 28.7302,-243.5 72.7302,-243.5 72.7302,-224.5 28.7302,-224.5"/>
<text text-anchor="middle" x="50.7302" y="-231.5" font-family="Helvetica,sans-Serif" font-size="10.00" fill="#000000">data.h</text>
</a>
</g>
</g>
<!-- Node0&#45;&gt;Node14 -->
<g id="edge31" class="edge">
<title>Node0&#45;&gt;Node14</title>
<path fill="none" stroke="#191970" d="M427.2252,-397.347C361.7342,-387.708 221.7049,-361.1338 120.7302,-300 99.231,-286.9836 78.8218,-266.4673 65.6487,-251.7643"/>
<polygon fill="#191970" stroke="#191970" points="67.9848,-249.1177 58.7752,-243.8799 62.7083,-253.7176 67.9848,-249.1177"/>
</g>
<!-- Node6&#45;&gt;Node2 -->
<g id="edge8" class="edge">
<title>Node6&#45;&gt;Node2</title>
<path fill="none" stroke="#191970" d="M241.0418,-112.3358C225.9693,-104.5635 206.5403,-92.2604 194.7302,-76 184.8884,-62.4498 180.1267,-43.9013 177.8332,-29.9179"/>
<polygon fill="#191970" stroke="#191970" points="181.2824,-29.3054 176.4732,-19.8649 174.3455,-30.2439 181.2824,-29.3054"/>
</g>
<!-- Node7 -->
<g id="node8" class="node">
<title>Node7</title>
<polygon fill="#ffffff" stroke="#bfbfbf" points="203.7302,-56.5 203.7302,-75.5 255.7302,-75.5 255.7302,-56.5 203.7302,-56.5"/>
<text text-anchor="middle" x="229.7302" y="-63.5" font-family="Helvetica,sans-Serif" font-size="10.00" fill="#000000">memory</text>
</g>
<!-- Node6&#45;&gt;Node7 -->
<g id="edge7" class="edge">
<title>Node6&#45;&gt;Node7</title>
<path fill="none" stroke="#191970" d="M256.982,-112.2455C252.4866,-104.617 246.1053,-93.7881 240.6477,-84.5267"/>
<polygon fill="#191970" stroke="#191970" points="243.5048,-82.4811 235.4124,-75.6427 237.474,-86.035 243.5048,-82.4811"/>
</g>
<!-- Node8 -->
<g id="node9" class="node">
<title>Node8</title>
<g id="a_node9"><a xlink:href="loss_8h.html" target="_top" xlink:title="loss.h">
<polygon fill="#ffffff" stroke="#000000" points="274.2302,-56.5 274.2302,-75.5 317.2302,-75.5 317.2302,-56.5 274.2302,-56.5"/>
<text text-anchor="middle" x="295.7302" y="-63.5" font-family="Helvetica,sans-Serif" font-size="10.00" fill="#000000">loss.h</text>
</a>
</g>
</g>
<!-- Node6&#45;&gt;Node8 -->
<g id="edge9" class="edge">
<title>Node6&#45;&gt;Node8</title>
<path fill="none" stroke="#191970" d="M268.4783,-112.2455C272.9737,-104.617 279.355,-93.7881 284.8126,-84.5267"/>
<polygon fill="#191970" stroke="#191970" points="287.9863,-86.035 290.0479,-75.6427 281.9555,-82.4811 287.9863,-86.035"/>
</g>
<!-- Node8&#45;&gt;Node2 -->
<g id="edge10" class="edge">
<title>Node8&#45;&gt;Node2</title>
<path fill="none" stroke="#191970" d="M275.1014,-56.3733C255.8383,-47.3838 226.8815,-33.8706 205.1882,-23.7471"/>
<polygon fill="#191970" stroke="#191970" points="206.6317,-20.5584 196.0897,-19.5011 203.6714,-26.9017 206.6317,-20.5584"/>
</g>
<!-- Node9&#45;&gt;Node2 -->
<g id="edge12" class="edge">
<title>Node9&#45;&gt;Node2</title>
<path fill="none" stroke="#191970" d="M353.8522,-336.2465C371.6608,-317.984 406.7302,-276.6112 406.7302,-234 406.7302,-234 406.7302,-234 406.7302,-122 406.7302,-75.9062 367.3404,-77.8048 326.7302,-56 288.3347,-35.3844 239.3741,-22.6309 207.7899,-15.9269"/>
<polygon fill="#191970" stroke="#191970" points="208.2835,-12.4555 197.7852,-13.8826 206.8821,-19.3138 208.2835,-12.4555"/>
</g>
<!-- Node9&#45;&gt;Node6 -->
<g id="edge29" class="edge">
<title>Node9&#45;&gt;Node6</title>
<path fill="none" stroke="#191970" d="M346.6605,-336.4377C352.6031,-315.353 364.3233,-263.5967 349.7302,-224 336.514,-188.1397 304.4587,-156.3177 283.1692,-138.1071"/>
<polygon fill="#191970" stroke="#191970" points="285.2587,-135.2929 275.3294,-131.597 280.7867,-140.6782 285.2587,-135.2929"/>
</g>
<!-- Node10 -->
<g id="node11" class="node">
<title>Node10</title>
<polygon fill="#ffffff" stroke="#bfbfbf" points="290.7302,-224.5 290.7302,-243.5 340.7302,-243.5 340.7302,-224.5 290.7302,-224.5"/>
<text text-anchor="middle" x="315.7302" y="-231.5" font-family="Helvetica,sans-Serif" font-size="10.00" fill="#000000">fstream</text>
</g>
<!-- Node9&#45;&gt;Node10 -->
<g id="edge13" class="edge">
<title>Node9&#45;&gt;Node10</title>
<path fill="none" stroke="#191970" d="M341.3429,-336.4509C336.7555,-318.1013 326.6279,-277.5908 320.5725,-253.3693"/>
<polygon fill="#191970" stroke="#191970" points="323.9323,-252.3774 318.1114,-243.5249 317.1413,-254.0752 323.9323,-252.3774"/>
</g>
<!-- Node11 -->
<g id="node12" class="node">
<title>Node11</title>
<g id="a_node12"><a xlink:href="dp__tree_8h.html" target="_top" xlink:title="dp_tree.h">
<polygon fill="#ffffff" stroke="#000000" points="172.2302,-280.5 172.2302,-299.5 229.2302,-299.5 229.2302,-280.5 172.2302,-280.5"/>
<text text-anchor="middle" x="200.7302" y="-287.5" font-family="Helvetica,sans-Serif" font-size="10.00" fill="#000000">dp_tree.h</text>
</a>
</g>
</g>
<!-- Node9&#45;&gt;Node11 -->
<g id="edge14" class="edge">
<title>Node9&#45;&gt;Node11</title>
<path fill="none" stroke="#191970" d="M319.1476,-336.3733C295.7806,-327.2226 260.4439,-313.3844 234.4517,-303.2057"/>
<polygon fill="#191970" stroke="#191970" points="235.5797,-299.8886 224.992,-299.5011 233.0271,-306.4066 235.5797,-299.8886"/>
</g>
<!-- Node9&#45;&gt;Node14 -->
<g id="edge30" class="edge">
<title>Node9&#45;&gt;Node14</title>
<path fill="none" stroke="#191970" d="M291.6882,-336.7041C255.0656,-329.2066 205.3563,-317.082 163.7302,-300 130.2939,-286.2788 94.7776,-264.1244 72.678,-249.3164"/>
<polygon fill="#191970" stroke="#191970" points="74.5862,-246.3815 64.3481,-243.6554 70.6516,-252.171 74.5862,-246.3815"/>
</g>
<!-- Node11&#45;&gt;Node2 -->
<g id="edge15" class="edge">
<title>Node11&#45;&gt;Node2</title>
<path fill="none" stroke="#191970" d="M172.023,-286.2169C126.6602,-279.6791 41.3257,-264.9273 19.7302,-244 -2.1905,-222.7576 .7302,-208.5246 .7302,-178 .7302,-178 .7302,-178 .7302,-122 .7302,-54.9846 92.8982,-26.251 143.4572,-15.5304"/>
<polygon fill="#191970" stroke="#191970" points="144.4468,-18.9019 153.5663,-13.5089 143.0741,-12.0378 144.4468,-18.9019"/>
</g>
<!-- Node11&#45;&gt;Node6 -->
<g id="edge19" class="edge">
<title>Node11&#45;&gt;Node6</title>
<path fill="none" stroke="#191970" d="M213.0497,-280.4544C223.0228,-272.0022 236.5519,-258.7433 243.7302,-244 259.9236,-210.7407 262.9188,-166.8832 263.1512,-141.8296"/>
<polygon fill="#191970" stroke="#191970" points="266.6508,-141.7297 263.1011,-131.7472 259.6509,-141.7646 266.6508,-141.7297"/>
</g>
<!-- Node11&#45;&gt;Node10 -->
<g id="edge17" class="edge">
<title>Node11&#45;&gt;Node10</title>
<path fill="none" stroke="#191970" d="M220.4994,-280.3733C238.8771,-271.4241 266.4614,-257.9917 287.2194,-247.8835"/>
<polygon fill="#191970" stroke="#191970" points="288.7606,-251.026 296.2189,-243.5011 285.6959,-244.7325 288.7606,-251.026"/>
</g>
<!-- Node12 -->
<g id="node13" class="node">
<title>Node12</title>
<polygon fill="#ffffff" stroke="#bfbfbf" points="140.7302,-168.5 140.7302,-187.5 170.7302,-187.5 170.7302,-168.5 140.7302,-168.5"/>
<text text-anchor="middle" x="155.7302" y="-175.5" font-family="Helvetica,sans-Serif" font-size="10.00" fill="#000000">set</text>
</g>
<!-- Node11&#45;&gt;Node12 -->
<g id="edge16" class="edge">
<title>Node11&#45;&gt;Node12</title>
<path fill="none" stroke="#191970" d="M187.5205,-280.3335C177.3047,-271.9956 163.8963,-258.9583 157.7302,-244 151.7229,-229.4272 151.5918,-211.4686 152.7576,-197.9655"/>
<polygon fill="#191970" stroke="#191970" points="156.256,-198.1817 153.9413,-187.8428 149.3034,-197.3686 156.256,-198.1817"/>
</g>
<!-- Node13 -->
<g id="node14" class="node">
<title>Node13</title>
<g id="a_node14"><a xlink:href="tree__node_8h.html" target="_top" xlink:title="tree_node.h">
<polygon fill="#ffffff" stroke="#000000" points="166.7302,-224.5 166.7302,-243.5 234.7302,-243.5 234.7302,-224.5 166.7302,-224.5"/>
<text text-anchor="middle" x="200.7302" y="-231.5" font-family="Helvetica,sans-Serif" font-size="10.00" fill="#000000">tree_node.h</text>
</a>
</g>
</g>
<!-- Node11&#45;&gt;Node13 -->
<g id="edge18" class="edge">
<title>Node11&#45;&gt;Node13</title>
<path fill="none" stroke="#191970" d="M200.7302,-280.2455C200.7302,-272.9382 200.7302,-262.6944 200.7302,-253.7046"/>
<polygon fill="#191970" stroke="#191970" points="204.2303,-253.6426 200.7302,-243.6427 197.2303,-253.6427 204.2303,-253.6426"/>
</g>
<!-- Node11&#45;&gt;Node14 -->
<g id="edge20" class="edge">
<title>Node11&#45;&gt;Node14</title>
<path fill="none" stroke="#191970" d="M174.9442,-280.3733C149.281,-270.7923 109.8537,-256.0728 82.3241,-245.7951"/>
<polygon fill="#191970" stroke="#191970" points="83.3601,-242.4459 72.7675,-242.2273 80.9117,-249.0038 83.3601,-242.4459"/>
</g>
<!-- Node15 -->
<g id="node16" class="node">
<title>Node15</title>
<g id="a_node16"><a xlink:href="utils_8h.html" target="_top" xlink:title="utils.h">
<polygon fill="#ffffff" stroke="#000000" points="79.2302,-168.5 79.2302,-187.5 122.2302,-187.5 122.2302,-168.5 79.2302,-168.5"/>
<text text-anchor="middle" x="100.7302" y="-175.5" font-family="Helvetica,sans-Serif" font-size="10.00" fill="#000000">utils.h</text>
</a>
</g>
</g>
<!-- Node11&#45;&gt;Node15 -->
<g id="edge28" class="edge">
<title>Node11&#45;&gt;Node15</title>
<path fill="none" stroke="#191970" d="M188.4887,-280.4535C177.496,-271.5926 161.2143,-257.7365 148.7302,-244 135.1036,-229.0065 121.7232,-210.1697 112.5658,-196.4618"/>
<polygon fill="#191970" stroke="#191970" points="115.3615,-194.3426 106.9496,-187.9013 109.5086,-198.1824 115.3615,-194.3426"/>
</g>
<!-- Node14&#45;&gt;Node2 -->
<g id="edge21" class="edge">
<title>Node14&#45;&gt;Node2</title>
<path fill="none" stroke="#191970" d="M52.7443,-224.3559C55.6454,-211.2774 61.5633,-187.3314 69.7302,-168 92.0415,-115.1879 99.9739,-102.3404 133.7302,-56 141.161,-45.799 150.5452,-35.3391 158.5575,-26.9762"/>
<polygon fill="#191970" stroke="#191970" points="161.2107,-29.2694 165.7106,-19.6776 156.2114,-24.3697 161.2107,-29.2694"/>
</g>
<!-- Node14&#45;&gt;Node12 -->
<g id="edge22" class="edge">
<title>Node14&#45;&gt;Node12</title>
<path fill="none" stroke="#191970" d="M69.0198,-224.2455C86.4112,-214.9701 112.6738,-200.9634 131.7383,-190.7957"/>
<polygon fill="#191970" stroke="#191970" points="133.5307,-193.8064 140.7072,-186.0123 130.2365,-187.63 133.5307,-193.8064"/>
</g>
<!-- Node14&#45;&gt;Node15 -->
<g id="edge23" class="edge">
<title>Node14&#45;&gt;Node15</title>
<path fill="none" stroke="#191970" d="M54.1726,-224.2455C59.8479,-216.1352 69.9932,-204.4075 79.493,-194.7919"/>
<polygon fill="#191970" stroke="#191970" points="82.1267,-197.1137 86.8755,-187.6427 77.257,-192.0851 82.1267,-197.1137"/>
</g>
<!-- Node15&#45;&gt;Node2 -->
<g id="edge24" class="edge">
<title>Node15&#45;&gt;Node2</title>
<path fill="none" stroke="#191970" d="M102.9967,-168.392C106.2166,-155.3545 112.6334,-131.4546 120.7302,-112 133.4188,-81.5121 152.4469,-48.1877 164.4687,-28.1978"/>
<polygon fill="#191970" stroke="#191970" points="167.5373,-29.8881 169.7491,-19.5267 161.5586,-26.2473 167.5373,-29.8881"/>
</g>
<!-- Node15&#45;&gt;Node6 -->
<g id="edge26" class="edge">
<title>Node15&#45;&gt;Node6</title>
<path fill="none" stroke="#191970" d="M122.2425,-170.5636C148.6064,-161.4502 193.7088,-145.8592 225.6922,-134.8033"/>
<polygon fill="#191970" stroke="#191970" points="226.8539,-138.105 235.1616,-131.5299 224.5669,-131.4891 226.8539,-138.105"/>
</g>
<!-- Node15&#45;&gt;Node14 -->
<g id="edge27" class="edge">
<title>Node15&#45;&gt;Node14</title>
<path fill="none" stroke="#191970" d="M97.3658,-187.6427C91.7318,-195.7196 81.6041,-207.4402 72.0986,-217.0751"/>
<polygon fill="#191970" stroke="#191970" points="69.4474,-214.7707 64.7063,-224.2455 74.3212,-219.7953 69.4474,-214.7707"/>
</g>
<!-- Node16 -->
<g id="node17" class="node">
<title>Node16</title>
<polygon fill="#ffffff" stroke="#bfbfbf" points="129.2302,-112.5 129.2302,-131.5 170.2302,-131.5 170.2302,-112.5 129.2302,-112.5"/>
<text text-anchor="middle" x="149.7302" y="-119.5" font-family="Helvetica,sans-Serif" font-size="10.00" fill="#000000">string</text>
</g>
<!-- Node15&#45;&gt;Node16 -->
<g id="edge25" class="edge">
<title>Node15&#45;&gt;Node16</title>
<path fill="none" stroke="#191970" d="M109.2653,-168.2455C116.2213,-160.2958 126.2184,-148.8706 134.5353,-139.3656"/>
<polygon fill="#191970" stroke="#191970" points="137.3418,-141.4732 141.2928,-131.6427 132.0737,-136.8637 137.3418,-141.4732"/>
</g>
</g>
</svg>
