<?xml version="1.0" encoding="UTF-8" standalone="no"?>
<!DOCTYPE svg PUBLIC "-//W3C//DTD SVG 1.1//EN"
 "http://www.w3.org/Graphics/SVG/1.1/DTD/svg11.dtd">
<!-- Generated by graphviz version 2.40.1 (20161225.0304)
 -->
<!-- Title: include/parameters.h Pages: 1 -->
<svg width="160pt" height="140pt"
 viewBox="0.00 0.00 159.50 140.00" xmlns="http://www.w3.org/2000/svg" xmlns:xlink="http://www.w3.org/1999/xlink">
<g id="graph0" class="graph" transform="scale(1 1) rotate(0) translate(4 136)">
<title>include/parameters.h</title>
<polygon fill="#ffffff" stroke="transparent" points="-4,4 -4,-136 155.5,-136 155.5,4 -4,4"/>
<!-- Node0 -->
<g id="node1" class="node">
<title>Node0</title>
<polygon fill="#bfbfbf" stroke="#000000" points="26.5,-112.5 26.5,-131.5 133.5,-131.5 133.5,-112.5 26.5,-112.5"/>
<text text-anchor="middle" x="80" y="-119.5" font-family="Helvetica,sans-Serif" font-size="10.00" fill="#000000">include/parameters.h</text>
</g>
<!-- Node1 -->
<g id="node2" class="node">
<title>Node1</title>
<polygon fill="#ffffff" stroke="#bfbfbf" points="0,-56.5 0,-75.5 52,-75.5 52,-56.5 0,-56.5"/>
<text text-anchor="middle" x="26" y="-63.5" font-family="Helvetica,sans-Serif" font-size="10.00" fill="#000000">memory</text>
</g>
<!-- Node0&#45;&gt;Node1 -->
<g id="edge1" class="edge">
<title>Node0&#45;&gt;Node1</title>
<path fill="none" stroke="#191970" d="M70.5939,-112.2455C62.8507,-104.2155 51.688,-92.6394 42.4682,-83.0781"/>
<polygon fill="#191970" stroke="#191970" points="44.7591,-80.4117 35.2983,-75.6427 39.7202,-85.2706 44.7591,-80.4117"/>
</g>
<!-- Node2 -->
<g id="node3" class="node">
<title>Node2</title>
<polygon fill="#ffffff" stroke="#bfbfbf" points="83,-.5 83,-19.5 127,-19.5 127,-.5 83,-.5"/>
<text text-anchor="middle" x="105" y="-7.5" font-family="Helvetica,sans-Serif" font-size="10.00" fill="#000000">vector</text>
</g>
<!-- Node0&#45;&gt;Node2 -->
<g id="edge2" class="edge">
<title>Node0&#45;&gt;Node2</title>
<path fill="none" stroke="#191970" d="M82.1315,-112.4509C86.2274,-94.1013 95.2699,-53.5908 100.6765,-29.3693"/>
<polygon fill="#191970" stroke="#191970" points="104.1112,-30.0472 102.8739,-19.5249 97.2794,-28.5222 104.1112,-30.0472"/>
</g>
<!-- Node3 -->
<g id="node4" class="node">
<title>Node3</title>
<g id="a_node4"><a xlink:href="loss_8h.html" target="_top" xlink:title="loss.h">
<polygon fill="#ffffff" stroke="#000000" points="108.5,-56.5 108.5,-75.5 151.5,-75.5 151.5,-56.5 108.5,-56.5"/>
<text text-anchor="middle" x="130" y="-63.5" font-family="Helvetica,sans-Serif" font-size="10.00" fill="#000000">loss.h</text>
</a>
</g>
</g>
<!-- Node0&#45;&gt;Node3 -->
<g id="edge3" class="edge">
<title>Node0&#45;&gt;Node3</title>
<path fill="none" stroke="#191970" d="M88.7093,-112.2455C95.8073,-104.2958 106.0084,-92.8706 114.495,-83.3656"/>
<polygon fill="#191970" stroke="#191970" points="117.3411,-85.4331 121.3905,-75.6427 112.1195,-80.771 117.3411,-85.4331"/>
</g>
<!-- Node3&#45;&gt;Node2 -->
<g id="edge4" class="edge">
<title>Node3&#45;&gt;Node2</title>
<path fill="none" stroke="#191970" d="M125.6453,-56.2455C122.2756,-48.6973 117.507,-38.0158 113.4017,-28.8197"/>
<polygon fill="#191970" stroke="#191970" points="116.5773,-27.3473 109.3048,-19.6427 110.1853,-30.2009 116.5773,-27.3473"/>
</g>
</g>
</svg>
