<?xml version="1.0" encoding="UTF-8" standalone="no"?>
<!DOCTYPE svg PUBLIC "-//W3C//DTD SVG 1.1//EN"
 "http://www.w3.org/Graphics/SVG/1.1/DTD/svg11.dtd">
<!-- Generated by graphviz version 2.40.1 (20161225.0304)
 -->
<!-- Title: DataSet::get_subset Pages: 1 -->
<svg width="324pt" height="28pt"
 viewBox="0.00 0.00 324.00 28.00" xmlns="http://www.w3.org/2000/svg" xmlns:xlink="http://www.w3.org/1999/xlink">
<g id="graph0" class="graph" transform="scale(1 1) rotate(0) translate(4 24)">
<title>DataSet::get_subset</title>
<polygon fill="#ffffff" stroke="transparent" points="-4,4 -4,-24 320,-24 320,4 -4,4"/>
<!-- Node9 -->
<g id="node1" class="node">
<title>Node9</title>
<polygon fill="#bfbfbf" stroke="#000000" points="0,-.5 0,-19.5 107,-19.5 107,-.5 0,-.5"/>
<text text-anchor="middle" x="53.5" y="-7.5" font-family="Helvetica,sans-Serif" font-size="10.00" fill="#000000">DataSet::get_subset</text>
</g>
<!-- Node10 -->
<g id="node2" class="node">
<title>Node10</title>
<g id="a_node2"><a xlink:href="class_d_p_ensemble.html#a1652b5fde834bfb18416ebf438d3e10a" target="_top" xlink:title="DPEnsemble::train">
<polygon fill="#ffffff" stroke="#000000" points="143,-.5 143,-19.5 242,-19.5 242,-.5 143,-.5"/>
<text text-anchor="middle" x="192.5" y="-7.5" font-family="Helvetica,sans-Serif" font-size="10.00" fill="#000000">DPEnsemble::train</text>
</a>
</g>
</g>
<!-- Node9&#45;&gt;Node10 -->
<g id="edge1" class="edge">
<title>Node9&#45;&gt;Node10</title>
<path fill="none" stroke="#191970" d="M117.2864,-10C125.9173,-10 134.6665,-10 142.9968,-10"/>
<polygon fill="#191970" stroke="#191970" points="117.2411,-6.5001 107.241,-10 117.241,-13.5001 117.2411,-6.5001"/>
</g>
<!-- Node11 -->
<g id="node3" class="node">
<title>Node11</title>
<g id="a_node3"><a xlink:href="main_8cpp.html#a3c04138a5bfe5d72780bb7e82a18e627" target="_top" xlink:title="main">
<polygon fill="#ffffff" stroke="#000000" points="278,-.5 278,-19.5 316,-19.5 316,-.5 278,-.5"/>
<text text-anchor="middle" x="297" y="-7.5" font-family="Helvetica,sans-Serif" font-size="10.00" fill="#000000">main</text>
</a>
</g>
</g>
<!-- Node10&#45;&gt;Node11 -->
<g id="edge2" class="edge">
<title>Node10&#45;&gt;Node11</title>
<path fill="none" stroke="#191970" d="M252.3404,-10C261.5271,-10 270.394,-10 277.7722,-10"/>
<polygon fill="#191970" stroke="#191970" points="252.3016,-6.5001 242.3016,-10 252.3015,-13.5001 252.3016,-6.5001"/>
</g>
</g>
</svg>
