<?xml version="1.0" encoding="UTF-8" standalone="no"?>
<!DOCTYPE svg PUBLIC "-//W3C//DTD SVG 1.1//EN"
 "http://www.w3.org/Graphics/SVG/1.1/DTD/svg11.dtd">
<!-- Generated by graphviz version 2.40.1 (20161225.0304)
 -->
<!-- Title: DataSet::DataSet Pages: 1 -->
<svg width="418pt" height="39pt"
 viewBox="0.00 0.00 418.00 39.00" xmlns="http://www.w3.org/2000/svg" xmlns:xlink="http://www.w3.org/1999/xlink">
<g id="graph0" class="graph" transform="scale(1 1) rotate(0) translate(4 35)">
<title>DataSet::DataSet</title>
<polygon fill="#ffffff" stroke="transparent" points="-4,4 -4,-35 414,-35 414,4 -4,4"/>
<!-- Node1 -->
<g id="node1" class="node">
<title>Node1</title>
<polygon fill="#bfbfbf" stroke="#000000" points="0,-6 0,-25 95,-25 95,-6 0,-6"/>
<text text-anchor="middle" x="47.5" y="-13" font-family="Helvetica,sans-Serif" font-size="10.00" fill="#000000">DataSet::DataSet</text>
</g>
<!-- Node2 -->
<g id="node2" class="node">
<title>Node2</title>
<g id="a_node2"><a xlink:href="data_8cpp.html#a92f53534e1457b64d825fa24610631d3" target="_top" xlink:title="train_test_split_random">
<polygon fill="#ffffff" stroke="#000000" points="131,-6 131,-25 249,-25 249,-6 131,-6"/>
<text text-anchor="middle" x="190" y="-13" font-family="Helvetica,sans-Serif" font-size="10.00" fill="#000000">train_test_split_random</text>
</a>
</g>
</g>
<!-- Node1&#45;&gt;Node2 -->
<g id="edge1" class="edge">
<title>Node1&#45;&gt;Node2</title>
<path fill="none" stroke="#191970" d="M105.4258,-15.5C113.8198,-15.5 122.4695,-15.5 130.8864,-15.5"/>
<polygon fill="#191970" stroke="#191970" points="105.3469,-12.0001 95.3469,-15.5 105.3468,-19.0001 105.3469,-12.0001"/>
</g>
<!-- Node3 -->
<g id="node3" class="node">
<title>Node3</title>
<g id="a_node3"><a xlink:href="struct_train_test_split.html#a31428fbb8eeabbaee4bc9dbb56292b7b" target="_top" xlink:title="TrainTestSplit::TrainTest\lSplit">
<polygon fill="#ffffff" stroke="#000000" points="285,-.5 285,-30.5 410,-30.5 410,-.5 285,-.5"/>
<text text-anchor="start" x="293" y="-18.5" font-family="Helvetica,sans-Serif" font-size="10.00" fill="#000000">TrainTestSplit::TrainTest</text>
<text text-anchor="middle" x="347.5" y="-7.5" font-family="Helvetica,sans-Serif" font-size="10.00" fill="#000000">Split</text>
</a>
</g>
</g>
<!-- Node2&#45;&gt;Node3 -->
<g id="edge2" class="edge">
<title>Node2&#45;&gt;Node3</title>
<path fill="none" stroke="#191970" d="M259.3661,-15.5C267.8688,-15.5 276.5196,-15.5 284.9142,-15.5"/>
<polygon fill="#191970" stroke="#191970" points="259.0953,-12.0001 249.0953,-15.5 259.0953,-19.0001 259.0953,-12.0001"/>
</g>
</g>
</svg>
