<?xml version="1.0" encoding="UTF-8" standalone="no"?>
<!DOCTYPE svg PUBLIC "-//W3C//DTD SVG 1.1//EN"
 "http://www.w3.org/Graphics/SVG/1.1/DTD/svg11.dtd">
<!-- Generated by graphviz version 2.40.1 (20161225.0304)
 -->
<!-- Title: DataSet::shuffle_dataset Pages: 1 -->
<svg width="449pt" height="83pt"
 viewBox="0.00 0.00 449.00 83.00" xmlns="http://www.w3.org/2000/svg" xmlns:xlink="http://www.w3.org/1999/xlink">
<g id="graph0" class="graph" transform="scale(1 1) rotate(0) translate(4 79)">
<title>DataSet::shuffle_dataset</title>
<polygon fill="#ffffff" stroke="transparent" points="-4,4 -4,-79 445,-79 445,4 -4,4"/>
<!-- Node19 -->
<g id="node1" class="node">
<title>Node19</title>
<polygon fill="#bfbfbf" stroke="#000000" points="0,-28 0,-47 125,-47 125,-28 0,-28"/>
<text text-anchor="middle" x="62.5" y="-35" font-family="Helvetica,sans-Serif" font-size="10.00" fill="#000000">DataSet::shuffle_dataset</text>
</g>
<!-- Node20 -->
<g id="node2" class="node">
<title>Node20</title>
<g id="a_node2"><a xlink:href="data_8cpp.html#a92f53534e1457b64d825fa24610631d3" target="_top" xlink:title="train_test_split_random">
<polygon fill="#ffffff" stroke="#000000" points="161.5,-50 161.5,-69 279.5,-69 279.5,-50 161.5,-50"/>
<text text-anchor="middle" x="220.5" y="-57" font-family="Helvetica,sans-Serif" font-size="10.00" fill="#000000">train_test_split_random</text>
</a>
</g>
</g>
<!-- Node19&#45;&gt;Node20 -->
<g id="edge1" class="edge">
<title>Node19&#45;&gt;Node20</title>
<path fill="none" stroke="#191970" d="M135.515,-47.6667C144.1912,-48.8747 152.9641,-50.0963 161.4121,-51.2726"/>
<polygon fill="#191970" stroke="#191970" points="135.7869,-44.1708 125.3998,-46.2582 134.8215,-51.1039 135.7869,-44.1708"/>
</g>
<!-- Node22 -->
<g id="node4" class="node">
<title>Node22</title>
<g id="a_node4"><a xlink:href="data_8cpp.html#ac589716071ac7ced3174606af5f79d78" target="_top" xlink:title="create_cross_validation\l_inputs">
<polygon fill="#ffffff" stroke="#000000" points="161,-.5 161,-30.5 280,-30.5 280,-.5 161,-.5"/>
<text text-anchor="start" x="169" y="-18.5" font-family="Helvetica,sans-Serif" font-size="10.00" fill="#000000">create_cross_validation</text>
<text text-anchor="middle" x="220.5" y="-7.5" font-family="Helvetica,sans-Serif" font-size="10.00" fill="#000000">_inputs</text>
</a>
</g>
</g>
<!-- Node19&#45;&gt;Node22 -->
<g id="edge3" class="edge">
<title>Node19&#45;&gt;Node22</title>
<path fill="none" stroke="#191970" d="M135.3674,-27.3539C143.9167,-26.1635 152.5624,-24.9597 160.9007,-23.7986"/>
<polygon fill="#191970" stroke="#191970" points="134.8215,-23.8961 125.3998,-28.7418 135.7869,-30.8292 134.8215,-23.8961"/>
</g>
<!-- Node21 -->
<g id="node3" class="node">
<title>Node21</title>
<g id="a_node3"><a xlink:href="struct_train_test_split.html#a31428fbb8eeabbaee4bc9dbb56292b7b" target="_top" xlink:title="TrainTestSplit::TrainTest\lSplit">
<polygon fill="#ffffff" stroke="#000000" points="316,-44.5 316,-74.5 441,-74.5 441,-44.5 316,-44.5"/>
<text text-anchor="start" x="324" y="-62.5" font-family="Helvetica,sans-Serif" font-size="10.00" fill="#000000">TrainTestSplit::TrainTest</text>
<text text-anchor="middle" x="378.5" y="-51.5" font-family="Helvetica,sans-Serif" font-size="10.00" fill="#000000">Split</text>
</a>
</g>
</g>
<!-- Node20&#45;&gt;Node21 -->
<g id="edge2" class="edge">
<title>Node20&#45;&gt;Node21</title>
<path fill="none" stroke="#191970" d="M289.8807,-59.5C298.566,-59.5 307.4088,-59.5 315.9807,-59.5"/>
<polygon fill="#191970" stroke="#191970" points="289.7829,-56.0001 279.7829,-59.5 289.7829,-63.0001 289.7829,-56.0001"/>
</g>
<!-- Node22&#45;&gt;Node21 -->
<g id="edge4" class="edge">
<title>Node22&#45;&gt;Node21</title>
<path fill="none" stroke="#191970" d="M284.0695,-33.2029C297.4861,-36.9392 311.5204,-40.8475 324.5423,-44.4738"/>
<polygon fill="#191970" stroke="#191970" points="285.0051,-29.8303 274.4327,-30.5192 283.1272,-36.5737 285.0051,-29.8303"/>
</g>
<!-- Node23 -->
<g id="node5" class="node">
<title>Node23</title>
<g id="a_node5"><a xlink:href="main_8cpp.html#a3c04138a5bfe5d72780bb7e82a18e627" target="_top" xlink:title="main">
<polygon fill="#ffffff" stroke="#000000" points="359.5,-6 359.5,-25 397.5,-25 397.5,-6 359.5,-6"/>
<text text-anchor="middle" x="378.5" y="-13" font-family="Helvetica,sans-Serif" font-size="10.00" fill="#000000">main</text>
</a>
</g>
</g>
<!-- Node22&#45;&gt;Node23 -->
<g id="edge5" class="edge">
<title>Node22&#45;&gt;Node23</title>
<path fill="none" stroke="#191970" d="M290.5158,-15.5C315.6279,-15.5 341.9668,-15.5 359.2051,-15.5"/>
<polygon fill="#191970" stroke="#191970" points="290.2331,-12.0001 280.233,-15.5 290.233,-19.0001 290.2331,-12.0001"/>
</g>
</g>
</svg>
