<?xml version="1.0" encoding="UTF-8" standalone="no"?>
<!DOCTYPE svg PUBLIC "-//W3C//DTD SVG 1.1//EN"
 "http://www.w3.org/Graphics/SVG/1.1/DTD/svg11.dtd">
<!-- Generated by graphviz version 2.40.1 (20161225.0304)
 -->
<!-- Title: include/gbdt/tree_node.h Pages: 1 -->
<svg width="395pt" height="196pt"
 viewBox="0.00 0.00 394.50 196.00" xmlns="http://www.w3.org/2000/svg" xmlns:xlink="http://www.w3.org/1999/xlink">
<g id="graph0" class="graph" transform="scale(1 1) rotate(0) translate(4 192)">
<title>include/gbdt/tree_node.h</title>
<polygon fill="#ffffff" stroke="transparent" points="-4,4 -4,-192 390.5,-192 390.5,4 -4,4"/>
<!-- Node1 -->
<g id="node1" class="node">
<title>Node1</title>
<polygon fill="#bfbfbf" stroke="#000000" points="200,-168.5 200,-187.5 323,-187.5 323,-168.5 200,-168.5"/>
<text text-anchor="middle" x="261.5" y="-175.5" font-family="Helvetica,sans-Serif" font-size="10.00" fill="#000000">include/gbdt/tree_node.h</text>
</g>
<!-- Node2 -->
<g id="node2" class="node">
<title>Node2</title>
<g id="a_node2"><a xlink:href="dp__tree_8h.html" target="_top" xlink:title="include/gbdt/dp_tree.h">
<polygon fill="#ffffff" stroke="#000000" points="139,-112.5 139,-131.5 252,-131.5 252,-112.5 139,-112.5"/>
<text text-anchor="middle" x="195.5" y="-119.5" font-family="Helvetica,sans-Serif" font-size="10.00" fill="#000000">include/gbdt/dp_tree.h</text>
</a>
</g>
</g>
<!-- Node1&#45;&gt;Node2 -->
<g id="edge1" class="edge">
<title>Node1&#45;&gt;Node2</title>
<path fill="none" stroke="#191970" d="M242.2245,-161.645C230.7462,-151.9058 216.5723,-139.8795 206.8646,-131.6427"/>
<polygon fill="#191970" stroke="#191970" points="240.1141,-164.4445 250.0037,-168.2455 244.643,-159.1069 240.1141,-164.4445"/>
</g>
<!-- Node7 -->
<g id="node7" class="node">
<title>Node7</title>
<g id="a_node7"><a xlink:href="tree__node_8cpp.html" target="_top" xlink:title="src/gbdt/tree_node.cpp">
<polygon fill="#ffffff" stroke="#000000" points="270.5,-112.5 270.5,-131.5 386.5,-131.5 386.5,-112.5 270.5,-112.5"/>
<text text-anchor="middle" x="328.5" y="-119.5" font-family="Helvetica,sans-Serif" font-size="10.00" fill="#000000">src/gbdt/tree_node.cpp</text>
</a>
</g>
</g>
<!-- Node1&#45;&gt;Node7 -->
<g id="edge6" class="edge">
<title>Node1&#45;&gt;Node7</title>
<path fill="none" stroke="#191970" d="M281.0676,-161.645C292.7198,-151.9058 307.1084,-139.8795 316.9632,-131.6427"/>
<polygon fill="#191970" stroke="#191970" points="278.5988,-159.1469 273.1705,-168.2455 283.0879,-164.5179 278.5988,-159.1469"/>
</g>
<!-- Node3 -->
<g id="node3" class="node">
<title>Node3</title>
<g id="a_node3"><a xlink:href="dp__ensemble_8h.html" target="_top" xlink:title="include/gbdt/dp_ensemble.h">
<polygon fill="#ffffff" stroke="#000000" points="56.5,-56.5 56.5,-75.5 194.5,-75.5 194.5,-56.5 56.5,-56.5"/>
<text text-anchor="middle" x="125.5" y="-63.5" font-family="Helvetica,sans-Serif" font-size="10.00" fill="#000000">include/gbdt/dp_ensemble.h</text>
</a>
</g>
</g>
<!-- Node2&#45;&gt;Node3 -->
<g id="edge2" class="edge">
<title>Node2&#45;&gt;Node3</title>
<path fill="none" stroke="#191970" d="M175.41,-105.928C163.1747,-96.1397 147.9493,-83.9595 137.5533,-75.6427"/>
<polygon fill="#191970" stroke="#191970" points="173.3118,-108.7316 183.3069,-112.2455 177.6847,-103.2655 173.3118,-108.7316"/>
</g>
<!-- Node6 -->
<g id="node6" class="node">
<title>Node6</title>
<g id="a_node6"><a xlink:href="dp__tree_8cpp.html" target="_top" xlink:title="src/gbdt/dp_tree.cpp">
<polygon fill="#ffffff" stroke="#000000" points="212.5,-56.5 212.5,-75.5 318.5,-75.5 318.5,-56.5 212.5,-56.5"/>
<text text-anchor="middle" x="265.5" y="-63.5" font-family="Helvetica,sans-Serif" font-size="10.00" fill="#000000">src/gbdt/dp_tree.cpp</text>
</a>
</g>
</g>
<!-- Node2&#45;&gt;Node6 -->
<g id="edge5" class="edge">
<title>Node2&#45;&gt;Node6</title>
<path fill="none" stroke="#191970" d="M215.59,-105.928C227.8253,-96.1397 243.0507,-83.9595 253.4467,-75.6427"/>
<polygon fill="#191970" stroke="#191970" points="213.3153,-103.2655 207.6931,-112.2455 217.6882,-108.7316 213.3153,-103.2655"/>
</g>
<!-- Node4 -->
<g id="node4" class="node">
<title>Node4</title>
<g id="a_node4"><a xlink:href="dp__ensemble_8cpp.html" target="_top" xlink:title="src/gbdt/dp_ensemble.cpp">
<polygon fill="#ffffff" stroke="#000000" points="0,-.5 0,-19.5 131,-19.5 131,-.5 0,-.5"/>
<text text-anchor="middle" x="65.5" y="-7.5" font-family="Helvetica,sans-Serif" font-size="10.00" fill="#000000">src/gbdt/dp_ensemble.cpp</text>
</a>
</g>
</g>
<!-- Node3&#45;&gt;Node4 -->
<g id="edge3" class="edge">
<title>Node3&#45;&gt;Node4</title>
<path fill="none" stroke="#191970" d="M107.6722,-49.3607C97.2922,-39.6727 84.5709,-27.7995 75.8314,-19.6427"/>
<polygon fill="#191970" stroke="#191970" points="105.3501,-51.981 115.0488,-56.2455 110.1263,-46.8636 105.3501,-51.981"/>
</g>
<!-- Node5 -->
<g id="node5" class="node">
<title>Node5</title>
<g id="a_node5"><a xlink:href="main_8cpp.html" target="_top" xlink:title="src/main.cpp">
<polygon fill="#ffffff" stroke="#000000" points="149,-.5 149,-19.5 222,-19.5 222,-.5 149,-.5"/>
<text text-anchor="middle" x="185.5" y="-7.5" font-family="Helvetica,sans-Serif" font-size="10.00" fill="#000000">src/main.cpp</text>
</a>
</g>
</g>
<!-- Node3&#45;&gt;Node5 -->
<g id="edge4" class="edge">
<title>Node3&#45;&gt;Node5</title>
<path fill="none" stroke="#191970" d="M143.3278,-49.3607C153.7078,-39.6727 166.4291,-27.7995 175.1686,-19.6427"/>
<polygon fill="#191970" stroke="#191970" points="140.8737,-46.8636 135.9512,-56.2455 145.6499,-51.981 140.8737,-46.8636"/>
</g>
</g>
</svg>
