<?xml version="1.0" encoding="UTF-8" standalone="no"?>
<!DOCTYPE svg PUBLIC "-//W3C//DTD SVG 1.1//EN"
 "http://www.w3.org/Graphics/SVG/1.1/DTD/svg11.dtd">
<!-- Generated by graphviz version 2.40.1 (20161225.0304)
 -->
<!-- Title: include/gbdt/utils.h Pages: 1 -->
<svg width="259pt" height="196pt"
 viewBox="0.00 0.00 259.07 196.00" xmlns="http://www.w3.org/2000/svg" xmlns:xlink="http://www.w3.org/1999/xlink">
<g id="graph0" class="graph" transform="scale(1 1) rotate(0) translate(4 192)">
<title>include/gbdt/utils.h</title>
<polygon fill="#ffffff" stroke="transparent" points="-4,4 -4,-192 255.0678,-192 255.0678,4 -4,4"/>
<!-- Node0 -->
<g id="node1" class="node">
<title>Node0</title>
<polygon fill="#bfbfbf" stroke="#000000" points="64.0678,-168.5 64.0678,-187.5 162.0678,-187.5 162.0678,-168.5 64.0678,-168.5"/>
<text text-anchor="middle" x="113.0678" y="-175.5" font-family="Helvetica,sans-Serif" font-size="10.00" fill="#000000">include/gbdt/utils.h</text>
</g>
<!-- Node1 -->
<g id="node2" class="node">
<title>Node1</title>
<polygon fill="#ffffff" stroke="#bfbfbf" points="61.0678,-.5 61.0678,-19.5 105.0678,-19.5 105.0678,-.5 61.0678,-.5"/>
<text text-anchor="middle" x="83.0678" y="-7.5" font-family="Helvetica,sans-Serif" font-size="10.00" fill="#000000">vector</text>
</g>
<!-- Node0&#45;&gt;Node1 -->
<g id="edge1" class="edge">
<title>Node0&#45;&gt;Node1</title>
<path fill="none" stroke="#191970" d="M63.815,-169.1473C42.5971,-162.6279 19.7788,-151.3725 7.0678,-132 -17.7084,-94.2396 30.5328,-48.8937 60.9324,-25.5607"/>
<polygon fill="#191970" stroke="#191970" points="63.0254,-28.366 68.9581,-19.5879 58.8462,-22.7504 63.0254,-28.366"/>
</g>
<!-- Node2 -->
<g id="node3" class="node">
<title>Node2</title>
<polygon fill="#ffffff" stroke="#bfbfbf" points="16.5678,-112.5 16.5678,-131.5 57.5678,-131.5 57.5678,-112.5 16.5678,-112.5"/>
<text text-anchor="middle" x="37.0678" y="-119.5" font-family="Helvetica,sans-Serif" font-size="10.00" fill="#000000">string</text>
</g>
<!-- Node0&#45;&gt;Node2 -->
<g id="edge2" class="edge">
<title>Node0&#45;&gt;Node2</title>
<path fill="none" stroke="#191970" d="M99.8296,-168.2455C88.3868,-159.814 71.6381,-147.4729 58.3203,-137.6598"/>
<polygon fill="#191970" stroke="#191970" points="60.281,-134.757 50.1542,-131.6427 56.1286,-140.3924 60.281,-134.757"/>
</g>
<!-- Node3 -->
<g id="node4" class="node">
<title>Node3</title>
<g id="a_node4"><a xlink:href="parameters_8h.html" target="_top" xlink:title="parameters.h">
<polygon fill="#ffffff" stroke="#000000" points="76.0678,-112.5 76.0678,-131.5 150.0678,-131.5 150.0678,-112.5 76.0678,-112.5"/>
<text text-anchor="middle" x="113.0678" y="-119.5" font-family="Helvetica,sans-Serif" font-size="10.00" fill="#000000">parameters.h</text>
</a>
</g>
</g>
<!-- Node0&#45;&gt;Node3 -->
<g id="edge3" class="edge">
<title>Node0&#45;&gt;Node3</title>
<path fill="none" stroke="#191970" d="M113.0678,-168.2455C113.0678,-160.9382 113.0678,-150.6944 113.0678,-141.7046"/>
<polygon fill="#191970" stroke="#191970" points="116.5679,-141.6426 113.0678,-131.6427 109.5679,-141.6427 116.5679,-141.6426"/>
</g>
<!-- Node6 -->
<g id="node7" class="node">
<title>Node6</title>
<g id="a_node7"><a xlink:href="data_8h.html" target="_top" xlink:title="data.h">
<polygon fill="#ffffff" stroke="#000000" points="169.0678,-112.5 169.0678,-131.5 213.0678,-131.5 213.0678,-112.5 169.0678,-112.5"/>
<text text-anchor="middle" x="191.0678" y="-119.5" font-family="Helvetica,sans-Serif" font-size="10.00" fill="#000000">data.h</text>
</a>
</g>
</g>
<!-- Node0&#45;&gt;Node6 -->
<g id="edge8" class="edge">
<title>Node0&#45;&gt;Node6</title>
<path fill="none" stroke="#191970" d="M121.3875,-168.2455C131.6959,-159.6534 149.0513,-147.0014 163.9648,-137.1018"/>
<polygon fill="#191970" stroke="#191970" points="165.9019,-140.0172 172.3917,-131.6427 162.096,-134.1423 165.9019,-140.0172"/>
</g>
<!-- Node3&#45;&gt;Node1 -->
<g id="edge5" class="edge">
<title>Node3&#45;&gt;Node1</title>
<path fill="none" stroke="#191970" d="M86.4667,-112.397C70.4804,-105.0839 51.468,-93.291 42.0678,-76 32.6088,-58.601 47.4834,-39.4517 61.8925,-26.2819"/>
<polygon fill="#191970" stroke="#191970" points="64.3549,-28.7819 69.6922,-19.6296 59.8124,-23.4559 64.3549,-28.7819"/>
</g>
<!-- Node4 -->
<g id="node5" class="node">
<title>Node4</title>
<polygon fill="#ffffff" stroke="#bfbfbf" points="51.0678,-56.5 51.0678,-75.5 103.0678,-75.5 103.0678,-56.5 51.0678,-56.5"/>
<text text-anchor="middle" x="77.0678" y="-63.5" font-family="Helvetica,sans-Serif" font-size="10.00" fill="#000000">memory</text>
</g>
<!-- Node3&#45;&gt;Node4 -->
<g id="edge4" class="edge">
<title>Node3&#45;&gt;Node4</title>
<path fill="none" stroke="#191970" d="M106.797,-112.2455C101.8414,-104.5367 94.7848,-93.5598 88.7901,-84.2348"/>
<polygon fill="#191970" stroke="#191970" points="91.6184,-82.1618 83.2666,-75.6427 85.7301,-85.9471 91.6184,-82.1618"/>
</g>
<!-- Node5 -->
<g id="node6" class="node">
<title>Node5</title>
<g id="a_node6"><a xlink:href="loss_8h.html" target="_top" xlink:title="loss.h">
<polygon fill="#ffffff" stroke="#000000" points="121.5678,-56.5 121.5678,-75.5 164.5678,-75.5 164.5678,-56.5 121.5678,-56.5"/>
<text text-anchor="middle" x="143.0678" y="-63.5" font-family="Helvetica,sans-Serif" font-size="10.00" fill="#000000">loss.h</text>
</a>
</g>
</g>
<!-- Node3&#45;&gt;Node5 -->
<g id="edge6" class="edge">
<title>Node3&#45;&gt;Node5</title>
<path fill="none" stroke="#191970" d="M118.2934,-112.2455C122.3801,-104.617 128.1813,-93.7881 133.1427,-84.5267"/>
<polygon fill="#191970" stroke="#191970" points="136.265,-86.1103 137.902,-75.6427 130.0946,-82.8047 136.265,-86.1103"/>
</g>
<!-- Node5&#45;&gt;Node1 -->
<g id="edge7" class="edge">
<title>Node5&#45;&gt;Node1</title>
<path fill="none" stroke="#191970" d="M132.6166,-56.2455C123.8409,-48.0549 111.1123,-36.1749 100.7537,-26.5069"/>
<polygon fill="#191970" stroke="#191970" points="103.0979,-23.9072 93.3992,-19.6427 98.3216,-29.0246 103.0979,-23.9072"/>
</g>
<!-- Node6&#45;&gt;Node0 -->
<g id="edge11" class="edge">
<title>Node6&#45;&gt;Node0</title>
<path fill="none" stroke="#191970" d="M182.882,-131.6427C172.635,-140.1994 155.2998,-152.8456 140.3652,-162.769"/>
<polygon fill="#191970" stroke="#191970" points="138.4066,-159.8676 131.9212,-168.2455 142.2156,-165.7405 138.4066,-159.8676"/>
</g>
<!-- Node6&#45;&gt;Node1 -->
<g id="edge9" class="edge">
<title>Node6&#45;&gt;Node1</title>
<path fill="none" stroke="#191970" d="M190.8147,-112.3902C189.9706,-98.4812 186.5481,-72.5925 173.0678,-56 158.2746,-37.7915 134.386,-26.0555 114.9368,-18.9978"/>
<polygon fill="#191970" stroke="#191970" points="115.8367,-15.6076 105.2425,-15.724 113.597,-22.2396 115.8367,-15.6076"/>
</g>
<!-- Node7 -->
<g id="node8" class="node">
<title>Node7</title>
<polygon fill="#ffffff" stroke="#bfbfbf" points="221.0678,-56.5 221.0678,-75.5 251.0678,-75.5 251.0678,-56.5 221.0678,-56.5"/>
<text text-anchor="middle" x="236.0678" y="-63.5" font-family="Helvetica,sans-Serif" font-size="10.00" fill="#000000">set</text>
</g>
<!-- Node6&#45;&gt;Node7 -->
<g id="edge10" class="edge">
<title>Node6&#45;&gt;Node7</title>
<path fill="none" stroke="#191970" d="M198.9062,-112.2455C205.2298,-104.3761 214.2902,-93.101 221.8813,-83.6542"/>
<polygon fill="#191970" stroke="#191970" points="224.7835,-85.6302 228.3192,-75.6427 219.3269,-81.2454 224.7835,-85.6302"/>
</g>
</g>
</svg>
