<?xml version="1.0" encoding="UTF-8" standalone="no"?>
<!DOCTYPE svg PUBLIC "-//W3C//DTD SVG 1.1//EN"
 "http://www.w3.org/Graphics/SVG/1.1/DTD/svg11.dtd">
<!-- Generated by graphviz version 2.40.1 (20161225.0304)
 -->
<!-- Title: include/gbdt/utils.h Pages: 1 -->
<svg width="418pt" height="252pt"
 viewBox="0.00 0.00 418.00 252.00" xmlns="http://www.w3.org/2000/svg" xmlns:xlink="http://www.w3.org/1999/xlink">
<g id="graph0" class="graph" transform="scale(1 1) rotate(0) translate(4 248)">
<title>include/gbdt/utils.h</title>
<polygon fill="#ffffff" stroke="transparent" points="-4,4 -4,-248 414,-248 414,4 -4,4"/>
<!-- Node8 -->
<g id="node1" class="node">
<title>Node8</title>
<polygon fill="#bfbfbf" stroke="#000000" points="203,-224.5 203,-243.5 301,-243.5 301,-224.5 203,-224.5"/>
<text text-anchor="middle" x="252" y="-231.5" font-family="Helvetica,sans-Serif" font-size="10.00" fill="#000000">include/gbdt/utils.h</text>
</g>
<!-- Node9 -->
<g id="node2" class="node">
<title>Node9</title>
<g id="a_node2"><a xlink:href="data_8h.html" target="_top" xlink:title="include/data.h">
<polygon fill="#ffffff" stroke="#000000" points="213.5,-168.5 213.5,-187.5 290.5,-187.5 290.5,-168.5 213.5,-168.5"/>
<text text-anchor="middle" x="252" y="-175.5" font-family="Helvetica,sans-Serif" font-size="10.00" fill="#000000">include/data.h</text>
</a>
</g>
</g>
<!-- Node8&#45;&gt;Node9 -->
<g id="edge1" class="edge">
<title>Node8&#45;&gt;Node9</title>
<path fill="none" stroke="#191970" d="M245.5113,-214.1575C244.919,-205.155 245.3335,-194.9199 246.7549,-187.6427"/>
<polygon fill="#191970" stroke="#191970" points="242.0561,-214.739 246.7332,-224.2455 249.0053,-213.8972 242.0561,-214.739"/>
</g>
<!-- Node10 -->
<g id="node3" class="node">
<title>Node10</title>
<g id="a_node3"><a xlink:href="dp__tree_8h.html" target="_top" xlink:title="include/gbdt/dp_tree.h">
<polygon fill="#ffffff" stroke="#000000" points="110.5,-112.5 110.5,-131.5 223.5,-131.5 223.5,-112.5 110.5,-112.5"/>
<text text-anchor="middle" x="167" y="-119.5" font-family="Helvetica,sans-Serif" font-size="10.00" fill="#000000">include/gbdt/dp_tree.h</text>
</a>
</g>
</g>
<!-- Node8&#45;&gt;Node10 -->
<g id="edge11" class="edge">
<title>Node8&#45;&gt;Node10</title>
<path fill="none" stroke="#191970" d="M232.3585,-217.606C223.1069,-209.3054 212.3068,-198.7295 204,-188 189.8468,-169.7189 177.666,-145.379 171.4351,-131.9518"/>
<polygon fill="#191970" stroke="#191970" points="230.1519,-220.3256 239.9885,-224.2615 234.7533,-215.0504 230.1519,-220.3256"/>
</g>
<!-- Node16 -->
<g id="node9" class="node">
<title>Node16</title>
<g id="a_node9"><a xlink:href="utils_8cpp.html" target="_top" xlink:title="src/gbdt/utils.cpp">
<polygon fill="#ffffff" stroke="#000000" points="309,-168.5 309,-187.5 401,-187.5 401,-168.5 309,-168.5"/>
<text text-anchor="middle" x="355" y="-175.5" font-family="Helvetica,sans-Serif" font-size="10.00" fill="#000000">src/gbdt/utils.cpp</text>
</a>
</g>
</g>
<!-- Node8&#45;&gt;Node16 -->
<g id="edge12" class="edge">
<title>Node8&#45;&gt;Node16</title>
<path fill="none" stroke="#191970" d="M278.7432,-219.46C297.175,-209.4388 321.1584,-196.3993 337.2644,-187.6427"/>
<polygon fill="#191970" stroke="#191970" points="277.0549,-216.394 269.9412,-224.2455 280.3985,-222.5438 277.0549,-216.394"/>
</g>
<!-- Node9&#45;&gt;Node8 -->
<g id="edge7" class="edge">
<title>Node9&#45;&gt;Node8</title>
<path fill="none" stroke="#191970" d="M258.4795,-197.7046C259.0821,-206.6944 258.6779,-216.9382 257.2668,-224.2455"/>
<polygon fill="#191970" stroke="#191970" points="261.9368,-197.1421 257.2451,-187.6427 254.9889,-197.9945 261.9368,-197.1421"/>
</g>
<!-- Node9&#45;&gt;Node10 -->
<g id="edge2" class="edge">
<title>Node9&#45;&gt;Node10</title>
<path fill="none" stroke="#191970" d="M228.4581,-162.49C213.461,-152.6096 194.5027,-140.1194 181.6362,-131.6427"/>
<polygon fill="#191970" stroke="#191970" points="226.9179,-165.6666 237.1941,-168.2455 230.7691,-159.8212 226.9179,-165.6666"/>
</g>
<!-- Node11 -->
<g id="node4" class="node">
<title>Node11</title>
<g id="a_node4"><a xlink:href="dp__ensemble_8h.html" target="_top" xlink:title="include/gbdt/dp_ensemble.h">
<polygon fill="#ffffff" stroke="#000000" points="124,-56.5 124,-75.5 262,-75.5 262,-56.5 124,-56.5"/>
<text text-anchor="middle" x="193" y="-63.5" font-family="Helvetica,sans-Serif" font-size="10.00" fill="#000000">include/gbdt/dp_ensemble.h</text>
</a>
</g>
</g>
<!-- Node9&#45;&gt;Node11 -->
<g id="edge8" class="edge">
<title>Node9&#45;&gt;Node11</title>
<path fill="none" stroke="#191970" d="M248.1729,-157.9603C245.0596,-144.4245 239.8743,-126.4574 232,-112 224.3879,-98.0241 212.0661,-84.4278 203.311,-75.6873"/>
<polygon fill="#191970" stroke="#191970" points="244.8259,-159.0514 250.3142,-168.1139 251.6752,-157.6069 244.8259,-159.0514"/>
</g>
<!-- Node13 -->
<g id="node6" class="node">
<title>Node13</title>
<g id="a_node6"><a xlink:href="main_8cpp.html" target="_top" xlink:title="src/main.cpp">
<polygon fill="#ffffff" stroke="#000000" points="253.5,-.5 253.5,-19.5 326.5,-19.5 326.5,-.5 253.5,-.5"/>
<text text-anchor="middle" x="290" y="-7.5" font-family="Helvetica,sans-Serif" font-size="10.00" fill="#000000">src/main.cpp</text>
</a>
</g>
</g>
<!-- Node9&#45;&gt;Node13 -->
<g id="edge10" class="edge">
<title>Node9&#45;&gt;Node13</title>
<path fill="none" stroke="#191970" d="M256.3594,-158.7267C264.481,-122.8207 281.6576,-46.8822 287.777,-19.8279"/>
<polygon fill="#191970" stroke="#191970" points="252.9444,-157.9604 254.1519,-168.4862 259.7719,-159.5048 252.9444,-157.9604"/>
</g>
<!-- Node15 -->
<g id="node8" class="node">
<title>Node15</title>
<g id="a_node8"><a xlink:href="data_8cpp.html" target="_top" xlink:title="src/gbdt/data.cpp">
<polygon fill="#ffffff" stroke="#000000" points="318,-112.5 318,-131.5 410,-131.5 410,-112.5 318,-112.5"/>
<text text-anchor="middle" x="364" y="-119.5" font-family="Helvetica,sans-Serif" font-size="10.00" fill="#000000">src/gbdt/data.cpp</text>
</a>
</g>
</g>
<!-- Node9&#45;&gt;Node15 -->
<g id="edge9" class="edge">
<title>Node9&#45;&gt;Node15</title>
<path fill="none" stroke="#191970" d="M280.3263,-163.8368C300.5721,-153.7139 327.2642,-140.3679 344.9978,-131.5011"/>
<polygon fill="#191970" stroke="#191970" points="278.6325,-160.7706 271.2535,-168.3733 281.763,-167.0316 278.6325,-160.7706"/>
</g>
<!-- Node10&#45;&gt;Node11 -->
<g id="edge3" class="edge">
<title>Node10&#45;&gt;Node11</title>
<path fill="none" stroke="#191970" d="M175.8011,-103.0437C180.0775,-93.8331 185.033,-83.1598 188.523,-75.6427"/>
<polygon fill="#191970" stroke="#191970" points="172.5655,-101.7015 171.5289,-112.2455 178.9146,-104.6494 172.5655,-101.7015"/>
</g>
<!-- Node14 -->
<g id="node7" class="node">
<title>Node14</title>
<g id="a_node7"><a xlink:href="dp__tree_8cpp.html" target="_top" xlink:title="src/gbdt/dp_tree.cpp">
<polygon fill="#ffffff" stroke="#000000" points="0,-56.5 0,-75.5 106,-75.5 106,-56.5 0,-56.5"/>
<text text-anchor="middle" x="53" y="-63.5" font-family="Helvetica,sans-Serif" font-size="10.00" fill="#000000">src/gbdt/dp_tree.cpp</text>
</a>
</g>
</g>
<!-- Node10&#45;&gt;Node14 -->
<g id="edge6" class="edge">
<title>Node10&#45;&gt;Node14</title>
<path fill="none" stroke="#191970" d="M138.1679,-107.8368C117.5605,-97.7139 90.3918,-84.3679 72.3416,-75.5011"/>
<polygon fill="#191970" stroke="#191970" points="136.884,-111.1056 147.4027,-112.3733 139.9703,-104.8227 136.884,-111.1056"/>
</g>
<!-- Node12 -->
<g id="node5" class="node">
<title>Node12</title>
<g id="a_node5"><a xlink:href="dp__ensemble_8cpp.html" target="_top" xlink:title="src/gbdt/dp_ensemble.cpp">
<polygon fill="#ffffff" stroke="#000000" points="104.5,-.5 104.5,-19.5 235.5,-19.5 235.5,-.5 104.5,-.5"/>
<text text-anchor="middle" x="170" y="-7.5" font-family="Helvetica,sans-Serif" font-size="10.00" fill="#000000">src/gbdt/dp_ensemble.cpp</text>
</a>
</g>
</g>
<!-- Node11&#45;&gt;Node12 -->
<g id="edge4" class="edge">
<title>Node11&#45;&gt;Node12</title>
<path fill="none" stroke="#191970" d="M185.0934,-46.7493C181.3383,-37.6064 177.0149,-27.0798 173.9604,-19.6427"/>
<polygon fill="#191970" stroke="#191970" points="181.9569,-48.3251 188.9937,-56.2455 188.432,-45.6656 181.9569,-48.3251"/>
</g>
<!-- Node11&#45;&gt;Node13 -->
<g id="edge5" class="edge">
<title>Node11&#45;&gt;Node13</title>
<path fill="none" stroke="#191970" d="M218.9016,-51.0465C236.1609,-41.0824 258.3376,-28.2794 273.2975,-19.6427"/>
<polygon fill="#191970" stroke="#191970" points="216.8065,-48.2146 209.8961,-56.2455 220.3064,-54.2768 216.8065,-48.2146"/>
</g>
</g>
</svg>
