<?xml version="1.0" encoding="UTF-8" standalone="no"?>
<!DOCTYPE svg PUBLIC "-//W3C//DTD SVG 1.1//EN"
 "http://www.w3.org/Graphics/SVG/1.1/DTD/svg11.dtd">
<!-- Generated by graphviz version 2.40.1 (20161225.0304)
 -->
<!-- Title: clamp Pages: 1 -->
<svg width="361pt" height="47pt"
 viewBox="0.00 0.00 361.00 47.00" xmlns="http://www.w3.org/2000/svg" xmlns:xlink="http://www.w3.org/1999/xlink">
<g id="graph0" class="graph" transform="scale(1 1) rotate(0) translate(4 43)">
<title>clamp</title>
<polygon fill="#ffffff" stroke="transparent" points="-4,4 -4,-43 357,-43 357,4 -4,4"/>
<!-- Node1 -->
<g id="node1" class="node">
<title>Node1</title>
<polygon fill="#bfbfbf" stroke="#000000" points="0,-19.5 0,-38.5 43,-38.5 43,-19.5 0,-19.5"/>
<text text-anchor="middle" x="21.5" y="-26.5" font-family="Helvetica,sans-Serif" font-size="10.00" fill="#000000">clamp</text>
</g>
<!-- Node2 -->
<g id="node2" class="node">
<title>Node2</title>
<g id="a_node2"><a xlink:href="class_d_p_ensemble.html#a1652b5fde834bfb18416ebf438d3e10a" target="_top" xlink:title="DPEnsemble::train">
<polygon fill="#ffffff" stroke="#000000" points="180,-19.5 180,-38.5 279,-38.5 279,-19.5 180,-19.5"/>
<text text-anchor="middle" x="229.5" y="-26.5" font-family="Helvetica,sans-Serif" font-size="10.00" fill="#000000">DPEnsemble::train</text>
</a>
</g>
</g>
<!-- Node1&#45;&gt;Node2 -->
<g id="edge1" class="edge">
<title>Node1&#45;&gt;Node2</title>
<path fill="none" stroke="#191970" d="M53.5566,-29C87.2067,-29 140.5598,-29 179.6995,-29"/>
<polygon fill="#191970" stroke="#191970" points="53.3665,-25.5001 43.3665,-29 53.3665,-32.5001 53.3665,-25.5001"/>
</g>
<!-- Node4 -->
<g id="node4" class="node">
<title>Node4</title>
<g id="a_node4"><a xlink:href="class_d_p_tree.html#a82b9507f4f5d056b98f40871b304f943" target="_top" xlink:title="DPTree::fit">
<polygon fill="#ffffff" stroke="#000000" points="79,-.5 79,-19.5 144,-19.5 144,-.5 79,-.5"/>
<text text-anchor="middle" x="111.5" y="-7.5" font-family="Helvetica,sans-Serif" font-size="10.00" fill="#000000">DPTree::fit</text>
</a>
</g>
</g>
<!-- Node1&#45;&gt;Node4 -->
<g id="edge3" class="edge">
<title>Node1&#45;&gt;Node4</title>
<path fill="none" stroke="#191970" d="M53.2721,-22.2926C61.5029,-20.555 70.3817,-18.6805 78.6657,-16.9317"/>
<polygon fill="#191970" stroke="#191970" points="52.3479,-18.9104 43.2865,-24.4006 53.7938,-25.7595 52.3479,-18.9104"/>
</g>
<!-- Node3 -->
<g id="node3" class="node">
<title>Node3</title>
<g id="a_node3"><a xlink:href="main_8cpp.html#a3c04138a5bfe5d72780bb7e82a18e627" target="_top" xlink:title="main">
<polygon fill="#ffffff" stroke="#000000" points="315,-19.5 315,-38.5 353,-38.5 353,-19.5 315,-19.5"/>
<text text-anchor="middle" x="334" y="-26.5" font-family="Helvetica,sans-Serif" font-size="10.00" fill="#000000">main</text>
</a>
</g>
</g>
<!-- Node2&#45;&gt;Node3 -->
<g id="edge2" class="edge">
<title>Node2&#45;&gt;Node3</title>
<path fill="none" stroke="#191970" d="M289.3404,-29C298.5271,-29 307.394,-29 314.7722,-29"/>
<polygon fill="#191970" stroke="#191970" points="289.3016,-25.5001 279.3016,-29 289.3015,-32.5001 289.3016,-25.5001"/>
</g>
<!-- Node4&#45;&gt;Node2 -->
<g id="edge4" class="edge">
<title>Node4&#45;&gt;Node2</title>
<path fill="none" stroke="#191970" d="M153.9805,-16.8401C162.3543,-18.1884 171.2109,-19.6145 179.798,-20.9971"/>
<polygon fill="#191970" stroke="#191970" points="154.4856,-13.3764 144.0564,-15.2421 153.3728,-20.2874 154.4856,-13.3764"/>
</g>
</g>
</svg>
