<?xml version="1.0" encoding="UTF-8" standalone="no"?>
<!DOCTYPE svg PUBLIC "-//W3C//DTD SVG 1.1//EN"
 "http://www.w3.org/Graphics/SVG/1.1/DTD/svg11.dtd">
<!-- Generated by graphviz version 2.40.1 (20161225.0304)
 -->
<!-- Title: src/gbdt/utils.cpp Pages: 1 -->
<svg width="373pt" height="252pt"
 viewBox="0.00 0.00 373.00 252.00" xmlns="http://www.w3.org/2000/svg" xmlns:xlink="http://www.w3.org/1999/xlink">
<g id="graph0" class="graph" transform="scale(1 1) rotate(0) translate(4 248)">
<title>src/gbdt/utils.cpp</title>
<polygon fill="#ffffff" stroke="transparent" points="-4,4 -4,-248 369,-248 369,4 -4,4"/>
<!-- Node0 -->
<g id="node1" class="node">
<title>Node0</title>
<polygon fill="#bfbfbf" stroke="#000000" points="83,-224.5 83,-243.5 175,-243.5 175,-224.5 83,-224.5"/>
<text text-anchor="middle" x="129" y="-231.5" font-family="Helvetica,sans-Serif" font-size="10.00" fill="#000000">src/gbdt/utils.cpp</text>
</g>
<!-- Node1 -->
<g id="node2" class="node">
<title>Node1</title>
<polygon fill="#ffffff" stroke="#bfbfbf" points="0,-168.5 0,-187.5 56,-187.5 56,-168.5 0,-168.5"/>
<text text-anchor="middle" x="28" y="-175.5" font-family="Helvetica,sans-Serif" font-size="10.00" fill="#000000">algorithm</text>
</g>
<!-- Node0&#45;&gt;Node1 -->
<g id="edge1" class="edge">
<title>Node0&#45;&gt;Node1</title>
<path fill="none" stroke="#191970" d="M111.4071,-224.2455C95.621,-215.4928 72.2361,-202.527 54.2413,-192.5496"/>
<polygon fill="#191970" stroke="#191970" points="55.8341,-189.4308 45.3913,-187.6427 52.4397,-195.5528 55.8341,-189.4308"/>
</g>
<!-- Node2 -->
<g id="node3" class="node">
<title>Node2</title>
<polygon fill="#ffffff" stroke="#bfbfbf" points="74,-168.5 74,-187.5 118,-187.5 118,-168.5 74,-168.5"/>
<text text-anchor="middle" x="96" y="-175.5" font-family="Helvetica,sans-Serif" font-size="10.00" fill="#000000">cmath</text>
</g>
<!-- Node0&#45;&gt;Node2 -->
<g id="edge2" class="edge">
<title>Node0&#45;&gt;Node2</title>
<path fill="none" stroke="#191970" d="M123.2518,-224.2455C118.7565,-216.617 112.3752,-205.7881 106.9175,-196.5267"/>
<polygon fill="#191970" stroke="#191970" points="109.7747,-194.4811 101.6823,-187.6427 103.7439,-198.035 109.7747,-194.4811"/>
</g>
<!-- Node3 -->
<g id="node4" class="node">
<title>Node3</title>
<polygon fill="#ffffff" stroke="#bfbfbf" points="136.5,-168.5 136.5,-187.5 187.5,-187.5 187.5,-168.5 136.5,-168.5"/>
<text text-anchor="middle" x="162" y="-175.5" font-family="Helvetica,sans-Serif" font-size="10.00" fill="#000000">numeric</text>
</g>
<!-- Node0&#45;&gt;Node3 -->
<g id="edge3" class="edge">
<title>Node0&#45;&gt;Node3</title>
<path fill="none" stroke="#191970" d="M134.7482,-224.2455C139.2435,-216.617 145.6248,-205.7881 151.0825,-196.5267"/>
<polygon fill="#191970" stroke="#191970" points="154.2561,-198.035 156.3177,-187.6427 148.2253,-194.4811 154.2561,-198.035"/>
</g>
<!-- Node4 -->
<g id="node5" class="node">
<title>Node4</title>
<g id="a_node5"><a xlink:href="utils_8h.html" target="_top" xlink:title="utils.h">
<polygon fill="#ffffff" stroke="#000000" points="205.5,-168.5 205.5,-187.5 248.5,-187.5 248.5,-168.5 205.5,-168.5"/>
<text text-anchor="middle" x="227" y="-175.5" font-family="Helvetica,sans-Serif" font-size="10.00" fill="#000000">utils.h</text>
</a>
</g>
</g>
<!-- Node0&#45;&gt;Node4 -->
<g id="edge4" class="edge">
<title>Node0&#45;&gt;Node4</title>
<path fill="none" stroke="#191970" d="M146.0703,-224.2455C161.247,-215.5731 183.6621,-202.7645 201.0563,-192.825"/>
<polygon fill="#191970" stroke="#191970" points="203.1794,-195.643 210.1253,-187.6427 199.7064,-189.5653 203.1794,-195.643"/>
</g>
<!-- Node5 -->
<g id="node6" class="node">
<title>Node5</title>
<polygon fill="#ffffff" stroke="#bfbfbf" points="175,-.5 175,-19.5 219,-19.5 219,-.5 175,-.5"/>
<text text-anchor="middle" x="197" y="-7.5" font-family="Helvetica,sans-Serif" font-size="10.00" fill="#000000">vector</text>
</g>
<!-- Node4&#45;&gt;Node5 -->
<g id="edge5" class="edge">
<title>Node4&#45;&gt;Node5</title>
<path fill="none" stroke="#191970" d="M205.3362,-170.0558C175.7867,-159.0049 125.9249,-139.5058 121,-132 96.2239,-94.2396 144.465,-48.8937 174.8647,-25.5607"/>
<polygon fill="#191970" stroke="#191970" points="176.9577,-28.366 182.8903,-19.5879 172.7785,-22.7504 176.9577,-28.366"/>
</g>
<!-- Node6 -->
<g id="node7" class="node">
<title>Node6</title>
<polygon fill="#ffffff" stroke="#bfbfbf" points="130.5,-112.5 130.5,-131.5 171.5,-131.5 171.5,-112.5 130.5,-112.5"/>
<text text-anchor="middle" x="151" y="-119.5" font-family="Helvetica,sans-Serif" font-size="10.00" fill="#000000">string</text>
</g>
<!-- Node4&#45;&gt;Node6 -->
<g id="edge6" class="edge">
<title>Node4&#45;&gt;Node6</title>
<path fill="none" stroke="#191970" d="M213.7618,-168.2455C202.319,-159.814 185.5704,-147.4729 172.2525,-137.6598"/>
<polygon fill="#191970" stroke="#191970" points="174.2133,-134.757 164.0865,-131.6427 170.0609,-140.3924 174.2133,-134.757"/>
</g>
<!-- Node7 -->
<g id="node8" class="node">
<title>Node7</title>
<g id="a_node8"><a xlink:href="parameters_8h.html" target="_top" xlink:title="parameters.h">
<polygon fill="#ffffff" stroke="#000000" points="190,-112.5 190,-131.5 264,-131.5 264,-112.5 190,-112.5"/>
<text text-anchor="middle" x="227" y="-119.5" font-family="Helvetica,sans-Serif" font-size="10.00" fill="#000000">parameters.h</text>
</a>
</g>
</g>
<!-- Node4&#45;&gt;Node7 -->
<g id="edge7" class="edge">
<title>Node4&#45;&gt;Node7</title>
<path fill="none" stroke="#191970" d="M227,-168.2455C227,-160.9382 227,-150.6944 227,-141.7046"/>
<polygon fill="#191970" stroke="#191970" points="230.5001,-141.6426 227,-131.6427 223.5001,-141.6427 230.5001,-141.6426"/>
</g>
<!-- Node10 -->
<g id="node11" class="node">
<title>Node10</title>
<g id="a_node11"><a xlink:href="data_8h.html" target="_top" xlink:title="data.h">
<polygon fill="#ffffff" stroke="#000000" points="283,-112.5 283,-131.5 327,-131.5 327,-112.5 283,-112.5"/>
<text text-anchor="middle" x="305" y="-119.5" font-family="Helvetica,sans-Serif" font-size="10.00" fill="#000000">data.h</text>
</a>
</g>
</g>
<!-- Node4&#45;&gt;Node10 -->
<g id="edge12" class="edge">
<title>Node4&#45;&gt;Node10</title>
<path fill="none" stroke="#191970" d="M235.3197,-168.2455C245.6282,-159.6534 262.9836,-147.0014 277.8971,-137.1018"/>
<polygon fill="#191970" stroke="#191970" points="279.8342,-140.0172 286.324,-131.6427 276.0282,-134.1423 279.8342,-140.0172"/>
</g>
<!-- Node7&#45;&gt;Node5 -->
<g id="edge9" class="edge">
<title>Node7&#45;&gt;Node5</title>
<path fill="none" stroke="#191970" d="M200.399,-112.397C184.4127,-105.0839 165.4002,-93.291 156,-76 146.5411,-58.601 161.4156,-39.4517 175.8247,-26.2819"/>
<polygon fill="#191970" stroke="#191970" points="178.2871,-28.7819 183.6244,-19.6296 173.7446,-23.4559 178.2871,-28.7819"/>
</g>
<!-- Node8 -->
<g id="node9" class="node">
<title>Node8</title>
<polygon fill="#ffffff" stroke="#bfbfbf" points="165,-56.5 165,-75.5 217,-75.5 217,-56.5 165,-56.5"/>
<text text-anchor="middle" x="191" y="-63.5" font-family="Helvetica,sans-Serif" font-size="10.00" fill="#000000">memory</text>
</g>
<!-- Node7&#45;&gt;Node8 -->
<g id="edge8" class="edge">
<title>Node7&#45;&gt;Node8</title>
<path fill="none" stroke="#191970" d="M220.7293,-112.2455C215.7736,-104.5367 208.717,-93.5598 202.7224,-84.2348"/>
<polygon fill="#191970" stroke="#191970" points="205.5506,-82.1618 197.1989,-75.6427 199.6624,-85.9471 205.5506,-82.1618"/>
</g>
<!-- Node9 -->
<g id="node10" class="node">
<title>Node9</title>
<g id="a_node10"><a xlink:href="loss_8h.html" target="_top" xlink:title="loss.h">
<polygon fill="#ffffff" stroke="#000000" points="235.5,-56.5 235.5,-75.5 278.5,-75.5 278.5,-56.5 235.5,-56.5"/>
<text text-anchor="middle" x="257" y="-63.5" font-family="Helvetica,sans-Serif" font-size="10.00" fill="#000000">loss.h</text>
</a>
</g>
</g>
<!-- Node7&#45;&gt;Node9 -->
<g id="edge10" class="edge">
<title>Node7&#45;&gt;Node9</title>
<path fill="none" stroke="#191970" d="M232.2256,-112.2455C236.3123,-104.617 242.1135,-93.7881 247.075,-84.5267"/>
<polygon fill="#191970" stroke="#191970" points="250.1972,-86.1103 251.8343,-75.6427 244.0268,-82.8047 250.1972,-86.1103"/>
</g>
<!-- Node9&#45;&gt;Node5 -->
<g id="edge11" class="edge">
<title>Node9&#45;&gt;Node5</title>
<path fill="none" stroke="#191970" d="M246.5488,-56.2455C237.7731,-48.0549 225.0446,-36.1749 214.686,-26.5069"/>
<polygon fill="#191970" stroke="#191970" points="217.0301,-23.9072 207.3314,-19.6427 212.2539,-29.0246 217.0301,-23.9072"/>
</g>
<!-- Node10&#45;&gt;Node4 -->
<g id="edge15" class="edge">
<title>Node10&#45;&gt;Node4</title>
<path fill="none" stroke="#191970" d="M296.8143,-131.6427C286.5672,-140.1994 269.232,-152.8456 254.2975,-162.769"/>
<polygon fill="#191970" stroke="#191970" points="252.3388,-159.8676 245.8534,-168.2455 256.1479,-165.7405 252.3388,-159.8676"/>
</g>
<!-- Node10&#45;&gt;Node5 -->
<g id="edge13" class="edge">
<title>Node10&#45;&gt;Node5</title>
<path fill="none" stroke="#191970" d="M304.7469,-112.3902C303.9029,-98.4812 300.4803,-72.5925 287,-56 272.2068,-37.7915 248.3182,-26.0555 228.8691,-18.9978"/>
<polygon fill="#191970" stroke="#191970" points="229.769,-15.6076 219.1748,-15.724 227.5293,-22.2396 229.769,-15.6076"/>
</g>
<!-- Node11 -->
<g id="node12" class="node">
<title>Node11</title>
<polygon fill="#ffffff" stroke="#bfbfbf" points="335,-56.5 335,-75.5 365,-75.5 365,-56.5 335,-56.5"/>
<text text-anchor="middle" x="350" y="-63.5" font-family="Helvetica,sans-Serif" font-size="10.00" fill="#000000">set</text>
</g>
<!-- Node10&#45;&gt;Node11 -->
<g id="edge14" class="edge">
<title>Node10&#45;&gt;Node11</title>
<path fill="none" stroke="#191970" d="M312.8384,-112.2455C319.162,-104.3761 328.2224,-93.101 335.8136,-83.6542"/>
<polygon fill="#191970" stroke="#191970" points="338.7158,-85.6302 342.2514,-75.6427 333.2592,-81.2454 338.7158,-85.6302"/>
</g>
</g>
</svg>
